<?xml version="1.0" standalone="no"?>
<!DOCTYPE svg PUBLIC "-//W3C//DTD SVG 20010904//EN"
 "http://www.w3.org/TR/2001/REC-SVG-20010904/DTD/svg10.dtd">
<svg version="1.0" xmlns="http://www.w3.org/2000/svg"
 width="512.000000pt" height="512.000000pt" viewBox="0 0 512.000000 512.000000"
 preserveAspectRatio="xMidYMid meet">

<g transform="translate(0.000000,512.000000) scale(0.100000,-0.100000)"
fill="#F40F02" stroke="none">
<path d="M2230 5036 c-161 -29 -268 -139 -320 -328 -86 -312 -7 -819 205
-1314 l43 -102 -77 -214 c-177 -483 -329 -838 -549 -1277 l-117 -234 -150 -62
c-330 -134 -526 -234 -745 -380 -160 -107 -276 -208 -362 -315 -125 -153 -172
-284 -150 -415 26 -159 118 -255 290 -301 76 -20 249 -20 326 0 329 90 673
397 1014 909 92 137 203 319 246 404 24 48 27 50 123 86 248 92 624 192 1014
272 l222 45 33 -28 c18 -15 66 -55 108 -90 246 -204 609 -380 911 -441 251
-50 484 -33 641 47 59 30 128 109 154 178 19 46 24 79 24 154 1 115 -11 159
-66 240 -110 165 -362 271 -713 300 -185 15 -535 -4 -865 -49 l-135 -18 -73
78 c-201 215 -384 441 -505 622 -75 113 -147 246 -147 271 0 9 16 61 34 116
99 283 174 690 192 1035 24 475 -161 782 -491 818 -27 3 -79 0 -115 -7z m132
-298 c38 -44 43 -77 43 -278 0 -136 -6 -203 -23 -300 -27 -156 -93 -440 -102
-440 -9 0 -66 234 -91 375 -26 145 -37 421 -20 510 30 160 118 221 193 133z
m327 -2318 c36 -47 108 -136 160 -199 53 -62 109 -128 124 -146 33 -39 49 -31
-148 -75 -189 -42 -349 -83 -538 -136 -88 -25 -163 -44 -168 -42 -5 2 7 37 27
78 73 153 161 368 326 800 8 22 14 17 81 -85 40 -61 101 -148 136 -195z m1726
-549 c94 -25 161 -63 192 -110 29 -43 29 -75 1 -131 -57 -112 -221 -128 -473
-45 -152 50 -345 148 -477 242 l-52 38 69 8 c175 20 294 25 470 22 155 -2 205
-7 270 -24z m-3276 -763 c-342 -510 -666 -807 -802 -737 -76 39 -85 87 -34
182 62 119 240 273 476 415 103 62 376 202 393 202 5 0 -10 -28 -33 -62z"/>
</g>
</svg>
