<?xml version="1.0" standalone="no"?>
<!DOCTYPE svg PUBLIC "-//W3C//DTD SVG 20010904//EN"
 "http://www.w3.org/TR/2001/REC-SVG-20010904/DTD/svg10.dtd">
<svg version="1.0" xmlns="http://www.w3.org/2000/svg"
 width="512.000000pt" height="512.000000pt" viewBox="0 0 512.000000 512.000000"
 preserveAspectRatio="xMidYMid meet">

<g transform="translate(0.000000,512.000000) scale(0.100000,-0.100000)"
fill="#CF96FD" stroke="none">
<path d="M1452 3693 c-5 -16 -192 -526 -416 -1136 -223 -609 -406 -1109 -406
-1112 0 -3 132 -4 292 -3 l293 3 64 208 65 207 377 0 378 0 15 -52 c9 -29 38
-123 64 -208 l49 -155 296 -3 297 -2 -19 47 c-10 27 -200 540 -421 1141 l-403
1092 -258 0 -257 0 -10 -27z m387 -1001 c63 -202 116 -375 119 -384 4 -17 -12
-18 -237 -18 -132 0 -241 3 -241 7 0 15 234 763 239 763 3 0 57 -165 120 -368z"/>
<path d="M3545 3145 c-167 -32 -286 -94 -402 -210 -69 -70 -89 -98 -131 -186
-81 -167 -97 -246 -96 -479 0 -167 3 -206 21 -271 77 -277 283 -481 565 -559
109 -30 257 -42 373 -30 133 14 200 33 322 91 83 40 118 64 179 123 l77 74
-113 133 c-63 74 -117 138 -121 143 -5 5 -30 -11 -59 -38 -122 -114 -329 -156
-495 -99 -71 24 -164 119 -193 196 -12 32 -22 64 -22 72 0 13 71 15 526 15
l527 0 -7 173 c-4 94 -14 210 -22 256 -54 309 -263 531 -556 592 -109 22 -268
24 -373 4z m278 -406 c47 -13 102 -61 128 -111 11 -22 23 -70 26 -109 l6 -69
-268 0 -268 0 7 42 c16 101 78 197 149 233 56 28 150 34 220 14z"/>
</g>
</svg>
