<?xml version="1.0" standalone="no"?>
<!DOCTYPE svg PUBLIC "-//W3C//DTD SVG 20010904//EN"
 "http://www.w3.org/TR/2001/REC-SVG-20010904/DTD/svg10.dtd">
<svg version="1.0" xmlns="http://www.w3.org/2000/svg"
 width="512.000000pt" height="512.000000pt" viewBox="0 0 512.000000 512.000000"
 preserveAspectRatio="xMidYMid meet">

<g transform="translate(0.000000,512.000000) scale(0.100000,-0.100000)"
fill="#9A8FA6" stroke="none">
<path d="M3603 3734 c-61 -22 -128 -86 -150 -142 -72 -190 76 -365 296 -350
149 11 247 92 266 220 15 102 -42 210 -139 260 -54 29 -210 35 -273 12z"/>
<path d="M1933 3633 c-4 -10 -192 -522 -418 -1138 l-411 -1120 290 -3 c159 -1
291 0 293 2 3 3 33 96 67 208 l63 203 379 0 379 0 64 -207 65 -208 293 0 c161
0 293 3 293 8 0 4 -188 516 -418 1137 l-418 1130 -257 3 c-238 2 -258 1 -264
-15z m385 -1023 c67 -212 119 -386 118 -388 -2 -1 -111 -1 -243 0 l-239 3 63
205 c130 424 176 570 179 568 1 -2 56 -176 122 -388z"/>
<path d="M3460 2215 l0 -845 265 0 265 0 0 845 0 845 -265 0 -265 0 0 -845z"/>
</g>
</svg>
