<svg width="400" height="400" version="1.1" xmlns="http://www.w3.org/2000/svg" desc="Created with imagetracer.js version 1.2.6" ><path fill="rgb(0,0,0)" stroke="rgb(0,0,0)" stroke-width="1" opacity="0" d="M 0 0 L 400 0 L 400 400 L 0 400 L 0 0 Z M 199 39 L 51 105 L 51 113 L 52 114 L 52 128 L 53 129 L 53 144 L 54 145 L 54 159 L 55 160 L 55 175 L 56 176 L 56 190 L 57 191 L 58 221 L 59 222 L 60 252 L 61 253 L 62 283 L 116 313 L 127 321 L 199 361 L 202 361 L 336 285 L 338 283 L 339 253 L 340 252 L 341 222 L 342 221 L 343 191 L 344 190 L 344 176 L 345 175 L 345 160 L 346 159 L 346 145 L 347 144 L 347 129 L 348 128 L 348 113 L 349 112 L 349 105 L 209 42 L 199 39 Z " /><path fill="rgb(245,197,235)" stroke="rgb(245,197,235)" stroke-width="1" opacity="0.9882352941176471" d="M 159.5 231 L 160.5 232 L 239.5 232 L 241 231.5 L 240.5 233 L 159 233 L 159.5 231 Z " /><path fill="rgb(245,197,235)" stroke="rgb(245,197,235)" stroke-width="1" opacity="0.9882352941176471" d="M 138.5 280 L 262 280.5 L 138 281 L 137.5 283 L 137 281.5 L 138.5 280 Z " /><path fill="rgb(255,255,255)" stroke="rgb(255,255,255)" stroke-width="1" opacity="0.996078431372549" d="M 198.5 39 L 201.5 39 L 235 54.5 L 233.5 55 L 201.5 40 L 198.5 40 L 165.5 55 L 165.5 54 L 198.5 39 Z " /><path fill="rgb(255,255,255)" stroke="rgb(255,255,255)" stroke-width="1" opacity="0.996078431372549" d="M 338.5 265 L 339 267.5 L 338 267.5 L 338.5 265 Z " /><path fill="rgb(255,255,255)" stroke="rgb(255,255,255)" stroke-width="1" opacity="0.996078431372549" d="M 337.5 269 L 338 282.5 L 277.5 317 L 277.5 316 L 337 283 L 337.5 269 Z " /><path fill="rgb(255,255,255)" stroke="rgb(255,255,255)" stroke-width="1" opacity="0.996078431372549" d="M 62.5 270 L 63 283 L 123 316.5 L 121.5 317 L 62 282.5 L 62.5 270 Z " /><path fill="rgb(246,47,192)" stroke="rgb(246,47,192)" stroke-width="1" opacity="0.984313725490196" d="M 162.5 55 Q 164.8 54.3 164 56.5 L 76 242 L 73.5 242 L 69 246.5 Q 69.8 249.1 66.5 248 L 65 251 L 62 252.5 L 61.5 258 L 60 250.5 L 60 248.5 L 59 220.5 L 58 219.5 L 58 217.5 L 56 174.5 L 55 173.5 L 55 158.5 L 54 157.5 L 54 143.5 L 53 142.5 L 53 140.5 L 53 127.5 L 52 126.5 L 52 113.5 L 51 112.5 L 51 105 L 162.5 55 Z " /><path fill="rgb(246,47,192)" stroke="rgb(246,47,192)" stroke-width="1" opacity="0.984313725490196" d="M 236 55 L 265 67.5 L 262.5 68 L 260.5 67 L 261 68.5 L 256 78.5 Q 258.5 80 255 81.5 L 254 83.5 L 255 86 L 253 86 Q 254.3 90.1 251 89 L 251 86.5 L 236 55 Z " /><path fill="rgb(246,47,192)" stroke="rgb(246,47,192)" stroke-width="1" opacity="0.984313725490196" d="M 199 138 Q 201.7 136.9 201 139.5 L 230 207.5 L 229 207.5 L 228 204 Q 225.3 205.1 226 202.5 L 224 202.5 L 221.5 199 Q 219.3 199.8 220 197.5 Q 218.8 194.3 215 195 L 212.5 191 L 210 189.5 Q 210.8 187.3 208.5 188 Q 207.3 185.8 206 188.5 L 205.5 190 L 204.5 188 L 201 190.5 L 202 187.5 L 200.5 186 L 198.5 190 L 196 189 L 195.5 191 L 192.5 189 L 191.5 191 L 189.5 191 L 186.5 193 L 185.5 192 Q 183.8 195.1 182 193.5 Q 182.8 195.8 180.5 195 L 177 194 Q 178 197 175 196 L 199 138 Z " /><path fill="rgb(246,47,192)" stroke="rgb(246,47,192)" stroke-width="1" opacity="0.984313725490196" d="M 61.5 259 L 62 261.5 L 61 261.5 L 61.5 259 Z " /><path fill="rgb(246,47,192)" stroke="rgb(246,47,192)" stroke-width="1" opacity="0.984313725490196" d="M 61.5 263 L 62 265.5 L 61 265.5 L 61.5 263 Z " /><path fill="rgb(255,255,255)" stroke="rgb(255,255,255)" stroke-width="1" opacity="1" d="M 198.5 40 L 201.5 40 L 236 56.5 L 333 259.5 L 337 268.5 L 337 283 L 277.5 316 L 262 280 L 138.5 280 L 137 281.5 L 123 316 L 63 283 L 63 268.5 L 64 265.5 L 165.5 55 L 198.5 40 Z M 199 137 L 159 232 L 160 233 L 241 233 L 201 139 Q 202 136 199 137 Z " /><path fill="rgb(149,22,237)" stroke="rgb(149,22,237)" stroke-width="1" opacity="0.9882352941176471" d="M 260.5 67 L 273.5 71 L 349 105 L 349 111.5 L 348 112.5 L 348 126.5 L 347 127.5 L 347 141.5 L 346 142.5 L 345 172.5 L 344 173.5 L 344 187.5 L 343 188.5 L 343 201.5 L 342 202.5 L 340 247.5 L 339 248.5 L 339 260.5 L 338 261.5 L 339 263.5 L 337.5 269 L 252 89.5 L 253 86 Q 255.7 87.1 255 84.5 L 253 84.5 L 256 80.5 Q 253.5 79 257 77.5 Q 257.3 71.3 261 68.5 L 260.5 67 Z " /><path fill="rgb(242,12,85)" stroke="rgb(242,12,85)" stroke-width="1" opacity="0.9882352941176471" d="M 138 281 L 219.5 281 Q 218.9 283.8 222 283 L 222 285 L 224 285 L 224 287.5 L 230 296.5 L 246 334 L 248 334.5 L 201.5 361 L 198.5 361 L 122 317.5 L 124 317 L 138 281 Z " /><path fill="rgb(225,19,137)" stroke="rgb(225,19,137)" stroke-width="1" opacity="0.9921568627450981" d="M 201.5 185 Q 199.8 187 203.5 189 L 205 188.5 L 205.5 190 L 207.5 187 L 210 188 L 211.5 191 L 214.5 193 L 216 192.5 L 215 195 Q 218.8 194.3 220 197.5 Q 219.3 199.8 221.5 199 L 224.5 203 L 226 202.5 L 228 205.5 L 240 231.5 L 160.5 232 L 161 230.5 L 175 196 Q 178 197 177 194 L 179.5 194 L 182 195 L 182.5 193 L 183.5 194 L 186.5 191 L 188.5 191 L 190 190.5 L 189.5 189 L 192 190.5 L 192.5 189 L 195.5 191 L 196 189 L 194 188.5 L 195.5 188 L 198 189 L 198.5 187 L 199.5 189 L 201.5 185 Z " /><path fill="rgb(225,19,137)" stroke="rgb(225,19,137)" stroke-width="1" opacity="0.9921568627450981" d="M 73.5 242 L 75 242.5 L 62.5 268 L 61 262.5 L 62 259.5 L 62 257.5 Q 60.8 252.3 63.5 251 Q 65.8 251.8 65 249.5 L 69 248 L 73.5 242 Z " /><path fill="rgb(225,19,137)" stroke="rgb(225,19,137)" stroke-width="1" opacity="0.9921568627450981" d="M 220 281 L 261.5 281 L 262 282.5 L 274 311.5 L 278 317.5 L 255.5 331 L 249.5 334 L 246 334 L 230 296.5 L 224 287.5 L 224 285 L 222 285 L 220 281 Z " /></svg>