<svg version="1.1" id="Layer_1" xmlns="http://www.w3.org/2000/svg" xmlns:xlink="http://www.w3.org/1999/xlink" x="0px" y="0px"
	width="100%" viewBox="0 0 699 699" enable-background="new 0 0 699 699" xml:space="preserve">
<path fill="#9A8FA6" opacity="1.000000" stroke="none" 
	d="
M365.268433,69.002213 
	C380.094543,68.069511 391.595551,74.254921 402.518829,82.882370 
	C422.090820,98.340775 442.111420,113.229874 461.868622,128.455383 
	C485.665588,146.794083 509.343658,165.287109 533.149292,183.614517 
	C549.527832,196.223969 566.219971,208.432220 582.437500,221.243149 
	C601.057251,235.951752 620.691711,249.504227 636.739441,267.252441 
	C653.168091,285.421906 666.478699,305.555481 676.188782,328.153473 
	C683.224915,344.528595 688.136292,361.487946 690.731201,378.978058 
	C693.198242,395.606018 694.767029,412.428192 691.103333,429.222351 
	C688.177063,442.636414 686.833618,456.564087 682.384888,469.433167 
	C677.336487,484.037109 670.222229,498.042694 662.897156,511.714233 
	C653.948730,528.415588 641.467651,542.614624 628.029419,555.916199 
	C608.798950,574.951111 586.703003,589.879456 562.240540,601.304077 
	C542.428894,610.556641 521.771729,617.179138 500.202545,621.066833 
	C480.069794,624.695618 459.755402,626.094238 439.444885,624.826111 
	C411.519226,623.082458 384.336792,617.417542 358.235779,606.775635 
	C336.179016,597.782654 315.500793,586.372803 297.165100,571.348022 
	C275.654663,553.721802 257.161530,533.209839 243.292480,508.792786 
	C234.168182,492.729126 226.851334,475.940155 222.623871,457.988068 
	C220.115295,447.335297 218.479523,436.430542 217.227432,425.549774 
	C216.677872,420.774170 218.071274,415.776489 218.568237,410.878174 
	C218.740906,409.176270 218.870743,407.470032 219.102737,404.823730 
	C206.733810,414.951172 195.201096,424.422638 183.636734,433.855286 
	C169.496475,445.388947 155.292999,456.845398 141.185577,468.418976 
	C129.225571,478.230835 117.490303,488.320374 105.420029,497.993103 
	C94.554405,506.700470 84.809715,517.106323 71.694008,522.597778 
	C55.570374,529.348694 39.472912,531.210632 23.921890,520.524902 
	C9.742617,510.781769 4.930220,492.846252 10.694611,476.415802 
	C16.705400,459.282928 29.522402,448.686401 43.150452,438.398804 
	C61.221645,424.757050 79.200050,410.992462 97.221619,397.284943 
	C113.674004,384.771027 130.167236,372.310486 146.576035,359.739655 
	C165.732712,345.063660 184.780716,330.245728 203.945038,315.579773 
	C218.795959,304.214752 233.793549,293.041443 248.648483,281.681610 
	C257.995270,274.533966 267.199188,267.199402 277.679749,259.000061 
	C274.591034,259.000061 272.863068,259.000061 271.135101,259.000061 
	C226.640900,259.000061 182.146027,259.136963 137.652847,258.922699 
	C122.921936,258.851746 107.569832,248.721497 106.314659,231.475632 
	C105.934578,226.253372 107.963646,220.337234 110.433022,215.532333 
	C115.845192,205.001373 125.023201,197.967911 136.052155,194.275070 
	C143.391342,191.817703 151.394791,190.201462 159.107254,190.176666 
	C245.928391,189.897461 332.750763,189.999908 419.572784,189.999863 
	C421.354919,189.999847 423.137085,189.999863 425.914124,189.999863 
	C416.797516,182.595825 408.437500,175.811966 400.083801,169.020294 
	C390.134094,160.931046 380.186707,152.838898 370.244080,144.740921 
	C360.552460,136.847366 351.027832,128.737320 341.125610,121.117798 
	C334.283722,115.853165 329.186249,109.511055 328.250732,100.945587 
	C327.577301,94.779739 330.279968,89.101944 334.262970,84.246872 
	C340.953705,76.091248 349.763580,71.747391 360.002747,69.977943 
	C361.612549,69.699760 363.206665,69.330734 365.268433,69.002213 
M536.072083,498.599701 
	C551.482910,488.976562 564.625854,476.941437 575.544983,462.366364 
	C607.390564,419.858185 607.445129,359.830170 575.674072,317.543640 
	C551.441650,285.290863 519.071594,266.342346 479.531189,260.624176 
	C428.335632,253.220459 382.980621,266.463684 346.169250,303.708557 
	C321.002686,329.171509 308.637115,360.362823 310.447906,396.366852 
	C312.289673,432.986847 328.774841,462.566956 356.315948,486.152191 
	C380.334259,506.720581 408.522156,517.752319 439.845917,520.564270 
	C473.951141,523.625916 506.005829,516.925293 536.072083,498.599701 
z"/>
<path fill="#9A8FA6" opacity="1.000000" stroke="none" 
	d="
M386.457886,439.538025 
	C351.021484,402.410828 356.336090,347.638733 397.972961,318.048431 
	C440.000244,288.180634 500.190826,296.058655 530.483276,335.391998 
	C556.234070,368.828186 552.169800,414.201752 520.867432,442.744720 
	C483.281769,477.017059 422.606354,475.679474 386.457886,439.538025 
z"/>
</svg>