<?xml version="1.0" standalone="no"?>
<!DOCTYPE svg PUBLIC "-//W3C//DTD SVG 20010904//EN"
 "http://www.w3.org/TR/2001/REC-SVG-20010904/DTD/svg10.dtd">
<svg version="1.0" xmlns="http://www.w3.org/2000/svg"
 width="512.000000pt" height="512.000000pt" viewBox="0 0 512.000000 512.000000"
 preserveAspectRatio="xMidYMid meet">

<g transform="translate(0.000000,512.000000) scale(0.100000,-0.100000)"
fill="#9A8FA6" stroke="none">
<path d="M1745 4675 c-306 -69 -540 -281 -637 -575 -26 -81 -31 -114 -35 -225
-9 -245 62 -441 224 -616 l55 -59 -55 -59 c-151 -164 -227 -357 -227 -581 0
-224 76 -417 227 -581 l55 -59 -55 -59 c-151 -164 -227 -357 -227 -581 0 -237
82 -433 249 -601 179 -178 378 -255 636 -246 113 3 143 8 225 36 139 47 230
102 330 201 100 99 158 183 201 295 54 139 59 180 59 532 l0 322 63 -29 c140
-63 198 -75 372 -75 154 0 163 2 255 33 140 49 230 104 330 202 178 175 260
367 260 610 0 224 -76 417 -227 581 l-55 59 55 59 c151 164 227 357 227 581 0
121 -16 203 -59 315 -43 112 -101 196 -201 295 -99 98 -189 153 -330 202 l-95
33 -780 2 c-628 1 -792 -1 -840 -12z m600 -835 l0 -425 -210 -3 c-115 -1 -239
2 -273 7 -188 29 -332 172 -363 360 -28 176 73 366 236 442 90 42 129 47 385
45 l225 -1 0 -425z m919 420 c184 -30 327 -174 357 -359 28 -176 -73 -366
-235 -442 -89 -42 -160 -50 -401 -47 l-210 3 -3 415 c-1 228 0 421 3 427 6 16
398 18 489 3z m-919 -1700 l0 -425 -210 -3 c-115 -1 -239 2 -273 7 -188 29
-332 172 -363 360 -28 176 73 366 236 442 90 42 129 47 385 45 l225 -1 0 -425z
m1001 399 c111 -42 190 -115 239 -222 118 -257 -42 -552 -324 -598 -225 -36
-444 127 -482 360 -28 176 73 366 236 442 110 52 223 58 331 18z m-998 -1464
c3 -241 -5 -312 -47 -401 -76 -162 -266 -263 -442 -235 -186 30 -330 174 -360
360 -28 176 73 366 236 442 90 42 129 47 385 45 l225 -1 3 -210z"/>
</g>
</svg>
