<svg version="1.1" id="Layer_1" xmlns="http://www.w3.org/2000/svg" xmlns:xlink="http://www.w3.org/1999/xlink" x="0px" y="0px"
	 width="100%" viewBox="0 0 360 360" enable-background="new 0 0 360 360" xml:space="preserve">
<path fill="#09CF83" opacity="1.000000" stroke="none" 
	d="
M165.189911,317.784180 
	C163.060394,319.464996 161.117020,320.901031 158.672775,322.710083 
	C152.125885,325.436005 146.079865,327.788910 140.033829,330.141785 
	C139.846802,330.124420 139.659760,330.107086 139.229614,330.232117 
	C127.519279,332.326965 116.790184,330.152985 106.050430,324.286499 
	C96.646271,318.611511 89.849785,311.450623 85.515915,301.643066 
	C83.886360,295.555237 82.366386,289.798676 80.911430,283.593567 
	C81.265869,279.091888 81.555290,275.038757 81.920570,270.610931 
	C84.371986,264.500916 86.747543,258.765533 89.401390,252.916122 
	C90.359131,251.840744 91.038582,250.879410 91.916916,249.642975 
	C94.438446,246.954849 96.761093,244.541809 99.416321,242.045486 
	C101.817177,240.526962 103.885452,239.091721 106.282402,237.556473 
	C112.931046,235.248871 119.251015,233.041260 126.062469,230.901154 
	C144.649933,230.981796 162.745895,230.994949 180.907990,231.460052 
	C181.037918,234.947449 181.101715,237.982925 181.094818,241.478516 
	C181.071304,246.620071 181.118439,251.301483 181.096466,256.445618 
	C181.073395,261.611755 181.119446,266.315125 181.094803,271.479492 
	C181.013046,276.967194 181.001999,281.993927 180.732315,287.263885 
	C180.363083,288.682220 180.252502,289.857361 180.004242,291.382996 
	C178.027237,296.486633 176.187897,301.239777 174.158173,306.289612 
	C171.948959,309.375366 169.930099,312.164429 167.911224,314.953461 
	C167.066147,315.815460 166.221100,316.677429 165.189911,317.784180 
z"/>
<path fill="#F34D1D" opacity="1.000000" stroke="none" 
	d="
M114.064430,33.694672 
	C116.447105,33.117435 118.829781,32.540199 121.600975,31.834820 
	C126.361183,31.462011 130.732864,31.217346 135.560074,30.903255 
	C140.698334,30.881271 145.381058,30.928715 150.524139,30.904991 
	C155.686401,30.880260 160.388306,30.926697 165.552917,30.903481 
	C170.713409,30.883886 175.411224,30.933945 180.575851,30.937004 
	C181.042664,30.890009 180.867950,30.975695 180.919495,31.527340 
	C180.925919,65.011955 180.880798,97.944931 180.386963,130.929001 
	C161.921234,130.999374 143.904221,131.018646 125.544067,130.866776 
	C119.789978,129.164825 114.379021,127.634033 108.680969,125.913231 
	C105.320419,123.782288 102.246956,121.841362 99.029587,119.605087 
	C97.256386,117.875870 95.627083,116.441994 93.934662,114.741592 
	C93.453712,114.169067 93.035881,113.863068 92.596512,113.538483 
	C92.574982,113.519890 92.579308,113.463165 92.446732,113.154404 
	C90.632866,110.514816 88.951576,108.183983 87.197388,105.495056 
	C85.621140,101.401398 84.117790,97.665825 82.504539,93.497765 
	C82.136887,86.065804 81.879120,79.066330 81.784912,71.752892 
	C82.929787,67.956657 83.911102,64.474396 85.082298,60.697445 
	C87.563889,56.627258 89.855606,52.851761 92.442093,48.924522 
	C97.200478,44.938232 101.664085,41.103683 106.476250,37.192429 
	C109.238022,35.975372 111.651222,34.835022 114.064430,33.694672 
z"/>
<path fill="#FF7262" opacity="1.000000" stroke="none" 
	d="
M253.609085,37.042053 
	C257.221069,39.146721 260.505249,41.132092 263.709351,43.239235 
	C269.812073,47.252636 272.970184,53.468769 276.298737,60.336899 
	C278.165894,66.218056 279.660431,71.581100 281.092499,77.395882 
	C280.641174,82.214096 280.252258,86.580566 279.553467,91.176292 
	C277.846313,95.966064 276.448975,100.526581 274.795105,105.289757 
	C273.125763,107.698067 271.712952,109.903702 270.085327,112.372688 
	C267.286224,115.189224 264.701965,117.742409 261.810883,120.404922 
	C259.365356,122.025879 257.226624,123.537506 254.734802,125.124207 
	C249.084595,127.144897 243.787476,129.090530 238.054871,131.069153 
	C229.284500,131.456894 220.949585,131.811646 212.239243,132.056122 
	C206.569641,131.685593 201.275467,131.425308 195.520355,131.099060 
	C190.379990,131.096191 185.700562,131.159317 180.954712,131.147110 
	C180.888260,131.071777 180.835678,130.877899 180.835678,130.877899 
	C180.880798,97.944931 180.925919,65.011955 180.940216,31.622410 
	C185.636932,31.098372 190.364456,31.030912 195.556213,30.899776 
	C200.699692,30.879860 205.378952,30.923620 210.518906,30.901735 
	C215.683716,30.878590 220.387833,30.921091 225.555847,30.900196 
	C230.769272,31.147091 235.644104,30.898247 240.232681,31.926680 
	C244.722015,32.932873 248.919525,35.241058 253.609085,37.042053 
z"/>
<path fill="#A258FF" opacity="1.000000" stroke="none" 
	d="
M125.887199,131.037933 
	C143.904221,131.018646 161.921234,130.999374 180.386963,130.929001 
	C180.835678,130.877899 180.888260,131.071777 180.946045,131.544037 
	C181.056473,133.336227 181.109116,134.656128 181.100128,136.440582 
	C181.078354,141.609436 181.118240,146.313751 181.094360,151.481735 
	C181.068344,158.953247 181.106064,165.961121 181.090393,173.435318 
	C181.356888,180.873352 181.676773,187.845047 181.661957,195.103607 
	C181.270065,200.600937 181.212875,205.811432 181.095123,211.483017 
	C181.077179,216.622223 181.119751,221.300323 181.102386,226.395386 
	C180.975586,228.210938 180.908722,229.609512 180.841858,231.008102 
	C162.745895,230.994949 144.649933,230.981796 125.793411,230.699539 
	C110.997086,229.029388 100.125504,221.958923 91.086510,211.366226 
	C90.906212,211.030151 90.727364,210.927475 90.350861,210.574158 
	C87.787010,205.494156 85.371002,200.751389 82.965691,195.598312 
	C82.265060,190.449982 81.553734,185.711945 80.903748,180.530182 
	C81.793777,175.077454 82.622467,170.068451 83.662598,164.794418 
	C86.046799,160.085800 88.219582,155.642227 90.572182,151.108566 
	C90.973557,150.851166 91.123177,150.634262 91.472023,150.161682 
	C97.244652,145.556641 102.324318,140.413651 108.375023,136.983566 
	C113.642982,133.997208 120.007324,132.944870 125.887199,131.037933 
z"/>
<path fill="#1ABCFF" opacity="1.000000" stroke="none" 
	d="
M181.996643,194.816742 
	C181.676773,187.845047 181.356888,180.873352 181.398163,173.221100 
	C184.501419,165.682602 187.243515,158.824661 190.244385,151.762085 
	C192.699768,149.051926 194.896362,146.546432 197.390167,143.892944 
	C200.781052,141.481827 203.874756,139.218674 207.323349,136.925934 
	C209.323730,135.319687 210.969208,133.743042 212.614685,132.166382 
	C220.949585,131.811646 229.284500,131.456894 238.441101,131.222382 
	C251.628418,134.137314 262.169983,139.986069 270.370300,150.144409 
	C270.967682,150.929214 271.491821,151.447220 272.103333,152.300812 
	C274.476227,157.084549 276.761688,161.532684 279.033936,166.393158 
	C279.734192,171.542938 280.447723,176.280380 281.095703,181.456360 
	C280.371124,186.597534 279.712097,191.300201 278.793793,196.246246 
	C276.061188,201.366547 273.587860,206.243439 270.837006,211.299210 
	C263.061096,221.443619 252.794983,227.027603 240.566986,230.115814 
	C235.102936,230.398300 230.053314,230.726776 224.721283,230.806885 
	C219.952560,229.388184 215.466202,228.217880 210.739685,226.842499 
	C209.706650,226.403152 208.913788,226.168869 207.960236,225.632477 
	C203.880493,222.518280 199.961472,219.706192 195.892883,216.603195 
	C193.816467,214.217575 191.889618,212.122833 189.878220,209.685516 
	C187.194656,204.500870 184.595657,199.658813 181.996643,194.816742 
z"/>
</svg>