<svg version="1.1" id="Layer_1" xmlns="http://www.w3.org/2000/svg" xmlns:xlink="http://www.w3.org/1999/xlink" x="0px" y="0px"
	width="100%" viewBox="0 0 512 512" enable-background="new 0 0 512 512" xml:space="preserve">
<path fill="#24292e" opacity="1.000000" stroke="none" 
	d="
M513.000000,285.531342 
	C512.333801,289.390442 511.694366,292.786407 510.996643,296.170380 
	C508.003723,310.686646 505.823853,325.433929 501.804077,339.660919 
	C495.002045,363.735107 483.873322,385.952820 470.049866,406.840088 
	C457.518036,425.775665 442.691101,442.825897 425.622253,457.576385 
	C401.698639,478.250580 375.093872,494.882050 344.835602,505.013672 
	C341.512054,506.126526 338.171143,507.408081 334.735229,507.921356 
	C326.246979,509.189270 319.878998,503.206970 319.944397,493.546631 
	C320.111328,468.884399 320.240112,444.217072 319.913025,419.558044 
	C319.705353,403.897095 315.367493,389.540649 303.747223,378.182861 
	C303.418854,377.861908 303.224304,377.404022 302.673431,376.559204 
	C309.543213,375.338593 316.193634,374.490356 322.672424,372.929810 
	C333.112183,370.415131 343.709900,368.165985 353.747009,364.465179 
	C367.373352,359.440979 379.445099,351.633911 389.642731,340.968109 
	C402.622498,327.392487 410.862854,311.303925 414.812408,293.223511 
	C417.162781,282.463867 417.415649,271.263153 419.059875,260.328125 
	C421.551025,243.760849 418.789459,227.773056 412.743256,212.596512 
	C409.041626,203.305099 403.643707,194.374725 397.441132,186.519058 
	C394.026398,182.194275 393.773804,178.804459 395.182373,174.608490 
	C401.943420,154.467896 398.196564,134.950867 391.801941,115.623680 
	C391.397278,114.400612 388.972443,113.196899 387.421692,113.106056 
	C376.289612,112.453964 365.934601,115.974777 356.153168,120.583389 
	C346.017700,125.358818 336.298370,131.086487 326.699951,136.898041 
	C322.990570,139.143967 319.593323,139.664963 315.550659,138.896317 
	C304.760864,136.844803 293.998932,134.482925 283.115723,133.133530 
	C272.691681,131.841064 262.093872,130.784454 251.635620,131.203079 
	C235.239075,131.859421 218.561432,132.490005 202.935043,137.861633 
	C192.747162,141.363754 186.262634,135.896790 179.026535,131.452744 
	C164.953445,122.809769 150.174973,115.985550 133.817230,113.093132 
	C130.907715,112.578674 127.801933,112.771828 124.847336,113.133247 
	C123.815628,113.259445 122.370026,114.744003 122.126984,115.834183 
	C119.955711,125.573608 117.523338,135.294662 116.130119,145.157059 
	C114.579170,156.135895 115.793221,166.992813 119.610733,177.593048 
	C120.318214,179.557541 118.954475,183.053162 117.420731,184.914169 
	C106.090576,198.662003 98.560410,214.091797 96.055153,231.776215 
	C95.047272,238.890747 93.852806,246.128189 94.151306,253.250671 
	C95.076393,275.323975 97.664612,297.161224 107.786285,317.322021 
	C115.935387,333.553741 127.656105,346.538666 143.193329,356.014374 
	C159.525528,365.974915 177.407974,371.362793 196.228119,374.020721 
	C201.050186,374.701752 205.840485,375.607727 211.106354,376.487396 
	C208.399429,380.007019 204.929520,383.174866 203.162613,387.107788 
	C199.912888,394.341278 197.693512,402.035309 194.967224,409.509094 
	C194.587631,410.549652 193.982529,411.953705 193.120590,412.306183 
	C178.607788,418.241180 163.630859,420.588348 148.392288,415.896942 
	C133.885803,411.431030 125.227211,400.206360 117.284828,387.958252 
	C108.357033,374.190491 95.980728,364.936737 78.874718,364.144745 
	C75.571106,363.991791 72.180923,365.709076 67.185493,366.983276 
	C71.080971,371.097290 73.351730,374.827301 76.669090,376.772522 
	C92.551186,386.085541 101.155365,400.900024 107.927437,417.077942 
	C115.029984,434.045319 127.161201,445.256866 144.896545,449.906921 
	C152.513123,451.903961 160.419159,453.363922 168.259933,453.761505 
	C174.667801,454.086487 181.176697,452.492645 187.635132,451.703125 
	C189.563736,451.467407 191.473206,451.075378 194.000000,450.653290 
	C194.000000,461.701691 194.072556,472.316101 193.968536,482.928772 
	C193.918579,488.024353 194.184296,493.252045 193.156998,498.180145 
	C191.423447,506.496246 182.859344,510.752747 175.022766,507.468414 
	C162.460617,502.203613 149.798813,497.087769 137.613068,491.035309 
	C121.078369,482.822815 105.925224,472.360565 91.840210,460.368317 
	C72.334740,443.760986 55.606873,424.754333 41.670078,403.254028 
	C30.615301,386.199768 21.467405,368.168030 15.157632,348.886902 
	C10.771523,335.484039 7.553492,321.688629 4.099514,307.996521 
	C2.886527,303.188019 2.524813,298.164795 1.387194,293.119812 
	C1.000000,273.312439 1.000000,253.624878 1.378777,233.341721 
	C2.833945,227.372467 4.116651,222.030624 4.950862,216.619629 
	C8.482339,193.713287 15.960802,172.084442 25.996256,151.297562 
	C35.374073,131.872864 47.120800,114.042847 60.874001,97.339851 
	C72.878128,82.761070 86.407196,69.899010 101.247429,58.509232 
	C117.213577,46.255333 134.566620,36.184772 153.033081,27.842979 
	C181.378052,15.038801 211.117188,8.393822 241.875946,6.189977 
	C253.541992,5.354113 265.364532,6.592357 277.111023,7.016093 
	C293.075134,7.591971 308.547150,10.890143 324.000183,14.854156 
	C350.119293,21.554239 374.218231,32.597912 396.666870,47.270458 
	C417.976471,61.198536 436.970306,77.739578 453.240662,97.529129 
	C468.317078,115.866478 480.891083,135.566681 490.696075,157.166199 
	C501.158173,180.213257 508.145813,204.165573 511.033081,229.320709 
	C511.482635,233.237457 512.334290,237.108063 513.000000,241.000000 
	C513.000000,255.687561 513.000000,270.375122 513.000000,285.531342 
z"/>
</svg>