<svg version="1.1" id="Layer_1" xmlns="http://www.w3.org/2000/svg" xmlns:xlink="http://www.w3.org/1999/xlink" x="0px" y="0px"
	width="100%" viewBox="0 0 900 600" enable-background="new 0 0 900 600" xml:space="preserve">
<path fill="#9A8FA6" opacity="1.000000" stroke="none" 
	d="
M551.096924,520.553345 
	C547.926086,521.723877 544.865356,522.513977 541.410645,523.409912 
	C533.228394,526.065002 525.521851,525.457886 517.341248,522.654114 
	C516.215332,521.916443 515.613586,521.440796 515.011902,520.965088 
	C512.917175,520.606934 510.822479,520.248840 508.117157,519.614319 
	C506.342743,519.265198 505.178986,519.192444 504.015198,519.119690 
	C502.107300,518.498352 500.199432,517.877014 497.996460,517.004822 
	C497.617310,516.866333 497.533203,516.978638 497.449066,517.091003 
	C497.201599,517.102051 496.954102,517.113037 496.336609,517.090149 
	C495.966583,517.056213 495.997589,517.029358 495.891357,516.699463 
	C493.847473,515.870300 491.909821,515.370972 489.972198,514.871582 
	C488.591553,514.912903 487.210938,514.954224 485.415466,514.999390 
	C484.421722,514.345154 483.945984,513.263306 483.248169,513.093323 
	C474.081360,510.860382 464.867371,508.820343 455.706421,506.564850 
	C453.894989,506.118835 452.257080,504.968201 449.942505,504.077545 
	C448.898865,503.999390 448.451843,503.986176 447.926453,503.594666 
	C445.900360,502.862244 443.952698,502.508118 441.619812,502.085449 
	C439.501587,501.553741 437.768585,501.090607 435.712982,500.480591 
	C434.099274,500.149902 432.743958,500.156464 431.529236,499.746460 
	C427.978668,498.548035 424.484192,497.183380 420.559753,495.934143 
	C418.781219,495.981201 417.410675,495.977997 415.964020,495.596985 
	C415.278564,493.909668 414.230896,492.628540 414.143768,491.285126 
	C413.901978,487.556702 414.059875,483.802338 414.059875,479.649475 
	C412.863586,480.457428 412.472229,480.721741 412.079712,480.724060 
	C412.022644,480.296631 411.966797,480.131226 411.969666,479.503052 
	C411.311829,470.345856 410.595245,461.651337 409.944611,452.495270 
	C409.329834,444.083191 408.649109,436.132721 408.322968,428.002258 
	C417.936127,425.224640 427.167480,422.523987 436.463196,420.066772 
	C442.312531,418.520538 448.258331,417.339172 454.091858,416.450195 
	C454.022827,420.572052 454.022827,424.237793 454.022827,428.192993 
	C455.123566,427.551727 455.518768,427.321503 455.900696,427.535889 
	C455.978119,430.644043 456.068848,433.307617 456.091736,436.409210 
	C456.019470,445.687561 457.440399,447.331482 465.699341,448.019989 
	C466.524963,448.088806 467.402161,447.947144 468.175354,448.174927 
	C477.792542,451.008118 487.387451,453.916992 497.003662,456.753540 
	C503.354004,458.626770 509.714996,460.467316 516.098938,462.221680 
	C520.026550,463.300964 524.006409,464.190186 527.851685,465.460144 
	C528.493713,467.954803 529.698730,470.113464 529.900391,472.362152 
	C530.256165,476.328247 530.000000,480.349274 530.000000,484.347290 
	C530.000000,490.111328 530.000000,495.875397 530.000000,502.955292 
	C562.156006,494.199829 593.243164,485.735352 624.234924,477.296875 
	C625.137451,471.839020 626.311951,466.377319 626.903198,460.853149 
	C628.650146,444.529785 630.218323,428.186615 631.752625,411.841461 
	C632.594543,402.872467 633.172546,393.879028 633.967041,384.905212 
	C635.242371,370.501343 636.591431,356.103973 637.923584,341.705170 
	C638.580505,334.604767 637.387695,327.545898 639.659302,320.316772 
	C641.716003,313.771973 641.284973,306.442688 641.928650,299.457214 
	C642.882019,289.109253 643.975891,278.770813 644.713074,268.407227 
	C645.460266,257.903229 645.574158,247.349152 646.515015,236.866333 
	C646.934692,232.190613 645.837341,230.910889 641.079895,230.939926 
	C608.264038,231.140366 575.446228,231.045395 542.629089,231.045395 
	C530.000000,231.045395 530.000000,231.045395 530.000000,243.848892 
	C530.000000,250.770126 530.000000,257.691376 530.000000,265.047821 
	C559.906311,265.047821 588.970581,265.047821 618.034851,265.047821 
	C618.035095,265.364929 618.035278,265.682068 618.035522,265.999176 
	C616.246643,265.999176 614.457825,265.999176 612.668945,265.999176 
	C587.014893,265.999176 561.360840,265.980103 535.706909,266.037933 
	C533.795959,266.042236 531.886169,266.598358 529.525391,267.018005 
	C524.769714,267.164490 520.464539,267.190948 516.098755,266.766357 
	C517.040405,252.746628 517.978638,239.172699 519.077271,225.611771 
	C519.498474,220.411972 520.285950,215.241852 521.380615,210.038574 
	C540.458252,210.160950 559.061890,210.431351 577.665283,210.415543 
	C607.092590,210.390533 636.519836,210.124542 665.946838,210.164871 
	C667.645569,210.167206 669.341797,212.000885 670.892517,212.897491 
	C670.950378,212.710709 671.375549,211.338684 671.880554,210.231689 
	C672.016296,210.672607 672.072083,210.848495 672.051636,211.469803 
	C671.870178,215.117493 671.765015,218.319763 671.423218,221.845810 
	C670.832275,223.907257 670.307007,225.630066 670.154785,227.385239 
	C669.627747,233.460815 669.277100,239.551514 668.773438,245.629333 
	C667.906555,256.091461 666.975098,266.548248 665.990356,277.446228 
	C665.809631,281.551392 665.709229,285.217621 665.452881,289.286407 
	C664.621582,295.128052 663.946228,300.567139 663.152283,306.408173 
	C662.905457,307.918091 662.777283,309.026031 662.391602,310.019318 
	C661.367310,312.994354 660.022705,316.072388 659.959961,319.176331 
	C659.847107,324.761505 660.502930,330.362213 660.906677,336.354858 
	C660.962341,337.830811 660.948975,338.908325 660.669678,339.924591 
	C660.025146,339.638336 659.646545,339.413330 659.267944,339.188293 
	C659.139587,341.435760 659.011292,343.683197 658.585571,346.088867 
	C658.552673,351.829071 658.817200,357.411102 658.998291,363.312988 
	C658.849976,364.259094 658.784973,364.885284 658.695801,365.744110 
	C658.179749,365.140503 657.824158,364.724548 656.881104,363.621552 
	C656.881104,370.464508 656.881104,376.628357 656.642578,383.046997 
	C655.977783,384.562408 655.551514,385.822998 654.824829,387.227600 
	C654.024841,391.611023 653.273193,395.842377 653.138794,400.093262 
	C653.077393,402.035431 654.232422,404.016083 654.906250,406.339111 
	C654.952393,407.432770 654.928162,408.166656 654.577759,408.864349 
	C653.911011,409.013763 653.285217,409.179321 653.270569,409.387848 
	C652.461182,420.906830 651.703003,432.429413 650.726318,444.280273 
	C650.545288,446.708191 650.577515,448.807495 650.463562,451.235718 
	C649.580139,455.116821 648.842957,458.668976 648.047424,461.779358 
	C647.989075,459.227661 647.989075,457.117737 647.989075,455.007782 
	C647.475342,455.024048 646.961609,455.040283 646.447876,455.056519 
	C646.926331,462.700043 647.404785,470.343567 647.974548,478.229065 
	C648.109619,478.637817 648.153442,478.804565 648.115479,479.222229 
	C648.058533,479.647217 648.083313,479.821350 648.018555,480.235779 
	C647.934570,480.646973 647.940063,480.817841 647.945557,480.988678 
	C647.380432,481.425201 646.359558,481.828125 646.324463,482.303802 
	C646.102051,485.317505 646.056519,488.347015 646.032654,491.371948 
	C646.006470,494.689911 644.365784,495.893494 641.099304,496.001617 
	C638.202759,496.097504 635.260681,496.670563 632.462708,497.468109 
	C627.850220,498.782867 623.337830,500.448547 618.393250,502.042511 
	C615.112061,502.832336 612.207520,503.496460 609.332031,504.268738 
	C600.520935,506.635071 591.720276,509.040405 582.925720,511.467560 
	C582.833984,511.492859 582.879700,512.016785 582.874756,512.610718 
	C579.208679,513.615112 575.529053,514.316711 571.445068,515.091797 
	C567.224365,516.337280 563.440125,517.633057 559.580383,518.639160 
	C556.842102,519.352966 554.001892,519.675720 551.096924,520.553345 
z"/>
<path fill="#9A8FA6" opacity="1.000000" stroke="none" 
	d="
M454.160858,415.994080 
	C448.258331,417.339172 442.312531,418.520538 436.463196,420.066772 
	C427.167480,422.523987 417.936127,425.224640 407.931641,428.015625 
	C401.797272,429.513031 396.408813,430.817108 390.638733,432.136292 
	C386.148987,436.079742 382.034912,432.934052 377.521423,432.033600 
	C374.941071,431.274902 372.762177,430.644409 370.518372,429.997986 
	C370.453461,429.982086 370.188568,429.948517 369.792206,429.939697 
	C366.629730,429.134155 363.863647,428.337463 360.812836,427.319458 
	C355.674561,425.792633 350.821014,424.487122 345.518005,423.093597 
	C343.905365,422.674164 342.742188,422.342804 341.515381,421.996307 
	C341.451752,421.981201 341.192566,421.947632 340.758423,421.917694 
	C338.372498,421.268402 336.420715,420.649048 334.495911,420.039093 
	C334.522919,420.048523 334.586609,419.959015 334.121338,419.822083 
	C333.353699,419.570618 333.051331,419.456085 332.599182,419.228851 
	C332.084381,419.041290 331.719330,418.966461 330.905640,418.904419 
	C328.127594,418.288055 325.798248,417.658875 323.495911,417.039124 
	C323.522919,417.048523 323.586609,416.959015 323.184753,416.874207 
	C319.872986,416.022644 316.963104,415.255890 313.765930,414.280731 
	C309.632507,413.098114 305.786377,412.123871 301.587646,410.973083 
	C296.189148,409.377899 291.143311,407.959290 285.825714,406.348877 
	C281.676575,405.342377 277.757721,404.684235 273.932587,403.672058 
	C269.521851,402.504944 266.449860,400.226318 267.107208,394.839294 
	C267.351868,392.834381 266.567200,390.703888 266.293640,388.219452 
	C266.171783,385.872009 266.008209,383.935760 265.914429,381.617798 
	C265.730804,380.022369 265.477356,378.808655 265.276245,377.271729 
	C265.268005,376.300842 265.207428,375.653168 265.332214,374.701355 
	C265.062592,370.256348 264.607574,366.115448 264.221466,361.533630 
	C264.229218,359.614136 264.168091,358.135559 264.096436,356.438690 
	C264.056061,355.639709 264.026245,355.059021 263.782043,354.051910 
	C263.321960,351.421783 263.076263,349.218048 262.874847,346.585632 
	C262.337616,341.091064 261.756104,336.025208 261.248657,330.502777 
	C261.251038,327.247986 261.179352,324.449707 261.098816,321.499695 
	C261.079773,321.042999 261.046753,320.740723 260.776398,320.026917 
	C260.328979,317.762024 260.096008,315.911255 259.929504,313.614807 
	C259.413818,308.312378 258.831696,303.455627 258.295044,298.156555 
	C257.930695,290.794800 257.520874,283.875427 257.382812,276.673889 
	C257.158600,273.603729 256.662598,270.815704 256.068848,267.657959 
	C255.983246,266.524414 255.995346,265.760651 256.292725,264.744324 
	C256.107544,262.337128 255.637100,260.182465 255.068710,257.617828 
	C254.982941,255.803864 254.995117,254.399902 255.282166,252.770355 
	C255.092804,251.037582 254.628555,249.530411 254.056213,247.770508 
	C253.896164,247.342026 253.844193,247.166275 253.852112,246.591263 
	C253.946671,245.125397 253.981323,244.058807 254.295517,242.747421 
	C254.298813,240.776382 254.022568,239.050125 253.490341,236.985428 
	C252.874176,233.085129 252.513992,229.523300 252.155457,225.547546 
	C252.123611,224.033554 252.090118,222.933456 252.055588,221.415115 
	C252.020523,220.154968 251.986511,219.313065 251.748688,218.185471 
	C251.312012,216.266541 251.079163,214.633301 250.898621,212.561584 
	C250.351486,207.073639 249.752045,202.024200 249.235291,196.518555 
	C249.247589,193.261734 249.177200,190.461105 249.088791,187.247131 
	C249.033157,185.713043 248.995529,184.592270 248.757248,183.236282 
	C248.361725,182.005508 248.166855,181.009949 247.995850,179.557007 
	C247.530594,174.060822 247.041443,169.022018 246.653290,163.904831 
	C246.754272,163.826447 246.951859,163.988708 247.244293,163.759155 
	C247.080902,161.695221 246.625107,159.860825 246.060120,157.778305 
	C245.901718,157.356262 245.852524,157.182373 245.864700,156.582092 
	C245.960648,154.432709 245.995224,152.709702 246.299988,150.755737 
	C246.300125,149.115906 246.030090,147.707001 245.507370,145.974686 
	C244.893066,142.767426 244.531464,139.883606 244.235535,136.584290 
	C244.219589,135.056854 244.137985,133.944885 244.057251,132.401047 
	C244.025177,130.803482 243.992218,129.637802 243.750946,128.170746 
	C243.372818,125.881958 243.202988,123.894547 243.044662,121.724785 
	C243.035095,121.179794 243.014023,120.817154 242.723907,119.976440 
	C242.327377,119.155586 242.199890,118.812813 242.045624,118.479309 
	C242.018875,118.488579 242.071655,118.506294 242.159973,117.967224 
	C242.190948,117.068535 242.133606,116.708908 242.049622,116.361267 
	C242.022995,116.373245 242.070312,116.388771 242.046890,115.987617 
	C241.961792,115.055443 241.900101,114.524429 241.892426,113.596336 
	C241.820129,112.150299 241.693832,111.101341 241.520416,109.653336 
	C241.515579,108.453712 241.557846,107.653114 241.957733,106.736908 
	C242.565536,106.607628 242.815720,106.593956 243.386597,106.867035 
	C245.283432,107.437866 246.870453,108.011497 248.433762,107.952858 
	C253.535889,107.761444 258.630371,107.057411 263.725922,107.075584 
	C270.488190,107.099701 277.246033,107.728767 284.010742,107.889893 
	C289.549561,108.021828 295.095947,107.876106 300.638367,107.803780 
	C305.426544,107.741302 310.213440,107.579590 315.001648,107.515480 
	C319.938385,107.449364 324.875977,107.429497 329.813232,107.423759 
	C334.901428,107.417847 339.989716,107.461967 345.077942,107.468292 
	C350.015167,107.474434 354.952423,107.461052 359.889648,107.455032 
	C364.977875,107.448830 370.066132,107.430977 375.154358,107.437012 
	C380.091583,107.442871 385.028900,107.464371 389.966064,107.494141 
	C394.904144,107.523911 399.842041,107.599617 404.780090,107.605217 
	C409.867554,107.610985 414.955017,107.539574 420.042542,107.533157 
	C424.980530,107.526924 429.918579,107.568268 434.856598,107.574127 
	C439.944092,107.580170 445.031555,107.570374 450.119049,107.564240 
	C455.057068,107.558289 459.995087,107.536911 464.933105,107.543053 
	C470.020599,107.549385 475.108124,107.573036 480.195557,107.603386 
	C484.983307,107.631943 489.772949,107.782272 494.558044,107.688560 
	C499.174164,107.598145 503.787537,107.053368 508.398346,107.097893 
	C512.832764,107.140701 517.259094,107.861153 521.695129,107.939728 
	C524.445801,107.988457 527.207947,107.395897 529.981323,107.403717 
	C529.618103,112.156784 529.238525,116.597313 528.749573,121.401840 
	C528.300903,126.450829 527.961670,131.135818 527.417236,136.187012 
	C526.858948,141.358704 526.505676,146.164169 526.075317,151.390594 
	C525.138672,161.563263 524.279114,171.314987 523.297180,181.526398 
	C522.752441,185.193970 522.330078,188.401855 521.918945,191.684464 
	C521.930176,191.759171 521.920715,192.199982 521.794617,192.524109 
	C521.829285,193.889175 521.990112,194.930099 522.019653,196.370331 
	C521.606628,200.740143 521.324829,204.710648 520.839233,208.833191 
	C520.725891,209.342896 520.816223,209.700546 520.906494,210.058212 
	C520.285950,215.241852 519.498474,220.411972 519.077271,225.611771 
	C517.978638,239.172699 517.040405,252.746628 516.021057,267.065369 
	C515.974915,268.218445 515.945862,268.621490 515.797119,269.239563 
	C515.615417,269.944641 515.553345,270.434753 515.317261,271.347473 
	C514.478760,279.866669 513.814331,287.963257 513.028198,296.461487 
	C512.879761,297.968842 512.853088,299.074524 512.666260,300.446838 
	C512.424011,300.904480 512.341858,301.095520 512.185425,301.409973 
	C512.048828,301.720032 512.024353,301.911469 512.031494,302.558044 
	C512.085449,305.447754 512.145691,307.887207 512.122437,310.725769 
	C511.168518,318.501068 510.105377,325.860718 509.472839,333.257233 
	C508.538879,344.178162 507.911224,355.125305 507.027527,366.476746 
	C506.881348,368.325745 506.860779,369.759308 506.746338,371.481140 
	C506.592865,372.171814 506.533295,372.574249 506.287079,373.277466 
	C505.250488,382.984924 504.400574,392.391602 503.613281,401.105591 
	C498.721558,402.750061 494.257843,404.250641 489.398682,405.840240 
	C486.431702,406.437775 483.796204,406.735626 481.299927,407.492554 
	C472.228363,410.243225 463.203400,413.147644 454.160858,415.994080 
M305.688934,294.105530 
	C305.318787,294.326599 304.610779,294.578064 304.627533,294.764404 
	C305.148468,300.562286 305.713531,306.356964 306.387665,312.138580 
	C306.427734,312.482147 307.430176,312.713501 308.297760,313.610718 
	C308.250275,314.062012 308.202789,314.513306 307.469360,315.052673 
	C307.228943,315.248413 306.766022,315.461700 306.779907,315.637360 
	C307.680878,327.045746 308.605255,338.452454 309.625031,349.850586 
	C309.658081,350.219635 310.701050,350.498383 311.197021,350.910767 
	C311.197021,350.910767 311.127655,350.813965 311.140137,351.569244 
	C314.559113,352.809631 317.923065,354.237885 321.406403,355.258667 
	C338.865173,360.374908 356.339874,365.438721 373.845764,370.391022 
	C377.900177,371.537964 382.302460,373.426331 386.188690,372.792114 
	C394.634186,371.413879 402.864441,368.679779 411.142181,366.355560 
	C412.211456,366.055328 413.040405,364.899139 414.474091,363.889404 
	C414.835999,363.854156 415.197906,363.818909 415.836609,364.094757 
	C416.014404,364.103729 416.192230,364.112671 416.370026,364.121643 
	C416.165680,363.953552 415.961334,363.785461 416.302277,363.137299 
	C430.801788,359.141541 445.301331,355.145813 459.433014,351.251434 
	C460.064514,345.834137 460.639252,340.903839 461.930328,335.794342 
	C461.937195,333.523743 461.944061,331.253174 461.876495,328.230133 
	C461.955566,327.481506 462.034668,326.732880 462.852020,325.839081 
	C462.885376,323.552155 462.918732,321.265259 462.876770,318.224426 
	C462.955780,317.474182 463.034790,316.723938 463.428436,315.821075 
	C463.488983,315.722504 463.624084,315.574097 463.597229,315.533905 
	C463.475281,315.351410 463.307648,315.199432 463.042297,314.163544 
	C465.151459,289.599518 467.260590,265.035492 469.410889,239.992310 
	C466.834778,239.992310 464.867676,239.996811 462.900574,239.991623 
	C437.258240,239.923874 411.615875,239.854767 385.762390,239.024963 
	C385.067383,238.684982 384.373688,238.051666 383.677124,238.048447 
	C370.440521,237.987244 357.203217,237.961090 343.967377,238.077545 
	C342.980042,238.086227 342.002686,239.227295 340.497284,239.945068 
	C340.323303,239.908188 340.149353,239.871292 339.990753,238.989090 
	C338.861908,227.755569 337.733032,216.522049 336.575195,205.000000 
	C339.074188,205.000000 340.891052,205.000000 342.707916,205.000000 
	C383.954468,205.000000 425.201111,205.022888 466.447418,204.924683 
	C468.288635,204.920303 470.127258,203.815063 472.684479,202.746094 
	C473.862061,190.950943 475.039642,179.155807 476.253998,166.992310 
	C473.374207,166.992310 471.398041,166.996216 469.421875,166.991730 
	C441.604187,166.928406 413.786469,166.863937 385.758423,166.038147 
	C385.060272,165.695557 384.362671,165.054657 383.663879,165.053375 
	C355.173401,165.000854 326.682739,164.982422 298.192627,165.097183 
	C297.146881,165.101395 296.106720,166.481155 295.146118,168.036011 
	C296.774719,185.379944 298.436218,202.720886 300.022858,220.068649 
	C301.728760,238.720352 303.364380,257.378479 305.085388,276.646698 
	C346.846741,276.646698 388.321350,276.646698 429.790680,276.646698 
	C428.514038,291.499023 427.198669,305.704987 426.145386,319.930359 
	C425.919830,322.976654 424.656921,323.768463 421.895142,324.098389 
	C418.249756,324.533875 414.636322,325.411896 411.076721,326.354797 
	C403.028961,328.486633 395.022705,330.774963 386.523315,332.425110 
	C383.647461,331.754425 380.744537,331.181580 377.900787,330.394897 
	C369.001160,327.932983 360.130157,325.367554 351.233826,322.893585 
	C348.706909,322.190887 346.972778,321.468201 346.864594,318.056000 
	C346.640350,310.983582 345.752808,303.924011 344.893829,296.888977 
	C344.769287,295.868744 343.296997,295.013031 342.191345,294.169403 
	C342.191345,294.169403 341.996216,293.980286 341.985168,293.451691 
	C341.840637,293.165314 341.698761,292.629608 341.551239,292.628021 
	C330.230530,292.508087 318.909363,292.406921 307.588501,292.430725 
	C307.116425,292.431702 306.646851,293.629547 306.177582,294.133545 
	C306.177582,294.133545 306.297821,294.197693 305.688934,294.105530 
z"/>
<path fill="#9A8FA6" opacity="1.000000" stroke="none" 
	d="
M529.975830,266.897949 
	C531.886169,266.598358 533.795959,266.042236 535.706909,266.037933 
	C561.360840,265.980103 587.014893,265.999176 612.668945,265.999176 
	C614.457825,265.999176 616.246643,265.999176 618.035522,265.999176 
	C618.035278,265.682068 618.035095,265.364929 618.034851,265.047821 
	C588.970581,265.047821 559.906311,265.047821 530.000000,265.047821 
	C530.000000,257.691376 530.000000,250.770126 530.000000,243.848892 
	C530.000000,231.045395 530.000000,231.045395 542.629089,231.045395 
	C575.446228,231.045395 608.264038,231.140366 641.079895,230.939926 
	C645.837341,230.910889 646.934692,232.190613 646.515015,236.866333 
	C645.574158,247.349152 645.460266,257.903229 644.713074,268.407227 
	C643.975891,278.770813 642.882019,289.109253 641.928650,299.457214 
	C641.284973,306.442688 641.716003,313.771973 639.659302,320.316772 
	C637.387695,327.545898 638.580505,334.604767 637.923584,341.705170 
	C636.591431,356.103973 635.242371,370.501343 633.967041,384.905212 
	C633.172546,393.879028 632.594543,402.872467 631.752625,411.841461 
	C630.218323,428.186615 628.650146,444.529785 626.903198,460.853149 
	C626.311951,466.377319 625.137451,471.839020 624.234924,477.296875 
	C593.243164,485.735352 562.156006,494.199829 530.000000,502.955292 
	C530.000000,495.875397 530.000000,490.111328 530.000000,484.347290 
	C530.000000,480.349274 530.256165,476.328247 529.900391,472.362152 
	C529.698730,470.113464 528.493713,467.954803 528.189575,465.397827 
	C529.096313,465.015198 529.554016,464.990295 530.412476,465.115967 
	C534.220764,464.548309 537.628296,463.830139 541.296509,463.374329 
	C547.260254,466.686829 552.137268,462.734985 557.413940,461.459808 
	C555.854492,461.243958 554.295044,461.028107 552.921753,460.507568 
	C557.874512,458.752960 562.628540,457.260071 567.410461,455.862488 
	C576.263000,453.275208 585.131836,450.743652 593.822144,448.478577 
	C592.132080,449.769928 590.613770,450.771576 587.849487,452.595184 
	C593.583557,451.658844 598.039185,450.931274 602.494812,450.203705 
	C602.495117,449.707489 602.495361,449.211273 602.495667,448.715057 
	C600.992676,448.467743 599.489685,448.220428 598.004578,447.708984 
	C598.178955,447.079193 598.332336,446.395966 598.492493,446.394379 
	C602.426270,446.355255 603.940735,444.338470 603.930237,440.498505 
	C603.914490,434.707336 604.204163,428.915344 604.366089,423.123718 
	C604.370789,422.955353 604.399719,422.787659 604.449402,422.313660 
	C604.776794,423.241852 604.989929,423.845978 605.203003,424.450104 
	C605.476746,424.392944 605.750427,424.335754 606.024170,424.278564 
	C606.024170,419.196655 606.024170,414.114716 606.326538,408.787903 
	C607.083069,403.689697 607.537170,398.836395 608.135010,393.541443 
	C608.305298,390.633698 608.039917,388.120026 608.431885,385.713409 
	C608.926086,382.678192 609.956787,379.730377 610.854980,377.218933 
	C610.953918,382.464539 610.953918,387.236084 610.953918,392.007660 
	C611.387451,391.994690 611.820923,391.981750 612.254456,391.968811 
	C613.647461,381.602997 613.263062,371.280792 610.806335,360.787903 
	C610.817566,359.390594 611.035522,358.209686 611.483154,357.315369 
	C612.321777,361.027405 612.930725,364.452820 613.532654,367.838928 
	C615.702576,362.778839 615.484619,349.085968 613.044006,341.578125 
	C613.257874,338.718079 612.525452,337.574249 609.751526,337.592255 
	C584.977173,337.753265 560.201965,337.786041 535.279053,337.566040 
	C535.179565,336.652283 535.085876,335.544159 535.298523,335.481873 
	C537.183655,334.929718 539.123047,334.562836 541.349976,334.420380 
	C542.970276,334.801514 544.286926,334.991394 545.603760,334.992462 
	C566.413147,335.009308 587.222595,335.005707 608.031982,334.991089 
	C609.379700,334.990143 610.727295,334.861450 612.075012,334.792175 
	C612.065125,334.403503 612.055298,334.014832 612.045410,333.626160 
	C592.153320,333.626160 572.261169,333.626160 551.766479,333.626160 
	C554.014343,331.588104 555.538879,330.205872 557.154358,328.787567 
	C557.245239,328.751526 557.364502,328.906494 557.774536,328.928345 
	C562.678406,327.366394 567.178345,325.799133 571.647156,324.147644 
	C571.860657,324.068756 571.798767,323.244843 571.859009,322.839355 
	C571.852966,322.910828 571.721924,322.852386 572.153564,322.903503 
	C575.346008,321.559814 578.106873,320.164948 580.856262,318.846924 
	C580.844788,318.923767 580.703918,318.858246 581.110779,318.906250 
	C582.923645,318.234985 586.060425,320.858307 585.582397,316.518188 
	C585.941223,315.815613 586.442566,315.370483 587.098389,315.243164 
	C587.910828,315.997559 588.777649,316.956329 589.194275,316.789703 
	C593.212646,315.182220 597.155334,313.385468 601.119629,311.642822 
	C600.644958,311.349121 600.170349,311.055420 599.726929,310.458130 
	C602.527100,308.718597 605.311462,307.311493 608.060120,305.837738 
	C610.385193,304.591095 612.668823,303.267212 615.297607,301.944275 
	C616.040527,300.489746 616.777588,299.076996 616.815552,297.645721 
	C616.958252,292.275909 616.872742,286.900085 616.872742,281.118195 
	C617.948242,282.075531 618.461060,282.532043 619.009888,283.455688 
	C619.045898,289.727875 619.045898,295.532928 619.045898,301.337982 
	C619.525208,301.332306 620.004578,301.326630 620.483887,301.320923 
	C620.483887,293.413483 620.493652,285.505981 620.427429,277.599091 
	C620.425781,277.402069 619.584167,277.212067 619.062073,276.681824 
	C619.037964,275.890411 619.086182,275.435974 619.418945,274.949341 
	C620.007019,274.603271 620.310486,274.289429 620.613892,273.975586 
	C620.132446,273.658783 619.651062,273.342041 619.103760,272.628754 
	C618.980103,271.163055 618.922302,270.093842 618.889648,268.595581 
	C617.135986,267.767029 615.358459,267.025543 613.578430,267.019379 
	C585.711060,266.922943 557.843445,266.921387 529.975830,266.897949 
M610.000000,406.479279 
	C610.000000,401.391418 610.000000,396.303558 610.000000,391.215729 
	C609.772766,391.224304 609.545593,391.232910 609.318359,391.241486 
	C609.318359,400.088287 609.318359,408.935059 609.318359,417.781830 
	C609.545593,417.781006 609.772766,417.780151 610.000000,417.779297 
	C610.000000,414.341278 610.000000,410.903229 610.000000,406.479279 
z"/>
<path fill="#9A8FA6" opacity="1.000000" stroke="none" 
	d="
M540.946045,208.459457 
	C542.597046,208.569214 544.247925,208.774033 545.898987,208.774780 
	C585.680481,208.792664 625.462036,208.781448 665.243530,208.808411 
	C667.426392,208.809891 669.609070,209.096313 671.796265,209.608383 
	C671.375549,211.338684 670.950378,212.710709 670.892517,212.897491 
	C669.341797,212.000885 667.645569,210.167206 665.946838,210.164871 
	C636.519836,210.124542 607.092590,210.390533 577.665283,210.415543 
	C559.061890,210.431351 540.458252,210.160950 521.380615,210.038574 
	C520.816223,209.700546 520.725891,209.342896 521.258362,208.879364 
	C523.267578,208.671936 524.653992,208.570389 526.495483,208.562225 
	C531.615784,208.590240 536.280884,208.524857 540.946045,208.459457 
z"/>
<path fill="#9A8FA6" opacity="1.000000" stroke="none" 
	d="
M661.156006,331.029968 
	C661.097900,332.401215 661.039734,333.772430 660.909668,335.550049 
	C660.502930,330.362213 659.847107,324.761505 659.959961,319.176331 
	C660.022705,316.072388 661.367310,312.994354 662.421936,310.224182 
	C662.709717,310.543732 662.676758,310.959198 662.451355,311.171997 
	C662.416931,312.267792 662.607910,313.150787 662.914062,313.989746 
	C663.029236,313.945648 663.273621,313.979248 663.058533,314.335938 
	C662.281006,320.138397 661.718506,325.584198 661.156006,331.029968 
z"/>
<path fill="#9A8FA6" opacity="1.000000" stroke="none" 
	d="
M655.074158,401.568237 
	C655.092712,403.086823 655.037048,404.142426 654.908569,405.588623 
	C654.232422,404.016083 653.077393,402.035431 653.138794,400.093262 
	C653.273193,395.842377 654.024841,391.611023 654.824829,387.227600 
	C655.083496,391.757446 655.041687,396.431335 655.074158,401.568237 
z"/>
<path fill="#9A8FA6" opacity="1.000000" stroke="none" 
	d="
M648.047363,461.779358 
	C648.149292,463.566315 648.192810,464.911530 648.365112,466.640259 
	C648.433472,468.731537 648.373108,470.439331 648.169312,472.956421 
	C648.082336,474.848206 648.138794,475.930634 648.195190,477.013092 
	C648.150269,477.177582 648.105347,477.342072 647.971802,477.746826 
	C647.404785,470.343567 646.926331,462.700043 646.447876,455.056519 
	C646.961609,455.040283 647.475342,455.024048 647.989075,455.007782 
	C647.989075,457.117737 647.989075,459.227661 648.047363,461.779358 
z"/>
<path fill="#9A8FA6" opacity="1.000000" stroke="none" 
	d="
M530.207336,428.317902 
	C521.924011,426.320068 513.640320,424.324066 505.357635,422.323700 
	C500.390930,421.124146 495.425903,419.917664 489.751312,418.542542 
	C489.751312,414.649628 489.751312,410.690399 489.772705,406.241180 
	C494.257843,404.250641 498.721558,402.750061 503.613281,401.105591 
	C504.400574,392.391602 505.250488,382.984924 506.801025,373.283936 
	C515.000061,373.056610 522.498535,373.123627 530.012024,373.645325 
	C530.087158,392.172668 530.147278,410.245300 530.207336,428.317902 
z"/>
<path fill="#9A8FA6" opacity="1.000000" stroke="none" 
	d="
M339.983093,239.411743 
	C339.572144,239.869370 339.168915,239.904343 338.478210,239.936462 
	C338.190735,239.933624 338.233765,239.882874 338.179871,239.436417 
	C337.440033,232.317261 336.754059,225.644547 336.072540,218.556229 
	C335.808716,216.274765 335.540466,214.408936 335.272217,212.543091 
	C335.166779,209.982574 335.061340,207.422073 335.222626,204.349304 
	C335.731720,203.691086 335.904327,203.486252 336.007080,203.222595 
	C376.577423,203.215759 417.147736,203.208084 457.718079,203.203247 
	C462.154694,203.202713 466.591309,203.218460 471.497498,203.224640 
	C470.127258,203.815063 468.288635,204.920303 466.447418,204.924683 
	C425.201111,205.022888 383.954468,205.000000 342.707916,205.000000 
	C340.891052,205.000000 339.074188,205.000000 336.575195,205.000000 
	C337.733032,216.522049 338.861908,227.755569 339.983093,239.411743 
z"/>
<path fill="#9A8FA6" opacity="1.000000" stroke="none" 
	d="
M311.133911,351.191589 
	C323.104431,354.247986 335.078278,357.692383 347.060852,361.106110 
	C349.112457,361.690552 351.201385,362.143921 353.657593,362.686401 
	C364.209412,365.646423 374.306671,368.873444 384.591248,371.309906 
	C387.296448,371.950775 390.604919,370.235016 393.594940,369.444702 
	C400.140167,367.714600 406.658844,365.884033 413.584534,364.116974 
	C413.040405,364.899139 412.211456,366.055328 411.142181,366.355560 
	C402.864441,368.679779 394.634186,371.413879 386.188690,372.792114 
	C382.302460,373.426331 377.900177,371.537964 373.845764,370.391022 
	C356.339874,365.438721 338.865173,360.374908 321.406403,355.258667 
	C317.923065,354.237885 314.559113,352.809631 311.133911,351.191589 
z"/>
<path fill="#9A8FA6" opacity="1.000000" stroke="none" 
	d="
M385.863586,166.418945 
	C355.968689,166.864746 325.968628,166.929718 295.516235,167.107285 
	C296.106720,166.481155 297.146881,165.101395 298.192627,165.097183 
	C326.682739,164.982422 355.173401,165.000854 383.663879,165.053375 
	C384.362671,165.054657 385.060272,165.695557 385.863586,166.418945 
z"/>
<path fill="#9A8FA6" opacity="1.000000" stroke="none" 
	d="
M345.789337,323.045624 
	C344.801025,313.654114 343.812683,304.262573 342.636353,294.476135 
	C343.296997,295.013031 344.769287,295.868744 344.893829,296.888977 
	C345.752808,303.924011 346.640350,310.983582 346.864594,318.056000 
	C346.972778,321.468201 348.706909,322.190887 351.233826,322.893585 
	C360.130157,325.367554 369.001160,327.932983 377.900787,330.394897 
	C380.744537,331.181580 383.647461,331.754425 386.761414,332.712402 
	C383.839813,332.638367 380.594360,332.619232 377.535980,331.853302 
	C367.290649,329.287598 357.112152,326.455139 346.496216,323.447632 
	C346.084351,323.170410 345.789337,323.045624 345.789337,323.045624 
z"/>
<path fill="#9A8FA6" opacity="1.000000" stroke="none" 
	d="
M385.867981,239.405472 
	C371.298676,239.844589 356.623779,239.903183 341.484802,239.901855 
	C342.002686,239.227295 342.980042,238.086227 343.967377,238.077545 
	C357.203217,237.961090 370.440521,237.987244 383.677124,238.048447 
	C384.373688,238.051666 385.067383,238.684982 385.867981,239.405472 
z"/>
<path fill="#9A8FA6" opacity="1.000000" stroke="none" 
	d="
M527.281494,304.177124 
	C522.324341,306.156006 517.593018,308.064941 512.533813,310.150269 
	C512.145691,307.887207 512.085449,305.447754 512.196716,302.513916 
	C512.368286,302.019470 512.692383,301.910065 513.176880,301.943604 
	C517.419739,301.961975 521.186279,301.805450 524.931091,302.023285 
	C525.967651,302.083557 526.939575,303.256592 527.941162,303.919098 
	C527.941162,303.919098 527.507324,304.107178 527.281494,304.177124 
z"/>
<path fill="#9A8FA6" opacity="1.000000" stroke="none" 
	d="
M307.812317,315.008636 
	C309.092346,325.303711 310.031006,335.642700 310.964294,345.982147 
	C311.083313,347.300995 311.174133,348.622375 311.275604,350.380920 
	C310.701050,350.498383 309.658081,350.219635 309.625031,349.850586 
	C308.605255,338.452454 307.680878,327.045746 306.779907,315.637360 
	C306.766022,315.461700 307.228943,315.248413 307.812317,315.008636 
z"/>
<path fill="#9A8FA6" opacity="1.000000" stroke="none" 
	d="
M341.990692,293.716003 
	C330.355560,294.031494 318.714874,294.082703 306.625183,294.201874 
	C306.646851,293.629547 307.116425,292.431702 307.588501,292.430725 
	C318.909363,292.406921 330.230530,292.508087 341.551239,292.628021 
	C341.698761,292.629608 341.840637,293.165314 341.990692,293.716003 
z"/>
<path fill="#9A8FA6" opacity="1.000000" stroke="none" 
	d="
M305.993408,294.151611 
	C306.862946,300.172699 307.428040,306.147675 307.988983,312.559875 
	C307.430176,312.713501 306.427734,312.482147 306.387665,312.138580 
	C305.713531,306.356964 305.148468,300.562286 304.627533,294.764404 
	C304.610779,294.578064 305.318787,294.326599 305.993408,294.151611 
z"/>
<path fill="#9A8FA6" opacity="1.000000" stroke="none" 
	d="
M462.482910,325.911682 
	C462.262848,323.870697 462.411957,321.757172 462.756561,319.310974 
	C462.918732,321.265259 462.885376,323.552155 462.482910,325.911682 
z"/>
<path fill="#9A8FA6" opacity="1.000000" stroke="none" 
	d="
M461.572144,335.883942 
	C461.345123,333.879395 461.476227,331.785217 461.779144,329.336823 
	C461.944061,331.253174 461.937195,333.523743 461.572144,335.883942 
z"/>
<path fill="#9A8FA6" opacity="1.000000" stroke="none" 
	d="
M255.973358,269.402527 
	C255.948196,268.853760 256.006378,268.692627 256.115570,268.279602 
	C256.662598,270.815704 257.158600,273.603729 257.382812,276.673889 
	C256.759613,274.567383 256.408173,272.178772 255.973358,269.402527 
z"/>
<path fill="#9A8FA6" opacity="1.000000" stroke="none" 
	d="
M247.244293,163.759155 
	C246.666245,162.254242 246.380615,160.519791 246.132156,158.405884 
	C246.625107,159.860825 247.080902,161.695221 247.244293,163.759155 
z"/>
<path fill="#9A8FA6" opacity="1.000000" stroke="none" 
	d="
M254.492874,252.643555 
	C254.227173,251.306549 254.157639,250.046112 254.126190,248.404449 
	C254.628555,249.530411 255.092804,251.037582 255.282166,252.770355 
	C255.007278,252.995941 254.689026,252.720139 254.492874,252.643555 
z"/>
<path fill="#9A8FA6" opacity="1.000000" stroke="none" 
	d="
M256.292725,264.744324 
	C255.704575,262.933746 255.401688,260.870605 255.132736,258.417664 
	C255.637100,260.182465 256.107544,262.337128 256.292725,264.744324 
z"/>
<path fill="#9A8FA6" opacity="1.000000" stroke="none" 
	d="
M254.295502,242.747421 
	C253.906113,241.371872 253.796265,239.751526 253.716370,237.727539 
	C254.022568,239.050125 254.298813,240.776382 254.295502,242.747421 
z"/>
<path fill="#9A8FA6" opacity="1.000000" stroke="none" 
	d="
M246.299988,150.755737 
	C245.926010,149.685471 245.822220,148.384262 245.739243,146.690582 
	C246.030090,147.707001 246.300125,149.115906 246.299988,150.755737 
z"/>
<path fill="#9A8FA6" opacity="1.000000" stroke="none" 
	d="
M244.057251,132.401047 
	C243.963715,131.593658 243.871063,130.354385 243.868835,128.793610 
	C243.992218,129.637802 244.025177,130.803482 244.057251,132.401047 
z"/>
<path fill="#9A8FA6" opacity="1.000000" stroke="none" 
	d="
M249.088776,187.247131 
	C248.992981,186.475677 248.879166,185.290909 248.861633,183.788818 
	C248.995529,184.592270 249.033157,185.713043 249.088776,187.247131 
z"/>
<path fill="#9A8FA6" opacity="1.000000" stroke="none" 
	d="
M332.156311,420.000732 
	C331.888824,419.710419 331.747437,419.470062 331.484314,419.058228 
	C331.719330,418.966461 332.084381,419.041290 332.599182,419.228851 
	C332.651093,419.611053 332.492798,419.849030 332.156311,420.000732 
z"/>
<path fill="#9A8FA6" opacity="1.000000" stroke="none" 
	d="
M264.096436,356.438690 
	C264.016724,356.073242 263.926453,355.489532 263.916321,354.692078 
	C264.026245,355.059021 264.056061,355.639709 264.096436,356.438690 
z"/>
<path fill="#9A8FA6" opacity="1.000000" stroke="none" 
	d="
M252.055588,221.415115 
	C251.958496,220.902725 251.860367,219.972092 251.857376,218.756317 
	C251.986511,219.313065 252.020523,220.154968 252.055588,221.415115 
z"/>
<path fill="#9A8FA6" opacity="1.000000" stroke="none" 
	d="
M243.044662,121.724785 
	C242.966019,121.538193 242.898880,121.169250 242.912338,120.627411 
	C243.014023,120.817154 243.035095,121.179794 243.044662,121.724785 
z"/>
<path fill="#9A8FA6" opacity="1.000000" stroke="none" 
	d="
M261.098816,321.499695 
	C260.864838,321.399689 260.776855,321.095825 260.917297,320.590485 
	C261.046753,320.740723 261.079773,321.042999 261.098816,321.499695 
z"/>
<path fill="#9A8FA6" opacity="1.000000" stroke="none" 
	d="
M521.918945,191.684464 
	C522.134399,191.731705 522.209961,191.917313 522.027588,192.183273 
	C521.920715,192.199982 521.930176,191.759171 521.918945,191.684464 
z"/>
<path fill="#9A8FA6" opacity="1.000000" stroke="none" 
	d="
M415.731995,363.687744 
	C415.961334,363.785461 416.165680,363.953552 416.370026,364.121643 
	C416.192230,364.112671 416.014404,364.103729 415.698212,363.939209 
	C415.559814,363.783661 415.706970,363.758118 415.731995,363.687744 
z"/>
<path fill="#9A8FA6" opacity="1.000000" stroke="none" 
	d="
M341.515381,421.996307 
	C341.578979,422.011414 341.306702,422.103302 341.249634,422.025452 
	C341.192566,421.947632 341.451752,421.981201 341.515381,421.996307 
z"/>
<path fill="#9A8FA6" opacity="1.000000" stroke="none" 
	d="
M370.518372,429.997986 
	C370.583252,430.013885 370.303833,430.105133 370.246216,430.026825 
	C370.188568,429.948517 370.453461,429.982086 370.518372,429.997986 
z"/>
<path fill="#9A8FA6" opacity="1.000000" stroke="none" 
	d="
M323.495911,417.039124 
	C323.468903,417.029694 323.573853,417.110016 323.580231,417.034515 
	C323.586609,416.959015 323.522919,417.048523 323.495911,417.039124 
z"/>
<path fill="#9A8FA6" opacity="1.000000" stroke="none" 
	d="
M334.495911,420.039124 
	C334.468903,420.029694 334.573853,420.110016 334.580231,420.034515 
	C334.586609,419.959015 334.522919,420.048523 334.495911,420.039124 
z"/>
<path fill="#9A8FA6" opacity="1.000000" stroke="none" 
	d="
M463.271118,315.897400 
	C463.113770,315.973694 463.024139,315.500000 463.090302,315.268250 
	C463.307648,315.199432 463.475281,315.351410 463.597229,315.533905 
	C463.624084,315.574097 463.488983,315.722504 463.271118,315.897400 
z"/>
<path fill="#9A8FA6" opacity="1.000000" stroke="none" 
	d="
M242.049637,116.361267 
	C242.076279,116.349281 241.678253,116.388062 241.678253,116.388062 
	C241.678253,116.388062 241.857742,116.614258 241.964020,116.501511 
	C242.070312,116.388771 242.022995,116.373245 242.049637,116.361267 
z"/>
<path fill="#9A8FA6" opacity="1.000000" stroke="none" 
	d="
M242.045624,118.479309 
	C242.072388,118.470039 241.687790,118.408539 241.687790,118.408539 
	C241.687790,118.408539 241.813568,118.667084 241.942612,118.586685 
	C242.071655,118.506294 242.018875,118.488579 242.045624,118.479309 
z"/>
<path fill="#9A8FA6" opacity="1.000000" stroke="none" 
	d="
M512.185425,301.409973 
	C512.259644,301.286530 512.545288,301.550537 512.618835,301.730286 
	C512.692383,301.910065 512.368286,302.019470 512.203064,302.063599 
	C512.024353,301.911469 512.048828,301.720032 512.185425,301.409973 
z"/>
<path fill="#9A8FA6" opacity="1.000000" stroke="none" 
	d="
M541.349976,334.420380 
	C545.953064,331.933746 550.256470,328.052704 556.624939,328.753815 
	C555.538879,330.205872 554.014343,331.588104 551.766479,333.626160 
	C572.261169,333.626160 592.153320,333.626160 612.045410,333.626160 
	C612.055298,334.014832 612.065125,334.403503 612.075012,334.792175 
	C610.727295,334.861450 609.379700,334.990143 608.031982,334.991089 
	C587.222595,335.005707 566.413147,335.009308 545.603760,334.992462 
	C544.286926,334.991394 542.970276,334.801514 541.349976,334.420380 
z"/>
<path fill="#9A8FA6" opacity="1.000000" stroke="none" 
	d="
M611.483154,357.315369 
	C611.817749,352.315002 612.382019,347.601227 613.024048,342.455688 
	C615.484619,349.085968 615.702576,362.778839 613.532654,367.838928 
	C612.930725,364.452820 612.321777,361.027405 611.483154,357.315369 
z"/>
<path fill="#9A8FA6" opacity="1.000000" stroke="none" 
	d="
M610.854980,377.218933 
	C610.720398,374.855988 610.684753,372.967133 610.822876,370.218750 
	C610.989136,366.903015 610.981567,364.446869 610.974060,361.990692 
	C610.974060,361.990692 610.949585,361.495636 610.981323,361.249969 
	C613.263062,371.280792 613.647461,381.602997 612.254456,391.968811 
	C611.820923,391.981750 611.387451,391.994690 610.953918,392.007660 
	C610.953918,387.236084 610.953918,382.464539 610.854980,377.218933 
z"/>
<path fill="#9A8FA6" opacity="1.000000" stroke="none" 
	d="
M619.009888,283.455688 
	C618.990662,281.280579 619.007385,279.572601 619.079224,277.441711 
	C619.584167,277.212067 620.425781,277.402069 620.427429,277.599091 
	C620.493652,285.505981 620.483887,293.413483 620.483887,301.320923 
	C620.004578,301.326630 619.525208,301.332306 619.045898,301.337982 
	C619.045898,295.532928 619.045898,289.727875 619.009888,283.455688 
z"/>
<path fill="#9A8FA6" opacity="1.000000" stroke="none" 
	d="
M565.693359,322.945374 
	C567.664185,322.831757 569.346436,322.795471 571.446899,322.763550 
	C571.798767,323.244843 571.860657,324.068756 571.647156,324.147644 
	C567.178345,325.799133 562.678406,327.366394 557.774536,328.928345 
	C556.971558,328.451385 556.578674,327.996277 556.383789,327.770538 
	C559.393921,326.186310 562.399353,324.604553 565.693359,322.945374 
z"/>
<path fill="#9A8FA6" opacity="1.000000" stroke="none" 
	d="
M541.296509,463.374359 
	C544.680359,462.345612 548.324951,461.579193 552.352539,460.812531 
	C554.295044,461.028107 555.854492,461.243958 557.413940,461.459808 
	C552.137268,462.734985 547.260254,466.686829 541.296509,463.374359 
z"/>
<path fill="#9A8FA6" opacity="1.000000" stroke="none" 
	d="
M587.098389,315.243164 
	C590.925964,313.525909 594.908142,312.126465 599.292969,310.744354 
	C600.170349,311.055420 600.644958,311.349121 601.119629,311.642822 
	C597.155334,313.385468 593.212646,315.182220 589.194275,316.789703 
	C588.777649,316.956329 587.910828,315.997559 587.098389,315.243164 
z"/>
<path fill="#9A8FA6" opacity="1.000000" stroke="none" 
	d="
M593.822144,448.478577 
	C595.056824,448.104950 596.119690,448.021027 597.584656,447.955109 
	C599.489685,448.220428 600.992676,448.467743 602.495667,448.715057 
	C602.495361,449.211273 602.495117,449.707489 602.494812,450.203705 
	C598.039185,450.931274 593.583557,451.658844 587.849487,452.595184 
	C590.613770,450.771576 592.132080,449.769928 593.822144,448.478577 
z"/>
<path fill="#9A8FA6" opacity="1.000000" stroke="none" 
	d="
M610.000000,406.972229 
	C610.000000,410.903229 610.000000,414.341278 610.000000,417.779297 
	C609.772766,417.780151 609.545593,417.781006 609.318359,417.781830 
	C609.318359,408.935059 609.318359,400.088287 609.318359,391.241486 
	C609.545593,391.232910 609.772766,391.224304 610.000000,391.215729 
	C610.000000,396.303558 610.000000,401.391418 610.000000,406.972229 
z"/>
<path fill="#9A8FA6" opacity="1.000000" stroke="none" 
	d="
M572.153564,322.903534 
	C573.074646,321.638550 574.273193,320.135223 575.830566,319.305664 
	C577.001709,318.681854 578.633423,318.922852 580.463928,318.774506 
	C578.106873,320.164948 575.346008,321.559814 572.153564,322.903534 
z"/>
<path fill="#9A8FA6" opacity="1.000000" stroke="none" 
	d="
M581.110718,318.906250 
	C580.251160,318.449463 579.798401,318.040619 578.836243,317.171692 
	C581.249329,317.007263 583.100220,316.881104 585.338013,316.765320 
	C586.060425,320.858307 582.923645,318.234985 581.110718,318.906250 
z"/>
<path fill="#9A8FA6" opacity="1.000000" stroke="none" 
	d="
M619.418945,274.949341 
	C619.101501,274.544678 619.068726,274.107788 619.102783,273.348083 
	C619.651062,273.342041 620.132446,273.658783 620.613892,273.975586 
	C620.310486,274.289429 620.007019,274.603271 619.418945,274.949341 
z"/>
<path fill="#9A8FA6" opacity="1.000000" stroke="none" 
	d="
M570.837769,372.833710 
	C571.644592,372.900269 572.451477,372.966827 573.664734,373.005737 
	C573.175781,383.249298 572.263855,393.519104 571.395447,403.792603 
	C571.144287,406.764801 571.018127,409.747589 570.480286,412.612122 
	C569.969177,410.468689 569.812378,408.438629 569.655640,406.408539 
	C569.427734,406.416809 569.199890,406.425079 568.971985,406.433350 
	C567.734802,409.805817 566.497559,413.178314 565.260376,416.550812 
	C565.031677,416.301910 564.802979,416.053009 564.574219,415.804108 
	C563.048706,417.199127 561.523193,418.594116 559.997681,419.989105 
	C558.948914,420.852356 558.029297,422.084442 556.825745,422.506012 
	C553.843201,423.550751 550.730835,424.224915 546.995728,425.053467 
	C545.872131,424.983521 545.423523,424.908020 544.715027,424.583282 
	C540.041504,421.172546 536.443176,424.914825 532.500977,425.745789 
	C532.754333,426.244415 533.007690,426.743073 533.261047,427.241699 
	C532.410828,427.684021 531.560547,428.126312 530.458801,428.443268 
	C530.147278,410.245300 530.087158,392.172668 530.012024,373.645325 
	C529.997009,373.190613 530.056152,372.995667 530.526367,372.953857 
	C544.276978,372.885925 557.557373,372.859802 570.837769,372.833710 
z"/>
<path fill="#9A8FA6" opacity="1.000000" stroke="none" 
	d="
M533.516479,427.376343 
	C533.007690,426.743073 532.754333,426.244415 532.500977,425.745789 
	C536.443176,424.914825 540.041504,421.172546 544.364014,424.648987 
	C542.523071,425.768250 540.773315,426.572510 539.023499,427.376770 
	C538.578613,427.396698 538.133728,427.416626 537.357422,427.477020 
	C535.941284,427.515289 534.856567,427.513123 533.516479,427.376343 
z"/>
<path fill="#9A8FA6" opacity="1.000000" stroke="none" 
	d="
M335.743774,203.172028 
	C335.904327,203.486252 335.731720,203.691086 335.303680,203.921310 
	C335.238861,203.710861 335.359680,203.416153 335.743774,203.172028 
z"/>
<path fill="#9A8FA6" opacity="1.000000" stroke="none" 
	d="
M560.405518,420.021606 
	C561.523193,418.594116 563.048706,417.199127 564.574219,415.804108 
	C564.802979,416.053009 565.031677,416.301910 565.260376,416.550812 
	C566.497559,413.178314 567.734802,409.805817 568.971985,406.433350 
	C569.199890,406.425079 569.427734,406.416809 569.655640,406.408539 
	C569.812378,408.438629 569.969177,410.468689 570.196167,412.939148 
	C570.299316,414.054138 570.332153,414.728699 569.936157,415.760284 
	C568.996521,417.022339 568.485718,417.927338 567.974915,418.832336 
	C565.587769,419.239594 563.200562,419.646881 560.405518,420.021606 
z"/>
<path fill="#9A8FA6" opacity="1.000000" stroke="none" 
	d="
M610.751343,362.296753 
	C610.981567,364.446869 610.989136,366.903015 610.922302,369.824707 
	C610.741577,367.727753 610.635132,365.165283 610.751343,362.296753 
z"/>
<path fill="#9A8FA6" opacity="1.000000" stroke="none" 
	d="
M568.290527,418.895508 
	C568.485718,417.927338 568.996521,417.022339 569.858398,416.089905 
	C569.674988,417.027924 569.140625,417.993286 568.290527,418.895508 
z"/>
</svg>