<?xml version="1.0" standalone="no"?>
<!DOCTYPE svg PUBLIC "-//W3C//DTD SVG 20010904//EN"
 "http://www.w3.org/TR/2001/REC-SVG-20010904/DTD/svg10.dtd">
<svg version="1.0" xmlns="http://www.w3.org/2000/svg"
 width="512.000000pt" height="512.000000pt" viewBox="0 0 512.000000 512.000000"
 preserveAspectRatio="xMidYMid meet">

<g transform="translate(0.000000,512.000000) scale(0.100000,-0.100000)"
fill="#E749A0" stroke="none">
<path d="M3237 3773 c-4 -3 -7 -195 -7 -426 l0 -419 -52 47 c-157 141 -388
164 -606 60 -124 -59 -237 -186 -297 -334 -63 -153 -90 -375 -74 -598 28 -396
194 -655 474 -739 88 -26 260 -24 337 4 74 27 155 80 207 137 44 48 44 48 56
-35 3 -25 8 -57 11 -72 l6 -28 234 0 234 0 0 1205 0 1205 -258 0 c-142 0 -262
-3 -265 -7z m-162 -1094 c49 -13 127 -74 150 -120 12 -23 15 -85 15 -339 0
-341 0 -338 -62 -396 -57 -55 -95 -68 -183 -69 -128 0 -187 43 -235 173 -49
131 -50 416 -1 572 47 152 164 217 316 179z"/>
<path d="M1352 2513 l3 -1138 273 -3 272 -2 0 1140 0 1140 -275 0 -275 0 2
-1137z"/>
</g>
</svg>
