<svg version="1.1" id="Layer_1" xmlns="http://www.w3.org/2000/svg" xmlns:xlink="http://www.w3.org/1999/xlink" x="0px" y="0px"
	width="100%" viewBox="0 0 512 512" enable-background="new 0 0 512 512" xml:space="preserve">
<path fill="#DE0F1C" opacity="1.000000" stroke="none" 
	d="
M176.101440,308.963928 
	C168.328445,312.036804 160.881973,314.850464 153.651077,318.138245 
	C152.025375,318.877441 150.322998,321.224091 150.223343,322.922699 
	C150.156219,324.066498 152.670532,326.081726 154.327606,326.485443 
	C162.698242,328.524536 171.087784,330.847046 179.613617,331.828094 
	C225.677490,337.128479 271.711121,335.354034 317.665924,330.221924 
	C329.890045,328.856781 342.093506,327.118561 354.198059,324.947174 
	C360.726196,323.776123 367.492981,321.884949 368.150604,313.229462 
	C372.370178,315.660706 373.629913,319.102386 370.202179,322.207062 
	C365.896820,326.106659 360.815704,330.188660 355.391785,331.614532 
	C340.651947,335.489288 325.674042,338.924255 310.576324,340.881989 
	C270.492462,346.079681 230.167587,346.337433 189.885910,343.812073 
	C173.492401,342.784302 157.195847,340.042633 140.899551,337.763489 
	C137.363174,337.268890 133.874847,335.706604 130.614517,334.121582 
	C124.816719,331.302917 123.771988,326.860565 128.126770,322.144287 
	C130.765106,319.286926 134.161758,316.845062 137.663254,315.121826 
	C149.018021,309.533661 161.156921,306.917969 173.824799,307.037262 
	C174.724182,307.045746 175.612442,308.235565 176.101440,308.963928 
z"/>
<path fill="#DE0F1C" opacity="1.000000" stroke="none" 
	d="
M276.899109,62.884041 
	C291.896484,47.750595 298.057220,30.557892 291.374176,9.889807 
	C291.309570,9.689947 291.596313,9.376461 292.037964,8.439067 
	C296.539703,13.923231 298.873901,19.977425 299.962463,26.466208 
	C302.941162,44.221024 297.053711,59.536541 285.172394,72.216637 
	C273.918335,84.227303 261.477753,95.122330 249.646835,106.598595 
	C245.825592,110.305305 242.231918,114.252174 238.621521,118.169724 
	C224.022568,134.010544 225.395126,151.112473 235.893234,168.024261 
	C241.150604,176.493515 246.810532,184.712280 252.231522,193.081192 
	C253.077698,194.387527 253.619553,195.890991 254.302155,197.303314 
	C253.888992,197.643524 253.475830,197.983734 253.062683,198.323959 
	C247.537247,193.200485 241.747635,188.330170 236.543228,182.899094 
	C226.722137,172.650192 217.939819,161.620636 212.609039,148.205902 
	C207.138550,134.439560 209.474243,121.595032 220.482544,111.900848 
	C233.721695,100.242096 247.559570,89.265976 260.981171,77.810303 
	C266.418274,73.169579 271.440735,68.043030 276.899109,62.884041 
z"/>
<path fill="#DE0F1C" opacity="1.000000" stroke="none" 
	d="
M241.791718,445.000305 
	C241.791702,457.153229 241.791702,468.806244 241.791702,480.381287 
	C233.445724,482.900513 229.643677,481.035431 224.440689,471.761200 
	C221.592728,473.685669 218.994064,476.192352 215.891129,477.367523 
	C210.875946,479.266968 205.525650,481.431549 200.323151,481.415710 
	C192.603928,481.392273 186.785400,475.549591 185.133545,468.444885 
	C183.135315,459.850494 185.778549,451.170288 193.498596,447.272003 
	C201.395813,443.284332 210.173706,441.029327 218.596649,438.103882 
	C220.270248,437.522614 222.082260,437.339783 224.056442,436.925842 
	C224.056442,435.137909 224.066223,433.656372 224.054855,432.174927 
	C223.973785,421.608582 216.713089,415.777100 206.513458,418.798340 
	C200.883286,420.466064 195.645416,423.458221 189.705063,426.085815 
	C188.622818,422.501770 187.493637,418.762329 186.265915,414.696594 
	C199.098862,407.345520 212.424561,403.606598 226.931641,407.371307 
	C235.266586,409.534241 240.436737,415.283173 241.192001,424.041687 
	C241.777206,430.828033 241.619293,437.678436 241.791718,445.000305 
M206.138245,468.534210 
	C212.703064,471.501190 219.092789,468.839935 221.945389,464.016907 
	C224.735779,459.299011 223.942108,452.461365 224.894623,445.243439 
	C217.975555,447.493195 212.556961,448.617706 207.737991,450.970428 
	C200.408798,454.548798 199.668625,462.177856 206.138245,468.534210 
z"/>
<path fill="#DE0E1A" opacity="1.000000" stroke="none" 
	d="
M386.498810,476.705994 
	C384.384766,478.547699 382.104095,480.011353 379.482422,481.467194 
	C373.879974,480.407227 371.042572,476.776031 369.406067,471.522858 
	C366.008392,473.821350 363.259735,476.471313 359.978149,477.714294 
	C355.124512,479.552734 349.862640,481.527985 344.828094,481.396484 
	C336.787170,481.186401 331.411835,475.519867 329.726746,467.789642 
	C327.903625,459.426239 330.606873,451.014465 338.253723,447.207092 
	C346.170166,443.265564 354.929749,441.006622 363.349854,438.096588 
	C365.031372,437.515503 366.845184,437.317200 368.483948,436.966766 
	C370.084259,421.011841 361.391846,414.273163 346.899628,420.053101 
	C342.796906,421.689392 339.003998,424.102509 334.454437,426.480560 
	C333.264221,422.494385 332.151947,418.769226 330.936310,414.697998 
	C343.676147,407.379028 356.958008,403.656860 371.480835,407.330292 
	C380.495972,409.610596 385.823669,416.340118 386.015991,425.885529 
	C386.354614,442.694977 386.250793,459.513306 386.498810,476.705994 
M347.796936,465.534088 
	C350.461700,469.640533 354.540680,470.908722 358.594604,468.963684 
	C362.371979,467.151306 367.075592,464.557281 368.448792,461.134705 
	C370.154938,456.882385 368.857880,451.425079 368.857880,445.955231 
	C363.971771,447.189850 359.524780,447.923492 355.367401,449.447296 
	C347.349823,452.385864 345.367950,456.553802 347.796936,465.534088 
z"/>
<path fill="#DE0E1B" opacity="1.000000" stroke="none" 
	d="
M304.424713,97.381088 
	C297.489929,104.085426 290.201996,110.039604 284.316010,117.153702 
	C274.716248,128.756454 275.135345,144.392197 286.908752,155.273148 
	C295.718384,163.414963 299.976288,173.499649 296.958008,185.388123 
	C293.685059,198.279678 283.815033,205.395172 272.497070,210.925018 
	C276.859985,205.163147 278.984955,198.797958 279.423798,191.685944 
	C279.764648,186.162048 278.217407,181.579666 274.321655,177.677094 
	C270.686829,174.035873 266.543060,170.703903 263.700226,166.506454 
	C253.339447,151.208679 255.984085,128.572754 269.386963,113.917412 
	C280.567505,101.692047 295.005463,94.517212 309.838409,88.015678 
	C315.253052,85.642357 320.847504,83.679268 326.790070,82.441536 
	C319.427094,87.344963 312.064117,92.248383 304.424713,97.381088 
z"/>
<path fill="#DE0E1B" opacity="1.000000" stroke="none" 
	d="
M266.433228,451.633423 
	C260.849884,437.184021 255.443878,423.080780 249.828781,408.432068 
	C256.545349,407.567841 262.874207,406.753510 269.544891,405.895172 
	C275.332153,424.307098 281.071106,442.565399 286.967682,461.325134 
	C287.463013,460.075378 287.904419,459.126495 288.221252,458.137695 
	C293.343292,442.153046 298.518402,426.184662 303.494141,410.154480 
	C304.362610,407.356598 305.687164,406.592072 308.487152,406.814148 
	C312.240845,407.111816 316.035889,406.887878 320.539398,406.887878 
	C319.729034,409.349884 319.355255,410.732056 318.827362,412.052643 
	C310.560669,432.732605 302.123505,453.346558 294.120056,474.127625 
	C292.531860,478.251495 290.356537,479.945435 286.222382,479.882111 
	C284.396912,479.854187 282.481079,480.514496 280.764435,480.139069 
	C279.209473,479.799011 277.089813,478.801025 276.561035,477.533356 
	C273.042908,469.099396 269.885315,460.515045 266.433228,451.633423 
z"/>
<path fill="#DE0E1B" opacity="1.000000" stroke="none" 
	d="
M159.954300,493.309021 
	C155.079391,491.620117 150.283035,489.609741 145.332336,487.296051 
	C150.258148,479.320618 151.418579,470.667999 151.389282,461.753204 
	C151.305069,436.125488 151.169876,410.497925 151.056763,384.870300 
	C151.048096,382.904816 151.055603,380.939270 151.055603,378.768280 
	C157.795670,378.768280 164.199417,378.768280 170.509079,378.768280 
	C170.698380,379.392426 170.879135,379.707123 170.876724,380.020386 
	C170.662689,407.811157 170.409668,435.601624 170.219772,463.392578 
	C170.144394,474.422943 166.679337,484.241547 159.954300,493.309021 
z"/>
<path fill="#DF111D" opacity="1.000000" stroke="none" 
	d="
M290.451721,228.313599 
	C250.781052,233.553513 211.504974,237.102386 172.121552,229.939682 
	C167.264679,229.056366 162.482300,227.400299 157.886993,225.551514 
	C153.870377,223.935532 153.305786,221.202667 156.585449,218.289978 
	C159.885071,215.359573 163.707642,212.763947 167.717300,210.933197 
	C181.522827,204.629745 196.077866,202.000168 211.377045,203.166565 
	C203.933975,205.153168 196.562851,206.909683 189.343399,209.154129 
	C186.562729,210.018600 183.881836,211.689468 181.596130,213.537811 
	C178.724960,215.859589 179.170334,218.924072 182.702759,219.979416 
	C187.444138,221.395966 192.424164,222.656387 197.331024,222.775314 
	C238.618912,223.776077 279.960052,225.518372 320.834808,217.207092 
	C321.806702,217.009476 322.817291,216.965683 323.812531,216.933456 
	C324.398590,216.914520 324.989990,217.060013 327.023071,217.306931 
	C314.812805,223.668579 302.976715,226.363800 290.451721,228.313599 
z"/>
<path fill="#DE0F1B" opacity="1.000000" stroke="none" 
	d="
M267.898315,293.018494 
	C276.078766,291.860596 283.803009,290.675385 291.547974,289.645935 
	C292.899109,289.466309 294.571411,289.536987 295.695312,290.185486 
	C300.845703,293.157349 305.853821,296.375732 312.405151,300.428711 
	C297.970856,303.549103 284.641357,307.186493 271.070465,309.184814 
	C251.378845,312.084473 231.525421,312.136261 212.126007,306.832520 
	C206.482941,305.289703 200.941299,302.564697 196.042740,299.335510 
	C191.030975,296.031738 191.260513,291.521362 195.973297,287.869507 
	C198.767456,285.704407 202.071381,284.197144 206.092682,281.839020 
	C204.926849,289.594971 209.713120,291.253357 214.289322,291.853394 
	C224.155518,293.147095 234.107712,294.138489 244.047455,294.404785 
	C251.830276,294.613281 259.647308,293.545044 267.898315,293.018494 
z"/>
<path fill="#DE0E1B" opacity="1.000000" stroke="none" 
	d="
M294.385559,266.328186 
	C265.153320,272.024750 236.161804,273.221802 207.138611,268.782257 
	C200.094696,267.704773 193.010986,264.984589 186.687698,261.623566 
	C180.093582,258.118622 180.407654,253.168594 186.687866,248.944702 
	C189.914093,246.774826 193.572006,245.246796 197.434540,243.218857 
	C197.046082,246.504868 195.661926,249.859940 196.723740,251.071671 
	C198.598831,253.211548 201.842575,254.823257 204.729477,255.274811 
	C212.260971,256.452789 219.898361,257.345337 227.513199,257.527161 
	C252.639069,258.126984 277.768311,258.322205 302.382416,251.870850 
	C303.366455,251.612930 304.782349,251.631729 305.550385,252.164948 
	C308.414581,254.153641 311.108490,256.390747 313.831696,258.577728 
	C314.827454,259.377380 315.726776,260.297089 317.257629,261.700806 
	C309.298859,263.304169 302.051453,264.764191 294.385559,266.328186 
z"/>
<path fill="#DF131F" opacity="1.000000" stroke="none" 
	d="
M235.060516,356.054443 
	C262.208588,356.561890 288.793182,355.953949 315.259186,352.164856 
	C339.249695,348.730103 362.636871,343.426361 384.369446,332.252625 
	C384.774902,332.044098 385.309937,332.087646 386.974091,332.928436 
	C384.834778,335.780334 383.107819,339.103333 380.483093,341.400696 
	C370.346130,350.273285 357.720306,353.817841 344.904266,355.843353 
	C303.012115,362.464172 260.814850,364.399292 218.488403,361.810883 
	C204.154022,360.934235 189.807922,359.116730 176.384949,352.771851 
	C195.779648,353.865112 215.174362,354.958344 235.060516,356.054443 
z"/>
<path fill="#DF111E" opacity="1.000000" stroke="none" 
	d="
M374.443176,202.493988 
	C391.027252,211.684143 393.334137,229.806320 379.651855,243.689804 
	C369.368500,254.124405 356.294861,260.009369 342.688568,264.761902 
	C341.426605,265.202698 339.877167,264.820587 339.173676,265.508057 
	C348.150909,258.038513 357.717010,251.159393 365.952332,242.945969 
	C375.650543,233.273514 375.693085,218.147675 367.399170,209.501801 
	C362.481232,204.375183 356.170563,203.397827 349.539917,203.413864 
	C347.564667,203.418640 345.590210,203.760162 343.534485,203.955063 
	C347.637939,196.648849 361.702209,196.521790 374.443176,202.493988 
z"/>
</svg>