<svg version="1.1" id="Layer_1" xmlns="http://www.w3.org/2000/svg" xmlns:xlink="http://www.w3.org/1999/xlink" x="0px" y="0px"
	width="100%" viewBox="0 0 840 470" enable-background="new 0 0 840 470" xml:space="preserve">
<path fill="#9A8FA6" opacity="1.000000" stroke="none" 
	d="
M421.363098,429.460541 
	C414.681244,427.950653 408.334595,426.382843 401.588287,424.821533 
	C401.188599,424.828064 401.160278,424.855743 401.047791,424.650330 
	C400.677216,424.192444 400.379852,424.131287 400.043152,424.261414 
	C399.420685,424.071686 398.798248,423.881958 397.654480,423.498291 
	C396.764923,423.243896 396.396729,423.183411 396.028503,423.122925 
	C385.064911,419.992950 374.101318,416.862946 362.453369,413.478210 
	C356.213623,411.805664 350.658173,410.387848 344.850647,408.707977 
	C339.065735,406.964417 333.532867,405.482910 327.850769,403.905914 
	C327.701569,403.810425 327.349274,403.847748 327.074615,403.589417 
	C318.659607,401.132782 310.519287,398.934479 302.113403,396.476715 
	C298.901733,395.487823 295.955658,394.758392 292.761139,393.927216 
	C292.158661,393.800171 291.804596,393.774872 291.181885,393.487793 
	C287.942169,392.460663 284.971161,391.695282 281.814545,390.846161 
	C281.628967,390.762421 281.222015,390.748108 281.243225,390.807831 
	C281.264435,390.867554 281.299133,390.745636 281.280090,390.395203 
	C281.109314,389.359589 280.957581,388.674438 280.829529,387.671356 
	C280.793793,386.934021 280.734375,386.514648 280.784271,385.663818 
	C277.531219,348.819366 274.168884,312.406311 270.836884,275.673553 
	C270.818298,274.929962 270.769379,274.506073 270.824463,273.649597 
	C270.231232,266.826843 269.533966,260.436737 268.887207,253.640961 
	C268.802124,252.163559 268.666534,251.091827 268.645844,249.603363 
	C268.106171,243.125153 267.451630,237.063629 266.828827,230.681061 
	C266.794952,229.936691 266.729340,229.513397 266.780273,228.666565 
	C266.317657,224.400558 265.738495,220.558075 265.205902,216.436707 
	C265.204529,215.785187 265.156555,215.412567 265.315979,214.766815 
	C265.273590,212.341324 265.023834,210.188950 264.814484,207.664581 
	C264.736664,206.560410 264.618439,205.828232 264.619995,204.726318 
	C264.486053,202.914352 264.232391,201.472107 264.014648,199.569672 
	C262.945801,187.084991 261.841034,175.060486 260.777710,162.707535 
	C260.722046,161.952164 260.624908,161.525238 260.644043,160.674973 
	C259.416443,146.526779 258.072601,132.801941 256.801880,118.662148 
	C256.706757,117.143936 256.538483,116.040688 256.502197,114.541580 
	C255.348831,101.125214 254.063431,88.104706 252.778046,75.084198 
	C252.769119,73.662140 252.760193,72.240074 252.620087,70.409454 
	C251.575272,60.612179 250.661621,51.223461 249.867584,41.409416 
	C299.948364,41.031319 349.909515,41.100185 399.870697,41.120296 
	C462.156586,41.145370 524.442444,41.125874 586.728333,41.139549 
	C592.654175,41.140850 592.658325,41.194088 591.408081,49.611294 
	C591.374146,51.091347 591.246460,52.179462 591.080933,54.084305 
	C590.332764,64.241127 589.622375,73.581223 588.708801,83.293686 
	C588.482300,84.497421 588.458923,85.328773 588.287109,86.540596 
	C587.964905,89.605125 587.791077,92.289185 587.465027,95.361786 
	C587.290955,96.856064 587.269104,97.961792 587.144897,99.477074 
	C586.327820,109.274590 585.613159,118.662552 584.829834,128.326233 
	C584.806091,128.975113 584.850830,129.348267 584.644409,130.050568 
	C583.535461,140.600433 582.677734,150.821152 581.627441,161.424759 
	C581.371948,163.230972 581.309082,164.654297 581.145874,166.456268 
	C581.065369,167.876587 581.085327,168.918259 581.013794,170.272461 
	C580.934021,171.016647 580.945679,171.448273 580.704468,172.201614 
	C580.205566,176.707565 579.959534,180.891800 579.555481,185.446991 
	C579.373474,186.887390 579.349487,187.956818 579.196106,189.379303 
	C579.090881,190.479294 579.114990,191.226227 579.043030,192.365707 
	C578.923279,194.087006 578.899658,195.415756 578.629883,197.074921 
	C577.516235,207.583374 576.648804,217.761429 575.579895,228.360672 
	C574.983582,234.836395 574.588623,240.890915 574.095581,247.350586 
	C573.752441,250.517776 573.507385,253.279816 573.153687,256.354309 
	C573.090454,257.100983 573.135803,257.535187 573.106445,258.343079 
	C573.049011,259.475067 573.066406,260.233307 572.912109,261.364319 
	C571.939636,269.481964 571.028687,277.217346 570.363342,284.973877 
	C569.331360,297.005798 568.466797,309.052155 567.395752,321.444275 
	C567.250061,322.545807 567.239746,323.295471 567.114258,324.458618 
	C566.472778,329.771729 565.848633,334.663208 565.441467,339.572693 
	C564.709961,348.392548 564.108643,357.223236 563.348389,366.373657 
	C563.257690,367.149200 563.271484,367.600433 563.160156,368.429626 
	C563.048096,369.864349 563.061157,370.921082 563.002808,372.312561 
	C562.952332,373.101593 562.973267,373.555878 562.752319,374.332764 
	C562.129456,379.438049 561.748596,384.220734 561.211975,389.293762 
	C560.313538,390.357513 559.570862,391.130951 558.612915,391.941040 
	C558.397583,391.977661 557.996643,392.151306 557.613647,392.066895 
	C555.109436,392.618042 552.988220,393.253571 550.912903,393.880005 
	C550.958740,393.870911 550.887939,393.809906 550.504639,393.802216 
	C548.034790,394.490662 545.948364,395.186798 543.906189,395.869202 
	C543.950500,395.855438 543.874878,395.801697 543.501526,395.794678 
	C542.422363,395.996429 541.716614,396.205200 540.635132,396.387604 
	C534.829773,397.945740 529.400208,399.530273 523.682495,401.102051 
	C523.088501,401.308350 522.782654,401.527344 522.218506,401.701294 
	C521.640259,401.785919 521.320312,401.915619 520.604126,402.020752 
	C513.794189,403.881317 507.380371,405.766388 500.619019,407.668091 
	C499.834778,407.836578 499.398102,407.988464 498.659912,408.092163 
	C497.835327,408.314240 497.312256,408.584534 496.397095,408.864716 
	C491.009735,410.315643 486.014404,411.756622 481.019104,413.197601 
	C467.474823,416.923065 453.930542,420.648529 440.122437,424.628052 
	C437.131714,425.559967 434.404785,426.237885 431.048309,427.034515 
	C430.125763,427.358429 429.832794,427.563568 429.539825,427.768738 
	C429.182068,427.797028 428.824310,427.825317 427.911560,427.924835 
	C426.818573,428.271729 426.280579,428.547394 425.742584,428.823059 
	C425.342407,428.865753 424.942261,428.908417 424.014008,429.035400 
	C423.485931,429.119720 423.050201,429.356201 423.050201,429.356201 
	C422.599579,429.371674 422.148926,429.387146 421.363098,429.460541 
M421.028076,337.500000 
	C421.028076,358.886688 421.028076,380.273376 421.028076,402.443970 
	C427.187012,400.752197 432.259308,399.358154 437.332031,397.965576 
	C468.849609,389.313477 500.374115,380.686188 531.859375,371.917938 
	C533.090393,371.575134 534.705994,369.978119 534.852112,368.804871 
	C535.772400,361.414215 536.370178,353.981689 536.992004,346.556061 
	C537.752563,337.473907 538.355835,328.378204 539.164490,319.300598 
	C540.383545,305.615845 541.756287,291.944824 542.996704,278.261902 
	C543.789490,269.516266 544.407959,260.754822 545.200195,252.009125 
	C546.424622,238.491470 547.768738,224.984634 548.989014,211.466614 
	C549.778442,202.720993 550.375732,193.957977 551.169067,185.212753 
	C552.395142,171.695206 553.769775,158.191055 554.976562,144.671860 
	C555.786804,135.594528 556.317383,126.491989 557.149658,117.416931 
	C558.343689,104.396622 559.825134,91.401817 560.930725,78.374641 
	C561.470764,72.012238 561.211792,71.979744 554.958618,71.979263 
	C512.459961,71.975975 469.961365,71.976662 427.462738,71.978287 
	C421.033569,71.978531 421.029205,71.983849 421.029144,78.508270 
	C421.028015,164.505508 421.028229,250.502762 421.028076,337.500000 
M374.045929,198.500000 
	C374.045929,230.570419 374.045929,262.640839 374.045929,295.632050 
	C351.556763,289.436127 330.070129,283.516418 307.827332,277.388397 
	C307.827332,290.825287 307.712585,303.121368 308.014160,315.407288 
	C308.042664,316.568085 310.521881,318.245056 312.140778,318.704376 
	C338.226379,326.105560 364.354095,333.358521 390.479889,340.617706 
	C395.815491,342.100220 401.182159,343.470917 407.176941,345.063843 
	C407.176941,342.246063 407.176941,340.277435 407.176910,338.308807 
	C407.175934,266.659210 407.174988,195.009644 407.173737,123.360054 
	C407.173737,122.193665 407.079254,121.018890 407.186096,119.862549 
	C407.451202,116.992645 406.113159,116.093437 403.366364,116.133553 
	C395.536560,116.247879 387.692627,116.426857 379.876801,116.076729 
	C375.222626,115.868225 373.917816,117.421051 373.954590,122.018768 
	C374.155640,147.177811 374.047760,172.339325 374.045929,198.500000 
z"/>
<path fill="#9A8FA6" opacity="1.000000" stroke="none" 
	d="
M421.028107,337.000000 
	C421.028229,250.502762 421.028015,164.505508 421.029144,78.508270 
	C421.029205,71.983849 421.033569,71.978531 427.462738,71.978287 
	C469.961365,71.976662 512.459961,71.975975 554.958618,71.979263 
	C561.211792,71.979744 561.470764,72.012238 560.930725,78.374641 
	C559.825134,91.401817 558.343689,104.396622 557.149658,117.416931 
	C556.317383,126.491989 555.786804,135.594528 554.976562,144.671860 
	C553.769775,158.191055 552.395142,171.695206 551.169067,185.212753 
	C550.375732,193.957977 549.778442,202.720993 548.989014,211.466614 
	C547.768738,224.984634 546.424622,238.491470 545.200195,252.009125 
	C544.407959,260.754822 543.789490,269.516266 542.996704,278.261902 
	C541.756287,291.944824 540.383545,305.615845 539.164490,319.300598 
	C538.355835,328.378204 537.752563,337.473907 536.992004,346.556061 
	C536.370178,353.981689 535.772400,361.414215 534.852112,368.804871 
	C534.705994,369.978119 533.090393,371.575134 531.859375,371.917938 
	C500.374115,380.686188 468.849609,389.313477 437.332031,397.965576 
	C432.259308,399.358154 427.187012,400.752197 421.028076,402.443970 
	C421.028076,380.273376 421.028076,358.886688 421.028107,337.000000 
M475.500000,116.179176 
	C464.000854,116.180191 452.495178,116.406380 441.005646,116.074272 
	C436.235443,115.936386 434.846558,117.286148 434.865906,122.140854 
	C435.047882,167.804565 434.973969,213.469269 434.973907,259.133698 
	C434.973907,260.907684 434.973907,262.681641 434.973907,265.091736 
	C457.898041,261.009613 480.019897,257.070343 502.765747,253.019974 
	C502.765747,256.128052 502.887756,258.423096 502.743134,260.701202 
	C502.289978,267.839600 501.400879,274.969147 501.349121,282.106995 
	C501.318726,286.292175 499.717499,287.915680 495.891998,288.892090 
	C477.042694,293.703186 458.270538,298.816559 439.419250,303.619629 
	C436.072327,304.472351 434.815765,305.848663 434.892365,309.384705 
	C435.119568,319.879303 434.960358,330.382019 435.000244,340.881348 
	C435.004944,342.117310 435.308746,343.352112 435.515625,344.899323 
	C436.905334,344.577454 437.857330,344.379150 438.797607,344.135834 
	C453.445953,340.345551 468.100983,336.580750 482.737549,332.745422 
	C496.252960,329.203857 509.778442,325.691650 523.216309,321.873779 
	C525.021667,321.360809 527.096069,319.398224 527.709595,317.640503 
	C528.668640,314.892792 528.548462,311.751404 528.777527,308.768524 
	C531.146912,277.915863 533.504944,247.062302 535.826843,216.206055 
	C535.992188,214.008575 535.848511,211.787842 535.848511,209.403793 
	C528.940613,210.221802 522.846008,210.919922 516.757629,211.669235 
	C502.235870,213.456467 487.709595,215.210587 473.201996,217.107208 
	C469.267395,217.621613 467.974426,216.370895 468.025604,212.298889 
	C468.233093,195.802292 468.293579,179.298447 468.005615,162.804306 
	C467.918457,157.813614 469.674500,156.678329 474.341766,156.729599 
	C494.671661,156.952927 515.006592,156.710083 535.336731,156.919342 
	C539.749023,156.964752 540.943054,155.502487 541.158264,151.222137 
	C541.633850,141.763428 542.686157,132.328659 543.680786,122.902870 
	C544.341919,116.638405 544.060913,116.183357 537.497009,116.181374 
	C517.164673,116.175240 496.832336,116.179382 475.500000,116.179176 
z"/>
</svg>