<svg version="1.1" id="Layer_1" xmlns="http://www.w3.org/2000/svg" xmlns:xlink="http://www.w3.org/1999/xlink" x="0px" y="0px"
	 width="100%" viewBox="0 0 500 500" enable-background="new 0 0 500 500" xml:space="preserve">
<path fill="#000000" opacity="1.000000" stroke="none" 
	d="
M237.000000,501.000000 
	C158.000015,501.000000 79.500038,501.000000 1.000042,501.000000 
	C1.000028,334.333405 1.000028,167.666779 1.000014,1.000132 
	C167.666565,1.000088 334.333130,1.000088 500.999756,1.000044 
	C500.999847,167.666519 500.999847,334.333038 500.999939,500.999786 
	C413.166656,501.000000 325.333344,501.000000 237.000000,501.000000 
M164.890045,275.005249 
	C169.845215,274.337006 175.724564,271.668915 179.553253,273.438263 
	C186.433975,276.618011 192.051910,274.644989 198.182938,272.906403 
	C198.437241,272.834320 198.626007,272.531158 198.667938,272.493774 
	C198.667938,267.925751 198.667938,263.523041 198.667938,259.091919 
	C190.361649,259.091919 182.387695,259.091919 175.724106,259.091919 
	C171.176193,264.669037 167.200241,269.544739 162.778763,274.802917 
	C162.647141,275.138245 162.515518,275.473541 162.383881,275.808868 
	C162.947525,275.565857 163.511185,275.322876 164.890045,275.005249 
M214.879929,289.022095 
	C219.337158,289.621460 220.118683,291.002350 217.794159,294.506500 
	C216.539612,296.397675 214.911911,298.038605 213.619583,299.907928 
	C208.026474,307.998322 202.165024,315.930603 197.060852,324.321655 
	C193.834274,329.626038 196.236694,333.815887 201.777252,336.115814 
	C206.202377,337.952759 209.852341,336.775574 213.096359,334.254364 
	C216.699738,331.453857 219.807526,328.015625 224.000000,324.028778 
	C224.000000,326.917419 223.608978,328.778961 224.094894,330.373230 
	C224.764999,332.571930 225.679108,335.862549 227.237991,336.366150 
	C229.960434,337.245667 233.629272,337.202484 236.234695,336.045013 
	C242.911575,333.078796 249.222153,329.288025 255.301971,326.029114 
	C255.248520,326.757202 254.435699,328.850708 255.143143,330.039612 
	C256.670013,332.605499 258.644745,336.164276 261.031433,336.709015 
	C266.823181,338.030884 272.728699,336.756348 277.588318,332.852356 
	C281.601898,329.628021 285.428497,326.170929 289.337982,322.816956 
	C289.815216,324.516052 289.342651,325.633911 289.077026,326.799011 
	C288.178619,330.739532 290.840668,336.567627 294.141571,336.856903 
	C297.497284,337.150970 301.344421,337.311615 304.262482,335.973724 
	C310.140594,333.278717 315.534058,329.526672 321.000000,326.286316 
	C321.000000,326.756592 320.981354,328.034149 321.003204,329.311035 
	C321.100098,334.968689 322.108124,335.707306 327.503723,336.066437 
	C334.981689,336.564148 341.088654,333.699890 346.720306,329.187256 
	C347.396759,336.453094 353.929047,337.712860 360.707855,334.957825 
	C371.694641,330.492676 378.067902,321.198334 384.613190,310.283325 
	C377.939148,314.909180 372.408691,318.742401 366.878265,322.575623 
	C366.464874,322.129852 366.051483,321.684082 365.638062,321.238312 
	C373.880280,308.744171 382.122498,296.250061 390.863373,283.000031 
	C385.957855,283.000031 382.131378,283.339844 378.390594,282.918671 
	C373.067230,282.319336 373.472931,288.073944 370.368500,289.878571 
	C364.480988,279.766022 356.398193,281.507385 349.492767,286.474731 
	C339.012299,294.013794 330.114258,303.313599 323.678009,314.985596 
	C321.635468,318.689728 316.138092,320.782227 311.846527,322.823456 
	C309.837708,323.778961 306.738892,322.966064 308.977356,319.237030 
	C311.610321,314.850616 314.201080,310.432434 317.008789,306.158539 
	C324.316681,295.034668 331.047150,283.649750 343.431946,276.733429 
	C351.784058,272.069183 358.739655,265.163666 362.990082,256.143066 
	C366.187408,249.357407 362.345764,242.666061 354.909485,243.212936 
	C351.186615,243.486710 346.337433,244.968964 344.208099,247.656158 
	C332.045319,263.005676 320.397308,278.772919 308.877014,294.618225 
	C301.243744,305.117218 294.609619,316.478302 281.755859,321.683716 
	C280.569977,322.163940 279.372223,322.848969 278.142944,322.940338 
	C275.344452,323.148346 272.748322,322.775909 274.998993,318.959747 
	C277.598633,314.551971 280.314728,310.212250 283.015869,305.865082 
	C290.800873,293.335999 299.530609,281.971100 312.814880,274.325500 
	C320.047729,270.162720 325.894287,263.622192 329.157654,255.383682 
	C331.189911,250.253281 329.959290,246.324631 325.283875,244.069092 
	C320.499207,241.760849 313.981506,242.621140 310.251923,247.414993 
	C297.614502,263.658600 285.332916,280.181488 273.064606,296.708435 
	C268.649475,302.656158 264.763062,308.993805 260.440216,315.013367 
	C256.592316,320.371582 247.470078,323.822449 242.541595,321.403778 
	C251.046295,309.042450 259.484894,296.777191 268.363251,283.872742 
	C260.556213,284.749664 252.308380,280.856873 248.085739,290.323761 
	C247.053818,292.637207 245.370346,294.728119 243.701828,296.677795 
	C236.488449,305.106750 232.283615,316.303986 221.237457,321.214630 
	C220.385696,321.593292 219.483688,321.858948 217.602081,322.540344 
	C218.270752,319.984436 218.373215,318.014008 219.255310,316.496887 
	C222.889954,310.245575 227.239182,304.359497 230.332230,297.865906 
	C231.755356,294.878204 231.638855,290.625824 230.861847,287.260620 
	C229.961227,283.360107 226.053345,283.325562 222.460236,282.877289 
	C215.586929,282.019775 211.299469,286.500183 207.071121,289.329102 
	C205.612701,287.242340 204.658112,284.270050 202.845398,283.592041 
	C197.933151,281.754730 194.052139,285.075226 189.984222,287.240204 
	C194.643311,296.159882 183.682114,313.768799 173.515182,314.660187 
	C174.812454,311.176666 176.483841,307.713135 177.316925,304.058472 
	C177.799042,301.943481 176.930832,299.520660 176.670319,297.236389 
	C174.446548,298.499329 171.096298,299.242218 170.225052,301.129547 
	C168.184891,305.548950 167.377975,310.530273 165.970291,315.253876 
	C165.586578,316.541443 165.161102,318.338409 164.203018,318.833221 
	C161.524521,320.216614 158.614777,321.259521 155.689026,322.028931 
	C152.271271,322.927704 150.216141,322.143066 149.889191,317.783600 
	C149.079666,306.989594 164.492386,291.994141 172.016785,289.197815 
	C172.881668,288.876404 174.830307,290.821411 175.924347,292.033417 
	C176.493530,292.663971 176.293259,293.989105 176.540268,295.684937 
	C178.175781,294.156433 179.414383,293.297729 180.258560,292.149170 
	C182.150803,289.574585 180.583969,284.292725 177.714310,284.130249 
	C174.513489,283.949097 170.693573,283.679199 168.141434,285.163940 
	C160.933929,289.356995 154.224258,294.409454 147.351410,299.170898 
	C146.047058,300.074554 144.894211,301.196869 142.908966,302.855255 
	C144.248230,298.195465 145.260788,294.871277 146.155304,291.515594 
	C147.662598,285.861053 145.099304,282.632080 139.470520,283.000305 
	C134.070892,283.353546 128.429596,288.583191 128.083389,293.933533 
	C127.971687,295.659851 128.827438,297.448792 129.210083,299.079041 
	C132.128723,295.746277 134.442810,293.103851 136.756897,290.461426 
	C137.271866,290.785187 137.786850,291.108948 138.301819,291.432709 
	C137.873535,293.268707 137.956696,295.480408 136.930542,296.877167 
	C131.841125,303.804535 126.653252,310.684540 121.041451,317.185303 
	C119.665115,318.779694 116.566696,318.887512 114.260002,319.678802 
	C113.841873,317.338684 113.365303,315.006439 113.047989,312.652740 
	C112.971619,312.086304 113.326996,311.391571 113.646584,310.852356 
	C118.053757,303.416473 122.389221,295.934570 126.984985,288.616394 
	C128.210922,286.664246 130.008789,284.821198 131.969986,283.628296 
	C137.569519,280.222382 143.786804,277.715942 149.017212,273.849457 
	C155.216705,269.266541 161.157761,264.165985 164.171539,256.519836 
	C166.923615,249.537659 163.719406,242.953430 156.832779,243.163635 
	C153.646378,243.260910 149.791000,244.287491 147.500214,246.316650 
	C142.054535,251.140457 137.101929,256.596497 132.419998,262.190369 
	C124.065842,272.171722 115.836372,282.274872 107.972748,292.644104 
	C100.986740,301.856079 93.839523,311.201477 92.424469,323.223175 
	C91.400833,331.919464 94.991112,338.350952 105.214958,337.111877 
	C117.811966,335.585205 124.264618,325.995880 132.000916,317.964661 
	C133.045273,316.880524 134.039520,315.748047 135.056992,314.637939 
	C135.787308,316.087341 135.697784,316.988922 135.576401,317.886230 
	C135.056168,321.731354 134.154587,325.569305 134.093155,329.421051 
	C134.013855,334.393646 139.779282,338.872253 144.534546,337.833710 
	C152.805740,336.027283 160.444504,332.533508 165.500137,325.695190 
	C168.203705,322.038300 170.887680,321.673706 174.709671,322.198792 
	C171.683075,326.932587 168.699615,331.598938 165.246414,337.000000 
	C169.842438,337.000000 173.490326,336.686829 177.054291,337.099182 
	C179.900269,337.428467 181.206375,336.037231 182.429199,334.032227 
	C187.283432,326.073029 191.966003,318.002655 197.035431,310.183014 
	C201.947693,302.605835 206.021561,294.268372 214.879929,289.022095 
M430.377319,160.000000 
	C421.623291,160.000000 412.869232,160.000000 404.000000,160.000000 
	C404.000000,166.484055 404.000000,172.306763 404.000000,178.129471 
	C404.000000,184.128738 404.220581,190.138519 403.935272,196.124191 
	C403.672729,201.632065 405.201660,207.361511 401.889160,212.606094 
	C401.889160,195.174438 401.889160,177.742798 401.889160,160.240936 
	C391.118286,160.240936 380.713715,160.240936 370.000000,160.240936 
	C370.000000,172.443604 370.170654,184.411011 369.952209,196.371323 
	C369.731659,208.448196 370.812805,219.879196 382.172394,227.293564 
	C380.148499,228.565170 378.095215,229.257370 376.970093,230.682434 
	C374.361450,233.986496 370.465546,236.953476 372.594727,242.183258 
	C375.194183,248.568237 374.316345,254.809723 372.077759,261.176422 
	C370.672211,265.173828 370.177094,269.491333 369.417542,273.000000 
	C376.080200,273.000000 381.682129,273.381989 387.212372,272.915009 
	C396.708191,272.113129 402.158844,279.031006 399.880035,288.904877 
	C401.014801,288.117432 401.920074,287.027893 401.934662,285.926605 
	C402.051453,277.095886 402.000000,268.262939 402.000000,259.430695 
	C402.000000,253.105103 402.000000,246.779510 402.000000,240.453934 
	C402.506073,240.440430 403.012177,240.426926 403.518250,240.413437 
	C403.518250,256.494904 403.518250,272.576416 403.518250,288.779449 
	C414.506775,288.779449 424.577728,288.779449 435.000000,288.779449 
	C435.000000,287.282104 435.000061,285.981812 435.000031,284.681519 
	C434.999756,271.183167 435.230896,257.679077 434.896820,244.189011 
	C434.740784,237.889374 431.488434,232.768051 426.295654,229.031097 
	C425.449066,228.421844 424.616974,227.792450 423.321716,226.834961 
	C431.108734,222.463638 434.636475,215.748383 434.872437,207.849960 
	C435.315186,193.031677 434.906555,178.189667 435.076599,163.360107 
	C435.111694,160.298050 433.957062,159.606979 430.377319,160.000000 
M67.000000,247.489563 
	C67.000000,249.655060 67.025444,251.820892 66.995979,253.985977 
	C66.757759,271.489807 76.668503,285.735443 94.440475,289.419128 
	C97.940765,290.144653 99.094299,288.614838 100.452019,286.932556 
	C109.329720,275.932892 118.074356,264.824738 126.765472,253.676437 
	C128.708221,251.184402 131.429718,248.529297 131.763275,245.709244 
	C132.515823,239.346634 131.999634,232.833969 131.999634,226.200043 
	C121.529160,226.200043 111.461243,226.200043 100.588852,226.200043 
	C100.588852,237.243668 100.588852,248.105545 100.588852,258.967438 
	C100.246704,258.946869 99.904549,258.926331 99.562401,258.905792 
	C99.562401,236.632034 99.562401,214.358276 99.562401,192.084503 
	C100.001564,192.072281 100.440735,192.060059 100.879898,192.047836 
	C100.879898,202.322632 100.879898,212.597427 100.879898,222.683868 
	C111.707764,222.683868 121.778206,222.683868 130.998413,222.683868 
	C130.998413,209.484329 132.907867,196.248917 130.571686,183.810959 
	C126.606407,162.699509 104.098488,154.888992 86.271484,162.453827 
	C72.957619,168.103531 67.287971,179.513916 67.067123,193.522705 
	C66.788818,211.175522 67.000000,228.836029 67.000000,247.489563 
M266.000000,211.500000 
	C266.000000,204.507858 266.622498,197.441559 265.801086,190.547272 
	C265.155212,185.125931 263.637726,179.384430 260.909790,174.719376 
	C254.290497,163.399719 243.814651,158.834946 230.720764,159.961288 
	C221.752792,160.732712 214.615005,164.192444 208.783554,171.376663 
	C202.852615,178.683456 201.034225,186.861893 201.013138,195.792786 
	C200.969528,214.271912 200.842834,232.753326 201.092316,251.229187 
	C201.170837,257.043488 202.139359,262.875824 203.078323,268.638336 
	C203.753601,272.782532 209.669525,275.706665 213.399048,273.906403 
	C218.676193,271.359070 224.060120,271.207031 229.456772,273.046356 
	C234.598618,274.798859 239.615097,276.925446 241.170502,282.126007 
	C244.384567,279.301483 247.614868,276.580719 250.678650,273.683807 
	C251.406021,272.996033 251.608917,271.730743 251.995834,270.709442 
	C254.489548,264.127472 257.272400,257.534821 263.267456,253.499130 
	C265.723541,251.845764 266.025543,250.322784 266.017792,247.960083 
	C265.978973,236.140167 266.000000,224.320053 266.000000,211.500000 
M302.997498,193.832001 
	C302.997498,209.061462 302.997498,224.290939 302.997498,239.833328 
	C312.457764,232.924973 319.617157,230.250183 332.999817,235.227615 
	C332.999817,218.828918 333.504364,202.112869 332.816803,185.445999 
	C332.381531,174.894928 321.028931,162.091003 310.790588,161.270782 
	C297.050385,160.170029 283.155609,160.998062 269.201233,160.998062 
	C269.201233,190.211578 269.201233,219.949417 269.201233,248.851044 
	C273.234467,250.279846 277.379700,250.811249 280.217072,253.021561 
	C282.959534,255.157944 284.354553,259.024078 286.251678,261.990051 
	C286.840790,261.241730 287.921356,259.852112 289.019531,258.476562 
	C300.999237,243.471237 301.000000,243.471848 301.000000,224.022537 
	C301.000000,221.024719 300.999908,218.026901 301.000000,215.029083 
	C301.000214,208.200729 300.977234,201.372238 301.017426,194.544113 
	C301.027222,192.879929 301.122620,192.880493 302.997498,193.832001 
M136.387543,243.077179 
	C144.223907,233.932938 154.001053,230.802521 165.794647,233.923752 
	C165.794647,209.206039 165.794647,184.794128 165.794647,160.201263 
	C155.189651,160.201263 144.790207,160.201263 134.291016,160.201263 
	C134.173447,160.840210 134.014435,161.301682 134.014206,161.763214 
	C134.001129,188.409515 134.000854,215.055832 134.001541,241.702133 
	C134.001556,242.534531 134.024643,243.366913 134.036972,244.199326 
	C134.655716,244.016846 135.274445,243.834381 136.387543,243.077179 
M336.000000,195.500000 
	C336.000000,200.494553 336.000000,205.489120 336.000000,210.483673 
	C336.000000,215.478210 335.980499,220.472855 336.005646,225.467270 
	C336.029388,230.185959 336.100067,234.904388 336.142517,238.907898 
	C342.106903,236.665344 346.862396,233.895599 351.888214,233.258621 
	C357.108246,232.597031 362.589722,233.998474 367.694580,234.473328 
	C367.694580,210.303452 367.694580,185.240921 367.694580,160.297684 
	C356.987976,160.297684 346.589142,160.297684 336.000000,160.297684 
	C336.000000,171.896332 336.000000,183.198166 336.000000,195.500000 
M273.783630,268.738831 
	C273.783630,266.286804 273.783630,263.834808 273.783630,260.615173 
	C271.798981,261.169037 269.720184,261.200806 268.401031,262.217865 
	C264.062439,265.562866 261.126129,270.003876 260.240570,275.495514 
	C260.035706,276.765900 260.431976,278.716736 261.302277,279.404083 
	C262.088165,280.024811 264.476929,279.881531 265.160065,279.146667 
	C268.033447,276.055695 270.532532,272.616760 273.783630,268.738831 
z"/>
<path fill="#FFFFFF" opacity="1.000000" stroke="none" 
	d="
M214.518936,289.165100 
	C206.021561,294.268372 201.947693,302.605835 197.035431,310.183014 
	C191.966003,318.002655 187.283432,326.073029 182.429199,334.032227 
	C181.206375,336.037231 179.900269,337.428467 177.054291,337.099182 
	C173.490326,336.686829 169.842438,337.000000 165.246414,337.000000 
	C168.699615,331.598938 171.683075,326.932587 174.709671,322.198792 
	C170.887680,321.673706 168.203705,322.038300 165.500137,325.695190 
	C160.444504,332.533508 152.805740,336.027283 144.534546,337.833710 
	C139.779282,338.872253 134.013855,334.393646 134.093155,329.421051 
	C134.154587,325.569305 135.056168,321.731354 135.576401,317.886230 
	C135.697784,316.988922 135.787308,316.087341 135.056992,314.637939 
	C134.039520,315.748047 133.045273,316.880524 132.000916,317.964661 
	C124.264618,325.995880 117.811966,335.585205 105.214958,337.111877 
	C94.991112,338.350952 91.400833,331.919464 92.424469,323.223175 
	C93.839523,311.201477 100.986740,301.856079 107.972748,292.644104 
	C115.836372,282.274872 124.065842,272.171722 132.419998,262.190369 
	C137.101929,256.596497 142.054535,251.140457 147.500214,246.316650 
	C149.791000,244.287491 153.646378,243.260910 156.832779,243.163635 
	C163.719406,242.953430 166.923615,249.537659 164.171539,256.519836 
	C161.157761,264.165985 155.216705,269.266541 149.017212,273.849457 
	C143.786804,277.715942 137.569519,280.222382 131.969986,283.628296 
	C130.008789,284.821198 128.210922,286.664246 126.984985,288.616394 
	C122.389221,295.934570 118.053757,303.416473 113.646584,310.852356 
	C113.326996,311.391571 112.971619,312.086304 113.047989,312.652740 
	C113.365303,315.006439 113.841873,317.338684 114.259995,319.678772 
	C116.566696,318.887512 119.665115,318.779694 121.041451,317.185303 
	C126.653252,310.684540 131.841125,303.804535 136.930542,296.877167 
	C137.956696,295.480408 137.873535,293.268707 138.301819,291.432709 
	C137.786850,291.108948 137.271866,290.785187 136.756897,290.461426 
	C134.442810,293.103851 132.128723,295.746277 129.210083,299.079041 
	C128.827438,297.448792 127.971687,295.659851 128.083389,293.933533 
	C128.429596,288.583191 134.070892,283.353546 139.470520,283.000305 
	C145.099304,282.632080 147.662598,285.861053 146.155304,291.515594 
	C145.260788,294.871277 144.248230,298.195465 142.908966,302.855255 
	C144.894211,301.196869 146.047058,300.074554 147.351410,299.170898 
	C154.224258,294.409454 160.933929,289.356995 168.141434,285.163940 
	C170.693573,283.679199 174.513489,283.949097 177.714310,284.130249 
	C180.583969,284.292725 182.150803,289.574585 180.258560,292.149170 
	C179.414383,293.297729 178.175781,294.156433 176.540268,295.684937 
	C176.293259,293.989105 176.493530,292.663971 175.924347,292.033417 
	C174.830307,290.821411 172.881668,288.876404 172.016785,289.197815 
	C164.492386,291.994141 149.079666,306.989594 149.889191,317.783600 
	C150.216141,322.143066 152.271271,322.927704 155.689026,322.028931 
	C158.614777,321.259521 161.524521,320.216614 164.203018,318.833221 
	C165.161102,318.338409 165.586578,316.541443 165.970291,315.253876 
	C167.377975,310.530273 168.184891,305.548950 170.225052,301.129547 
	C171.096298,299.242218 174.446548,298.499329 176.670319,297.236389 
	C176.930832,299.520660 177.799042,301.943481 177.316925,304.058472 
	C176.483841,307.713135 174.812454,311.176666 173.515182,314.660187 
	C183.682114,313.768799 194.643311,296.159882 189.984222,287.240204 
	C194.052139,285.075226 197.933151,281.754730 202.845398,283.592041 
	C204.658112,284.270050 205.612701,287.242340 207.071121,289.329102 
	C211.299469,286.500183 215.586929,282.019775 222.460236,282.877289 
	C226.053345,283.325562 229.961227,283.360107 230.861847,287.260620 
	C231.638855,290.625824 231.755356,294.878204 230.332230,297.865906 
	C227.239182,304.359497 222.889954,310.245575 219.255310,316.496887 
	C218.373215,318.014008 218.270752,319.984436 217.602081,322.540344 
	C219.483688,321.858948 220.385696,321.593292 221.237457,321.214630 
	C232.283615,316.303986 236.488449,305.106750 243.701828,296.677795 
	C245.370346,294.728119 247.053818,292.637207 248.085739,290.323761 
	C252.308380,280.856873 260.556213,284.749664 268.363251,283.872742 
	C259.484894,296.777191 251.046295,309.042450 242.541595,321.403778 
	C247.470078,323.822449 256.592316,320.371582 260.440216,315.013367 
	C264.763062,308.993805 268.649475,302.656158 273.064606,296.708435 
	C285.332916,280.181488 297.614502,263.658600 310.251923,247.414993 
	C313.981506,242.621140 320.499207,241.760849 325.283875,244.069092 
	C329.959290,246.324631 331.189911,250.253281 329.157654,255.383682 
	C325.894287,263.622192 320.047729,270.162720 312.814880,274.325500 
	C299.530609,281.971100 290.800873,293.335999 283.015869,305.865082 
	C280.314728,310.212250 277.598633,314.551971 274.998993,318.959747 
	C272.748322,322.775909 275.344452,323.148346 278.142944,322.940338 
	C279.372223,322.848969 280.569977,322.163940 281.755859,321.683716 
	C294.609619,316.478302 301.243744,305.117218 308.877014,294.618225 
	C320.397308,278.772919 332.045319,263.005676 344.208099,247.656158 
	C346.337433,244.968964 351.186615,243.486710 354.909485,243.212936 
	C362.345764,242.666061 366.187408,249.357407 362.990082,256.143066 
	C358.739655,265.163666 351.784058,272.069183 343.431946,276.733429 
	C331.047150,283.649750 324.316681,295.034668 317.008789,306.158539 
	C314.201080,310.432434 311.610321,314.850616 308.977356,319.237030 
	C306.738892,322.966064 309.837708,323.778961 311.846527,322.823456 
	C316.138092,320.782227 321.635468,318.689728 323.678009,314.985596 
	C330.114258,303.313599 339.012299,294.013794 349.492767,286.474731 
	C356.398193,281.507385 364.480988,279.766022 370.368500,289.878571 
	C373.472931,288.073944 373.067230,282.319336 378.390594,282.918671 
	C382.131378,283.339844 385.957855,283.000031 390.863373,283.000031 
	C382.122498,296.250061 373.880280,308.744171 365.638062,321.238312 
	C366.051483,321.684082 366.464874,322.129852 366.878265,322.575623 
	C372.408691,318.742401 377.939148,314.909180 384.613190,310.283325 
	C378.067902,321.198334 371.694641,330.492676 360.707855,334.957825 
	C353.929047,337.712860 347.396759,336.453094 346.720306,329.187256 
	C341.088654,333.699890 334.981689,336.564148 327.503723,336.066437 
	C322.108124,335.707306 321.100098,334.968689 321.003204,329.311035 
	C320.981354,328.034149 321.000000,326.756592 321.000000,326.286316 
	C315.534058,329.526672 310.140594,333.278717 304.262482,335.973724 
	C301.344421,337.311615 297.497284,337.150970 294.141571,336.856903 
	C290.840668,336.567627 288.178619,330.739532 289.077026,326.799011 
	C289.342651,325.633911 289.815216,324.516052 289.337982,322.816956 
	C285.428497,326.170929 281.601898,329.628021 277.588318,332.852356 
	C272.728699,336.756348 266.823181,338.030884 261.031433,336.709015 
	C258.644745,336.164276 256.670013,332.605499 255.143143,330.039612 
	C254.435699,328.850708 255.248520,326.757202 255.301971,326.029114 
	C249.222153,329.288025 242.911575,333.078796 236.234695,336.045013 
	C233.629272,337.202484 229.960434,337.245667 227.237991,336.366150 
	C225.679108,335.862549 224.764999,332.571930 224.094894,330.373230 
	C223.608978,328.778961 224.000000,326.917419 224.000000,324.028778 
	C219.807526,328.015625 216.699738,331.453857 213.096359,334.254364 
	C209.852341,336.775574 206.202377,337.952759 201.777252,336.115814 
	C196.236694,333.815887 193.834274,329.626038 197.060852,324.321655 
	C202.165024,315.930603 208.026474,307.998322 213.619583,299.907928 
	C214.911911,298.038605 216.539612,296.397675 217.794159,294.506500 
	C220.118683,291.002350 219.337158,289.621460 214.518936,289.165100 
M355.982422,310.529327 
	C358.752594,306.746002 361.999878,303.206909 364.109375,299.085388 
	C365.323914,296.712494 364.697540,293.397339 364.899780,290.506317 
	C362.270477,290.825623 359.109375,290.317169 357.103027,291.606079 
	C347.955811,297.482605 342.007446,306.276337 337.258850,315.810120 
	C336.423370,317.487457 337.152771,321.845459 338.010376,322.100098 
	C340.362518,322.798553 343.913971,322.916473 345.639862,321.553589 
	C349.358978,318.616760 352.231812,314.608215 355.982422,310.529327 
M150.980286,257.533630 
	C146.372665,263.180603 141.765045,268.827545 136.647568,275.099396 
	C148.194107,272.640076 160.498642,259.238342 159.342743,249.740143 
	C156.351196,252.506439 153.913605,254.760498 150.980286,257.533630 
M315.030548,258.648621 
	C311.060120,263.932220 307.089691,269.215820 303.119293,274.499420 
	C303.418427,274.804565 303.717590,275.109741 304.016754,275.414886 
	C305.667023,274.277649 307.427368,273.270142 308.947906,271.980011 
	C314.610016,267.175995 321.338379,263.301483 323.955994,255.740128 
	C324.395874,254.469421 323.970551,252.899200 323.945007,251.467377 
	C322.436798,252.016251 320.652924,252.231659 319.487488,253.195145 
	C317.894012,254.512482 316.770874,256.398773 315.030548,258.648621 
M356.603027,258.918640 
	C356.859741,258.330353 357.290131,257.756683 357.341156,257.151062 
	C357.507202,255.180801 357.534546,253.198837 357.615265,251.221390 
	C356.053619,252.269394 354.194763,253.054016 352.987732,254.416245 
	C349.751862,258.068176 346.764496,261.943268 343.737610,265.776489 
	C341.485870,268.628113 339.326599,271.552795 337.126129,274.444916 
	C337.509552,274.804108 337.892944,275.163300 338.276367,275.522491 
	C344.427399,270.424347 351.623962,266.555939 356.603027,258.918640 
z"/>
<path fill="#FFFFFF" opacity="1.000000" stroke="none" 
	d="
M430.862793,160.000000 
	C433.957062,159.606979 435.111694,160.298050 435.076599,163.360107 
	C434.906555,178.189667 435.315186,193.031677 434.872437,207.849960 
	C434.636475,215.748383 431.108734,222.463638 423.321716,226.834961 
	C424.616974,227.792450 425.449066,228.421844 426.295654,229.031097 
	C431.488434,232.768051 434.740784,237.889374 434.896820,244.189011 
	C435.230896,257.679077 434.999756,271.183167 435.000031,284.681519 
	C435.000061,285.981812 435.000000,287.282104 435.000000,288.779449 
	C424.577728,288.779449 414.506775,288.779449 403.518250,288.779449 
	C403.518250,272.576416 403.518250,256.494904 403.518250,240.413437 
	C403.012177,240.426926 402.506073,240.440430 402.000000,240.453934 
	C402.000000,246.779510 402.000000,253.105103 402.000000,259.430695 
	C402.000000,268.262939 402.051453,277.095886 401.934662,285.926605 
	C401.920074,287.027893 401.014801,288.117432 399.880035,288.904877 
	C402.158844,279.031006 396.708191,272.113129 387.212372,272.915009 
	C381.682129,273.381989 376.080200,273.000000 369.417542,273.000000 
	C370.177094,269.491333 370.672211,265.173828 372.077759,261.176422 
	C374.316345,254.809723 375.194183,248.568237 372.594727,242.183258 
	C370.465546,236.953476 374.361450,233.986496 376.970093,230.682434 
	C378.095215,229.257370 380.148499,228.565170 382.172394,227.293564 
	C370.812805,219.879196 369.731659,208.448196 369.952209,196.371323 
	C370.170654,184.411011 370.000000,172.443604 370.000000,160.240936 
	C380.713715,160.240936 391.118286,160.240936 401.889160,160.240936 
	C401.889160,177.742798 401.889160,195.174438 401.889160,212.606094 
	C405.201660,207.361511 403.672729,201.632065 403.935272,196.124191 
	C404.220581,190.138519 404.000000,184.128738 404.000000,178.129471 
	C404.000000,172.306763 404.000000,166.484055 404.000000,160.000000 
	C412.869232,160.000000 421.623291,160.000000 430.862793,160.000000 
z"/>
<path fill="#FFFFFF" opacity="1.000000" stroke="none" 
	d="
M67.000000,246.991394 
	C67.000000,228.836029 66.788818,211.175522 67.067123,193.522705 
	C67.287971,179.513916 72.957619,168.103531 86.271484,162.453827 
	C104.098488,154.888992 126.606407,162.699509 130.571686,183.810959 
	C132.907867,196.248917 130.998413,209.484329 130.998413,222.683868 
	C121.778206,222.683868 111.707764,222.683868 100.879898,222.683868 
	C100.879898,212.597427 100.879898,202.322632 100.879898,192.047836 
	C100.440735,192.060059 100.001564,192.072281 99.562401,192.084503 
	C99.562401,214.358276 99.562401,236.632034 99.562401,258.905792 
	C99.904549,258.926331 100.246704,258.946869 100.588852,258.967438 
	C100.588852,248.105545 100.588852,237.243668 100.588852,226.200043 
	C111.461243,226.200043 121.529160,226.200043 131.999634,226.200043 
	C131.999634,232.833969 132.515823,239.346634 131.763275,245.709244 
	C131.429718,248.529297 128.708221,251.184402 126.765472,253.676437 
	C118.074356,264.824738 109.329720,275.932892 100.452019,286.932556 
	C99.094299,288.614838 97.940765,290.144653 94.440475,289.419128 
	C76.668503,285.735443 66.757759,271.489807 66.995979,253.985977 
	C67.025444,251.820892 67.000000,249.655060 67.000000,246.991394 
z"/>
<path fill="#FFFFFF" opacity="1.000000" stroke="none" 
	d="
M266.000000,212.000000 
	C266.000000,224.320053 265.978973,236.140167 266.017792,247.960083 
	C266.025543,250.322784 265.723541,251.845764 263.267456,253.499130 
	C257.272400,257.534821 254.489548,264.127472 251.995834,270.709442 
	C251.608917,271.730743 251.406021,272.996033 250.678650,273.683807 
	C247.614868,276.580719 244.384567,279.301483 241.170502,282.126007 
	C239.615097,276.925446 234.598618,274.798859 229.456772,273.046356 
	C224.060120,271.207031 218.676193,271.359070 213.399048,273.906403 
	C209.669525,275.706665 203.753601,272.782532 203.078323,268.638336 
	C202.139359,262.875824 201.170837,257.043488 201.092316,251.229187 
	C200.842834,232.753326 200.969528,214.271912 201.013138,195.792786 
	C201.034225,186.861893 202.852615,178.683456 208.783554,171.376663 
	C214.615005,164.192444 221.752792,160.732712 230.720764,159.961288 
	C243.814651,158.834946 254.290497,163.399719 260.909790,174.719376 
	C263.637726,179.384430 265.155212,185.125931 265.801086,190.547272 
	C266.622498,197.441559 266.000000,204.507858 266.000000,212.000000 
M233.000000,214.500061 
	C233.000000,228.650818 233.000000,242.801575 233.000000,256.952332 
	C233.484543,256.936676 233.969070,256.921051 234.453613,256.905426 
	C234.453613,235.297897 234.453613,213.690369 234.453613,192.082840 
	C233.969070,192.072556 233.484543,192.062271 233.000000,192.051971 
	C233.000000,199.201370 233.000000,206.350754 233.000000,214.500061 
z"/>
<path fill="#FFFFFF" opacity="1.000000" stroke="none" 
	d="
M302.980103,193.360123 
	C301.122620,192.880493 301.027222,192.879929 301.017426,194.544113 
	C300.977234,201.372238 301.000214,208.200729 301.000000,215.029083 
	C300.999908,218.026901 301.000000,221.024719 301.000000,224.022537 
	C301.000000,243.471848 300.999237,243.471237 289.019531,258.476562 
	C287.921356,259.852112 286.840790,261.241730 286.251678,261.990051 
	C284.354553,259.024078 282.959534,255.157944 280.217072,253.021561 
	C277.379700,250.811249 273.234467,250.279846 269.201233,248.851044 
	C269.201233,219.949417 269.201233,190.211578 269.201233,160.998062 
	C283.155609,160.998062 297.050385,160.170029 310.790588,161.270782 
	C321.028931,162.091003 332.381531,174.894928 332.816803,185.445999 
	C333.504364,202.112869 332.999817,218.828918 332.999817,235.227615 
	C319.617157,230.250183 312.457764,232.924973 302.997498,239.833328 
	C302.997498,224.290939 302.997498,209.061462 302.980103,193.360123 
z"/>
<path fill="#FFFFFF" opacity="1.000000" stroke="none" 
	d="
M136.140350,243.364548 
	C135.274445,243.834381 134.655716,244.016846 134.036957,244.199310 
	C134.024643,243.366913 134.001556,242.534531 134.001541,241.702133 
	C134.000854,215.055832 134.001129,188.409515 134.014206,161.763214 
	C134.014435,161.301682 134.173447,160.840210 134.291016,160.201263 
	C144.790207,160.201263 155.189651,160.201263 165.794647,160.201263 
	C165.794647,184.794128 165.794647,209.206039 165.794647,233.923752 
	C154.001053,230.802521 144.223907,233.932938 136.140350,243.364548 
z"/>
<path fill="#FFFFFF" opacity="1.000000" stroke="none" 
	d="
M336.000000,195.000000 
	C336.000000,183.198166 336.000000,171.896332 336.000000,160.297684 
	C346.589142,160.297684 356.987976,160.297684 367.694580,160.297684 
	C367.694580,185.240921 367.694580,210.303452 367.694580,234.473328 
	C362.589722,233.998474 357.108246,232.597031 351.888214,233.258621 
	C346.862396,233.895599 342.106903,236.665344 336.142517,238.907898 
	C336.100067,234.904388 336.029388,230.185959 336.005646,225.467270 
	C335.980499,220.472855 336.000000,215.478210 336.000000,210.483673 
	C336.000000,205.489120 336.000000,200.494553 336.000000,195.000000 
z"/>
<path fill="#FFFFFF" opacity="1.000000" stroke="none" 
	d="
M163.224304,274.420441 
	C167.200241,269.544739 171.176193,264.669037 175.724106,259.091919 
	C182.387695,259.091919 190.361649,259.091919 198.667938,259.091919 
	C198.667938,263.523041 198.667938,267.925751 198.667938,272.493774 
	C198.626007,272.531158 198.437241,272.834320 198.182938,272.906403 
	C192.051910,274.644989 186.433975,276.618011 179.553253,273.438263 
	C175.724564,271.668915 169.845215,274.337006 164.277252,274.868103 
	C163.517715,274.627441 163.371002,274.523926 163.224304,274.420441 
z"/>
<path fill="#FFFFFF" opacity="1.000000" stroke="none" 
	d="
M273.476135,269.022003 
	C270.532532,272.616760 268.033447,276.055695 265.160065,279.146667 
	C264.476929,279.881531 262.088165,280.024811 261.302277,279.404083 
	C260.431976,278.716736 260.035706,276.765900 260.240570,275.495514 
	C261.126129,270.003876 264.062439,265.562866 268.401031,262.217865 
	C269.720184,261.200806 271.798981,261.169037 273.783630,260.615173 
	C273.783630,263.834808 273.783630,266.286804 273.476135,269.022003 
z"/>
<path fill="#FFFFFF" opacity="1.000000" stroke="none" 
	d="
M163.869629,274.905396 
	C163.511185,275.322876 162.947525,275.565857 162.383881,275.808868 
	C162.515518,275.473541 162.647141,275.138245 163.001526,274.611694 
	C163.371002,274.523926 163.517715,274.627441 163.869629,274.905396 
z"/>
<path fill="#000000" opacity="1.000000" stroke="none" 
	d="
M355.716675,310.783783 
	C352.231812,314.608215 349.358978,318.616760 345.639862,321.553589 
	C343.913971,322.916473 340.362518,322.798553 338.010376,322.100098 
	C337.152771,321.845459 336.423370,317.487457 337.258850,315.810120 
	C342.007446,306.276337 347.955811,297.482605 357.103027,291.606079 
	C359.109375,290.317169 362.270477,290.825623 364.899780,290.506317 
	C364.697540,293.397339 365.323914,296.712494 364.109375,299.085388 
	C361.999878,303.206909 358.752594,306.746002 355.716675,310.783783 
z"/>
<path fill="#000000" opacity="1.000000" stroke="none" 
	d="
M151.228149,257.274109 
	C153.913605,254.760498 156.351196,252.506439 159.342743,249.740143 
	C160.498642,259.238342 148.194107,272.640076 136.647568,275.099396 
	C141.765045,268.827545 146.372665,263.180603 151.228149,257.274109 
z"/>
<path fill="#000000" opacity="1.000000" stroke="none" 
	d="
M315.238342,258.344910 
	C316.770874,256.398773 317.894012,254.512482 319.487488,253.195145 
	C320.652924,252.231659 322.436798,252.016251 323.945007,251.467377 
	C323.970551,252.899200 324.395874,254.469421 323.955994,255.740128 
	C321.338379,263.301483 314.610016,267.175995 308.947906,271.980011 
	C307.427368,273.270142 305.667023,274.277649 304.016754,275.414886 
	C303.717590,275.109741 303.418427,274.804565 303.119293,274.499420 
	C307.089691,269.215820 311.060120,263.932220 315.238342,258.344910 
z"/>
<path fill="#000000" opacity="1.000000" stroke="none" 
	d="
M356.325470,259.172485 
	C351.623962,266.555939 344.427399,270.424347 338.276367,275.522491 
	C337.892944,275.163300 337.509552,274.804108 337.126129,274.444916 
	C339.326599,271.552795 341.485870,268.628113 343.737610,265.776489 
	C346.764496,261.943268 349.751862,258.068176 352.987732,254.416245 
	C354.194763,253.054016 356.053619,252.269394 357.615265,251.221390 
	C357.534546,253.198837 357.507202,255.180801 357.341156,257.151062 
	C357.290131,257.756683 356.859741,258.330353 356.325470,259.172485 
z"/>
<path fill="#000000" opacity="1.000000" stroke="none" 
	d="
M233.000000,214.000107 
	C233.000000,206.350754 233.000000,199.201370 233.000000,192.051971 
	C233.484543,192.062271 233.969070,192.072556 234.453613,192.082840 
	C234.453613,213.690369 234.453613,235.297897 234.453613,256.905426 
	C233.969070,256.921051 233.484543,256.936676 233.000000,256.952332 
	C233.000000,242.801575 233.000000,228.650818 233.000000,214.000107 
z"/>
</svg>