<svg version="1.1" id="Layer_1" xmlns="http://www.w3.org/2000/svg" xmlns:xlink="http://www.w3.org/1999/xlink" x="0px" y="0px"
	width="100%" viewBox="0 0 820 512" enable-background="new 0 0 820 512" xml:space="preserve">
<path fill="#9A8FA6" opacity="1.000000" stroke="none" 
	d="
M160.274872,41.853615 
	C166.869568,41.877056 173.464279,41.900497 180.915131,41.949642 
	C182.847900,41.928261 183.924530,41.881172 185.462555,41.910347 
	C190.954117,41.920513 195.984283,41.854416 201.477890,41.853745 
	C208.288345,41.875004 214.635361,41.830845 221.443314,41.882141 
	C228.274765,41.915150 234.645279,41.852699 241.478394,41.854767 
	C247.284866,41.977425 252.628769,42.035561 258.129028,42.366119 
	C259.130768,43.236965 259.976166,43.835388 260.896240,44.822269 
	C261.314758,50.473755 261.658539,55.736778 261.893036,61.457130 
	C261.856232,68.276337 261.928741,74.638222 261.887054,81.456345 
	C261.849701,88.274948 261.926544,94.637321 261.893616,101.456932 
	C261.856323,108.276146 261.928802,114.638130 261.887024,121.456345 
	C261.849670,128.274948 261.926514,134.637329 261.893616,141.456940 
	C261.856293,148.276154 261.928772,154.638123 261.887024,161.456345 
	C261.849670,168.274948 261.926514,174.637329 261.893555,181.456940 
	C261.856262,188.276154 261.928741,194.638138 261.887024,201.456360 
	C261.849670,208.274979 261.926514,214.637329 261.893585,221.456940 
	C261.856293,228.276154 261.928772,234.638138 261.887024,241.456360 
	C261.849670,248.274994 261.926514,254.637375 261.893616,261.456970 
	C261.856323,268.276184 261.928772,274.638123 261.887024,281.456329 
	C261.849670,288.274963 261.926514,294.637329 261.893585,301.456970 
	C261.856293,308.276154 261.928772,314.638123 261.887024,321.456329 
	C261.849670,328.274933 261.926514,334.637329 261.893616,341.456909 
	C261.856384,348.276123 261.928925,354.638123 261.887299,361.456207 
	C261.846222,367.941650 261.919312,373.970947 261.950195,380.296539 
	C262.270630,380.668396 262.633240,380.744019 263.459351,380.889954 
	C269.610168,380.902191 275.297485,380.844086 281.447815,380.867676 
	C288.279510,380.894592 294.648224,380.839844 301.477814,380.867249 
	C308.287018,380.894989 314.635284,380.840607 321.446716,380.867798 
	C328.278168,380.894562 334.646454,380.839783 341.475800,380.867188 
	C348.285767,380.894989 354.634674,380.840607 361.446716,380.867798 
	C368.278168,380.894562 374.646454,380.839783 381.475800,380.867188 
	C388.285370,380.895660 394.633850,380.841980 401.445526,380.870300 
	C408.277893,380.904388 414.647095,380.856476 421.374512,380.890533 
	C423.134125,381.323578 424.535583,381.674652 426.101196,382.377930 
	C426.848022,384.707428 427.787415,386.657898 427.938660,388.667664 
	C428.247009,392.766083 428.130798,396.896393 428.110107,401.475159 
	C428.083588,408.286377 428.136505,414.635986 428.107178,421.357819 
	C428.078766,422.486725 428.132507,423.243469 428.107971,424.461975 
	C428.083008,430.287537 428.136322,435.651245 428.110168,441.476440 
	C428.083069,448.287018 428.135498,454.636169 428.105804,461.411499 
	C427.988617,470.036774 427.275635,471.085541 420.522766,472.119080 
	C413.712128,472.100861 407.364044,472.154633 400.552795,472.127563 
	C393.720398,472.102264 387.351227,472.157806 380.520569,472.135193 
	C373.711395,472.107483 367.363708,472.157928 360.552795,472.127563 
	C353.720398,472.102234 347.351227,472.157806 340.520569,472.135162 
	C333.711823,472.107422 327.364532,472.157867 320.553955,472.127502 
	C313.721802,472.102234 307.352997,472.157806 300.522552,472.135193 
	C293.712616,472.107452 287.364319,472.157928 280.552795,472.127563 
	C273.721130,472.102264 267.352631,472.157837 260.522552,472.135193 
	C253.713043,472.107452 247.365128,472.157898 240.553894,472.127502 
	C233.721771,472.102234 227.352951,472.157806 220.522552,472.135193 
	C213.713043,472.107422 207.365128,472.157867 200.553894,472.127502 
	C193.721771,472.102264 187.352951,472.157837 180.522552,472.135193 
	C173.712234,472.100677 167.363541,472.144348 160.651688,472.083923 
	C153.780807,470.641937 155.350037,465.297852 154.911331,460.524811 
	C154.935776,453.712494 154.884949,447.362457 154.910431,440.548706 
	C154.936050,433.718964 154.885361,427.352905 154.910583,420.524780 
	C154.935715,413.712555 154.884918,407.362488 154.910431,400.548706 
	C154.936035,393.718964 154.885361,387.352905 154.910583,380.524780 
	C154.935715,373.712555 154.884918,367.362488 154.910431,360.548706 
	C154.936020,353.719238 154.885330,347.353516 154.910583,340.525574 
	C154.935730,333.713287 154.884949,327.363159 154.910461,320.549255 
	C154.936050,313.719604 154.885361,307.353668 154.910583,300.525574 
	C154.935699,293.713074 154.884918,287.362732 154.910431,280.548706 
	C154.936050,273.718964 154.885361,267.352905 154.910583,260.524780 
	C154.935730,253.712784 154.884933,247.362900 154.910446,240.549286 
	C154.936050,233.719330 154.885361,227.353119 154.910583,220.524780 
	C154.935730,213.712784 154.884949,207.362915 154.910446,200.549286 
	C154.936050,193.719635 154.885345,187.353714 154.910583,180.525604 
	C154.935715,173.713074 154.884918,167.362747 154.910431,160.548737 
	C154.936050,153.719009 154.885361,147.352951 154.910583,140.524811 
	C154.935715,133.712601 154.884918,127.362511 154.910431,120.548729 
	C154.936035,113.719276 154.885345,107.353516 154.910568,100.525574 
	C154.935715,93.713272 154.884933,87.363144 154.910446,80.549278 
	C154.936234,73.719444 154.885742,67.353363 154.911224,60.527649 
	C154.991745,56.942478 154.579315,53.742264 155.121765,50.713051 
	C155.632019,47.863689 157.149765,45.194748 158.441345,42.438278 
	C159.197250,42.237953 159.736053,42.045784 160.274872,41.853615 
z"/>
<path fill="#9A8FA6" opacity="1.000000" stroke="none" 
	d="
M575.238281,461.033234 
	C575.182922,462.174469 575.111816,463.315216 575.075012,464.457062 
	C574.891296,470.164246 573.083740,471.936920 567.309814,472.026184 
	C565.510071,472.054016 563.709595,472.039551 561.462158,472.125793 
	C554.646301,472.151917 548.277771,472.096710 541.446655,472.127197 
	C534.635315,472.157043 528.286560,472.101196 521.476562,472.126648 
	C514.646667,472.152466 508.277863,472.096985 501.446594,472.127228 
	C494.635254,472.156952 488.286407,472.100952 481.476562,472.127441 
	C480.369293,472.150909 479.723724,472.050049 479.076660,472.039215 
	C470.132385,471.889893 469.083191,470.827240 469.035889,460.949768 
	C468.978821,453.714874 468.920807,447.362793 468.945923,440.548096 
	C468.975067,433.720154 468.921112,427.354858 468.951904,420.528564 
	C468.978729,413.715240 468.920776,407.362823 468.945923,400.547913 
	C468.975067,393.720093 468.921112,387.354797 468.951935,380.528564 
	C468.978760,373.715332 468.920807,367.363007 468.945923,360.548096 
	C468.975067,353.720154 468.921112,347.354858 468.951904,340.528564 
	C468.978729,333.715332 468.920776,327.363007 468.945923,320.548126 
	C468.975067,313.720215 468.921112,307.354858 468.951935,300.528564 
	C468.978729,293.715332 468.920776,287.363007 468.945923,280.548126 
	C468.970917,273.720093 468.912842,267.354614 468.933899,260.527374 
	C468.908691,253.722549 468.804352,247.379517 468.795502,240.574448 
	C468.680298,233.725739 468.469635,227.339066 468.382294,220.561478 
	C468.301697,213.784744 468.097748,207.398911 467.970520,200.549438 
	C467.703003,193.722534 467.358734,187.359299 467.096649,180.534058 
	C467.040344,173.722961 466.901855,167.373901 466.944763,160.696426 
	C469.468903,159.213043 471.711823,157.698135 474.184631,157.012009 
	C476.330872,156.416504 478.737427,156.759293 481.488281,156.774475 
	C488.291718,156.797226 494.635864,156.732895 501.440948,156.763489 
	C508.276520,156.796906 514.651123,156.735382 521.484009,156.767136 
	C528.287781,156.797058 534.633179,156.733704 541.437256,156.765579 
	C544.882568,156.868591 547.869263,156.868958 550.855835,156.885651 
	C557.910950,156.925095 559.394104,158.420456 559.829102,165.654160 
	C560.136902,170.773148 560.567810,175.884720 560.861450,181.461090 
	C561.025452,187.201843 561.271790,192.481064 561.560486,198.669495 
	C566.460266,192.083878 570.584900,186.540100 574.985352,180.797821 
	C577.212830,178.527039 579.164551,176.454773 581.432556,174.237122 
	C587.563110,169.747772 593.377258,165.403778 599.475769,161.072662 
	C600.192810,160.783783 600.625549,160.482056 601.421753,160.134857 
	C608.177795,157.581543 614.570496,155.073685 621.352295,152.560684 
	C628.165771,151.650528 634.590027,150.745483 641.473511,149.913193 
	C648.285767,150.290970 654.638916,150.596008 661.330383,151.041687 
	C667.288513,152.341293 667.014587,156.795135 667.088562,161.474426 
	C667.063843,168.286987 667.114746,174.637314 667.088257,181.451172 
	C667.063110,188.280869 667.115295,194.647064 667.090454,201.475174 
	C667.064087,208.287277 667.114868,214.637466 667.088257,221.451172 
	C667.063232,228.280762 667.115601,234.646820 667.089478,241.431641 
	C667.022583,245.913025 667.410034,250.173752 661.544556,251.421661 
	C654.373169,250.886536 647.649170,250.304962 640.506531,249.547348 
	C633.725159,249.912506 627.362305,250.453705 620.590454,250.962006 
	C602.234802,254.588730 588.378174,263.584076 580.701660,281.186646 
	C580.187195,282.226807 579.938232,283.068359 579.436279,284.165405 
	C578.115967,289.946350 577.048645,295.471863 575.826477,301.389343 
	C575.535828,308.181915 575.399963,314.582458 575.177856,321.445374 
	C575.147339,328.278442 575.203003,334.649109 575.174683,341.480194 
	C575.148499,348.288055 575.206299,354.635529 575.177856,361.445374 
	C575.147339,368.278442 575.203003,374.649109 575.174683,381.480194 
	C575.148499,388.288055 575.206299,394.635529 575.177917,401.445374 
	C575.147400,408.277191 575.203064,414.646606 575.174805,421.476685 
	C575.141602,428.281097 575.192444,434.624878 575.152710,441.431213 
	C575.120911,448.273621 575.179565,454.653442 575.238281,461.033234 
z"/>
</svg>