{
	"asset":{
		"generator":"Khronos glTF Blender I/O v4.2.57",
		"version":"2.0"
	},
	"extensionsUsed":[
		"KHR_materials_specular",
		"KHR_texture_transform"
	],
	"extensionsRequired":[
		"KHR_texture_transform"
	],
	"scene":0,
	"scenes":[
		{
			"name":"Scene",
			"nodes":[
				0,
				1,
				2,
				3,
				4,
				5,
				6,
				7
			]
		}
	],
	"nodes":[
		{
			"mesh":0,
			"name":"Head",
			"scale":[
				0.9848025441169739,
				0.9848025441169739,
				0.9848025441169739
			],
			"translation":[
				0,
				2.5682640075683594,
				-0.02956022135913372
			]
		},
		{
			"mesh":1,
			"name":"Cube.003",
			"scale":[
				0.4569317102432251,
				0.4569317102432251,
				0.4569317102432251
			],
			"translation":[
				0,
				0.0036754608154296875,
				-0.0038235399406403303
			]
		},
		{
			"mesh":2,
			"name":"Cube.004",
			"scale":[
				0.4569317102432251,
				0.4569317102432251,
				0.4569317102432251
			],
			"translation":[
				0,
				1.0886141061782837,
				-0.0038235399406403303
			]
		},
		{
			"mesh":3,
			"name":"Hair",
			"scale":[
				0.255424827337265,
				0.255424827337265,
				0.255424827337265
			],
			"translation":[
				0,
				3.116393566131592,
				-0.0038235399406403303
			]
		},
		{
			"mesh":4,
			"name":"Cube.005",
			"scale":[
				0.255424827337265,
				0.255424827337265,
				0.255424827337265
			],
			"translation":[
				0,
				3.116393566131592,
				-0.0038235399406403303
			]
		},
		{
			"mesh":5,
			"name":"Cube.006",
			"scale":[
				0.4569317102432251,
				0.4569317102432251,
				0.4569317102432251
			],
			"translation":[
				0,
				1.0886141061782837,
				-0.0038235399406403303
			]
		},
		{
			"mesh":6,
			"name":"Cube.007",
			"scale":[
				0.4569317102432251,
				0.4569317102432251,
				0.4569317102432251
			],
			"translation":[
				0,
				1.0886141061782837,
				-0.0038235399406403303
			]
		},
		{
			"mesh":7,
			"name":"Torus",
			"scale":[
				0.4569317102432251,
				0.4569317102432251,
				0.4569317102432251
			],
			"translation":[
				0,
				0.0036754608154296875,
				-0.0038235399406403303
			]
		}
	],
	"materials":[
		{
			"doubleSided":true,
			"name":"Face",
			"pbrMetallicRoughness":{
				"baseColorTexture":{
					"extensions":{
						"KHR_texture_transform":{
							"offset":[
								-0.05999999865889549,
								-0.27000001072883606
							],
							"scale":[
								1.1200000047683716,
								1.1200000047683716
							]
						}
					},
					"index":0
				},
				"metallicFactor":0,
				"roughnessFactor":0.5
			}
		},
		{
			"doubleSided":true,
			"name":"Material",
			"pbrMetallicRoughness":{
				"baseColorFactor":[
					1,
					0.46778422594070435,
					0.3371637761592865,
					1
				],
				"metallicFactor":0,
				"roughnessFactor":0.5
			}
		},
		{
			"doubleSided":true,
			"name":"Material.001",
			"pbrMetallicRoughness":{
				"baseColorFactor":[
					1,
					0.46778422594070435,
					0.3371637761592865,
					1
				],
				"metallicFactor":0,
				"roughnessFactor":0.5
			}
		},
		{
			"doubleSided":true,
			"name":"Material.003",
			"pbrMetallicRoughness":{
				"baseColorFactor":[
					0.1620304137468338,
					0.045821864157915115,
					0.005828663241118193,
					1
				],
				"metallicFactor":0,
				"roughnessFactor":0.5529999732971191
			}
		},
		{
			"doubleSided":true,
			"name":"Material.002",
			"pbrMetallicRoughness":{
				"baseColorFactor":[
					0,
					0,
					0,
					1
				],
				"metallicFactor":0,
				"roughnessFactor":0.5
			}
		},
		{
			"doubleSided":true,
			"extensions":{
				"KHR_materials_specular":{
					"specularFactor":0.45945948362350464
				}
			},
			"name":"Material.004",
			"pbrMetallicRoughness":{
				"baseColorFactor":[
					0.800000011920929,
					0.800000011920929,
					0.800000011920929,
					1
				],
				"metallicFactor":0,
				"roughnessFactor":0.6081081032752991
			}
		},
		{
			"doubleSided":true,
			"name":"Material.005",
			"pbrMetallicRoughness":{
				"baseColorFactor":[
					0.8002356290817261,
					0.3752859830856323,
					0.008344778791069984,
					1
				],
				"roughnessFactor":0.5324324369430542
			}
		}
	],
	"meshes":[
		{
			"name":"Mesh",
			"primitives":[
				{
					"attributes":{
						"POSITION":0,
						"NORMAL":1,
						"TEXCOORD_0":2
					},
					"indices":3,
					"material":0
				}
			]
		},
		{
			"name":"Cube",
			"primitives":[
				{
					"attributes":{
						"POSITION":4,
						"NORMAL":5,
						"TEXCOORD_0":6
					},
					"indices":7,
					"material":1
				}
			]
		},
		{
			"name":"Mesh",
			"primitives":[
				{
					"attributes":{
						"POSITION":8,
						"NORMAL":9,
						"TEXCOORD_0":10
					},
					"indices":11,
					"material":2
				}
			]
		},
		{
			"name":"Mesh",
			"primitives":[
				{
					"attributes":{
						"POSITION":12,
						"NORMAL":13,
						"TEXCOORD_0":14
					},
					"indices":15,
					"material":3
				}
			]
		},
		{
			"name":"Mesh",
			"primitives":[
				{
					"attributes":{
						"POSITION":16,
						"NORMAL":17,
						"TEXCOORD_0":18
					},
					"indices":19,
					"material":3
				}
			]
		},
		{
			"name":"Cube.008",
			"primitives":[
				{
					"attributes":{
						"POSITION":20,
						"NORMAL":21,
						"TEXCOORD_0":22
					},
					"indices":23,
					"material":2
				},
				{
					"attributes":{
						"POSITION":20,
						"NORMAL":21,
						"TEXCOORD_0":22
					},
					"indices":24,
					"material":4
				}
			]
		},
		{
			"name":"Cube.007",
			"primitives":[
				{
					"attributes":{
						"POSITION":25,
						"NORMAL":26,
						"TEXCOORD_0":27
					},
					"indices":28,
					"material":5
				}
			]
		},
		{
			"name":"Torus",
			"primitives":[
				{
					"attributes":{
						"POSITION":29,
						"NORMAL":30,
						"TEXCOORD_0":31
					},
					"indices":32,
					"material":6
				}
			]
		}
	],
	"textures":[
		{
			"sampler":0,
			"source":0
		}
	],
	"images":[
		{
			"mimeType":"image/png",
			"name":"Decal_01",
			"uri":"textures/Decal_01.png"
		}
	],
	"accessors":[
		{
			"bufferView":0,
			"componentType":5126,
			"count":7554,
			"max":[
				1.020029067993164,
				1.0447546243667603,
				1.0090080499649048
			],
			"min":[
				-1.020029067993164,
				-1.0505479574203491,
				-1.0070343017578125
			],
			"type":"VEC3"
		},
		{
			"bufferView":1,
			"componentType":5126,
			"count":7554,
			"type":"VEC3"
		},
		{
			"bufferView":2,
			"componentType":5126,
			"count":7554,
			"type":"VEC2"
		},
		{
			"bufferView":3,
			"componentType":5123,
			"count":44352,
			"type":"SCALAR"
		},
		{
			"bufferView":4,
			"componentType":5126,
			"count":1766,
			"max":[
				2.5917577743530273,
				5.069350719451904,
				0.5051119923591614
			],
			"min":[
				-2.5917577743530273,
				3.9251904487609863,
				-0.21846459805965424
			],
			"type":"VEC3"
		},
		{
			"bufferView":5,
			"componentType":5126,
			"count":1766,
			"type":"VEC3"
		},
		{
			"bufferView":6,
			"componentType":5126,
			"count":1766,
			"type":"VEC2"
		},
		{
			"bufferView":7,
			"componentType":5123,
			"count":9216,
			"type":"SCALAR"
		},
		{
			"bufferView":8,
			"componentType":5126,
			"count":6014,
			"max":[
				1.548359990119934,
				1.5299272537231445,
				2.437242031097412
			],
			"min":[
				-1.548359990119934,
				-2.3391547203063965,
				-0.603670597076416
			],
			"type":"VEC3"
		},
		{
			"bufferView":9,
			"componentType":5126,
			"count":6014,
			"type":"VEC3"
		},
		{
			"bufferView":10,
			"componentType":5126,
			"count":6014,
			"type":"VEC2"
		},
		{
			"bufferView":11,
			"componentType":5123,
			"count":35328,
			"type":"SCALAR"
		},
		{
			"bufferView":12,
			"componentType":5126,
			"count":262144,
			"max":[
				4.3337202072143555,
				2.3867452144622803,
				2.971298933029175
			],
			"min":[
				-4.333720684051514,
				-10.002724647521973,
				-4.291852951049805
			],
			"type":"VEC3"
		},
		{
			"bufferView":13,
			"componentType":5126,
			"count":262144,
			"type":"VEC3"
		},
		{
			"bufferView":14,
			"componentType":5126,
			"count":262144,
			"type":"VEC2"
		},
		{
			"bufferView":15,
			"componentType":5125,
			"count":393216,
			"type":"SCALAR"
		},
		{
			"bufferView":16,
			"componentType":5126,
			"count":65536,
			"max":[
				4.3186163902282715,
				1.5775146484375,
				4.498258590698242
			],
			"min":[
				-4.31861686706543,
				-7.073178291320801,
				-1.562321424484253
			],
			"type":"VEC3"
		},
		{
			"bufferView":17,
			"componentType":5126,
			"count":65536,
			"type":"VEC3"
		},
		{
			"bufferView":18,
			"componentType":5126,
			"count":65536,
			"type":"VEC2"
		},
		{
			"bufferView":19,
			"componentType":5125,
			"count":98304,
			"type":"SCALAR"
		},
		{
			"bufferView":20,
			"componentType":5126,
			"count":3219,
			"max":[
				1.5539090633392334,
				0.6681622862815857,
				2.4495465755462646
			],
			"min":[
				-1.548359990119934,
				-2.353520154953003,
				-0.6140084862709045
			],
			"type":"VEC3"
		},
		{
			"bufferView":21,
			"componentType":5126,
			"count":3219,
			"type":"VEC3"
		},
		{
			"bufferView":22,
			"componentType":5126,
			"count":3219,
			"type":"VEC2"
		},
		{
			"bufferView":23,
			"componentType":5123,
			"count":12084,
			"type":"SCALAR"
		},
		{
			"bufferView":24,
			"componentType":5123,
			"count":6384,
			"type":"SCALAR"
		},
		{
			"bufferView":25,
			"componentType":5126,
			"count":1757,
			"max":[
				1.5600557327270508,
				0.7080860733985901,
				1.690240502357483
			],
			"min":[
				-1.5600557327270508,
				-1.840811848640442,
				-0.7455956935882568
			],
			"type":"VEC3"
		},
		{
			"bufferView":26,
			"componentType":5126,
			"count":1757,
			"type":"VEC3"
		},
		{
			"bufferView":27,
			"componentType":5126,
			"count":1757,
			"type":"VEC2"
		},
		{
			"bufferView":28,
			"componentType":5123,
			"count":7236,
			"type":"SCALAR"
		},
		{
			"bufferView":29,
			"componentType":5126,
			"count":2304,
			"max":[
				0.07198912650346756,
				3.9999821186065674,
				1.9835189580917358
			],
			"min":[
				-0.07113228738307953,
				3.856860399246216,
				1.9725096225738525
			],
			"type":"VEC3"
		},
		{
			"bufferView":30,
			"componentType":5126,
			"count":2304,
			"type":"VEC3"
		},
		{
			"bufferView":31,
			"componentType":5126,
			"count":2304,
			"type":"VEC2"
		},
		{
			"bufferView":32,
			"componentType":5123,
			"count":3456,
			"type":"SCALAR"
		}
	],
	"bufferViews":[
		{
			"buffer":0,
			"byteLength":90648,
			"byteOffset":0,
			"target":34962
		},
		{
			"buffer":0,
			"byteLength":90648,
			"byteOffset":90648,
			"target":34962
		},
		{
			"buffer":0,
			"byteLength":60432,
			"byteOffset":181296,
			"target":34962
		},
		{
			"buffer":0,
			"byteLength":88704,
			"byteOffset":241728,
			"target":34963
		},
		{
			"buffer":0,
			"byteLength":21192,
			"byteOffset":330432,
			"target":34962
		},
		{
			"buffer":0,
			"byteLength":21192,
			"byteOffset":351624,
			"target":34962
		},
		{
			"buffer":0,
			"byteLength":14128,
			"byteOffset":372816,
			"target":34962
		},
		{
			"buffer":0,
			"byteLength":18432,
			"byteOffset":386944,
			"target":34963
		},
		{
			"buffer":0,
			"byteLength":72168,
			"byteOffset":405376,
			"target":34962
		},
		{
			"buffer":0,
			"byteLength":72168,
			"byteOffset":477544,
			"target":34962
		},
		{
			"buffer":0,
			"byteLength":48112,
			"byteOffset":549712,
			"target":34962
		},
		{
			"buffer":0,
			"byteLength":70656,
			"byteOffset":597824,
			"target":34963
		},
		{
			"buffer":0,
			"byteLength":3145728,
			"byteOffset":668480,
			"target":34962
		},
		{
			"buffer":0,
			"byteLength":3145728,
			"byteOffset":3814208,
			"target":34962
		},
		{
			"buffer":0,
			"byteLength":2097152,
			"byteOffset":6959936,
			"target":34962
		},
		{
			"buffer":0,
			"byteLength":1572864,
			"byteOffset":9057088,
			"target":34963
		},
		{
			"buffer":0,
			"byteLength":786432,
			"byteOffset":10629952,
			"target":34962
		},
		{
			"buffer":0,
			"byteLength":786432,
			"byteOffset":11416384,
			"target":34962
		},
		{
			"buffer":0,
			"byteLength":524288,
			"byteOffset":12202816,
			"target":34962
		},
		{
			"buffer":0,
			"byteLength":393216,
			"byteOffset":12727104,
			"target":34963
		},
		{
			"buffer":0,
			"byteLength":38628,
			"byteOffset":13120320,
			"target":34962
		},
		{
			"buffer":0,
			"byteLength":38628,
			"byteOffset":13158948,
			"target":34962
		},
		{
			"buffer":0,
			"byteLength":25752,
			"byteOffset":13197576,
			"target":34962
		},
		{
			"buffer":0,
			"byteLength":24168,
			"byteOffset":13223328,
			"target":34963
		},
		{
			"buffer":0,
			"byteLength":12768,
			"byteOffset":13247496,
			"target":34963
		},
		{
			"buffer":0,
			"byteLength":21084,
			"byteOffset":13260264,
			"target":34962
		},
		{
			"buffer":0,
			"byteLength":21084,
			"byteOffset":13281348,
			"target":34962
		},
		{
			"buffer":0,
			"byteLength":14056,
			"byteOffset":13302432,
			"target":34962
		},
		{
			"buffer":0,
			"byteLength":14472,
			"byteOffset":13316488,
			"target":34963
		},
		{
			"buffer":0,
			"byteLength":27648,
			"byteOffset":13330960,
			"target":34962
		},
		{
			"buffer":0,
			"byteLength":27648,
			"byteOffset":13358608,
			"target":34962
		},
		{
			"buffer":0,
			"byteLength":18432,
			"byteOffset":13386256,
			"target":34962
		},
		{
			"buffer":0,
			"byteLength":6912,
			"byteOffset":13404688,
			"target":34963
		}
	],
	"samplers":[
		{
			"magFilter":9729,
			"minFilter":9987,
			"wrapS":33071,
			"wrapT":33071
		}
	],
	"buffers":[
		{
			"byteLength":13411600,
			"uri":"me.bin"
		}
	]
}
