<svg width="768" height="768" version="1.1" xmlns="http://www.w3.org/2000/svg" desc="Created with imagetracer.js version 1.2.6" ><path fill="#9A8FA6" stroke="#9A8FA6" stroke-width="1" opacity="0" d="M 0 0 L 768 0 L 768 768 L 0 768 L 0 0 Z M 365 184 L 364 185 L 343 185 L 342 186 L 317 187 L 316 188 L 307 188 L 306 189 L 277 192 L 232 201 L 196 211 Q 156 224 122 242 Q 94 257 71 277 Q 48 296 32 323 Q 24 336 19 354 L 16 368 L 16 377 L 15 378 L 16 401 L 24 430 Q 34 453 50 471 Q 73 497 105 516 L 144 537 L 181 552 L 224 565 L 266 574 L 290 577 L 291 578 L 298 578 L 299 579 L 306 579 L 307 580 L 316 580 L 317 581 L 342 582 L 343 583 L 365 583 L 366 584 L 403 584 L 404 583 L 426 583 L 427 582 L 441 582 L 442 581 L 462 580 L 463 579 L 478 578 L 479 577 L 503 574 L 556 562 L 604 546 L 647 526 Q 674 511 698 491 Q 720 472 736 446 Q 744 432 749 415 L 752 401 L 752 392 L 753 391 L 752 368 L 745 342 Q 735 316 718 298 Q 693 270 661 250 L 623 230 L 573 211 L 519 197 L 492 192 L 479 191 L 478 190 L 453 188 L 452 187 L 442 187 L 441 186 L 427 186 L 426 185 L 365 184 Z " /><path fill="#9A8FA6" stroke="#9A8FA6" stroke-width="1" opacity="0" d="M 346.5 246 L 385.5 246 L 386 247.5 L 373 307 L 418.5 307 L 419.5 308 L 435.5 309 Q 450.7 311.8 459 321.5 L 464 331.5 L 465 350.5 L 448 430 L 407.5 430 L 407 427.5 L 422 361.5 L 422 346.5 L 417.5 341 L 408.5 338 L 367 338 L 357 382.5 L 355 396.5 L 353 401.5 L 352 410.5 L 350 415.5 L 349 424.5 L 346.5 430 L 307 429.5 L 310 419.5 L 322 357.5 L 324 352.5 L 336 290.5 L 338 285.5 L 345 247.5 L 346.5 246 Z " /><path fill="#9A8FA6" stroke="#9A8FA6" stroke-width="1" opacity="0" d="M 169 307 L 256.5 307 Q 258.3 309.8 264.5 308 Q 285.9 312.1 297 326.5 L 305 342.5 L 306 347.5 L 306 365.5 Q 302.8 383.8 295 397.5 L 280.5 414 L 264.5 423 L 245.5 428 L 229.5 429 L 228.5 430 L 186 430 L 180 469.5 L 177.5 476 L 138.5 476 L 138 473.5 L 140 467.5 L 144 440.5 L 147 429.5 L 147 424.5 L 149 418.5 L 149 413.5 L 151 407.5 L 151 402.5 L 154 391.5 L 154 386.5 L 156 380.5 L 156 375.5 L 158 369.5 L 158 364.5 L 161 353.5 L 161 348.5 L 169 307 Z M 205 338 L 203 340 L 200 361 L 193 393 L 193 398 L 193 399 L 235 399 L 244 397 L 252 393 L 262 381 L 266 367 Q 268 354 263 348 L 256 341 L 245 338 L 205 338 Z " /><path fill="#9A8FA6" stroke="#9A8FA6" stroke-width="1" opacity="0" d="M 492.5 307 L 578.5 307 Q 580.3 309.8 586.5 308 Q 606.9 311.6 618 324.5 Q 625.1 332.4 628 344.5 L 629 361.5 L 625 380.5 L 622 388.5 Q 615.9 403.4 604.5 413 Q 590.4 424.4 568.5 428 L 551.5 429 L 550.5 430 L 509 430 L 501 476 L 461.5 476 Q 460.5 476 461 471.5 L 467 443.5 L 473 405.5 L 476 394.5 L 478 378.5 L 481 367.5 L 487 329.5 L 490 318.5 L 490 313.5 L 492.5 307 Z M 526 338 L 515 399 L 557 399 L 569 396 L 576 392 L 585 380 L 589 363 Q 589 352 585 347 L 576 340 L 568 338 L 526 338 Z " /><path fill="#9A8FA6" stroke="#9A8FA6" stroke-width="1" opacity="0.8431372549019608" d="M 364.5 184 L 404 184.5 L 364.5 185 L 364.5 184 Z " /><path fill="#9A8FA6" stroke="#9A8FA6" stroke-width="1" opacity="0.8431372549019608" d="M 342.5 185 L 355 185.5 L 342.5 186 L 342.5 185 Z " /><path fill="#9A8FA6" stroke="#9A8FA6" stroke-width="1" opacity="0.8431372549019608" d="M 413.5 185 L 426 185.5 L 413.5 186 L 413.5 185 Z " /><path fill="#9A8FA6" stroke="#9A8FA6" stroke-width="1" opacity="0.8431372549019608" d="M 327.5 186 L 337 186.5 L 327.5 187 L 327.5 186 Z " /><path fill="#9A8FA6" stroke="#9A8FA6" stroke-width="1" opacity="0.8431372549019608" d="M 431.5 186 L 441 186.5 L 431.5 187 L 431.5 186 Z " /><path fill="#9A8FA6" stroke="#9A8FA6" stroke-width="1" opacity="0.8431372549019608" d="M 316.5 187 L 323 187.5 L 316.5 188 L 316.5 187 Z " /><path fill="#9A8FA6" stroke="#9A8FA6" stroke-width="1" opacity="0.8431372549019608" d="M 445.5 187 L 452 187.5 L 445.5 188 L 445.5 187 Z " /><path fill="#9A8FA6" stroke="#9A8FA6" stroke-width="1" opacity="0.8431372549019608" d="M 306.5 188 L 313 188.5 L 306.5 189 L 306.5 188 Z " /><path fill="#9A8FA6" stroke="#9A8FA6" stroke-width="1" opacity="0.8431372549019608" d="M 455.5 188 L 462 188.5 L 455.5 189 L 455.5 188 Z " /><path fill="#9A8FA6" stroke="#9A8FA6" stroke-width="1" opacity="0.8431372549019608" d="M 298.5 189 L 304 189.5 L 298.5 190 L 298.5 189 Z " /><path fill="#9A8FA6" stroke="#9A8FA6" stroke-width="1" opacity="0.8431372549019608" d="M 464.5 189 L 470 189.5 L 464.5 190 L 464.5 189 Z " /><path fill="#9A8FA6" stroke="#9A8FA6" stroke-width="1" opacity="0.8431372549019608" d="M 290.5 190 L 296 190.5 L 290.5 191 L 290.5 190 Z " /><path fill="#9A8FA6" stroke="#9A8FA6" stroke-width="1" opacity="0.8431372549019608" d="M 472.5 190 L 478 190.5 L 472.5 191 L 472.5 190 Z " /><path fill="#9A8FA6" stroke="#9A8FA6" stroke-width="1" opacity="0.8431372549019608" d="M 283.5 191 L 288 191.5 L 283.5 192 L 283.5 191 Z " /><path fill="#9A8FA6" stroke="#9A8FA6" stroke-width="1" opacity="0.8431372549019608" d="M 480.5 191 L 485 191.5 L 480.5 192 L 480.5 191 Z " /><path fill="#9A8FA6" stroke="#9A8FA6" stroke-width="1" opacity="0.8431372549019608" d="M 276.5 192 L 282 192.5 L 276.5 193 L 276.5 192 Z " /><path fill="#9A8FA6" stroke="#9A8FA6" stroke-width="1" opacity="0.8431372549019608" d="M 486.5 192 L 492 192.5 L 486.5 193 L 486.5 192 Z " /><path fill="#9A8FA6" stroke="#9A8FA6" stroke-width="1" opacity="0.8431372549019608" d="M 270.5 193 L 275 193.5 L 270.5 194 L 270.5 193 Z " /><path fill="#9A8FA6" stroke="#9A8FA6" stroke-width="1" opacity="0.8431372549019608" d="M 493.5 193 L 498 193.5 L 493.5 194 L 493.5 193 Z " /><path fill="#9A8FA6" stroke="#9A8FA6" stroke-width="1" opacity="0.8431372549019608" d="M 265.5 194 L 269 194.5 L 265.5 195 L 265.5 194 Z " /><path fill="#9A8FA6" stroke="#9A8FA6" stroke-width="1" opacity="0.8431372549019608" d="M 499.5 194 L 503 194.5 L 499.5 195 L 499.5 194 Z " /><path fill="#9A8FA6" stroke="#9A8FA6" stroke-width="1" opacity="0.8431372549019608" d="M 259.5 195 L 263 195.5 L 259.5 196 L 259.5 195 Z " /><path fill="#9A8FA6" stroke="#9A8FA6" stroke-width="1" opacity="0.8431372549019608" d="M 505.5 195 L 509 195.5 L 505.5 196 L 505.5 195 Z " /><path fill="#9A8FA6" stroke="#9A8FA6" stroke-width="1" opacity="0.8431372549019608" d="M 254.5 196 L 258 196.5 L 254.5 197 L 254.5 196 Z " /><path fill="#9A8FA6" stroke="#9A8FA6" stroke-width="1" opacity="0.8431372549019608" d="M 510.5 196 L 514 196.5 L 510.5 197 L 510.5 196 Z " /><path fill="#9A8FA6" stroke="#9A8FA6" stroke-width="1" opacity="0.8431372549019608" d="M 249.5 197 L 253 197.5 L 249.5 198 L 249.5 197 Z " /><path fill="#9A8FA6" stroke="#9A8FA6" stroke-width="1" opacity="0.8431372549019608" d="M 515.5 197 L 519 197.5 L 515.5 198 L 515.5 197 Z " /><path fill="#9A8FA6" stroke="#9A8FA6" stroke-width="1" opacity="0.8431372549019608" d="M 245.5 198 L 248 198.5 L 245.5 199 L 245.5 198 Z " /><path fill="#9A8FA6" stroke="#9A8FA6" stroke-width="1" opacity="0.8431372549019608" d="M 520.5 198 L 523 198.5 L 520.5 199 L 520.5 198 Z " /><path fill="#9A8FA6" stroke="#9A8FA6" stroke-width="1" opacity="0.8431372549019608" d="M 240.5 199 L 243 199.5 L 240.5 200 L 240.5 199 Z " /><path fill="#9A8FA6" stroke="#9A8FA6" stroke-width="1" opacity="0.8431372549019608" d="M 525.5 199 L 528 199.5 L 525.5 200 L 525.5 199 Z " /><path fill="#9A8FA6" stroke="#9A8FA6" stroke-width="1" opacity="0.8431372549019608" d="M 236.5 200 L 239 200.5 L 236.5 201 L 236.5 200 Z " /><path fill="#9A8FA6" stroke="#9A8FA6" stroke-width="1" opacity="0.8431372549019608" d="M 529.5 200 L 532 200.5 L 529.5 201 L 529.5 200 Z " /><path fill="#9A8FA6" stroke="#9A8FA6" stroke-width="1" opacity="0.8431372549019608" d="M 231.5 201 L 234 201.5 L 231.5 202 L 231.5 201 Z " /><path fill="#9A8FA6" stroke="#9A8FA6" stroke-width="1" opacity="0.8431372549019608" d="M 534.5 201 L 537 201.5 L 534.5 202 L 534.5 201 Z " /><path fill="#9A8FA6" stroke="#9A8FA6" stroke-width="1" opacity="0.8431372549019608" d="M 227.5 202 L 230 202.5 L 227.5 203 L 227.5 202 Z " /><path fill="#9A8FA6" stroke="#9A8FA6" stroke-width="1" opacity="0.8431372549019608" d="M 538.5 202 L 541 202.5 L 538.5 203 L 538.5 202 Z " /><path fill="#9A8FA6" stroke="#9A8FA6" stroke-width="1" opacity="0.8431372549019608" d="M 223.5 203 L 226 203.5 L 223.5 204 L 223.5 203 Z " /><path fill="#9A8FA6" stroke="#9A8FA6" stroke-width="1" opacity="0.8431372549019608" d="M 542.5 203 L 545 203.5 L 542.5 204 L 542.5 203 Z " /><path fill="#9A8FA6" stroke="#9A8FA6" stroke-width="1" opacity="0.8431372549019608" d="M 219.5 204 L 222 204.5 L 216.5 206 L 216.5 205 L 219.5 204 Z " /><path fill="#9A8FA6" stroke="#9A8FA6" stroke-width="1" opacity="0.8431372549019608" d="M 546.5 204 L 552 205.5 L 549.5 206 L 546.5 205 L 546.5 204 Z " /><path fill="#9A8FA6" stroke="#9A8FA6" stroke-width="1" opacity="0.8431372549019608" d="M 212.5 206 L 215 206.5 L 212.5 207 L 212.5 206 Z " /><path fill="#9A8FA6" stroke="#9A8FA6" stroke-width="1" opacity="0.8431372549019608" d="M 553.5 206 L 556 206.5 L 553.5 207 L 553.5 206 Z " /><path fill="#9A8FA6" stroke="#9A8FA6" stroke-width="1" opacity="0.8431372549019608" d="M 205.5 208 L 208 208.5 L 205.5 209 L 205.5 208 Z " /><path fill="#9A8FA6" stroke="#9A8FA6" stroke-width="1" opacity="0.8431372549019608" d="M 560.5 208 L 563 208.5 L 560.5 209 L 560.5 208 Z " /><path fill="#9A8FA6" stroke="#9A8FA6" stroke-width="1" opacity="0.8431372549019608" d="M 195.5 211 L 198 211.5 L 195.5 212 L 195.5 211 Z " /><path fill="#9A8FA6" stroke="#9A8FA6" stroke-width="1" opacity="0.8431372549019608" d="M 570.5 211 L 573 211.5 L 570.5 212 L 570.5 211 Z " /><path fill="#9A8FA6" stroke="#9A8FA6" stroke-width="1" opacity="0.8431372549019608" d="M 183.5 215 L 185 215.5 L 175.5 219 L 175.5 218 L 183.5 215 Z " /><path fill="#9A8FA6" stroke="#9A8FA6" stroke-width="1" opacity="0.8431372549019608" d="M 583.5 215 L 593 218.5 L 591.5 219 L 583.5 216 L 583.5 215 Z " /><path fill="#9A8FA6" stroke="#9A8FA6" stroke-width="1" opacity="0.8431372549019608" d="M 169.5 220 L 171 220.5 L 167.5 222 L 167.5 221 L 169.5 220 Z " /><path fill="#9A8FA6" stroke="#9A8FA6" stroke-width="1" opacity="0.8431372549019608" d="M 164.5 222 L 166 222.5 L 162.5 224 L 162.5 223 L 164.5 222 Z " /><path fill="#9A8FA6" stroke="#9A8FA6" stroke-width="1" opacity="0.8431372549019608" d="M 602.5 222 L 606 223.5 L 604.5 224 L 602.5 222 Z " /><path fill="#9A8FA6" stroke="#9A8FA6" stroke-width="1" opacity="0.8431372549019608" d="M 159.5 224 L 161 224.5 L 157.5 226 L 157.5 225 L 159.5 224 Z " /><path fill="#9A8FA6" stroke="#9A8FA6" stroke-width="1" opacity="0.8431372549019608" d="M 607.5 224 L 611 225.5 L 609.5 226 L 607.5 224 Z " /><path fill="#9A8FA6" stroke="#9A8FA6" stroke-width="1" opacity="0.8431372549019608" d="M 152.5 227 L 154 227.5 L 148.5 230 L 148.5 229 L 152.5 227 Z " /><path fill="#9A8FA6" stroke="#9A8FA6" stroke-width="1" opacity="0.8431372549019608" d="M 614.5 227 L 620 229.5 L 618.5 230 L 614.5 228 L 614.5 227 Z " /><path fill="#9A8FA6" stroke="#9A8FA6" stroke-width="1" opacity="0.8431372549019608" d="M 145.5 230 L 147 230.5 L 139.5 234 L 139.5 233 L 145.5 230 Z " /><path fill="#9A8FA6" stroke="#9A8FA6" stroke-width="1" opacity="0.8431372549019608" d="M 621.5 230 L 629 233.5 L 627.5 234 L 621.5 231 L 621.5 230 Z " /><path fill="#9A8FA6" stroke="#9A8FA6" stroke-width="1" opacity="0.8431372549019608" d="M 129.5 238 L 128.5 240 L 120.5 244 L 121.5 242 L 129.5 238 Z " /><path fill="#9A8FA6" stroke="#9A8FA6" stroke-width="1" opacity="0.8431372549019608" d="M 638.5 238 L 648 243.5 L 646.5 243 L 639.5 240 L 638.5 238 Z " /><path fill="#9A8FA6" stroke="#9A8FA6" stroke-width="1" opacity="0.8431372549019608" d="M 116.5 245 L 115.5 247 L 113.5 248 L 114.5 246 L 116.5 245 Z " /><path fill="#9A8FA6" stroke="#9A8FA6" stroke-width="1" opacity="0.8431372549019608" d="M 345 245 L 385.5 245 L 387 246.5 L 385.5 246 L 346.5 246 L 345.5 247 L 345 245 Z " /><path fill="#9A8FA6" stroke="#9A8FA6" stroke-width="1" opacity="0.8431372549019608" d="M 651.5 245 L 655 247.5 L 653.5 247 L 651.5 245 Z " /><path fill="#9A8FA6" stroke="#9A8FA6" stroke-width="1" opacity="0.8431372549019608" d="M 111.5 248 L 110.5 250 L 103.5 254 L 104.5 252 L 111.5 248 Z " /><path fill="#9A8FA6" stroke="#9A8FA6" stroke-width="1" opacity="0.8431372549019608" d="M 385.5 248 L 386 250.5 L 385 250.5 L 385.5 248 Z " /><path fill="#9A8FA6" stroke="#9A8FA6" stroke-width="1" opacity="0.8431372549019608" d="M 656.5 248 L 665 253.5 L 663.5 253 L 657.5 250 L 656.5 248 Z " /><path fill="#9A8FA6" stroke="#9A8FA6" stroke-width="1" opacity="0.8431372549019608" d="M 344.5 249 L 345 251.5 L 344 251.5 L 344.5 249 Z " /><path fill="#9A8FA6" stroke="#9A8FA6" stroke-width="1" opacity="0.8431372549019608" d="M 343.5 253 L 344 256.5 L 343 256.5 L 343.5 253 Z " /><path fill="#9A8FA6" stroke="#9A8FA6" stroke-width="1" opacity="0.8431372549019608" d="M 384.5 253 L 385 255.5 L 384 255.5 L 384.5 253 Z " /><path fill="#9A8FA6" stroke="#9A8FA6" stroke-width="1" opacity="0.8431372549019608" d="M 101.5 254 L 100.5 256 L 101.5 254 Z " /><path fill="#9A8FA6" stroke="#9A8FA6" stroke-width="1" opacity="0.8431372549019608" d="M 666.5 254 L 667.5 256 L 666.5 254 Z " /><path fill="#9A8FA6" stroke="#9A8FA6" stroke-width="1" opacity="0.8431372549019608" d="M 98.5 256 L 97.5 258 L 98.5 256 Z " /><path fill="#9A8FA6" stroke="#9A8FA6" stroke-width="1" opacity="0.8431372549019608" d="M 669.5 256 L 670.5 258 L 669.5 256 Z " /><path fill="#9A8FA6" stroke="#9A8FA6" stroke-width="1" opacity="0.8431372549019608" d="M 383.5 257 L 384 260.5 L 383 260.5 L 383.5 257 Z " /><path fill="#9A8FA6" stroke="#9A8FA6" stroke-width="1" opacity="0.8431372549019608" d="M 95.5 258 L 94.5 260 L 95.5 258 Z " /><path fill="#9A8FA6" stroke="#9A8FA6" stroke-width="1" opacity="0.8431372549019608" d="M 342.5 258 L 343 261.5 L 342 261.5 L 342.5 258 Z " /><path fill="#9A8FA6" stroke="#9A8FA6" stroke-width="1" opacity="0.8431372549019608" d="M 672.5 258 L 673.5 260 L 672.5 258 Z " /><path fill="#9A8FA6" stroke="#9A8FA6" stroke-width="1" opacity="0.8431372549019608" d="M 92.5 260 L 90.5 263 L 87.5 265 L 89.5 262 L 92.5 260 Z " /><path fill="#9A8FA6" stroke="#9A8FA6" stroke-width="1" opacity="0.8431372549019608" d="M 675.5 260 L 681 264.5 L 678.5 263 L 675.5 260 Z " /><path fill="#9A8FA6" stroke="#9A8FA6" stroke-width="1" opacity="0.8431372549019608" d="M 382.5 262 L 383 265.5 L 382 265.5 L 382.5 262 Z " /><path fill="#9A8FA6" stroke="#9A8FA6" stroke-width="1" opacity="0.8431372549019608" d="M 341.5 263 L 342 265.5 L 341 265.5 L 341.5 263 Z " /><path fill="#9A8FA6" stroke="#9A8FA6" stroke-width="1" opacity="0.8431372549019608" d="M 85.5 265 L 83.5 268 L 85.5 265 Z " /><path fill="#9A8FA6" stroke="#9A8FA6" stroke-width="1" opacity="0.8431372549019608" d="M 682.5 265 L 684.5 268 L 682.5 265 Z " /><path fill="#9A8FA6" stroke="#9A8FA6" stroke-width="1" opacity="0.8431372549019608" d="M 381.5 267 L 382 270.5 L 381 270.5 L 381.5 267 Z " /><path fill="#9A8FA6" stroke="#9A8FA6" stroke-width="1" opacity="0.8431372549019608" d="M 81.5 268 L 78.5 272 L 72.5 277 L 77.5 271 L 81.5 268 Z " /><path fill="#9A8FA6" stroke="#9A8FA6" stroke-width="1" opacity="0.8431372549019608" d="M 340.5 268 L 341 270.5 L 340 270.5 L 340.5 268 Z " /><path fill="#9A8FA6" stroke="#9A8FA6" stroke-width="1" opacity="0.8431372549019608" d="M 686.5 268 L 696 276.5 L 690.5 272 L 686.5 268 Z " /><path fill="#9A8FA6" stroke="#9A8FA6" stroke-width="1" opacity="0.8431372549019608" d="M 339.5 272 L 340 275.5 L 339 275.5 L 339.5 272 Z " /><path fill="#9A8FA6" stroke="#9A8FA6" stroke-width="1" opacity="0.8431372549019608" d="M 380.5 272 L 381 274.5 L 380 274.5 L 380.5 272 Z " /><path fill="#9A8FA6" stroke="#9A8FA6" stroke-width="1" opacity="0.8431372549019608" d="M 70.5 277 L 50.5 298 L 70.5 277 Z " /><path fill="#9A8FA6" stroke="#9A8FA6" stroke-width="1" opacity="0.8431372549019608" d="M 338.5 277 L 339 280.5 L 338 280.5 L 338.5 277 Z " /><path fill="#9A8FA6" stroke="#9A8FA6" stroke-width="1" opacity="0.8431372549019608" d="M 379.5 277 L 380 279.5 L 379 279.5 L 379.5 277 Z " /><path fill="#9A8FA6" stroke="#9A8FA6" stroke-width="1" opacity="0.8431372549019608" d="M 697.5 277 L 717.5 298 L 697.5 277 Z " /><path fill="#9A8FA6" stroke="#9A8FA6" stroke-width="1" opacity="0.8431372549019608" d="M 378.5 281 L 379 284.5 L 378 284.5 L 378.5 281 Z " /><path fill="#9A8FA6" stroke="#9A8FA6" stroke-width="1" opacity="0.8431372549019608" d="M 337.5 282 L 338 285.5 L 337 285.5 L 337.5 282 Z " /><path fill="#9A8FA6" stroke="#9A8FA6" stroke-width="1" opacity="0.8431372549019608" d="M 377.5 286 L 378 289.5 L 377 289.5 L 377.5 286 Z " /><path fill="#9A8FA6" stroke="#9A8FA6" stroke-width="1" opacity="0.8431372549019608" d="M 336.5 287 L 337 289.5 L 336 289.5 L 336.5 287 Z " /><path fill="#9A8FA6" stroke="#9A8FA6" stroke-width="1" opacity="0.8431372549019608" d="M 335.5 291 L 336 294.5 L 335 294.5 L 335.5 291 Z " /><path fill="#9A8FA6" stroke="#9A8FA6" stroke-width="1" opacity="0.8431372549019608" d="M 376.5 291 L 377 293.5 L 376 293.5 L 376.5 291 Z " /><path fill="#9A8FA6" stroke="#9A8FA6" stroke-width="1" opacity="0.8431372549019608" d="M 334.5 296 L 335 299.5 L 334 299.5 L 334.5 296 Z " /><path fill="#9A8FA6" stroke="#9A8FA6" stroke-width="1" opacity="0.8431372549019608" d="M 375.5 296 L 376 298.5 L 375 298.5 L 375.5 296 Z " /><path fill="#9A8FA6" stroke="#9A8FA6" stroke-width="1" opacity="0.8431372549019608" d="M 49.5 299 L 45.5 304 L 49.5 299 Z " /><path fill="#9A8FA6" stroke="#9A8FA6" stroke-width="1" opacity="0.8431372549019608" d="M 718.5 299 L 726 307.5 L 722 304.5 L 718.5 299 Z " /><path fill="#9A8FA6" stroke="#9A8FA6" stroke-width="1" opacity="0.8431372549019608" d="M 374.5 300 L 375 303.5 L 374 303.5 L 374.5 300 Z " /><path fill="#9A8FA6" stroke="#9A8FA6" stroke-width="1" opacity="0.8431372549019608" d="M 333.5 301 L 334 304.5 L 333 304.5 L 333.5 301 Z " /><path fill="#9A8FA6" stroke="#9A8FA6" stroke-width="1" opacity="0.8431372549019608" d="M 44.5 305 L 42.5 308 L 44.5 305 Z " /><path fill="#9A8FA6" stroke="#9A8FA6" stroke-width="1" opacity="0.8431372549019608" d="M 332.5 306 L 333 308.5 L 332 308.5 L 332.5 306 Z " /><path fill="#9A8FA6" stroke="#9A8FA6" stroke-width="1" opacity="0.8431372549019608" d="M 168.5 307 L 169 309.5 L 168 309.5 L 168.5 307 Z " /><path fill="#9A8FA6" stroke="#9A8FA6" stroke-width="1" opacity="0.8431372549019608" d="M 257.5 307 L 263 307.5 L 257.5 308 L 257.5 307 Z " /><path fill="#9A8FA6" stroke="#9A8FA6" stroke-width="1" opacity="0.8431372549019608" d="M 419.5 307 L 428 307.5 L 419.5 308 L 419.5 307 Z " /><path fill="#9A8FA6" stroke="#9A8FA6" stroke-width="1" opacity="0.8431372549019608" d="M 579.5 307 L 585 307.5 L 579.5 308 L 579.5 307 Z " /><path fill="#9A8FA6" stroke="#9A8FA6" stroke-width="1" opacity="0.8431372549019608" d="M 265.5 308 L 268 308.5 L 265.5 309 L 265.5 308 Z " /><path fill="#9A8FA6" stroke="#9A8FA6" stroke-width="1" opacity="0.8431372549019608" d="M 430.5 308 L 435 308.5 L 430.5 309 L 430.5 308 Z " /><path fill="#9A8FA6" stroke="#9A8FA6" stroke-width="1" opacity="0.8431372549019608" d="M 587.5 308 L 591 308.5 L 587.5 309 L 587.5 308 Z " /><path fill="#9A8FA6" stroke="#9A8FA6" stroke-width="1" opacity="0.8431372549019608" d="M 41.5 309 L 40 311.5 L 34.5 320 L 35 318.5 L 41.5 309 Z " /><path fill="#9A8FA6" stroke="#9A8FA6" stroke-width="1" opacity="0.8431372549019608" d="M 269.5 309 L 272 309.5 L 269.5 310 L 269.5 309 Z " /><path fill="#9A8FA6" stroke="#9A8FA6" stroke-width="1" opacity="0.8431372549019608" d="M 436.5 309 L 439 309.5 L 436.5 310 L 436.5 309 Z " /><path fill="#9A8FA6" stroke="#9A8FA6" stroke-width="1" opacity="0.8431372549019608" d="M 490.5 309 L 491 312.5 L 490 312.5 L 490.5 309 Z " /><path fill="#9A8FA6" stroke="#9A8FA6" stroke-width="1" opacity="0.8431372549019608" d="M 592.5 309 L 600 311.5 L 598.5 312 L 592.5 310 L 592.5 309 Z " /><path fill="#9A8FA6" stroke="#9A8FA6" stroke-width="1" opacity="0.8431372549019608" d="M 726.5 309 L 734 319.5 L 732 318.5 L 726.5 309 Z " /><path fill="#9A8FA6" stroke="#9A8FA6" stroke-width="1" opacity="0.8431372549019608" d="M 440.5 310 Q 453.4 312.6 460 321.5 L 462 325.5 L 461 325.5 L 454.5 317 Q 449.4 312.1 440.5 311 L 440.5 310 Z " /><path fill="#9A8FA6" stroke="#9A8FA6" stroke-width="1" opacity="0.8431372549019608" d="M 167.5 311 L 168 315.5 L 167 315.5 L 167.5 311 Z " /><path fill="#9A8FA6" stroke="#9A8FA6" stroke-width="1" opacity="0.8431372549019608" d="M 276.5 311 L 285 315.5 L 283.5 315 L 276.5 312 L 276.5 311 Z " /><path fill="#9A8FA6" stroke="#9A8FA6" stroke-width="1" opacity="0.8431372549019608" d="M 331.5 311 L 332 313.5 L 331 313.5 L 331.5 311 Z " /><path fill="#9A8FA6" stroke="#9A8FA6" stroke-width="1" opacity="0.8431372549019608" d="M 601.5 312 L 606 314.5 L 604.5 314 Q 600.8 313.8 601.5 312 Z " /><path fill="#9A8FA6" stroke="#9A8FA6" stroke-width="1" opacity="0.8431372549019608" d="M 489.5 315 L 490 318.5 L 489 318.5 L 489.5 315 Z " /><path fill="#9A8FA6" stroke="#9A8FA6" stroke-width="1" opacity="0.8431372549019608" d="M 607.5 315 L 608.5 317 L 607.5 315 Z " /><path fill="#9A8FA6" stroke="#9A8FA6" stroke-width="1" opacity="0.8431372549019608" d="M 286.5 316 L 287.5 318 L 286.5 316 Z " /><path fill="#9A8FA6" stroke="#9A8FA6" stroke-width="1" opacity="0.8431372549019608" d="M 330.5 316 L 331 318.5 L 330 318.5 L 330.5 316 Z " /><path fill="#9A8FA6" stroke="#9A8FA6" stroke-width="1" opacity="0.8431372549019608" d="M 166.5 317 L 167 320.5 L 166 320.5 L 166.5 317 Z " /><path fill="#9A8FA6" stroke="#9A8FA6" stroke-width="1" opacity="0.8431372549019608" d="M 610.5 317 L 612.5 320 L 610.5 317 Z " /><path fill="#9A8FA6" stroke="#9A8FA6" stroke-width="1" opacity="0.8431372549019608" d="M 289.5 318 L 301 331.5 L 299 330.5 L 289.5 318 Z " /><path fill="#9A8FA6" stroke="#9A8FA6" stroke-width="1" opacity="0.8431372549019608" d="M 329.5 320 L 330 323.5 L 329 323.5 L 329.5 320 Z " /><path fill="#9A8FA6" stroke="#9A8FA6" stroke-width="1" opacity="0.8431372549019608" d="M 488.5 320 L 489 323.5 L 488 323.5 L 488.5 320 Z " /><path fill="#9A8FA6" stroke="#9A8FA6" stroke-width="1" opacity="0.8431372549019608" d="M 614.5 320 L 617.5 324 L 614.5 320 Z " /><path fill="#9A8FA6" stroke="#9A8FA6" stroke-width="1" opacity="0.8431372549019608" d="M 33.5 321 L 33 322.5 L 30.5 327 L 31 325.5 L 33.5 321 Z " /><path fill="#9A8FA6" stroke="#9A8FA6" stroke-width="1" opacity="0.8431372549019608" d="M 734.5 321 L 738 326.5 L 736 325.5 L 734.5 321 Z " /><path fill="#9A8FA6" stroke="#9A8FA6" stroke-width="1" opacity="0.8431372549019608" d="M 165.5 322 L 166 326.5 L 165 326.5 L 165.5 322 Z " /><path fill="#9A8FA6" stroke="#9A8FA6" stroke-width="1" opacity="0.8431372549019608" d="M 328.5 325 L 329 328.5 L 328 328.5 L 328.5 325 Z " /><path fill="#9A8FA6" stroke="#9A8FA6" stroke-width="1" opacity="0.8431372549019608" d="M 618.5 325 L 623 330.5 L 621 329.5 L 618.5 325 Z " /><path fill="#9A8FA6" stroke="#9A8FA6" stroke-width="1" opacity="0.8431372549019608" d="M 487.5 326 L 488 328.5 L 487 328.5 L 487.5 326 Z " /><path fill="#9A8FA6" stroke="#9A8FA6" stroke-width="1" opacity="0.8431372549019608" d="M 164.5 328 L 165 331.5 L 164 331.5 L 164.5 328 Z " /><path fill="#9A8FA6" stroke="#9A8FA6" stroke-width="1" opacity="0.8431372549019608" d="M 327.5 330 L 328 332.5 L 327 332.5 L 327.5 330 Z " /><path fill="#9A8FA6" stroke="#9A8FA6" stroke-width="1" opacity="0.8431372549019608" d="M 486.5 331 L 487 334.5 L 486 334.5 L 486.5 331 Z " /><path fill="#9A8FA6" stroke="#9A8FA6" stroke-width="1" opacity="0.8431372549019608" d="M 464.5 332 L 465 335.5 L 464 335.5 L 464.5 332 Z " /><path fill="#9A8FA6" stroke="#9A8FA6" stroke-width="1" opacity="0.8431372549019608" d="M 163.5 333 L 164 336.5 L 163 336.5 L 163.5 333 Z " /><path fill="#9A8FA6" stroke="#9A8FA6" stroke-width="1" opacity="0.8431372549019608" d="M 26.5 334 L 27 335.5 L 23.5 343 L 23 341.5 L 26.5 334 Z " /><path fill="#9A8FA6" stroke="#9A8FA6" stroke-width="1" opacity="0.8431372549019608" d="M 741.5 334 L 743 337.5 L 742 337.5 L 741.5 334 Z " /><path fill="#9A8FA6" stroke="#9A8FA6" stroke-width="1" opacity="0.8431372549019608" d="M 302.5 335 L 304 338.5 L 303 338.5 L 302.5 335 Z " /><path fill="#9A8FA6" stroke="#9A8FA6" stroke-width="1" opacity="0.8431372549019608" d="M 326.5 335 L 327 337.5 L 326 337.5 L 326.5 335 Z " /><path fill="#9A8FA6" stroke="#9A8FA6" stroke-width="1" opacity="0.8431372549019608" d="M 625.5 336 L 628 343.5 L 627 343.5 L 625.5 336 Z " /><path fill="#9A8FA6" stroke="#9A8FA6" stroke-width="1" opacity="0.8431372549019608" d="M 485.5 337 L 486 339.5 L 485 339.5 L 485.5 337 Z " /><path fill="#9A8FA6" stroke="#9A8FA6" stroke-width="1" opacity="0.8431372549019608" d="M 204.5 338 L 245 338.5 L 204 339 L 203.5 343 L 203 339.5 L 204.5 338 Z " /><path fill="#9A8FA6" stroke="#9A8FA6" stroke-width="1" opacity="0.8431372549019608" d="M 367.5 338 L 409 338.5 L 367.5 339 L 367.5 338 Z " /><path fill="#9A8FA6" stroke="#9A8FA6" stroke-width="1" opacity="0.8431372549019608" d="M 465.5 338 L 466 347.5 L 465 347.5 L 465.5 338 Z " /><path fill="#9A8FA6" stroke="#9A8FA6" stroke-width="1" opacity="0.8431372549019608" d="M 526 338 L 568 338.5 L 527 339 L 526.5 341 L 526 338 Z " /><path fill="#9A8FA6" stroke="#9A8FA6" stroke-width="1" opacity="0.8431372549019608" d="M 162.5 339 L 163 342.5 L 162 342.5 L 162.5 339 Z " /><path fill="#9A8FA6" stroke="#9A8FA6" stroke-width="1" opacity="0.8431372549019608" d="M 247.5 339 L 250 339.5 L 247.5 340 L 247.5 339 Z " /><path fill="#9A8FA6" stroke="#9A8FA6" stroke-width="1" opacity="0.8431372549019608" d="M 325.5 339 L 326 342.5 L 325 342.5 L 325.5 339 Z " /><path fill="#9A8FA6" stroke="#9A8FA6" stroke-width="1" opacity="0.8431372549019608" d="M 410.5 339 L 413 339.5 L 410.5 340 L 410.5 339 Z " /><path fill="#9A8FA6" stroke="#9A8FA6" stroke-width="1" opacity="0.8431372549019608" d="M 570.5 339 L 573 339.5 L 570.5 340 L 570.5 339 Z " /><path fill="#9A8FA6" stroke="#9A8FA6" stroke-width="1" opacity="0.8431372549019608" d="M 743.5 339 L 745 342.5 L 744 342.5 L 743.5 339 Z " /><path fill="#9A8FA6" stroke="#9A8FA6" stroke-width="1" opacity="0.8431372549019608" d="M 366.5 340 L 367 342.5 L 366 342.5 L 366.5 340 Z " /><path fill="#9A8FA6" stroke="#9A8FA6" stroke-width="1" opacity="0.8431372549019608" d="M 414.5 340 L 421 344.5 L 422 349.5 L 421 349.5 Q 421.7 343.3 417.5 342 Q 413.8 341.7 414.5 340 Z " /><path fill="#9A8FA6" stroke="#9A8FA6" stroke-width="1" opacity="0.8431372549019608" d="M 574.5 340 L 578 341.5 L 576.5 342 L 574.5 340 Z " /><path fill="#9A8FA6" stroke="#9A8FA6" stroke-width="1" opacity="0.8431372549019608" d="M 254.5 341 L 257 342.5 L 255.5 342 L 254.5 341 Z " /><path fill="#9A8FA6" stroke="#9A8FA6" stroke-width="1" opacity="0.8431372549019608" d="M 484.5 342 L 485 345.5 L 484 345.5 L 484.5 342 Z " /><path fill="#9A8FA6" stroke="#9A8FA6" stroke-width="1" opacity="0.8431372549019608" d="M 525.5 342 L 526 345.5 L 525 345.5 L 525.5 342 Z " /><path fill="#9A8FA6" stroke="#9A8FA6" stroke-width="1" opacity="0.8431372549019608" d="M 579.5 342 L 580.5 344 L 579.5 342 Z " /><path fill="#9A8FA6" stroke="#9A8FA6" stroke-width="1" opacity="0.8431372549019608" d="M 258.5 343 L 262.5 348 L 258.5 343 Z " /><path fill="#9A8FA6" stroke="#9A8FA6" stroke-width="1" opacity="0.8431372549019608" d="M 161.5 344 L 162 347.5 L 161 347.5 L 161.5 344 Z " /><path fill="#9A8FA6" stroke="#9A8FA6" stroke-width="1" opacity="0.8431372549019608" d="M 305.5 344 L 306 346.5 L 305 346.5 L 305.5 344 Z " /><path fill="#9A8FA6" stroke="#9A8FA6" stroke-width="1" opacity="0.8431372549019608" d="M 324.5 344 L 325 347.5 L 324 347.5 L 324.5 344 Z " /><path fill="#9A8FA6" stroke="#9A8FA6" stroke-width="1" opacity="0.8431372549019608" d="M 365.5 344 L 366 347.5 L 365 347.5 L 365.5 344 Z " /><path fill="#9A8FA6" stroke="#9A8FA6" stroke-width="1" opacity="0.8431372549019608" d="M 582.5 344 L 587 350.5 L 586 350.5 L 582.5 344 Z " /><path fill="#9A8FA6" stroke="#9A8FA6" stroke-width="1" opacity="0.8431372549019608" d="M 202.5 345 L 203 348.5 L 202 348.5 L 202.5 345 Z " /><path fill="#9A8FA6" stroke="#9A8FA6" stroke-width="1" opacity="0.8431372549019608" d="M 628.5 346 L 629 350.5 L 628 350.5 L 628.5 346 Z " /><path fill="#9A8FA6" stroke="#9A8FA6" stroke-width="1" opacity="0.8431372549019608" d="M 483.5 347 L 484 350.5 L 483 350.5 L 483.5 347 Z " /><path fill="#9A8FA6" stroke="#9A8FA6" stroke-width="1" opacity="0.8431372549019608" d="M 524.5 348 L 525 350.5 L 524 350.5 L 524.5 348 Z " /><path fill="#9A8FA6" stroke="#9A8FA6" stroke-width="1" opacity="0.8431372549019608" d="M 263.5 349 L 265 352.5 L 264 352.5 L 263.5 349 Z " /><path fill="#9A8FA6" stroke="#9A8FA6" stroke-width="1" opacity="0.8431372549019608" d="M 306.5 349 L 307 362.5 L 306 362.5 L 306.5 349 Z " /><path fill="#9A8FA6" stroke="#9A8FA6" stroke-width="1" opacity="0.8431372549019608" d="M 323.5 349 L 324 352.5 L 323 352.5 L 323.5 349 Z " /><path fill="#9A8FA6" stroke="#9A8FA6" stroke-width="1" opacity="0.8431372549019608" d="M 364.5 349 L 365 352.5 L 364 352.5 L 364.5 349 Z " /><path fill="#9A8FA6" stroke="#9A8FA6" stroke-width="1" opacity="0.8431372549019608" d="M 160.5 350 L 161 353.5 L 160 353.5 L 160.5 350 Z " /><path fill="#9A8FA6" stroke="#9A8FA6" stroke-width="1" opacity="0.8431372549019608" d="M 201.5 350 L 202 353.5 L 201 353.5 L 201.5 350 Z " /><path fill="#9A8FA6" stroke="#9A8FA6" stroke-width="1" opacity="0.8431372549019608" d="M 464.5 351 L 465 354.5 L 464 354.5 L 464.5 351 Z " /><path fill="#9A8FA6" stroke="#9A8FA6" stroke-width="1" opacity="0.8431372549019608" d="M 587.5 352 L 588 354.5 L 587 354.5 L 587.5 352 Z " /><path fill="#9A8FA6" stroke="#9A8FA6" stroke-width="1" opacity="0.8431372549019608" d="M 19.5 353 L 20 355.5 L 19 355.5 L 19.5 353 Z " /><path fill="#9A8FA6" stroke="#9A8FA6" stroke-width="1" opacity="0.8431372549019608" d="M 482.5 353 L 483 356.5 L 482 356.5 L 482.5 353 Z " /><path fill="#9A8FA6" stroke="#9A8FA6" stroke-width="1" opacity="0.8431372549019608" d="M 523.5 353 L 524 356.5 L 523 356.5 L 523.5 353 Z " /><path fill="#9A8FA6" stroke="#9A8FA6" stroke-width="1" opacity="0.8431372549019608" d="M 748.5 353 L 749 355.5 L 748 355.5 L 748.5 353 Z " /><path fill="#9A8FA6" stroke="#9A8FA6" stroke-width="1" opacity="0.8431372549019608" d="M 265.5 354 L 266 366.5 L 265 366.5 L 265.5 354 Z " /><path fill="#9A8FA6" stroke="#9A8FA6" stroke-width="1" opacity="0.8431372549019608" d="M 322.5 354 L 323 356.5 L 322 356.5 L 322.5 354 Z " /><path fill="#9A8FA6" stroke="#9A8FA6" stroke-width="1" opacity="0.8431372549019608" d="M 363.5 354 L 364 356.5 L 363 356.5 L 363.5 354 Z " /><path fill="#9A8FA6" stroke="#9A8FA6" stroke-width="1" opacity="0.8431372549019608" d="M 159.5 355 L 160 358.5 L 159 358.5 L 159.5 355 Z " /><path fill="#9A8FA6" stroke="#9A8FA6" stroke-width="1" opacity="0.8431372549019608" d="M 200.5 355 L 201 358.5 L 200 358.5 L 200.5 355 Z " /><path fill="#9A8FA6" stroke="#9A8FA6" stroke-width="1" opacity="0.8431372549019608" d="M 588.5 356 L 589 362.5 L 588 362.5 L 588.5 356 Z " /><path fill="#9A8FA6" stroke="#9A8FA6" stroke-width="1" opacity="0.8431372549019608" d="M 18.5 357 L 19 359.5 L 18 359.5 L 18.5 357 Z " /><path fill="#9A8FA6" stroke="#9A8FA6" stroke-width="1" opacity="0.8431372549019608" d="M 421.5 357 L 422 361.5 L 421 361.5 L 421.5 357 Z " /><path fill="#9A8FA6" stroke="#9A8FA6" stroke-width="1" opacity="0.8431372549019608" d="M 463.5 357 L 464 359.5 L 463 359.5 L 463.5 357 Z " /><path fill="#9A8FA6" stroke="#9A8FA6" stroke-width="1" opacity="0.8431372549019608" d="M 749.5 357 L 750 359.5 L 749 359.5 L 749.5 357 Z " /><path fill="#9A8FA6" stroke="#9A8FA6" stroke-width="1" opacity="0.8431372549019608" d="M 321.5 358 L 322 361.5 L 321 361.5 L 321.5 358 Z " /><path fill="#9A8FA6" stroke="#9A8FA6" stroke-width="1" opacity="0.8431372549019608" d="M 481.5 358 L 482 361.5 L 481 361.5 L 481.5 358 Z " /><path fill="#9A8FA6" stroke="#9A8FA6" stroke-width="1" opacity="0.8431372549019608" d="M 522.5 358 L 523 361.5 L 522 361.5 L 522.5 358 Z " /><path fill="#9A8FA6" stroke="#9A8FA6" stroke-width="1" opacity="0.8431372549019608" d="M 362.5 359 L 363 361.5 L 362 361.5 L 362.5 359 Z " /><path fill="#9A8FA6" stroke="#9A8FA6" stroke-width="1" opacity="0.8431372549019608" d="M 158.5 360 L 159 363.5 L 158 363.5 L 158.5 360 Z " /><path fill="#9A8FA6" stroke="#9A8FA6" stroke-width="1" opacity="0.8431372549019608" d="M 199.5 361 L 200 363.5 L 199 363.5 L 199.5 361 Z " /><path fill="#9A8FA6" stroke="#9A8FA6" stroke-width="1" opacity="0.8431372549019608" d="M 462.5 361 L 463 364.5 L 462 364.5 L 462.5 361 Z " /><path fill="#9A8FA6" stroke="#9A8FA6" stroke-width="1" opacity="0.8431372549019608" d="M 17.5 362 L 18 364.5 L 17 364.5 L 17.5 362 Z " /><path fill="#9A8FA6" stroke="#9A8FA6" stroke-width="1" opacity="0.8431372549019608" d="M 628.5 362 L 629 366.5 L 628 366.5 L 628.5 362 Z " /><path fill="#9A8FA6" stroke="#9A8FA6" stroke-width="1" opacity="0.8431372549019608" d="M 750.5 362 L 751 364.5 L 750 364.5 L 750.5 362 Z " /><path fill="#9A8FA6" stroke="#9A8FA6" stroke-width="1" opacity="0.8431372549019608" d="M 320.5 363 L 321 366.5 L 320 366.5 L 320.5 363 Z " /><path fill="#9A8FA6" stroke="#9A8FA6" stroke-width="1" opacity="0.8431372549019608" d="M 361.5 363 L 362 366.5 L 361 366.5 L 361.5 363 Z " /><path fill="#9A8FA6" stroke="#9A8FA6" stroke-width="1" opacity="0.8431372549019608" d="M 420.5 363 L 421 366.5 L 420 366.5 L 420.5 363 Z " /><path fill="#9A8FA6" stroke="#9A8FA6" stroke-width="1" opacity="0.8431372549019608" d="M 480.5 363 L 481 367.5 L 480 367.5 L 480.5 363 Z " /><path fill="#9A8FA6" stroke="#9A8FA6" stroke-width="1" opacity="0.8431372549019608" d="M 521.5 364 L 522 366.5 L 521 366.5 L 521.5 364 Z " /><path fill="#9A8FA6" stroke="#9A8FA6" stroke-width="1" opacity="0.8431372549019608" d="M 587.5 365 L 588 369.5 L 587 369.5 L 587.5 365 Z " /><path fill="#9A8FA6" stroke="#9A8FA6" stroke-width="1" opacity="0.8431372549019608" d="M 157.5 366 L 158 369.5 L 157 369.5 L 157.5 366 Z " /><path fill="#9A8FA6" stroke="#9A8FA6" stroke-width="1" opacity="0.8431372549019608" d="M 198.5 366 L 199 369.5 L 198 369.5 L 198.5 366 Z " /><path fill="#9A8FA6" stroke="#9A8FA6" stroke-width="1" opacity="0.8431372549019608" d="M 305.5 366 L 306 369.5 L 305 369.5 L 305.5 366 Z " /><path fill="#9A8FA6" stroke="#9A8FA6" stroke-width="1" opacity="0.8431372549019608" d="M 461.5 366 L 462 368.5 L 461 368.5 L 461.5 366 Z " /><path fill="#9A8FA6" stroke="#9A8FA6" stroke-width="1" opacity="0.8431372549019608" d="M 16.5 367 L 17 372.5 L 16 372.5 L 16.5 367 Z " /><path fill="#9A8FA6" stroke="#9A8FA6" stroke-width="1" opacity="0.8431372549019608" d="M 751.5 367 L 752 372.5 L 751 372.5 L 751.5 367 Z " /><path fill="#9A8FA6" stroke="#9A8FA6" stroke-width="1" opacity="0.8431372549019608" d="M 264.5 368 L 265 371.5 L 264 371.5 L 264.5 368 Z " /><path fill="#9A8FA6" stroke="#9A8FA6" stroke-width="1" opacity="0.8431372549019608" d="M 319.5 368 L 320 371.5 L 319 371.5 L 319.5 368 Z " /><path fill="#9A8FA6" stroke="#9A8FA6" stroke-width="1" opacity="0.8431372549019608" d="M 360.5 368 L 361 371.5 L 360 371.5 L 360.5 368 Z " /><path fill="#9A8FA6" stroke="#9A8FA6" stroke-width="1" opacity="0.8431372549019608" d="M 419.5 368 L 420 371.5 L 419 371.5 L 419.5 368 Z " /><path fill="#9A8FA6" stroke="#9A8FA6" stroke-width="1" opacity="0.8431372549019608" d="M 479.5 369 L 480 372.5 L 479 372.5 L 479.5 369 Z " /><path fill="#9A8FA6" stroke="#9A8FA6" stroke-width="1" opacity="0.8431372549019608" d="M 520.5 369 L 521 372.5 L 520 372.5 L 520.5 369 Z " /><path fill="#9A8FA6" stroke="#9A8FA6" stroke-width="1" opacity="0.8431372549019608" d="M 627.5 369 L 628 371.5 L 627 371.5 L 627.5 369 Z " /><path fill="#9A8FA6" stroke="#9A8FA6" stroke-width="1" opacity="0.8431372549019608" d="M 156.5 371 L 157 374.5 L 156 374.5 L 156.5 371 Z " /><path fill="#9A8FA6" stroke="#9A8FA6" stroke-width="1" opacity="0.8431372549019608" d="M 197.5 371 L 198 374.5 L 197 374.5 L 197.5 371 Z " /><path fill="#9A8FA6" stroke="#9A8FA6" stroke-width="1" opacity="0.8431372549019608" d="M 304.5 371 L 305 373.5 L 304 373.5 L 304.5 371 Z " /><path fill="#9A8FA6" stroke="#9A8FA6" stroke-width="1" opacity="0.8431372549019608" d="M 460.5 371 L 461 373.5 L 460 373.5 L 460.5 371 Z " /><path fill="#9A8FA6" stroke="#9A8FA6" stroke-width="1" opacity="0.8431372549019608" d="M 586.5 371 L 587 373.5 L 586 373.5 L 586.5 371 Z " /><path fill="#9A8FA6" stroke="#9A8FA6" stroke-width="1" opacity="0.8431372549019608" d="M 318.5 373 L 319 375.5 L 318 375.5 L 318.5 373 Z " /><path fill="#9A8FA6" stroke="#9A8FA6" stroke-width="1" opacity="0.8431372549019608" d="M 359.5 373 L 360 375.5 L 359 375.5 L 359.5 373 Z " /><path fill="#9A8FA6" stroke="#9A8FA6" stroke-width="1" opacity="0.8431372549019608" d="M 418.5 373 L 419 375.5 L 418 375.5 L 418.5 373 Z " /><path fill="#9A8FA6" stroke="#9A8FA6" stroke-width="1" opacity="0.8431372549019608" d="M 626.5 373 L 627 375.5 L 626 375.5 L 626.5 373 Z " /><path fill="#9A8FA6" stroke="#9A8FA6" stroke-width="1" opacity="0.8431372549019608" d="M 478.5 374 L 479 377.5 L 478 377.5 L 478.5 374 Z " /><path fill="#9A8FA6" stroke="#9A8FA6" stroke-width="1" opacity="0.8431372549019608" d="M 519.5 374 L 520 377.5 L 519 377.5 L 519.5 374 Z " /><path fill="#9A8FA6" stroke="#9A8FA6" stroke-width="1" opacity="0.8431372549019608" d="M 303.5 375 L 304 377.5 L 303 377.5 L 303.5 375 Z " /><path fill="#9A8FA6" stroke="#9A8FA6" stroke-width="1" opacity="0.8431372549019608" d="M 459.5 375 L 460 378.5 L 459 378.5 L 459.5 375 Z " /><path fill="#9A8FA6" stroke="#9A8FA6" stroke-width="1" opacity="0.8431372549019608" d="M 196.5 376 L 197 379.5 L 196 379.5 L 196.5 376 Z " /><path fill="#9A8FA6" stroke="#9A8FA6" stroke-width="1" opacity="0.8431372549019608" d="M 15.5 377 L 16 390.5 L 15 390.5 L 15.5 377 Z " /><path fill="#9A8FA6" stroke="#9A8FA6" stroke-width="1" opacity="0.8431372549019608" d="M 155.5 377 L 156 380.5 L 155 380.5 L 155.5 377 Z " /><path fill="#9A8FA6" stroke="#9A8FA6" stroke-width="1" opacity="0.8431372549019608" d="M 417.5 377 L 418 380.5 L 417 380.5 L 417.5 377 Z " /><path fill="#9A8FA6" stroke="#9A8FA6" stroke-width="1" opacity="0.8431372549019608" d="M 625.5 377 L 626 379.5 L 625 379.5 L 625.5 377 Z " /><path fill="#9A8FA6" stroke="#9A8FA6" stroke-width="1" opacity="0.8431372549019608" d="M 752.5 377 L 753 390.5 L 752 390.5 L 752.5 377 Z " /><path fill="#9A8FA6" stroke="#9A8FA6" stroke-width="1" opacity="0.8431372549019608" d="M 317.5 378 L 318 380.5 L 317 380.5 L 317.5 378 Z " /><path fill="#9A8FA6" stroke="#9A8FA6" stroke-width="1" opacity="0.8431372549019608" d="M 358.5 378 L 359 380.5 L 358 380.5 L 358.5 378 Z " /><path fill="#9A8FA6" stroke="#9A8FA6" stroke-width="1" opacity="0.8431372549019608" d="M 584.5 378 L 585 379.5 L 582.5 383 L 583 381.5 L 584.5 378 Z " /><path fill="#9A8FA6" stroke="#9A8FA6" stroke-width="1" opacity="0.8431372549019608" d="M 261.5 379 L 262 380.5 L 260 381.5 L 261.5 379 Z " /><path fill="#9A8FA6" stroke="#9A8FA6" stroke-width="1" opacity="0.8431372549019608" d="M 518.5 379 L 519 382.5 L 518 382.5 L 518.5 379 Z " /><path fill="#9A8FA6" stroke="#9A8FA6" stroke-width="1" opacity="0.8431372549019608" d="M 458.5 380 L 459 382.5 L 458 382.5 L 458.5 380 Z " /><path fill="#9A8FA6" stroke="#9A8FA6" stroke-width="1" opacity="0.8431372549019608" d="M 477.5 380 L 478 383.5 L 477 383.5 L 477.5 380 Z " /><path fill="#9A8FA6" stroke="#9A8FA6" stroke-width="1" opacity="0.8431372549019608" d="M 154.5 382 L 155 385.5 L 154 385.5 L 154.5 382 Z " /><path fill="#9A8FA6" stroke="#9A8FA6" stroke-width="1" opacity="0.8431372549019608" d="M 195.5 382 L 196 385.5 L 195 385.5 L 195.5 382 Z " /><path fill="#9A8FA6" stroke="#9A8FA6" stroke-width="1" opacity="0.8431372549019608" d="M 357.5 382 L 358 385.5 L 357 385.5 L 357.5 382 Z " /><path fill="#9A8FA6" stroke="#9A8FA6" stroke-width="1" opacity="0.8431372549019608" d="M 416.5 382 L 417 384.5 L 416 384.5 L 416.5 382 Z " /><path fill="#9A8FA6" stroke="#9A8FA6" stroke-width="1" opacity="0.8431372549019608" d="M 259.5 383 L 259 384.5 L 251.5 393 L 249.5 394 L 250.5 392 L 258 385.5 L 259.5 383 Z " /><path fill="#9A8FA6" stroke="#9A8FA6" stroke-width="1" opacity="0.8431372549019608" d="M 316.5 383 L 317 385.5 L 316 385.5 L 316.5 383 Z " /><path fill="#9A8FA6" stroke="#9A8FA6" stroke-width="1" opacity="0.8431372549019608" d="M 457.5 384 L 458 387.5 L 457 387.5 L 457.5 384 Z " /><path fill="#9A8FA6" stroke="#9A8FA6" stroke-width="1" opacity="0.8431372549019608" d="M 581.5 384 L 580.5 386 L 581.5 384 Z " /><path fill="#9A8FA6" stroke="#9A8FA6" stroke-width="1" opacity="0.8431372549019608" d="M 623.5 384 L 624 385.5 L 622.5 388 L 622 386.5 L 623.5 384 Z " /><path fill="#9A8FA6" stroke="#9A8FA6" stroke-width="1" opacity="0.8431372549019608" d="M 300.5 385 L 301 386.5 L 299.5 389 L 299 387.5 L 300.5 385 Z " /><path fill="#9A8FA6" stroke="#9A8FA6" stroke-width="1" opacity="0.8431372549019608" d="M 476.5 385 L 477 388.5 L 476 388.5 L 476.5 385 Z " /><path fill="#9A8FA6" stroke="#9A8FA6" stroke-width="1" opacity="0.8431372549019608" d="M 517.5 385 L 518 388.5 L 517 388.5 L 517.5 385 Z " /><path fill="#9A8FA6" stroke="#9A8FA6" stroke-width="1" opacity="0.8431372549019608" d="M 194.5 387 L 195 390.5 L 194 390.5 L 194.5 387 Z " /><path fill="#9A8FA6" stroke="#9A8FA6" stroke-width="1" opacity="0.8431372549019608" d="M 315.5 387 L 316 390.5 L 315 390.5 L 315.5 387 Z " /><path fill="#9A8FA6" stroke="#9A8FA6" stroke-width="1" opacity="0.8431372549019608" d="M 356.5 387 L 357 389.5 L 356 389.5 L 356.5 387 Z " /><path fill="#9A8FA6" stroke="#9A8FA6" stroke-width="1" opacity="0.8431372549019608" d="M 415.5 387 L 416 389.5 L 415 389.5 L 415.5 387 Z " /><path fill="#9A8FA6" stroke="#9A8FA6" stroke-width="1" opacity="0.8431372549019608" d="M 579.5 387 L 575.5 392 L 567.5 396 L 567.5 395 Q 575.3 392.8 579.5 387 Z " /><path fill="#9A8FA6" stroke="#9A8FA6" stroke-width="1" opacity="0.8431372549019608" d="M 153.5 388 L 154 391.5 L 153 391.5 L 153.5 388 Z " /><path fill="#9A8FA6" stroke="#9A8FA6" stroke-width="1" opacity="0.8431372549019608" d="M 456.5 389 L 457 392.5 L 456 392.5 L 456.5 389 Z " /><path fill="#9A8FA6" stroke="#9A8FA6" stroke-width="1" opacity="0.8431372549019608" d="M 621.5 389 L 622 390.5 L 618.5 396 L 619 394.5 L 621.5 389 Z " /><path fill="#9A8FA6" stroke="#9A8FA6" stroke-width="1" opacity="0.8431372549019608" d="M 298.5 390 L 299 391.5 L 296.5 395 L 297 393.5 L 298.5 390 Z " /><path fill="#9A8FA6" stroke="#9A8FA6" stroke-width="1" opacity="0.8431372549019608" d="M 516.5 390 L 517 393.5 L 516 393.5 L 516.5 390 Z " /><path fill="#9A8FA6" stroke="#9A8FA6" stroke-width="1" opacity="0.8431372549019608" d="M 414.5 391 L 415 394.5 L 414 394.5 L 414.5 391 Z " /><path fill="#9A8FA6" stroke="#9A8FA6" stroke-width="1" opacity="0.8431372549019608" d="M 475.5 391 L 476 394.5 L 475 394.5 L 475.5 391 Z " /><path fill="#9A8FA6" stroke="#9A8FA6" stroke-width="1" opacity="0.8431372549019608" d="M 193.5 392 L 194 395.5 L 193 395.5 L 193.5 392 Z " /><path fill="#9A8FA6" stroke="#9A8FA6" stroke-width="1" opacity="0.8431372549019608" d="M 314.5 392 L 315 395.5 L 314 395.5 L 314.5 392 Z " /><path fill="#9A8FA6" stroke="#9A8FA6" stroke-width="1" opacity="0.8431372549019608" d="M 355.5 392 L 356 394.5 L 355 394.5 L 355.5 392 Z " /><path fill="#9A8FA6" stroke="#9A8FA6" stroke-width="1" opacity="0.8431372549019608" d="M 152.5 393 L 153 396.5 L 152 396.5 L 152.5 393 Z " /><path fill="#9A8FA6" stroke="#9A8FA6" stroke-width="1" opacity="0.8431372549019608" d="M 455.5 394 L 456 396.5 L 455 396.5 L 455.5 394 Z " /><path fill="#9A8FA6" stroke="#9A8FA6" stroke-width="1" opacity="0.8431372549019608" d="M 16.5 395 L 17 400.5 L 16 400.5 L 16.5 395 Z " /><path fill="#9A8FA6" stroke="#9A8FA6" stroke-width="1" opacity="0.8431372549019608" d="M 244.5 395 L 246 395.5 L 241.5 397 L 241.5 396 L 244.5 395 Z " /><path fill="#9A8FA6" stroke="#9A8FA6" stroke-width="1" opacity="0.8431372549019608" d="M 515.5 395 L 516 398.5 L 515 398.5 L 515.5 395 Z " /><path fill="#9A8FA6" stroke="#9A8FA6" stroke-width="1" opacity="0.8431372549019608" d="M 751.5 395 L 752 400.5 L 751 400.5 L 751.5 395 Z " /><path fill="#9A8FA6" stroke="#9A8FA6" stroke-width="1" opacity="0.8431372549019608" d="M 413.5 396 L 414 398.5 L 413 398.5 L 413.5 396 Z " /><path fill="#9A8FA6" stroke="#9A8FA6" stroke-width="1" opacity="0.8431372549019608" d="M 474.5 396 L 475 399.5 L 474 399.5 L 474.5 396 Z " /><path fill="#9A8FA6" stroke="#9A8FA6" stroke-width="1" opacity="0.8431372549019608" d="M 236.5 397 L 240 397.5 L 236.5 398 L 236.5 397 Z " /><path fill="#9A8FA6" stroke="#9A8FA6" stroke-width="1" opacity="0.8431372549019608" d="M 313.5 397 L 314 399.5 L 313 399.5 L 313.5 397 Z " /><path fill="#9A8FA6" stroke="#9A8FA6" stroke-width="1" opacity="0.8431372549019608" d="M 354.5 397 L 355 399.5 L 354 399.5 L 354.5 397 Z " /><path fill="#9A8FA6" stroke="#9A8FA6" stroke-width="1" opacity="0.8431372549019608" d="M 559.5 397 L 563 397.5 L 559.5 398 L 559.5 397 Z " /><path fill="#9A8FA6" stroke="#9A8FA6" stroke-width="1" opacity="0.8431372549019608" d="M 227.5 398 L 235 398.5 L 227.5 399 L 227.5 398 Z " /><path fill="#9A8FA6" stroke="#9A8FA6" stroke-width="1" opacity="0.8431372549019608" d="M 294.5 398 L 294 399.5 L 291.5 403 L 293 400.5 L 294.5 398 Z " /><path fill="#9A8FA6" stroke="#9A8FA6" stroke-width="1" opacity="0.8431372549019608" d="M 454.5 398 L 455 401.5 L 454 401.5 L 454.5 398 Z " /><path fill="#9A8FA6" stroke="#9A8FA6" stroke-width="1" opacity="0.8431372549019608" d="M 550.5 398 L 557 398.5 L 550.5 399 L 550.5 398 Z " /><path fill="#9A8FA6" stroke="#9A8FA6" stroke-width="1" opacity="0.8431372549019608" d="M 151.5 399 L 152 401.5 L 151 401.5 L 151.5 399 Z " /><path fill="#9A8FA6" stroke="#9A8FA6" stroke-width="1" opacity="0.8431372549019608" d="M 616.5 399 L 615.5 401 L 616.5 399 Z " /><path fill="#9A8FA6" stroke="#9A8FA6" stroke-width="1" opacity="0.8431372549019608" d="M 312.5 401 L 313 404.5 L 312 404.5 L 312.5 401 Z " /><path fill="#9A8FA6" stroke="#9A8FA6" stroke-width="1" opacity="0.8431372549019608" d="M 353.5 401 L 354 404.5 L 353 404.5 L 353.5 401 Z " /><path fill="#9A8FA6" stroke="#9A8FA6" stroke-width="1" opacity="0.8431372549019608" d="M 412.5 401 L 413 403.5 L 412 403.5 L 412.5 401 Z " /><path fill="#9A8FA6" stroke="#9A8FA6" stroke-width="1" opacity="0.8431372549019608" d="M 473.5 402 L 474 404.5 L 473 404.5 L 473.5 402 Z " /><path fill="#9A8FA6" stroke="#9A8FA6" stroke-width="1" opacity="0.8431372549019608" d="M 614.5 402 L 612.5 405 L 614.5 402 Z " /><path fill="#9A8FA6" stroke="#9A8FA6" stroke-width="1" opacity="0.8431372549019608" d="M 750.5 402 L 751 405.5 L 750 405.5 L 750.5 402 Z " /><path fill="#9A8FA6" stroke="#9A8FA6" stroke-width="1" opacity="0.8431372549019608" d="M 17.5 403 L 18 405.5 L 17 405.5 L 17.5 403 Z " /><path fill="#9A8FA6" stroke="#9A8FA6" stroke-width="1" opacity="0.8431372549019608" d="M 453.5 403 L 454 405.5 L 453 405.5 L 453.5 403 Z " /><path fill="#9A8FA6" stroke="#9A8FA6" stroke-width="1" opacity="0.8431372549019608" d="M 150.5 404 L 151 407.5 L 150 407.5 L 150.5 404 Z " /><path fill="#9A8FA6" stroke="#9A8FA6" stroke-width="1" opacity="0.8431372549019608" d="M 290.5 404 L 280.5 415 L 277.5 417 L 279.5 414 L 290.5 404 Z " /><path fill="#9A8FA6" stroke="#9A8FA6" stroke-width="1" opacity="0.8431372549019608" d="M 411.5 405 L 412 407.5 L 411 407.5 L 411.5 405 Z " /><path fill="#9A8FA6" stroke="#9A8FA6" stroke-width="1" opacity="0.8431372549019608" d="M 311.5 406 L 312 409.5 L 311 409.5 L 311.5 406 Z " /><path fill="#9A8FA6" stroke="#9A8FA6" stroke-width="1" opacity="0.8431372549019608" d="M 352.5 406 L 353 408.5 L 352 408.5 L 352.5 406 Z " /><path fill="#9A8FA6" stroke="#9A8FA6" stroke-width="1" opacity="0.8431372549019608" d="M 611.5 406 L 605.5 413 L 611.5 406 Z " /><path fill="#9A8FA6" stroke="#9A8FA6" stroke-width="1" opacity="0.8431372549019608" d="M 472.5 407 L 473 410.5 L 472 410.5 L 472.5 407 Z " /><path fill="#9A8FA6" stroke="#9A8FA6" stroke-width="1" opacity="0.8431372549019608" d="M 18.5 408 L 19 410.5 L 18 410.5 L 18.5 408 Z " /><path fill="#9A8FA6" stroke="#9A8FA6" stroke-width="1" opacity="0.8431372549019608" d="M 452.5 408 L 453 410.5 L 452 410.5 L 452.5 408 Z " /><path fill="#9A8FA6" stroke="#9A8FA6" stroke-width="1" opacity="0.8431372549019608" d="M 749.5 408 L 750 410.5 L 749 410.5 L 749.5 408 Z " /><path fill="#9A8FA6" stroke="#9A8FA6" stroke-width="1" opacity="0.8431372549019608" d="M 149.5 410 L 150 412.5 L 149 412.5 L 149.5 410 Z " /><path fill="#9A8FA6" stroke="#9A8FA6" stroke-width="1" opacity="0.8431372549019608" d="M 410.5 410 L 411 412.5 L 410 412.5 L 410.5 410 Z " /><path fill="#9A8FA6" stroke="#9A8FA6" stroke-width="1" opacity="0.8431372549019608" d="M 310.5 411 L 311 414.5 L 310 414.5 L 310.5 411 Z " /><path fill="#9A8FA6" stroke="#9A8FA6" stroke-width="1" opacity="0.8431372549019608" d="M 351.5 411 L 352 413.5 L 351 413.5 L 351.5 411 Z " /><path fill="#9A8FA6" stroke="#9A8FA6" stroke-width="1" opacity="0.8431372549019608" d="M 19.5 412 L 20 414.5 L 19 414.5 L 19.5 412 Z " /><path fill="#9A8FA6" stroke="#9A8FA6" stroke-width="1" opacity="0.8431372549019608" d="M 451.5 412 L 452 414.5 L 451 414.5 L 451.5 412 Z " /><path fill="#9A8FA6" stroke="#9A8FA6" stroke-width="1" opacity="0.8431372549019608" d="M 471.5 412 L 472 415.5 L 471 415.5 L 471.5 412 Z " /><path fill="#9A8FA6" stroke="#9A8FA6" stroke-width="1" opacity="0.8431372549019608" d="M 748.5 412 L 749 414.5 L 748 414.5 L 748.5 412 Z " /><path fill="#9A8FA6" stroke="#9A8FA6" stroke-width="1" opacity="0.8431372549019608" d="M 603.5 413 L 601.5 416 L 603.5 413 Z " /><path fill="#9A8FA6" stroke="#9A8FA6" stroke-width="1" opacity="0.8431372549019608" d="M 409.5 414 L 410 417.5 L 409 417.5 L 409.5 414 Z " /><path fill="#9A8FA6" stroke="#9A8FA6" stroke-width="1" opacity="0.8431372549019608" d="M 148.5 415 L 149 418.5 L 148 418.5 L 148.5 415 Z " /><path fill="#9A8FA6" stroke="#9A8FA6" stroke-width="1" opacity="0.8431372549019608" d="M 350.5 415 L 351 418.5 L 350 418.5 L 350.5 415 Z " /><path fill="#9A8FA6" stroke="#9A8FA6" stroke-width="1" opacity="0.8431372549019608" d="M 309.5 416 L 310 419.5 L 309 419.5 L 309.5 416 Z " /><path fill="#9A8FA6" stroke="#9A8FA6" stroke-width="1" opacity="0.8431372549019608" d="M 599.5 416 L 598.5 418 L 596.5 419 L 597.5 417 L 599.5 416 Z " /><path fill="#9A8FA6" stroke="#9A8FA6" stroke-width="1" opacity="0.8431372549019608" d="M 275.5 417 L 274.5 419 L 265.5 423 L 265.5 422 L 275.5 417 Z " /><path fill="#9A8FA6" stroke="#9A8FA6" stroke-width="1" opacity="0.8431372549019608" d="M 450.5 417 L 451 419.5 L 450 419.5 L 450.5 417 Z " /><path fill="#9A8FA6" stroke="#9A8FA6" stroke-width="1" opacity="0.8431372549019608" d="M 470.5 418 L 471 421.5 L 470 421.5 L 470.5 418 Z " /><path fill="#9A8FA6" stroke="#9A8FA6" stroke-width="1" opacity="0.8431372549019608" d="M 408.5 419 L 409 421.5 L 408 421.5 L 408.5 419 Z " /><path fill="#9A8FA6" stroke="#9A8FA6" stroke-width="1" opacity="0.8431372549019608" d="M 594.5 419 L 593.5 421 L 590.5 422 L 590.5 421 L 594.5 419 Z " /><path fill="#9A8FA6" stroke="#9A8FA6" stroke-width="1" opacity="0.8431372549019608" d="M 147.5 420 L 148 423.5 L 147 423.5 L 147.5 420 Z " /><path fill="#9A8FA6" stroke="#9A8FA6" stroke-width="1" opacity="0.8431372549019608" d="M 349.5 420 L 350 423.5 L 349 423.5 L 349.5 420 Z " /><path fill="#9A8FA6" stroke="#9A8FA6" stroke-width="1" opacity="0.8431372549019608" d="M 308.5 421 L 309 423.5 L 308 423.5 L 308.5 421 Z " /><path fill="#9A8FA6" stroke="#9A8FA6" stroke-width="1" opacity="0.8431372549019608" d="M 449.5 421 L 450 424.5 L 449 424.5 L 449.5 421 Z " /><path fill="#9A8FA6" stroke="#9A8FA6" stroke-width="1" opacity="0.8431372549019608" d="M 587.5 422 L 589 422.5 L 585.5 424 L 585.5 423 L 587.5 422 Z " /><path fill="#9A8FA6" stroke="#9A8FA6" stroke-width="1" opacity="0.8431372549019608" d="M 407.5 423 L 408 426.5 L 407 426.5 L 407.5 423 Z " /><path fill="#9A8FA6" stroke="#9A8FA6" stroke-width="1" opacity="0.8431372549019608" d="M 469.5 423 L 470 426.5 L 469 426.5 L 469.5 423 Z " /><path fill="#9A8FA6" stroke="#9A8FA6" stroke-width="1" opacity="0.8431372549019608" d="M 23.5 425 L 27 433.5 L 26 433.5 L 23.5 425 Z " /><path fill="#9A8FA6" stroke="#9A8FA6" stroke-width="1" opacity="0.8431372549019608" d="M 146.5 425 L 147 429.5 L 146 429.5 L 146.5 425 Z " /><path fill="#9A8FA6" stroke="#9A8FA6" stroke-width="1" opacity="0.8431372549019608" d="M 255.5 425 L 258 425.5 L 255.5 426 L 255.5 425 Z " /><path fill="#9A8FA6" stroke="#9A8FA6" stroke-width="1" opacity="0.8431372549019608" d="M 348.5 425 L 349 428.5 L 348 431 L 307 430.5 L 346.5 430 L 348 428.5 L 348.5 425 Z " /><path fill="#9A8FA6" stroke="#9A8FA6" stroke-width="1" opacity="0.8431372549019608" d="M 578.5 425 L 581 425.5 L 578.5 426 L 578.5 425 Z " /><path fill="#9A8FA6" stroke="#9A8FA6" stroke-width="1" opacity="0.8431372549019608" d="M 744.5 425 L 745 426.5 L 743.5 429 L 743 427.5 L 744.5 425 Z " /><path fill="#9A8FA6" stroke="#9A8FA6" stroke-width="1" opacity="0.8431372549019608" d="M 251.5 426 L 254 426.5 L 251.5 427 L 251.5 426 Z " /><path fill="#9A8FA6" stroke="#9A8FA6" stroke-width="1" opacity="0.8431372549019608" d="M 307.5 426 L 308 428.5 L 307 428.5 L 307.5 426 Z " /><path fill="#9A8FA6" stroke="#9A8FA6" stroke-width="1" opacity="0.8431372549019608" d="M 448.5 426 L 449 428.5 L 448 428.5 L 448.5 426 Z " /><path fill="#9A8FA6" stroke="#9A8FA6" stroke-width="1" opacity="0.8431372549019608" d="M 574.5 426 L 577 426.5 L 574.5 427 L 574.5 426 Z " /><path fill="#9A8FA6" stroke="#9A8FA6" stroke-width="1" opacity="0.8431372549019608" d="M 246.5 427 L 250 427.5 L 246.5 428 L 246.5 427 Z " /><path fill="#9A8FA6" stroke="#9A8FA6" stroke-width="1" opacity="0.8431372549019608" d="M 569.5 427 L 572 427.5 L 569.5 428 L 569.5 427 Z " /><path fill="#9A8FA6" stroke="#9A8FA6" stroke-width="1" opacity="0.8431372549019608" d="M 240.5 428 L 245 428.5 L 240.5 429 L 240.5 428 Z " /><path fill="#9A8FA6" stroke="#9A8FA6" stroke-width="1" opacity="0.8431372549019608" d="M 406.5 428 L 407 430 L 448 430.5 L 407.5 431 L 406.5 428 Z " /><path fill="#9A8FA6" stroke="#9A8FA6" stroke-width="1" opacity="0.8431372549019608" d="M 468.5 428 L 469 432.5 L 468 432.5 L 468.5 428 Z " /><path fill="#9A8FA6" stroke="#9A8FA6" stroke-width="1" opacity="0.8431372549019608" d="M 562.5 428 L 567 428.5 L 562.5 429 L 562.5 428 Z " /><path fill="#9A8FA6" stroke="#9A8FA6" stroke-width="1" opacity="0.8431372549019608" d="M 229.5 429 L 237 429.5 L 229.5 430 L 229.5 429 Z " /><path fill="#9A8FA6" stroke="#9A8FA6" stroke-width="1" opacity="0.8431372549019608" d="M 551.5 429 L 560 429.5 L 551.5 430 L 551.5 429 Z " /><path fill="#9A8FA6" stroke="#9A8FA6" stroke-width="1" opacity="0.8431372549019608" d="M 186 430 L 224 430.5 L 187 431 L 186.5 434 L 186 430 Z " /><path fill="#9A8FA6" stroke="#9A8FA6" stroke-width="1" opacity="0.8431372549019608" d="M 509.5 430 L 547 430.5 L 509.5 431 L 509.5 430 Z " /><path fill="#9A8FA6" stroke="#9A8FA6" stroke-width="1" opacity="0.8431372549019608" d="M 742.5 430 L 743 431.5 L 740.5 436 L 740 434.5 L 742.5 430 Z " /><path fill="#9A8FA6" stroke="#9A8FA6" stroke-width="1" opacity="0.8431372549019608" d="M 145.5 431 L 146 434.5 L 145 434.5 L 145.5 431 Z " /><path fill="#9A8FA6" stroke="#9A8FA6" stroke-width="1" opacity="0.8431372549019608" d="M 508.5 433 L 509 436.5 L 508 436.5 L 508.5 433 Z " /><path fill="#9A8FA6" stroke="#9A8FA6" stroke-width="1" opacity="0.8431372549019608" d="M 467.5 434 L 468 437.5 L 467 437.5 L 467.5 434 Z " /><path fill="#9A8FA6" stroke="#9A8FA6" stroke-width="1" opacity="0.8431372549019608" d="M 144.5 436 L 145 439.5 L 144 439.5 L 144.5 436 Z " /><path fill="#9A8FA6" stroke="#9A8FA6" stroke-width="1" opacity="0.8431372549019608" d="M 185.5 436 L 186 439.5 L 185 439.5 L 185.5 436 Z " /><path fill="#9A8FA6" stroke="#9A8FA6" stroke-width="1" opacity="0.8431372549019608" d="M 466.5 439 L 467 443.5 L 466 443.5 L 466.5 439 Z " /><path fill="#9A8FA6" stroke="#9A8FA6" stroke-width="1" opacity="0.8431372549019608" d="M 507.5 439 L 508 442.5 L 507 442.5 L 507.5 439 Z " /><path fill="#9A8FA6" stroke="#9A8FA6" stroke-width="1" opacity="0.8431372549019608" d="M 30.5 441 L 34 446.5 L 32 445.5 L 30.5 441 Z " /><path fill="#9A8FA6" stroke="#9A8FA6" stroke-width="1" opacity="0.8431372549019608" d="M 184.5 441 L 185 444.5 L 184 444.5 L 184.5 441 Z " /><path fill="#9A8FA6" stroke="#9A8FA6" stroke-width="1" opacity="0.8431372549019608" d="M 737.5 441 L 737 442.5 L 734.5 447 L 735 445.5 L 737.5 441 Z " /><path fill="#9A8FA6" stroke="#9A8FA6" stroke-width="1" opacity="0.8431372549019608" d="M 143.5 442 L 144 445.5 L 143 445.5 L 143.5 442 Z " /><path fill="#9A8FA6" stroke="#9A8FA6" stroke-width="1" opacity="0.8431372549019608" d="M 506.5 444 L 507 448.5 L 506 448.5 L 506.5 444 Z " /><path fill="#9A8FA6" stroke="#9A8FA6" stroke-width="1" opacity="0.8431372549019608" d="M 465.5 445 L 466 448.5 L 465 448.5 L 465.5 445 Z " /><path fill="#9A8FA6" stroke="#9A8FA6" stroke-width="1" opacity="0.8431372549019608" d="M 142.5 447 L 143 450.5 L 142 450.5 L 142.5 447 Z " /><path fill="#9A8FA6" stroke="#9A8FA6" stroke-width="1" opacity="0.8431372549019608" d="M 183.5 447 L 184 450.5 L 183 450.5 L 183.5 447 Z " /><path fill="#9A8FA6" stroke="#9A8FA6" stroke-width="1" opacity="0.8431372549019608" d="M 34.5 448 L 42 458.5 L 39 456.5 L 34.5 448 Z " /><path fill="#9A8FA6" stroke="#9A8FA6" stroke-width="1" opacity="0.8431372549019608" d="M 733.5 448 L 733 449.5 L 726.5 459 L 728 456.5 L 733.5 448 Z " /><path fill="#9A8FA6" stroke="#9A8FA6" stroke-width="1" opacity="0.8431372549019608" d="M 464.5 450 L 465 453.5 L 464 453.5 L 464.5 450 Z " /><path fill="#9A8FA6" stroke="#9A8FA6" stroke-width="1" opacity="0.8431372549019608" d="M 505.5 450 L 506 454.5 L 505 454.5 L 505.5 450 Z " /><path fill="#9A8FA6" stroke="#9A8FA6" stroke-width="1" opacity="0.8431372549019608" d="M 141.5 453 L 142 456.5 L 141 456.5 L 141.5 453 Z " /><path fill="#9A8FA6" stroke="#9A8FA6" stroke-width="1" opacity="0.8431372549019608" d="M 182.5 453 L 183 456.5 L 182 456.5 L 182.5 453 Z " /><path fill="#9A8FA6" stroke="#9A8FA6" stroke-width="1" opacity="0.8431372549019608" d="M 463.5 456 L 464 459.5 L 463 459.5 L 463.5 456 Z " /><path fill="#9A8FA6" stroke="#9A8FA6" stroke-width="1" opacity="0.8431372549019608" d="M 504.5 456 L 505 459.5 L 504 459.5 L 504.5 456 Z " /><path fill="#9A8FA6" stroke="#9A8FA6" stroke-width="1" opacity="0.8431372549019608" d="M 140.5 458 L 141 461.5 L 140 461.5 L 140.5 458 Z " /><path fill="#9A8FA6" stroke="#9A8FA6" stroke-width="1" opacity="0.8431372549019608" d="M 181.5 458 L 182 462.5 L 181 462.5 L 181.5 458 Z " /><path fill="#9A8FA6" stroke="#9A8FA6" stroke-width="1" opacity="0.8431372549019608" d="M 42.5 460 L 70.5 490 L 77 495.5 L 71.5 491 L 50 470.5 L 42.5 460 Z " /><path fill="#9A8FA6" stroke="#9A8FA6" stroke-width="1" opacity="0.8431372549019608" d="M 725.5 460 L 723 463.5 Q 712.5 479.5 697.5 491 L 691.5 496 L 696.5 490 L 717 470.5 L 725.5 460 Z " /><path fill="#9A8FA6" stroke="#9A8FA6" stroke-width="1" opacity="0.8431372549019608" d="M 462.5 461 L 463 464.5 L 462 464.5 L 462.5 461 Z " /><path fill="#9A8FA6" stroke="#9A8FA6" stroke-width="1" opacity="0.8431372549019608" d="M 503.5 462 L 504 465.5 L 503 465.5 L 503.5 462 Z " /><path fill="#9A8FA6" stroke="#9A8FA6" stroke-width="1" opacity="0.8431372549019608" d="M 139.5 464 L 140 467.5 L 139 467.5 L 139.5 464 Z " /><path fill="#9A8FA6" stroke="#9A8FA6" stroke-width="1" opacity="0.8431372549019608" d="M 180.5 464 L 181 468.5 L 180 468.5 L 180.5 464 Z " /><path fill="#9A8FA6" stroke="#9A8FA6" stroke-width="1" opacity="0.8431372549019608" d="M 461.5 467 L 462 470.5 L 461 470.5 L 461.5 467 Z " /><path fill="#9A8FA6" stroke="#9A8FA6" stroke-width="1" opacity="0.8431372549019608" d="M 502.5 467 L 503 471.5 L 502 471.5 L 502.5 467 Z " /><path fill="#9A8FA6" stroke="#9A8FA6" stroke-width="1" opacity="0.8431372549019608" d="M 138.5 469 L 139 472.5 L 138 472.5 L 138.5 469 Z " /><path fill="#9A8FA6" stroke="#9A8FA6" stroke-width="1" opacity="0.8431372549019608" d="M 179.5 470 L 180 473.5 L 179 473.5 L 179.5 470 Z " /><path fill="#9A8FA6" stroke="#9A8FA6" stroke-width="1" opacity="0.8431372549019608" d="M 460.5 472 L 461 476 L 500.5 476 L 501 473.5 L 502 473.5 L 500.5 477 L 460.5 477 Q 459.3 476.8 460.5 472 Z " /><path fill="#9A8FA6" stroke="#9A8FA6" stroke-width="1" opacity="0.8431372549019608" d="M 137.5 475 L 138.5 476 L 177.5 476 L 179 475.5 L 178.5 477 L 138.5 477 L 137.5 475 Z " /><path fill="#9A8FA6" stroke="#9A8FA6" stroke-width="1" opacity="0.8431372549019608" d="M 78.5 496 L 81.5 500 L 78.5 496 Z " /><path fill="#9A8FA6" stroke="#9A8FA6" stroke-width="1" opacity="0.8431372549019608" d="M 689.5 496 L 686.5 500 L 689.5 496 Z " /><path fill="#9A8FA6" stroke="#9A8FA6" stroke-width="1" opacity="0.8431372549019608" d="M 83.5 500 L 93 507.5 L 90.5 506 Q 85 503.9 83.5 500 Z " /><path fill="#9A8FA6" stroke="#9A8FA6" stroke-width="1" opacity="0.8431372549019608" d="M 684.5 500 L 682.5 503 L 675.5 508 L 677.5 505 L 684.5 500 Z " /><path fill="#9A8FA6" stroke="#9A8FA6" stroke-width="1" opacity="0.8431372549019608" d="M 94.5 508 L 95.5 510 L 94.5 508 Z " /><path fill="#9A8FA6" stroke="#9A8FA6" stroke-width="1" opacity="0.8431372549019608" d="M 673.5 508 L 672.5 510 L 673.5 508 Z " /><path fill="#9A8FA6" stroke="#9A8FA6" stroke-width="1" opacity="0.8431372549019608" d="M 97.5 510 L 98.5 512 L 97.5 510 Z " /><path fill="#9A8FA6" stroke="#9A8FA6" stroke-width="1" opacity="0.8431372549019608" d="M 670.5 510 L 669.5 512 L 670.5 510 Z " /><path fill="#9A8FA6" stroke="#9A8FA6" stroke-width="1" opacity="0.8431372549019608" d="M 100.5 512 L 107 516.5 L 105.5 516 Q 100.9 514.8 100.5 512 Z " /><path fill="#9A8FA6" stroke="#9A8FA6" stroke-width="1" opacity="0.8431372549019608" d="M 667.5 512 L 666.5 514 L 661.5 517 L 662.5 515 L 667.5 512 Z " /><path fill="#9A8FA6" stroke="#9A8FA6" stroke-width="1" opacity="0.8431372549019608" d="M 108.5 517 L 112 519.5 L 110.5 519 L 108.5 517 Z " /><path fill="#9A8FA6" stroke="#9A8FA6" stroke-width="1" opacity="0.8431372549019608" d="M 659.5 517 L 658.5 519 L 656.5 520 L 657.5 518 L 659.5 517 Z " /><path fill="#9A8FA6" stroke="#9A8FA6" stroke-width="1" opacity="0.8431372549019608" d="M 113.5 520 L 117 522.5 L 115.5 522 L 113.5 520 Z " /><path fill="#9A8FA6" stroke="#9A8FA6" stroke-width="1" opacity="0.8431372549019608" d="M 654.5 520 L 653.5 522 L 651.5 523 L 652.5 521 L 654.5 520 Z " /><path fill="#9A8FA6" stroke="#9A8FA6" stroke-width="1" opacity="0.8431372549019608" d="M 120.5 524 L 145 536.5 L 143.5 537 L 121.5 526 L 120.5 524 Z " /><path fill="#9A8FA6" stroke="#9A8FA6" stroke-width="1" opacity="0.8431372549019608" d="M 647.5 524 L 646.5 526 L 623.5 537 L 623.5 536 L 647.5 524 Z " /><path fill="#9A8FA6" stroke="#9A8FA6" stroke-width="1" opacity="0.8431372549019608" d="M 148.5 538 L 154 540.5 L 152.5 541 L 148.5 539 L 148.5 538 Z " /><path fill="#9A8FA6" stroke="#9A8FA6" stroke-width="1" opacity="0.8431372549019608" d="M 618.5 538 L 620 538.5 L 614.5 541 L 614.5 540 L 618.5 538 Z " /><path fill="#9A8FA6" stroke="#9A8FA6" stroke-width="1" opacity="0.8431372549019608" d="M 155.5 541 L 159 542.5 L 157.5 543 L 155.5 541 Z " /><path fill="#9A8FA6" stroke="#9A8FA6" stroke-width="1" opacity="0.8431372549019608" d="M 611.5 541 L 613 541.5 L 609.5 543 L 609.5 542 L 611.5 541 Z " /><path fill="#9A8FA6" stroke="#9A8FA6" stroke-width="1" opacity="0.8431372549019608" d="M 162.5 544 L 166 545.5 L 164.5 546 L 162.5 544 Z " /><path fill="#9A8FA6" stroke="#9A8FA6" stroke-width="1" opacity="0.8431372549019608" d="M 604.5 544 L 606 544.5 L 602.5 546 L 602.5 545 L 604.5 544 Z " /><path fill="#9A8FA6" stroke="#9A8FA6" stroke-width="1" opacity="0.8431372549019608" d="M 170.5 547 L 174 548.5 L 172.5 549 L 170.5 547 Z " /><path fill="#9A8FA6" stroke="#9A8FA6" stroke-width="1" opacity="0.8431372549019608" d="M 596.5 547 L 598 547.5 L 594.5 549 L 594.5 548 L 596.5 547 Z " /><path fill="#9A8FA6" stroke="#9A8FA6" stroke-width="1" opacity="0.8431372549019608" d="M 178.5 550 L 195 555.5 L 192.5 556 L 180.5 552 L 178.5 550 Z " /><path fill="#9A8FA6" stroke="#9A8FA6" stroke-width="1" opacity="0.8431372549019608" d="M 588.5 550 L 590 550.5 L 573.5 556 L 573.5 555 L 588.5 550 Z " /><path fill="#9A8FA6" stroke="#9A8FA6" stroke-width="1" opacity="0.8431372549019608" d="M 205.5 559 L 208 559.5 L 205.5 560 L 205.5 559 Z " /><path fill="#9A8FA6" stroke="#9A8FA6" stroke-width="1" opacity="0.8431372549019608" d="M 560.5 559 L 563 559.5 L 560.5 560 L 560.5 559 Z " /><path fill="#9A8FA6" stroke="#9A8FA6" stroke-width="1" opacity="0.8431372549019608" d="M 212.5 561 L 215 561.5 L 212.5 562 L 212.5 561 Z " /><path fill="#9A8FA6" stroke="#9A8FA6" stroke-width="1" opacity="0.8431372549019608" d="M 553.5 561 L 556 561.5 L 553.5 562 L 553.5 561 Z " /><path fill="#9A8FA6" stroke="#9A8FA6" stroke-width="1" opacity="0.8431372549019608" d="M 216.5 562 L 219 562.5 L 216.5 563 L 216.5 562 Z " /><path fill="#9A8FA6" stroke="#9A8FA6" stroke-width="1" opacity="0.8431372549019608" d="M 549.5 562 L 552 562.5 L 549.5 563 L 549.5 562 Z " /><path fill="#9A8FA6" stroke="#9A8FA6" stroke-width="1" opacity="0.8431372549019608" d="M 220.5 563 L 231 565.5 L 227.5 566 L 220.5 564 L 220.5 563 Z " /><path fill="#9A8FA6" stroke="#9A8FA6" stroke-width="1" opacity="0.8431372549019608" d="M 545.5 563 L 548 563.5 L 541.5 565 L 541.5 564 L 545.5 563 Z " /><path fill="#9A8FA6" stroke="#9A8FA6" stroke-width="1" opacity="0.8431372549019608" d="M 537.5 565 L 540 565.5 L 537.5 566 L 537.5 565 Z " /><path fill="#9A8FA6" stroke="#9A8FA6" stroke-width="1" opacity="0.8431372549019608" d="M 232.5 566 L 235 566.5 L 232.5 567 L 232.5 566 Z " /><path fill="#9A8FA6" stroke="#9A8FA6" stroke-width="1" opacity="0.8431372549019608" d="M 533.5 566 L 536 566.5 L 533.5 567 L 533.5 566 Z " /><path fill="#9A8FA6" stroke="#9A8FA6" stroke-width="1" opacity="0.8431372549019608" d="M 236.5 567 L 239 567.5 L 236.5 568 L 236.5 567 Z " /><path fill="#9A8FA6" stroke="#9A8FA6" stroke-width="1" opacity="0.8431372549019608" d="M 529.5 567 L 532 567.5 L 529.5 568 L 529.5 567 Z " /><path fill="#9A8FA6" stroke="#9A8FA6" stroke-width="1" opacity="0.8431372549019608" d="M 240.5 568 L 243 568.5 L 240.5 569 L 240.5 568 Z " /><path fill="#9A8FA6" stroke="#9A8FA6" stroke-width="1" opacity="0.8431372549019608" d="M 525.5 568 L 528 568.5 L 525.5 569 L 525.5 568 Z " /><path fill="#9A8FA6" stroke="#9A8FA6" stroke-width="1" opacity="0.8431372549019608" d="M 245.5 569 L 248 569.5 L 245.5 570 L 245.5 569 Z " /><path fill="#9A8FA6" stroke="#9A8FA6" stroke-width="1" opacity="0.8431372549019608" d="M 520.5 569 L 523 569.5 L 520.5 570 L 520.5 569 Z " /><path fill="#9A8FA6" stroke="#9A8FA6" stroke-width="1" opacity="0.8431372549019608" d="M 250.5 570 L 253 570.5 L 250.5 571 L 250.5 570 Z " /><path fill="#9A8FA6" stroke="#9A8FA6" stroke-width="1" opacity="0.8431372549019608" d="M 515.5 570 L 518 570.5 L 515.5 571 L 515.5 570 Z " /><path fill="#9A8FA6" stroke="#9A8FA6" stroke-width="1" opacity="0.8431372549019608" d="M 255.5 571 L 258 571.5 L 255.5 572 L 255.5 571 Z " /><path fill="#9A8FA6" stroke="#9A8FA6" stroke-width="1" opacity="0.8431372549019608" d="M 510.5 571 L 513 571.5 L 510.5 572 L 510.5 571 Z " /><path fill="#9A8FA6" stroke="#9A8FA6" stroke-width="1" opacity="0.8431372549019608" d="M 260.5 572 L 263 572.5 L 260.5 573 L 260.5 572 Z " /><path fill="#9A8FA6" stroke="#9A8FA6" stroke-width="1" opacity="0.8431372549019608" d="M 505.5 572 L 508 572.5 L 505.5 573 L 505.5 572 Z " /><path fill="#9A8FA6" stroke="#9A8FA6" stroke-width="1" opacity="0.8431372549019608" d="M 265.5 573 L 269 573.5 L 265.5 574 L 265.5 573 Z " /><path fill="#9A8FA6" stroke="#9A8FA6" stroke-width="1" opacity="0.8431372549019608" d="M 499.5 573 L 503 573.5 L 499.5 574 L 499.5 573 Z " /><path fill="#9A8FA6" stroke="#9A8FA6" stroke-width="1" opacity="0.8431372549019608" d="M 271.5 574 L 276 574.5 L 271.5 575 L 271.5 574 Z " /><path fill="#9A8FA6" stroke="#9A8FA6" stroke-width="1" opacity="0.8431372549019608" d="M 492.5 574 L 497 574.5 L 492.5 575 L 492.5 574 Z " /><path fill="#9A8FA6" stroke="#9A8FA6" stroke-width="1" opacity="0.8431372549019608" d="M 277.5 575 L 282 575.5 L 277.5 576 L 277.5 575 Z " /><path fill="#9A8FA6" stroke="#9A8FA6" stroke-width="1" opacity="0.8431372549019608" d="M 486.5 575 L 491 575.5 L 486.5 576 L 486.5 575 Z " /><path fill="#9A8FA6" stroke="#9A8FA6" stroke-width="1" opacity="0.8431372549019608" d="M 283.5 576 L 289 576.5 L 283.5 577 L 283.5 576 Z " /><path fill="#9A8FA6" stroke="#9A8FA6" stroke-width="1" opacity="0.8431372549019608" d="M 479.5 576 L 485 576.5 L 479.5 577 L 479.5 576 Z " /><path fill="#9A8FA6" stroke="#9A8FA6" stroke-width="1" opacity="0.8431372549019608" d="M 290.5 577 L 296 577.5 L 290.5 578 L 290.5 577 Z " /><path fill="#9A8FA6" stroke="#9A8FA6" stroke-width="1" opacity="0.8431372549019608" d="M 472.5 577 L 478 577.5 L 472.5 578 L 472.5 577 Z " /><path fill="#9A8FA6" stroke="#9A8FA6" stroke-width="1" opacity="0.8431372549019608" d="M 298.5 578 L 305 578.5 L 298.5 579 L 298.5 578 Z " /><path fill="#9A8FA6" stroke="#9A8FA6" stroke-width="1" opacity="0.8431372549019608" d="M 463.5 578 L 470 578.5 L 463.5 579 L 463.5 578 Z " /><path fill="#9A8FA6" stroke="#9A8FA6" stroke-width="1" opacity="0.8431372549019608" d="M 306.5 579 L 313 579.5 L 306.5 580 L 306.5 579 Z " /><path fill="#9A8FA6" stroke="#9A8FA6" stroke-width="1" opacity="0.8431372549019608" d="M 455.5 579 L 462 579.5 L 455.5 580 L 455.5 579 Z " /><path fill="#9A8FA6" stroke="#9A8FA6" stroke-width="1" opacity="0.8431372549019608" d="M 316.5 580 L 324 580.5 L 316.5 581 L 316.5 580 Z " /><path fill="#9A8FA6" stroke="#9A8FA6" stroke-width="1" opacity="0.8431372549019608" d="M 444.5 580 L 452 580.5 L 444.5 581 L 444.5 580 Z " /><path fill="#9A8FA6" stroke="#9A8FA6" stroke-width="1" opacity="0.8431372549019608" d="M 327.5 581 L 337 581.5 L 327.5 582 L 327.5 581 Z " /><path fill="#9A8FA6" stroke="#9A8FA6" stroke-width="1" opacity="0.8431372549019608" d="M 431.5 581 L 441 581.5 L 431.5 582 L 431.5 581 Z " /><path fill="#9A8FA6" stroke="#9A8FA6" stroke-width="1" opacity="0.8431372549019608" d="M 342.5 582 L 355 582.5 L 342.5 583 L 342.5 582 Z " /><path fill="#9A8FA6" stroke="#9A8FA6" stroke-width="1" opacity="0.8431372549019608" d="M 413.5 582 L 426 582.5 L 413.5 583 L 413.5 582 Z " /><path fill="#9A8FA6" stroke="#9A8FA6" stroke-width="1" opacity="0.8431372549019608" d="M 365.5 583 L 403 583.5 L 365.5 584 L 365.5 583 Z " /><path fill="#9A8FA6" stroke="#9A8FA6" stroke-width="1" opacity="1" d="M 355.5 185 L 412.5 185 L 413.5 186 L 430.5 186 L 431.5 187 L 444.5 187 L 445.5 188 L 463.5 189 L 464.5 190 L 479.5 191 L 524.5 199 L 573.5 212 L 611.5 226 L 650.5 245 Q 689.5 266.5 718 298.5 Q 735 317.5 745 343.5 L 751 365.5 L 752 394.5 L 748 415.5 L 738 440.5 Q 721.8 469.3 697.5 490 Q 676.2 508.7 650.5 523 L 606.5 544 L 556.5 561 L 504.5 573 L 472.5 577 L 471.5 578 L 455.5 579 L 454.5 580 L 431.5 581 L 430.5 582 L 413.5 582 L 412.5 583 L 355.5 583 L 354.5 582 L 337.5 582 L 336.5 581 L 313.5 580 L 312.5 579 L 296.5 578 L 295.5 577 L 263.5 573 L 211.5 561 L 174.5 549 Q 133.5 534 99.5 512 Q 72.1 494.4 51 470.5 Q 33.2 451.3 23 424.5 L 17 402.5 L 16 373.5 L 17 372.5 L 18 360.5 L 23 343.5 L 34 320.5 Q 49.6 295.6 71.5 277 Q 97.9 254.4 130.5 238 L 156.5 226 L 194.5 212 L 234.5 201 L 263.5 195 L 281.5 193 L 288.5 191 L 303.5 190 L 304.5 189 L 312.5 189 L 313.5 188 L 336.5 187 L 337.5 186 L 354.5 186 L 355.5 185 Z M 345 245 L 307 427 Q 306 431 308 431 L 348 431 L 367 339 L 410 339 L 418 342 L 420 345 L 422 351 L 422 357 L 419 373 L 406 430 L 408 431 L 448 431 L 466 348 L 465 333 L 460 322 L 452 314 L 435 308 Q 429 310 428 307 L 374 307 L 385 252 L 387 247 L 386 245 L 345 245 Z M 168 307 L 137 476 L 139 477 L 179 477 L 187 431 L 224 431 L 225 430 L 245 429 L 267 423 L 281 415 Q 291 406 298 394 L 304 378 L 307 363 Q 308 339 298 327 Q 286 311 263 307 L 168 307 Z M 491 307 L 480 364 L 474 402 L 471 413 L 471 418 L 468 429 L 462 467 L 460 473 Q 459 477 461 477 L 501 477 L 503 472 L 509 431 L 547 431 L 548 430 L 567 429 L 581 426 L 592 422 L 606 413 Q 614 405 620 395 Q 626 382 629 367 L 629 347 L 628 342 Q 625 331 618 324 L 603 312 L 585 307 L 491 307 Z " /><path fill="#9A8FA6" stroke="#9A8FA6" stroke-width="1" opacity="1" d="M 204 339 L 246.5 339 Q 257.8 340.7 263 348.5 Q 267 355 265 367.5 L 260 382.5 L 251.5 392 L 246.5 395 L 235.5 398 L 227.5 398 L 226.5 399 L 193 399 L 204 339 Z " /><path fill="#9A8FA6" stroke="#9A8FA6" stroke-width="1" opacity="1" d="M 527 339 L 569.5 339 Q 578.9 340.6 584 346.5 Q 589.4 352.1 588 364.5 L 585 377.5 Q 581.9 385.9 575.5 391 Q 568.9 396.4 558.5 398 L 550.5 398 L 549.5 399 L 516 399 L 518 383.5 L 521 372.5 L 521 367.5 L 524 356.5 L 524 351.5 L 527 339 Z " /></svg>