<svg version="1.1" id="Layer_1" xmlns="http://www.w3.org/2000/svg" xmlns:xlink="http://www.w3.org/1999/xlink" x="0px" y="0px"
	 width="100%" viewBox="0 0 516 481" enable-background="new 0 0 516 481" xml:space="preserve">
<path fill="#9A8FA6" opacity="1.000000" stroke="none" 
	d="
M517.000000,241.000000 
	C517.000000,251.687561 517.000000,262.375122 516.596924,273.368408 
	C515.805542,274.349060 515.196838,274.983032 515.062378,275.705261 
	C513.479492,284.208496 512.375427,292.823059 510.355255,301.218231 
	C505.638458,320.819824 498.088562,339.346832 488.498291,357.100800 
	C478.691803,375.254974 466.842560,391.954834 452.539581,406.723114 
	C443.599854,415.953613 433.883789,424.557159 423.783508,432.511932 
	C404.530670,447.675110 383.149048,459.259521 360.022156,467.468140 
	C341.661957,473.984833 322.866699,478.639587 303.357056,480.086334 
	C302.528625,480.147766 301.783783,481.336456 301.000000,482.000000 
	C285.312439,482.000000 269.624878,482.000000 253.619141,481.587036 
	C252.458282,480.786499 251.635605,480.114166 250.769974,480.053406 
	C234.066544,478.880920 217.960205,474.892822 201.987198,470.096405 
	C184.224060,464.762390 167.662033,456.783569 151.849533,447.294708 
	C134.191055,436.698029 117.843246,424.333221 104.381004,409.010437 
	C154.287369,409.004364 203.718903,408.966156 253.150284,409.029572 
	C263.142212,409.042389 270.316803,404.730835 275.076599,395.726685 
	C275.509735,395.007446 275.801422,394.529755 276.444641,394.017517 
	C285.289276,390.021881 288.959290,383.012665 288.969421,373.994446 
	C289.019104,329.696960 288.970551,285.399353 289.427246,241.072678 
	C365.598541,241.029037 441.299255,241.014511 517.000000,241.000000 
z"/>
<path fill="#9A8FA6" opacity="1.000000" stroke="none" 
	d="
M517.000000,240.531342 
	C441.299255,241.014511 365.598541,241.029037 289.453156,241.019958 
	C289.008514,240.996353 289.055084,240.888885 289.040375,240.429749 
	C289.016876,199.880859 288.993256,159.791077 289.010681,119.701317 
	C289.014587,110.678078 284.865234,104.245071 277.051331,99.723160 
	C277.007263,99.491547 276.903656,99.031525 276.927887,98.561462 
	C276.968079,65.727600 276.984039,33.363800 277.000000,1.000000 
	C287.687561,1.000000 298.375122,1.000000 309.192749,1.331665 
	C312.416168,2.438305 315.470459,3.470028 318.609070,3.947562 
	C343.339111,7.710191 366.611694,15.717135 388.767151,27.281908 
	C415.024048,40.987545 437.999176,58.688538 457.637299,80.969429 
	C472.838593,98.216331 485.133881,117.185211 494.989990,137.858231 
	C505.330322,159.546906 512.185913,182.242188 515.082214,206.122421 
	C515.166321,206.815613 516.336304,207.377106 517.000000,208.000000 
	C517.000000,218.687561 517.000000,229.375122 517.000000,240.531342 
z"/>
<path fill="#9A8FA6" opacity="1.000000" stroke="none" 
	d="
M1.000001,263.000000 
	C1.000000,215.979111 1.000000,168.958206 1.303237,121.728264 
	C2.393822,120.702065 3.350991,119.991486 3.941380,119.050728 
	C8.282789,112.132896 14.336162,108.817459 22.652491,108.920616 
	C40.065067,109.136597 57.482422,108.967331 75.372444,108.970810 
	C130.567078,109.011116 185.287064,109.036873 239.929550,109.393265 
	C238.087387,111.394119 236.565948,113.482559 234.521423,114.671455 
	C206.490997,130.971161 178.371460,147.117630 150.351440,163.435074 
	C148.880569,164.291626 148.104218,166.340775 146.587646,167.883972 
	C123.288353,167.933243 100.405914,167.933243 76.978546,167.933243 
	C76.978546,186.412613 76.978546,204.206726 76.606728,222.022888 
	C74.542061,222.681580 72.722000,223.097473 71.175758,223.988525 
	C52.956215,234.487900 34.827080,245.145172 16.555902,255.553314 
	C11.573414,258.391571 6.196110,260.536743 1.000001,263.000000 
z"/>
<path fill="#9A8FA6" opacity="1.000000" stroke="none" 
	d="
M83.891342,96.973106 
	C86.586441,93.159683 89.001076,89.106567 92.022018,85.571617 
	C112.139824,62.030823 135.720657,42.810234 163.178421,28.304798 
	C186.038696,16.228140 210.029053,7.778490 235.623535,3.925961 
	C238.599274,3.478048 241.496185,2.506422 244.214813,1.388797 
	C254.687561,1.000000 265.375122,1.000000 276.531311,1.000000 
	C276.984039,33.363800 276.968079,65.727600 276.555878,98.475449 
	C272.256165,98.239700 268.353821,97.087776 264.449097,97.079788 
	C204.263351,96.956581 144.077316,96.982101 83.891342,96.973106 
z"/>
<path fill="#9A8FA6" opacity="1.000000" stroke="none" 
	d="
M74.900490,373.150391 
	C57.581593,373.100647 40.257942,372.792816 22.945824,373.111359 
	C14.450379,373.267700 8.610831,369.602753 3.978837,363.037994 
	C3.332089,362.121429 2.428459,361.386108 1.321873,360.783447 
	C1.000000,357.969391 1.000000,354.938812 1.353301,351.386047 
	C17.628855,341.915375 33.529823,332.928650 49.481594,324.033051 
	C58.604248,318.945709 67.809547,314.006592 77.072708,309.420532 
	C77.251419,311.106476 77.335060,312.372681 77.421333,313.678833 
	C87.074936,313.678833 96.310852,313.678833 105.697601,313.678833 
	C105.839882,311.264404 105.965492,309.132996 106.436508,306.929779 
	C108.571411,305.986420 110.421402,305.219635 112.140961,304.226959 
	C128.123123,295.000397 144.074158,285.719940 160.051010,276.484131 
	C189.270157,259.593353 218.476852,242.680801 247.747452,225.879623 
	C253.328888,222.675903 259.181549,219.944763 264.937439,217.464066 
	C265.009186,225.630219 265.052612,233.327881 265.070190,241.491928 
	C264.992645,249.302841 264.940979,256.647369 264.523132,264.017426 
	C262.463135,264.695160 260.650482,265.140015 259.093872,266.031799 
	C243.961868,274.701111 228.874161,283.447723 213.771133,292.167633 
	C172.921677,315.752563 132.038284,339.279175 91.264740,362.994629 
	C86.532639,365.747040 82.406540,369.541321 77.612869,372.897369 
	C76.450989,373.011566 75.675735,373.080994 74.900490,373.150391 
z"/>
<path fill="#9A8FA6" opacity="1.000000" stroke="none" 
	d="
M76.977646,309.000763 
	C67.809547,314.006592 58.604248,318.945709 49.481594,324.033051 
	C33.529823,332.928650 17.628855,341.915375 1.353301,350.931946 
	C1.000000,321.979095 1.000000,292.958221 1.000001,263.468658 
	C6.196110,260.536743 11.573414,258.391571 16.555902,255.553314 
	C34.827080,245.145172 52.956215,234.487900 71.175758,223.988525 
	C72.722000,223.097473 74.542061,222.681580 76.700287,222.483368 
	C77.180649,229.889435 77.225204,236.857178 77.205109,243.824707 
	C77.142441,265.550110 77.055298,287.275421 76.977646,309.000763 
z"/>
<path fill="#9A8FA6" opacity="1.000000" stroke="none" 
	d="
M92.811569,397.056915 
	C89.858269,393.275970 86.904961,389.494995 84.381973,385.355530 
	C140.185287,384.955872 195.558273,384.914734 251.384399,384.911438 
	C260.575226,385.910553 267.319916,382.364349 272.718079,375.741486 
	C274.051758,374.105194 275.441284,372.514374 276.851715,371.375244 
	C276.629913,379.249237 276.361511,386.650665 276.093140,394.052094 
	C275.801422,394.529755 275.509735,395.007446 274.663513,395.765625 
	C270.976562,396.364075 267.844452,396.955353 264.711548,396.959412 
	C207.411606,397.033875 150.111588,397.037933 92.811569,397.056915 
z"/>
<path fill="#9A8FA6" opacity="1.000000" stroke="none" 
	d="
M92.986153,397.348694 
	C150.111588,397.037933 207.411606,397.033875 264.711548,396.959412 
	C267.844452,396.955353 270.976562,396.364075 274.522095,396.007202 
	C270.316803,404.730835 263.142212,409.042389 253.150284,409.029572 
	C203.718903,408.966156 154.287369,409.004364 104.380997,409.010437 
	C100.324318,405.222900 96.742531,401.431702 92.986153,397.348694 
z"/>
<path fill="#9A8FA6" opacity="1.000000" stroke="none" 
	d="
M276.444641,394.017517 
	C276.361511,386.650665 276.629913,379.249237 276.882202,370.916138 
	C276.910767,365.999176 276.990509,362.013885 276.994568,358.028564 
	C277.034302,319.000580 277.061371,279.972595 277.547241,240.959976 
	C281.686615,240.946533 285.370850,240.917709 289.055084,240.888885 
	C289.055084,240.888885 289.008514,240.996353 288.982605,241.049072 
	C288.970551,285.399353 289.019104,329.696960 288.969421,373.994446 
	C288.959290,383.012665 285.289276,390.021881 276.444641,394.017517 
z"/>
<path fill="#9A8FA6" opacity="1.000000" stroke="none" 
	d="
M83.579247,97.109680 
	C144.077316,96.982101 204.263351,96.956581 264.449097,97.079788 
	C268.353821,97.087776 272.256165,98.239700 276.531647,98.945511 
	C276.903656,99.031525 277.007263,99.491547 277.022614,100.195419 
	C276.973572,109.310623 276.909149,117.721962 276.650085,125.843544 
	C273.649933,116.964302 268.032501,111.190155 259.089142,109.441895 
	C255.236465,108.688759 251.143051,109.167252 246.711548,109.063690 
	C244.178421,109.048317 242.092743,109.055473 240.007065,109.062630 
	C185.287064,109.036873 130.567078,109.011116 75.372444,108.970810 
	C77.687592,105.052933 80.477371,101.149590 83.579247,97.109680 
z"/>
<path fill="#9A8FA6" opacity="1.000000" stroke="none" 
	d="
M276.844727,126.133293 
	C276.909149,117.721962 276.973572,109.310623 277.066711,100.427032 
	C284.865234,104.245071 289.014587,110.678078 289.010681,119.701317 
	C288.993256,159.791077 289.016876,199.880859 289.040375,240.429749 
	C285.370850,240.917709 281.686615,240.946533 277.507874,240.953613 
	C277.013397,240.931885 276.973999,241.000610 276.983093,240.532318 
	C276.943054,202.087112 276.893890,164.110199 276.844727,126.133293 
z"/>
<path fill="#9A8FA6" opacity="1.000000" stroke="none" 
	d="
M189.653961,213.996475 
	C188.554001,207.655472 188.353363,200.985657 186.178757,195.037537 
	C180.545898,179.630066 167.748627,172.692169 152.698792,169.013641 
	C151.084320,168.619034 149.433395,168.373596 147.401947,167.946838 
	C148.104218,166.340775 148.880569,164.291626 150.351440,163.435074 
	C178.371460,147.117630 206.490997,130.971161 234.521423,114.671455 
	C236.565948,113.482559 238.087387,111.394119 239.929550,109.393265 
	C242.092743,109.055473 244.178421,109.048317 246.975464,109.268463 
	C259.405273,113.241821 264.984833,120.828377 264.990997,133.169373 
	C264.997650,146.444580 264.937256,159.719818 264.545563,173.020233 
	C263.546844,173.219879 262.836090,173.268036 262.281097,173.587097 
	C244.688934,183.701004 227.165634,193.936127 209.504395,203.927536 
	C203.053421,207.576996 196.280182,210.656799 189.653961,213.996475 
z"/>
<path fill="#9A8FA6" opacity="1.000000" stroke="none" 
	d="
M250.931259,384.873596 
	C195.558273,384.914734 140.185287,384.955872 84.332169,384.998230 
	C80.981865,381.242249 78.111710,377.485016 75.071022,373.439087 
	C75.675735,373.080994 76.450989,373.011566 78.079422,372.944946 
	C105.955322,372.917236 132.978027,372.886658 160.467285,372.902344 
	C187.759521,372.962921 214.585205,372.992493 241.410904,372.984375 
	C252.980423,372.980865 259.957611,368.042389 264.318359,357.383545 
	C266.123322,365.954010 264.154327,373.038300 257.800354,378.718781 
	C255.508392,380.767853 253.220825,382.821838 250.931259,384.873596 
z"/>
<path fill="#9A8FA6" opacity="1.000000" stroke="none" 
	d="
M160.000732,372.856079 
	C132.978027,372.886658 105.955322,372.917236 78.466057,372.900208 
	C82.406540,369.541321 86.532639,365.747040 91.264740,362.994629 
	C132.038284,339.279175 172.921677,315.752563 213.771133,292.167633 
	C228.874161,283.447723 243.961868,274.701111 259.093872,266.031799 
	C260.650482,265.140015 262.463135,264.695160 264.558502,264.485901 
	C264.938110,280.617096 264.916229,296.305389 264.530334,312.019348 
	C261.585999,313.157135 258.867523,314.028625 256.446381,315.418121 
	C228.483932,331.465393 200.530533,347.529419 172.673721,363.758881 
	C168.200882,366.364746 164.212875,369.802765 160.000732,372.856079 
z"/>
<path fill="#9A8FA6" opacity="1.000000" stroke="none" 
	d="
M189.511841,214.367584 
	C196.280182,210.656799 203.053421,207.576996 209.504395,203.927536 
	C227.165634,193.936127 244.688934,183.701004 262.281097,173.587097 
	C262.836090,173.268036 263.546844,173.219879 264.575012,173.488739 
	C264.946381,188.286560 264.927734,202.641068 264.909058,216.995575 
	C259.181549,219.944763 253.328888,222.675903 247.747452,225.879623 
	C218.476852,242.680801 189.270157,259.593353 160.051010,276.484131 
	C144.074158,285.719940 128.123123,295.000397 112.140961,304.226959 
	C110.421402,305.219635 108.571411,305.986420 106.436508,306.929779 
	C106.091103,292.236389 106.091103,277.471191 106.091103,262.132599 
	C115.576393,262.132599 124.851372,262.412750 134.099487,262.035126 
	C140.366943,261.779175 146.779816,261.294952 152.810608,259.708008 
	C175.299911,253.790283 187.875671,238.017715 189.511841,214.367584 
z"/>
<path fill="#9A8FA6" opacity="1.000000" stroke="none" 
	d="
M264.894348,311.993652 
	C264.916229,296.305389 264.938110,280.617096 264.924652,264.460388 
	C264.940979,256.647369 264.992645,249.302841 265.520874,241.484360 
	C269.656250,241.007141 273.315125,241.003876 276.973999,241.000610 
	C276.973999,241.000610 277.013397,240.931885 277.052734,240.938232 
	C277.061371,279.972595 277.034302,319.000580 276.994568,358.028564 
	C276.990509,362.013885 276.910767,365.999176 276.835632,370.443573 
	C275.441284,372.514374 274.051758,374.105194 272.718079,375.741486 
	C267.319916,382.364349 260.575226,385.910553 251.384399,384.911438 
	C253.220825,382.821838 255.508392,380.767853 257.800354,378.718781 
	C264.154327,373.038300 266.123322,365.954010 264.360535,356.966248 
	C264.459686,354.408447 264.949615,352.611603 264.954498,350.813446 
	C264.989624,337.873657 264.926361,324.933624 264.894348,311.993652 
z"/>
<path fill="#9A8FA6" opacity="1.000000" stroke="none" 
	d="
M276.983093,240.532318 
	C273.315125,241.003876 269.656250,241.007141 265.546692,241.017990 
	C265.052612,233.327881 265.009186,225.630219 264.937408,217.464050 
	C264.927734,202.641068 264.946381,188.286560 264.935577,173.463547 
	C264.937256,159.719818 264.997650,146.444580 264.990997,133.169373 
	C264.984833,120.828377 259.405273,113.241821 247.422913,109.290993 
	C251.143051,109.167252 255.236465,108.688759 259.089142,109.441895 
	C268.032501,111.190155 273.649933,116.964302 276.650085,125.843544 
	C276.893890,164.110199 276.943054,202.087112 276.983093,240.532318 
z"/>
<path fill="#9A8FA6" opacity="1.000000" stroke="none" 
	d="
M156.154266,201.074799 
	C159.817612,207.908737 160.052780,214.915634 158.594620,221.824127 
	C156.406616,232.190399 147.155014,239.268723 135.032669,239.817627 
	C125.583672,240.245468 116.099800,239.903244 106.248459,239.903244 
	C106.248459,223.447754 106.248459,207.235855 106.248459,190.203110 
	C119.181503,190.887619 132.397186,188.266800 145.076004,192.564972 
	C149.163071,193.950485 152.366531,197.942535 156.154266,201.074799 
z"/>
<path fill="#9A8FA6" opacity="1.000000" stroke="none" 
	d="
M264.530334,312.019348 
	C264.926361,324.933624 264.989624,337.873657 264.954498,350.813446 
	C264.949615,352.611603 264.459686,354.408447 264.152161,356.623169 
	C259.957611,368.042389 252.980423,372.980865 241.410904,372.984375 
	C214.585205,372.992493 187.759521,372.962921 160.467285,372.902344 
	C164.212875,369.802765 168.200882,366.364746 172.673721,363.758881 
	C200.530533,347.529419 228.483932,331.465393 256.446381,315.418121 
	C258.867523,314.028625 261.585999,313.157135 264.530334,312.019348 
z"/>
</svg>