<?xml version="1.0" standalone="no"?>
<!DOCTYPE svg PUBLIC "-//W3C//DTD SVG 20010904//EN"
 "http://www.w3.org/TR/2001/REC-SVG-20010904/DTD/svg10.dtd">
<svg version="1.0" xmlns="http://www.w3.org/2000/svg"
 width="512.000000pt" height="512.000000pt" viewBox="0 0 512.000000 512.000000"
 preserveAspectRatio="xMidYMid meet">

<g transform="translate(0.000000,512.000000) scale(0.100000,-0.100000)"
fill="#9A8FA6" stroke="none">
<path d="M1010 2561 l0 -1141 275 0 275 0 0 385 0 385 188 0 c342 1 497 26
667 109 276 135 420 402 385 714 -20 174 -87 322 -198 434 -106 107 -225 173
-397 220 l-100 27 -547 4 -548 3 0 -1140z m1063 681 c118 -58 171 -157 171
-317 0 -72 -4 -100 -22 -140 -30 -65 -73 -108 -136 -137 -48 -22 -65 -23 -288
-26 l-238 -3 0 331 0 332 223 -3 222 -4 68 -33z"/>
<path d="M3838 3127 c-93 -35 -159 -90 -218 -184 l-27 -43 -7 47 c-3 25 -6 65
-6 89 0 79 17 74 -256 74 l-244 0 0 -845 0 -845 265 0 265 0 0 545 0 545 41
45 c67 73 124 90 300 88 l146 -1 6 240 c4 133 4 244 1 247 -13 13 -229 11
-266 -2z"/>
</g>
</svg>
