<svg width="400" height="400" version="1.1" xmlns="http://www.w3.org/2000/svg" desc="Created with imagetracer.js version 1.2.6" ><path fill="#9A8FA6" stroke="#9A8FA6" stroke-width="1" opacity="1" d="M 314.5 84 L 318 88.5 L 320 111.5 L 319 113.5 L 320 115.5 L 318 121.5 L 318 126.5 L 313 141.5 L 304 162.5 L 298 170.5 L 298 173 Q 295 171.8 296 175.5 L 282 194 L 280 194 Q 281.1 196.7 278.5 196 Q 273.5 202.9 266 206 Q 267.1 208.7 264.5 208 L 253.5 216 L 239.5 223 L 222.5 229 L 220.5 231 L 217.5 231 L 193.5 240 L 170.5 245 L 159.5 249 L 155.5 249 L 138.5 255 L 126.5 261 L 111 272 L 111 274 L 109 274 L 109 276 Q 106.3 274.9 107 277.5 L 94 295.5 L 85 319 Q 81.7 320.3 83 315.5 L 82 312.5 L 83 311.5 L 83 301.5 L 84 300.5 L 84 292.5 L 85 291.5 L 86 280.5 L 93 258.5 L 104 235.5 L 121.5 213 Q 123.8 213.8 123 211.5 L 136.5 200 L 160.5 187 L 187.5 177 L 212.5 171 L 242.5 161 L 265.5 150 L 280 141 Q 278.9 138.3 281.5 139 L 292 131 L 292 129 L 294 129 L 294 127 Q 296.7 128.1 296 125.5 L 302 119.5 L 307 111.5 L 313 91.5 L 313 85.5 L 314.5 84 Z " /></svg>