<svg version="1.1" id="Layer_1" xmlns="http://www.w3.org/2000/svg" xmlns:xlink="http://www.w3.org/1999/xlink" x="0px" y="0px"
	width="100%" viewBox="0 0 900 900" enable-background="new 0 0 900 900" xml:space="preserve">
<path fill="#848583" opacity="1.000000" stroke="none" 
	d="
M189.468658,901.000000 
	C190.528778,900.673157 192.057510,900.060608 193.586365,900.060303 
	C300.642303,900.037903 407.698273,900.075195 514.754211,900.082703 
	C578.688232,900.087158 642.622253,900.050171 706.556274,900.044373 
	C707.544983,900.044250 708.533691,900.204407 709.761230,900.644897 
	C536.645752,901.000000 363.291534,901.000000 189.468658,901.000000 
z"/>
<path fill="#848583" opacity="1.000000" stroke="none" 
	d="
M901.000000,708.531372 
	C900.751892,707.403442 900.286743,705.807007 900.286438,704.210388 
	C900.252625,535.011780 900.253052,365.813141 900.262268,196.614502 
	C900.262329,194.956512 900.407043,193.298523 900.742126,191.320267 
	C901.000000,363.354218 901.000000,535.708435 901.000000,708.531372 
z"/>
<path fill="#824ADE" opacity="1.000000" stroke="none" 
	d="
M788.162842,102.933624 
	C788.060181,100.623741 787.957520,98.313850 787.854919,96.003967 
	C788.408081,95.902542 788.961304,95.801125 789.514526,95.699699 
	C791.993042,107.549019 795.364807,119.291809 796.792908,131.266403 
	C802.488342,179.024704 795.762207,225.643494 782.080200,271.637939 
	C780.965881,273.006439 780.203247,274.238861 779.726013,275.573364 
	C777.143433,282.794159 774.631470,290.040222 772.095215,297.277588 
	C771.534851,297.343964 770.974426,297.410309 770.414001,297.476685 
	C769.609314,294.500458 768.809937,291.522827 767.995483,288.549286 
	C767.841797,287.988586 767.642944,287.438843 767.439087,286.893707 
	C766.875122,285.385529 766.117615,283.922577 765.770874,282.367218 
	C765.333801,280.406342 765.434753,278.314301 764.902039,276.390045 
	C764.573669,275.203949 763.166016,274.320587 762.823181,273.133728 
	C762.085632,270.580444 762.156067,267.731750 761.121887,265.338379 
	C758.537781,259.358307 757.160217,253.360855 758.934753,246.937210 
	C758.951233,246.954773 758.915894,246.956497 759.270203,246.927429 
	C760.825989,243.973328 762.027405,241.048294 763.311646,237.782852 
	C765.967285,231.668732 768.756287,225.980392 771.077393,220.107162 
	C784.389404,186.423752 790.319580,151.448761 789.042053,115.259010 
	C788.896790,111.145332 788.462891,107.041840 788.162842,102.933624 
z"/>
<path fill="#FB4D9E" opacity="1.000000" stroke="none" 
	d="
M575.896179,508.855286 
	C552.225708,519.891418 528.578979,530.978943 504.863281,541.917053 
	C500.519623,543.920471 495.895660,545.316101 490.656250,547.045776 
	C488.248413,547.259033 486.585388,547.418945 484.947693,547.250854 
	C484.905701,545.938721 485.203827,544.685181 484.710052,544.015503 
	C482.083862,540.453735 479.259155,537.038330 476.242462,533.244324 
	C472.870697,534.370728 469.305511,534.466248 468.477722,528.383240 
	C468.325195,527.262756 466.145142,526.338562 464.800873,525.480469 
	C463.175995,524.443237 461.444611,523.572876 459.759338,522.630310 
	C461.753113,519.216309 457.921082,520.741028 457.675903,520.148254 
	C456.737183,517.878601 451.809906,521.786255 453.298645,516.790771 
	C455.526093,510.583771 460.938782,512.755798 464.598724,512.817200 
	C470.806091,512.921570 476.494446,512.710938 482.078125,509.472656 
	C484.880096,507.847656 488.122314,505.323975 492.065430,508.127625 
	C492.908630,508.727173 495.198120,507.292572 497.055237,506.723358 
	C497.096375,506.787018 497.684235,507.697113 497.778931,507.843719 
	C501.409393,506.690887 504.477112,504.961243 507.529572,504.987793 
	C509.949463,505.008820 511.908234,505.562683 514.500854,504.398376 
	C516.749695,503.388458 519.972656,504.547699 523.115845,504.773438 
	C523.883911,502.562683 543.438599,500.999878 546.663208,504.164734 
	C546.912598,503.399384 547.156128,502.651947 547.432495,501.803894 
	C548.029968,503.132751 548.575439,504.345978 549.143066,505.608459 
	C553.971558,502.505341 563.617371,503.040314 568.129272,505.936432 
	C570.405151,507.397217 573.287842,507.912476 575.896179,508.855286 
z"/>
<path fill="#38C0BD" opacity="1.000000" stroke="none" 
	d="
M217.254227,496.095459 
	C230.711517,484.535370 243.443726,471.962128 257.813843,461.677460 
	C274.899231,449.449463 293.392120,439.188019 311.619751,428.312531 
	C309.282013,435.624359 308.409302,442.705170 312.042877,449.606964 
	C310.677582,450.558655 309.456940,451.409546 308.205963,452.281586 
	C310.092926,453.164459 311.477020,453.812042 312.872864,454.465118 
	C312.928131,454.300232 313.179810,453.549469 313.490143,452.623749 
	C313.856659,453.564178 314.152344,454.322937 314.575745,455.409393 
	C314.932495,454.252594 315.151337,453.543060 315.432343,452.631927 
	C316.238190,454.361389 316.896973,455.775299 317.679230,457.454132 
	C313.305878,460.027405 308.851929,462.434692 304.627502,465.193451 
	C300.347046,467.988861 296.293579,471.131805 292.112518,474.115906 
	C292.084320,474.109253 292.045593,474.066681 291.674622,474.037018 
	C290.220978,474.799927 289.138275,475.592499 287.845612,476.641510 
	C282.406677,480.257751 277.177704,483.617523 271.597534,487.017761 
	C259.904968,495.100189 248.563614,503.142120 236.997864,511.004456 
	C236.125565,507.697418 235.477646,504.569946 234.829727,501.442505 
	C234.473083,501.436401 234.116440,501.430267 233.759811,501.424164 
	C232.993332,503.600677 232.226852,505.777191 231.799911,506.989563 
	C227.097351,503.467529 222.175797,499.781494 217.254227,496.095459 
z"/>
<path fill="#B148DE" opacity="1.000000" stroke="none" 
	d="
M752.310486,343.089813 
	C740.997070,364.218536 727.016357,383.503815 711.240906,401.697388 
	C708.887207,398.573700 706.237427,396.454926 707.779053,391.731049 
	C709.808472,385.512268 710.104614,378.709137 710.931641,372.130341 
	C711.128296,370.565857 710.624512,368.852203 710.183533,367.279907 
	C708.739197,362.130493 711.938049,356.466309 708.399475,351.514435 
	C708.111023,351.110840 708.945618,350.000519 709.067627,349.189850 
	C709.436462,346.737946 709.681946,344.267700 710.032410,341.812744 
	C710.309631,339.870911 710.683228,337.942963 710.990295,336.005096 
	C711.187622,334.759766 711.843079,333.306885 711.435974,332.290375 
	C708.300476,324.461823 706.435852,316.680511 711.086182,308.440979 
	C713.710083,305.709778 716.313904,303.373474 718.609497,300.765778 
	C720.946716,298.110718 722.980469,295.188507 725.185181,292.292328 
	C725.223328,292.201385 725.405457,292.125519 725.669189,292.153015 
	C726.297913,291.832123 726.662964,291.483704 727.316895,290.966370 
	C729.390564,288.863159 731.175293,286.928864 733.220276,285.200531 
	C732.840576,288.099182 730.778320,291.746582 731.825562,293.306854 
	C735.054321,298.117157 734.548889,303.483795 735.861694,308.546570 
	C736.996399,312.922546 740.024475,316.873779 740.794617,321.262146 
	C741.882507,327.460663 741.665894,333.888611 741.994751,340.219116 
	C742.037964,341.050232 741.705078,342.065430 742.071716,342.684021 
	C743.119812,344.452423 744.438538,346.060394 745.650818,347.731476 
	C746.968811,346.764008 748.273132,345.777039 749.609802,344.836182 
	C750.485779,344.219604 751.408630,343.669617 752.310486,343.089813 
z"/>
<path fill="#6E59CE" opacity="1.000000" stroke="none" 
	d="
M617.971008,318.295349 
	C638.076050,306.173065 658.237427,294.142609 678.243774,281.859650 
	C682.872192,279.018036 686.970825,275.313538 691.625427,272.237335 
	C687.201660,280.537415 687.205505,280.537659 686.887878,285.551361 
	C686.880371,285.668640 686.521912,285.763672 686.121887,285.980164 
	C686.036987,284.533295 685.962036,283.256409 685.876892,281.805725 
	C682.700256,289.731018 679.629211,297.393005 676.502258,305.194397 
	C675.841370,303.311707 675.251831,301.632141 674.554626,299.645844 
	C671.804260,304.241882 669.337891,308.363403 666.871521,312.484924 
	C666.755249,312.374664 666.638916,312.264404 666.522644,312.154144 
	C664.445251,315.013123 662.367859,317.872070 660.123840,320.960419 
	C658.324646,321.362518 655.567139,321.528290 653.268677,322.641724 
	C651.574524,323.462494 650.623596,325.688599 649.093567,326.998993 
	C642.150330,332.945435 635.132019,338.804840 628.073914,344.614349 
	C627.784973,344.852112 626.823975,344.273346 627.265259,344.408447 
	C623.501831,348.113678 620.177063,351.642029 616.508240,354.766266 
	C615.839661,355.335602 613.766479,354.255341 612.341675,353.936554 
	C612.601562,354.290649 612.861450,354.644714 613.121277,354.998779 
	C610.526245,356.735565 608.117249,358.938965 605.280701,360.070221 
	C602.737488,361.084442 599.723694,360.918823 596.793701,361.289337 
	C596.376892,364.306152 592.939148,367.997101 590.406616,367.061615 
	C586.857666,365.750641 585.650635,367.994751 583.740112,369.897705 
	C580.307678,368.272217 576.505310,367.286469 578.744751,362.211517 
	C580.499084,358.236115 581.846802,354.081360 583.539490,349.568176 
	C583.929138,351.096191 584.171631,352.047058 584.414062,352.997925 
	C584.596313,352.967407 584.778503,352.936890 584.960693,352.906372 
	C584.960693,351.289734 584.960693,349.673126 584.960693,348.682220 
	C586.690735,348.162231 588.905762,348.109711 589.247620,347.282867 
	C590.445801,344.384216 590.998657,341.218842 591.570984,339.021149 
	C592.046570,339.409973 593.020874,340.206421 593.997559,341.001434 
	C594.000000,341.000000 594.004883,340.995117 594.299805,340.958099 
	C594.842834,339.616760 595.091003,338.312469 595.156067,337.970459 
	C596.745728,337.831604 598.413574,338.147583 598.834045,337.564301 
	C600.200928,335.668304 600.651184,332.938385 602.289246,331.445618 
	C606.182617,327.897430 610.585510,324.913025 614.714966,321.616180 
	C615.917542,320.656067 616.892029,319.410217 617.971008,318.295349 
z"/>
<path fill="#C348DD" opacity="1.000000" stroke="none" 
	d="
M710.930847,308.716736 
	C706.435852,316.680511 708.300476,324.461823 711.435974,332.290375 
	C711.843079,333.306885 711.187622,334.759766 710.990295,336.005096 
	C710.683228,337.942963 710.309631,339.870911 710.032410,341.812744 
	C709.681946,344.267700 709.436462,346.737946 709.067627,349.189850 
	C708.945618,350.000519 708.111023,351.110840 708.399475,351.514435 
	C711.938049,356.466309 708.739197,362.130493 710.183533,367.279907 
	C710.624512,368.852203 711.128296,370.565857 710.931641,372.130341 
	C710.104614,378.709137 709.808472,385.512268 707.779053,391.731049 
	C706.237427,396.454926 708.887207,398.573700 710.936768,401.848633 
	C707.493530,406.217499 703.903625,410.272400 699.831909,414.684814 
	C698.566895,415.706451 697.783752,416.370544 697.000610,417.034607 
	C697.000610,417.034637 697.012451,417.015198 696.677673,417.059906 
	C692.630188,419.502380 688.917419,421.900146 685.026733,423.958252 
	C683.232971,417.679230 681.410767,411.784454 680.112732,405.776428 
	C679.652954,403.648621 679.748718,400.801544 680.828491,399.042755 
	C685.835266,390.887543 686.212036,381.980103 684.687866,373.162415 
	C683.285156,365.047211 680.894531,357.171906 683.471130,348.907410 
	C683.674377,348.255463 683.486572,347.047119 683.023315,346.689453 
	C678.712891,343.361267 680.045898,340.091644 682.569458,336.365387 
	C683.594543,334.851837 683.482239,332.568024 684.110596,330.399445 
	C689.278503,326.131622 694.223267,322.099030 699.231689,317.819550 
	C699.241699,317.411346 699.188110,317.250031 699.093811,317.111328 
	C699.053162,317.133942 699.146118,317.129456 699.500244,317.161438 
	C703.546570,314.367889 707.238708,311.542328 710.930847,308.716736 
z"/>
<path fill="#D4FCC0" opacity="1.000000" stroke="none" 
	d="
M104.189629,775.043091 
	C105.537804,757.341003 106.183662,739.550720 108.394562,721.957031 
	C111.936630,693.770325 118.269646,666.126038 127.411568,639.167236 
	C136.941849,611.063232 149.451950,584.391846 165.914032,559.318665 
	C166.457642,562.988403 167.685379,564.170776 171.700104,563.020569 
	C175.884918,561.821716 180.481506,561.395447 184.021774,565.466736 
	C182.980927,567.514160 181.992218,569.236267 180.705261,571.122070 
	C176.244507,577.260315 171.919769,583.129395 167.950989,589.230042 
	C157.540192,605.233093 148.132080,621.831787 141.261368,639.665344 
	C136.025757,653.254883 131.700104,667.194946 126.698425,681.214661 
	C123.349648,692.254089 119.998947,702.989990 117.287994,713.885010 
	C115.401093,721.468323 114.392441,729.270264 112.732994,737.181274 
	C110.038765,751.905029 107.602974,766.421997 105.295776,780.172607 
	C105.053406,779.048645 104.621521,777.045837 104.189629,775.043091 
z"/>
<path fill="#FE5D04" opacity="1.000000" stroke="none" 
	d="
M484.922394,547.578857 
	C486.585388,547.418945 488.248413,547.259033 490.262238,547.111572 
	C464.839661,555.414185 439.075684,563.734009 413.282440,571.961975 
	C409.518066,573.162842 405.614014,573.925659 401.386139,574.613037 
	C400.636383,573.923950 400.289917,573.170837 399.911499,573.154419 
	C395.260620,572.952271 390.215912,573.943726 386.052521,572.451599 
	C381.219849,570.719727 379.530823,573.107483 377.340881,575.992188 
	C373.637177,570.847717 357.786285,570.500732 350.840149,575.094116 
	C347.679565,574.214355 344.893768,573.438904 341.996368,572.632385 
	C340.933136,573.600281 339.840393,574.595032 338.565521,575.755615 
	C337.418732,574.675720 336.404297,573.720398 336.419189,573.734436 
	C332.385925,574.231567 329.375641,574.602600 325.777344,575.046082 
	C318.538025,567.531372 308.869720,572.988525 300.140808,571.860168 
	C293.846375,571.046509 287.406677,571.356445 281.359161,570.983765 
	C307.619354,561.550598 334.698181,558.891296 361.890045,557.171387 
	C379.552399,556.054199 397.255432,555.579407 415.316895,554.863403 
	C423.487518,554.189575 431.281433,553.469116 439.434387,552.803833 
	C440.919891,552.588135 442.046356,552.317322 443.373413,552.049500 
	C443.574036,552.052490 443.959930,551.942505 444.405457,551.979126 
	C458.208130,550.536743 471.565247,549.057800 484.922394,547.578857 
z"/>
<path fill="#2EAFD7" opacity="1.000000" stroke="none" 
	d="
M292.140717,474.122559 
	C296.293579,471.131805 300.347046,467.988861 304.627502,465.193451 
	C308.851929,462.434692 313.305878,460.027405 317.679230,457.454132 
	C316.896973,455.775299 316.238190,454.361389 315.432343,452.631927 
	C315.151337,453.543060 314.932495,454.252594 314.575745,455.409393 
	C314.152344,454.322937 313.856659,453.564178 313.490143,452.623749 
	C313.179810,453.549469 312.928131,454.300232 312.872864,454.465118 
	C311.477020,453.812042 310.092926,453.164459 308.205963,452.281586 
	C309.456940,451.409546 310.677582,450.558655 312.042877,449.606964 
	C308.409302,442.705170 309.282013,435.624359 311.947815,428.186096 
	C331.278961,419.137665 350.626740,410.453674 370.310913,402.093445 
	C369.971313,404.405914 369.295288,406.394623 368.459381,408.853699 
	C368.146149,407.306885 367.903687,406.109558 367.386322,403.554657 
	C366.016022,407.804504 365.046204,410.812225 363.906464,414.346985 
	C361.891052,414.962799 361.592010,416.529144 361.793823,419.408661 
	C362.133514,424.255249 359.829407,429.122955 361.655243,434.074310 
	C361.760132,434.358795 360.454224,435.073090 359.940979,435.699005 
	C359.309845,436.468597 358.821838,437.355560 357.918732,438.728973 
	C373.731873,432.992432 388.777222,427.582642 403.781067,422.060089 
	C407.913696,420.538940 411.922424,418.681274 416.357178,416.962280 
	C419.137207,415.944794 421.548065,414.943085 424.271881,413.993835 
	C427.397369,414.462585 430.209900,414.878876 432.615173,415.234894 
	C434.700806,413.740997 436.432068,412.278656 438.369720,411.180511 
	C440.045776,410.230591 441.956238,409.694305 443.763092,408.975220 
	C443.509918,410.959167 443.256744,412.943085 442.623566,415.012512 
	C433.152496,418.060028 424.061432,421.022095 414.576111,423.988068 
	C401.460571,428.337372 388.739258,432.682770 375.640991,437.061035 
	C363.534546,441.807190 351.805054,446.520447 339.723358,451.292206 
	C330.250763,455.648376 321.130402,459.946014 311.671326,464.310669 
	C304.935303,467.625977 298.538025,470.874268 292.140717,474.122559 
z"/>
<path fill="#9A48DE" opacity="1.000000" stroke="none" 
	d="
M752.561279,342.873718 
	C751.408630,343.669617 750.485779,344.219604 749.609802,344.836182 
	C748.273132,345.777039 746.968811,346.764008 745.650818,347.731476 
	C744.438538,346.060394 743.119812,344.452423 742.071716,342.684021 
	C741.705078,342.065430 742.037964,341.050232 741.994751,340.219116 
	C741.665894,333.888611 741.882507,327.460663 740.794617,321.262146 
	C740.024475,316.873779 736.996399,312.922546 735.861694,308.546570 
	C734.548889,303.483795 735.054321,298.117157 731.825562,293.306854 
	C730.778320,291.746582 732.840576,288.099182 733.352295,284.888733 
	C741.788757,271.887238 750.353516,259.403442 758.918274,246.919647 
	C757.160217,253.360855 758.537781,259.358307 761.121887,265.338379 
	C762.156067,267.731750 762.085632,270.580444 762.823181,273.133728 
	C763.166016,274.320587 764.573669,275.203949 764.902039,276.390045 
	C765.434753,278.314301 765.333801,280.406342 765.770874,282.367218 
	C766.117615,283.922577 766.875122,285.385529 767.439087,286.893707 
	C767.642944,287.438843 767.841797,287.988586 767.995483,288.549286 
	C768.809937,291.522827 769.609314,294.500458 770.414001,297.476685 
	C770.974426,297.410309 771.534851,297.343964 772.095215,297.277588 
	C774.631470,290.040222 777.143433,282.794159 779.726013,275.573364 
	C780.203247,274.238861 780.965881,273.006439 781.812988,271.892151 
	C776.119751,288.230347 770.520874,304.526672 764.166382,320.522797 
	C761.118958,328.193970 756.641724,335.297150 752.561279,342.873718 
z"/>
<path fill="#38229A" opacity="1.000000" stroke="none" 
	d="
M758.934753,246.937195 
	C750.353516,259.403442 741.788757,271.887238 733.092041,284.682800 
	C731.175293,286.928864 729.390564,288.863159 727.308228,290.559204 
	C729.341858,284.028931 731.673035,277.736938 734.198914,270.919434 
	C734.749084,272.268066 735.122314,273.182861 735.495483,274.097656 
	C735.758484,274.022095 736.021484,273.946533 736.284546,273.870972 
	C735.784912,271.550201 735.285339,269.229462 734.785706,266.908691 
	C735.195740,267.070984 735.605774,267.233276 736.015747,267.395569 
	C737.679810,262.449799 739.321350,257.496246 741.019592,252.562225 
	C741.652222,250.724258 741.973267,248.506821 743.215942,247.208618 
	C745.687012,244.627121 745.305786,244.929504 744.891785,242.104980 
	C744.371033,238.552292 743.698547,232.561371 745.333069,231.652084 
	C749.033569,229.593475 746.449158,228.585480 745.975342,226.898056 
	C745.607422,225.587677 745.443298,224.052689 745.761719,222.758469 
	C746.179016,221.062286 747.159851,219.504730 747.898315,217.887543 
	C747.898315,217.887543 747.959106,217.901611 748.176697,217.829346 
	C748.580078,217.480972 748.765930,217.204849 748.951782,216.928711 
	C748.951782,216.928726 748.927124,216.996094 749.099976,216.893066 
	C749.134705,216.490448 748.996582,216.190857 748.858521,215.891281 
	C754.655090,206.072662 760.944458,196.507324 766.147766,186.383789 
	C777.707336,163.893387 785.374573,140.102570 787.863708,114.817650 
	C788.220337,111.194054 787.982544,107.511955 788.091309,103.395279 
	C788.462891,107.041840 788.896790,111.145332 789.042053,115.259010 
	C790.319580,151.448761 784.389404,186.423752 771.077393,220.107162 
	C768.756287,225.980392 765.967285,231.668732 763.123779,238.074554 
	C761.540771,241.456604 760.228333,244.206558 758.915894,246.956512 
	C758.915894,246.956497 758.951233,246.954773 758.934753,246.937195 
z"/>
<path fill="#6049C3" opacity="1.000000" stroke="none" 
	d="
M584.003662,369.995117 
	C585.650635,367.994751 586.857666,365.750641 590.406616,367.061615 
	C592.939148,367.997101 596.376892,364.306152 596.793701,361.289337 
	C599.723694,360.918823 602.737488,361.084442 605.280701,360.070221 
	C608.117249,358.938965 610.526245,356.735565 613.121277,354.998779 
	C612.861450,354.644714 612.601562,354.290649 612.341675,353.936554 
	C613.766479,354.255341 615.839661,355.335602 616.508240,354.766266 
	C620.177063,351.642029 623.501831,348.113678 627.265259,344.408447 
	C626.823975,344.273346 627.784973,344.852112 628.073914,344.614349 
	C635.132019,338.804840 642.150330,332.945435 649.093567,326.998993 
	C650.623596,325.688599 651.574524,323.462494 653.268677,322.641724 
	C655.567139,321.528290 658.324646,321.362518 660.123840,320.960419 
	C662.367859,317.872070 664.445251,315.013123 666.522644,312.154144 
	C666.638916,312.264404 666.755249,312.374664 666.871521,312.484924 
	C669.337891,308.363403 671.804260,304.241882 674.554626,299.645844 
	C675.251831,301.632141 675.841370,303.311707 676.502258,305.194397 
	C679.629211,297.393005 682.700256,289.731018 685.876892,281.805725 
	C685.962036,283.256409 686.036987,284.533295 686.121887,285.980164 
	C686.521912,285.763672 686.880371,285.668640 686.887878,285.551361 
	C687.205505,280.537659 687.201660,280.537415 691.945312,272.098633 
	C699.959167,264.811890 707.965332,257.894989 716.401123,251.269714 
	C715.886353,255.208862 715.994934,259.419647 715.065491,262.543854 
	C712.530151,271.066101 710.836426,280.261078 704.787354,287.444641 
	C703.746704,288.680450 702.740723,289.946594 701.671814,291.157349 
	C697.566223,295.807800 693.196838,300.250427 689.387268,305.130707 
	C684.876831,310.908905 681.739868,317.901245 674.310425,320.877045 
	C673.011963,321.397095 671.644897,321.955841 670.587891,322.832397 
	C666.004456,326.633362 661.991821,331.098602 657.008911,334.443665 
	C653.900696,336.530151 650.804321,338.639465 647.782166,340.847443 
	C645.622131,342.425629 643.525635,344.107635 641.527161,345.885406 
	C639.688721,347.520874 638.263184,349.735718 636.227295,351.011414 
	C631.113342,354.215881 625.771545,357.059540 620.493591,359.998413 
	C616.100647,362.444489 611.590210,364.691437 607.300720,367.304108 
	C605.981262,368.107758 605.218811,369.825897 604.038940,371.351562 
	C603.563538,371.774231 603.250427,371.970612 602.704956,372.201202 
	C602.151611,372.368286 601.966003,372.606659 601.922729,372.921021 
	C601.929749,372.891541 601.878296,372.859375 601.494629,372.889709 
	C592.728271,375.537781 584.345581,378.155518 575.919922,380.424713 
	C573.097717,374.220154 578.150818,374.016632 581.271851,373.405243 
	C583.748230,372.920105 585.059204,372.765778 584.003662,369.995117 
z"/>
<path fill="#5C66D4" opacity="1.000000" stroke="none" 
	d="
M583.740112,369.897705 
	C585.059204,372.765778 583.748230,372.920105 581.271851,373.405243 
	C578.150818,374.016632 573.097717,374.220154 575.554688,380.541809 
	C560.470154,384.633026 545.707886,388.258545 530.817078,391.585022 
	C529.045288,387.770355 527.405273,384.602783 532.744568,382.253204 
	C534.643616,381.417511 536.172058,378.327087 536.648865,376.014221 
	C537.308533,372.813843 536.814453,369.375641 536.814453,364.721252 
	C537.802673,366.675323 538.161560,367.384918 538.656311,368.363159 
	C539.917175,362.903015 539.917175,362.903015 537.104858,361.708435 
	C541.876221,358.789429 546.515869,356.267426 550.986877,353.475372 
	C559.057861,348.435181 567.028015,343.233521 575.040283,338.099304 
	C589.136841,331.554413 603.233337,325.009521 617.650452,318.380005 
	C616.892029,319.410217 615.917542,320.656067 614.714966,321.616180 
	C610.585510,324.913025 606.182617,327.897430 602.289246,331.445618 
	C600.651184,332.938385 600.200928,335.668304 598.834045,337.564301 
	C598.413574,338.147583 596.745728,337.831604 595.156067,337.970459 
	C595.091003,338.312469 594.842834,339.616760 594.302002,340.588440 
	C593.914307,339.206573 593.819336,338.157349 593.724426,337.108154 
	C593.411438,337.168915 593.098450,337.229706 592.785461,337.290497 
	C593.188660,338.527954 593.591919,339.765411 593.995117,341.002869 
	C593.020874,340.206421 592.046570,339.409973 591.570984,339.021149 
	C590.998657,341.218842 590.445801,344.384216 589.247620,347.282867 
	C588.905762,348.109711 586.690735,348.162231 584.960693,348.682220 
	C584.960693,349.673126 584.960693,351.289734 584.960693,352.906372 
	C584.778503,352.936890 584.596313,352.967407 584.414062,352.997925 
	C584.171631,352.047058 583.929138,351.096191 583.539490,349.568176 
	C581.846802,354.081360 580.499084,358.236115 578.744751,362.211517 
	C576.505310,367.286469 580.307678,368.272217 583.740112,369.897705 
z"/>
<path fill="#503AB8" opacity="1.000000" stroke="none" 
	d="
M604.201294,371.125275 
	C605.218811,369.825897 605.981262,368.107758 607.300720,367.304108 
	C611.590210,364.691437 616.100647,362.444489 620.493591,359.998413 
	C625.771545,357.059540 631.113342,354.215881 636.227295,351.011414 
	C638.263184,349.735718 639.688721,347.520874 641.527161,345.885406 
	C643.525635,344.107635 645.622131,342.425629 647.782166,340.847443 
	C650.804321,338.639465 653.900696,336.530151 657.008911,334.443665 
	C661.991821,331.098602 666.004456,326.633362 670.587891,322.832397 
	C671.644897,321.955841 673.011963,321.397095 674.310425,320.877045 
	C681.739868,317.901245 684.876831,310.908905 689.387268,305.130707 
	C693.196838,300.250427 697.566223,295.807800 701.671814,291.157349 
	C702.740723,289.946594 703.746704,288.680450 704.787354,287.444641 
	C710.836426,280.261078 712.530151,271.066101 715.065491,262.543854 
	C715.994934,259.419647 715.886353,255.208862 716.726624,251.185852 
	C716.622437,250.810379 716.697205,250.819077 716.941162,250.813385 
	C717.279663,250.706848 717.464294,250.526810 717.455505,250.516891 
	C717.279968,250.317474 717.082153,250.137573 716.888855,249.953766 
	C720.245850,246.920990 723.602844,243.888229 727.528320,241.178528 
	C728.240112,243.576538 729.229004,246.145325 728.361816,247.630249 
	C726.109741,251.486908 723.041748,254.867065 720.284851,258.456268 
	C722.722351,259.879944 724.941223,261.175995 727.049072,262.407135 
	C724.429321,266.395386 721.004150,269.369019 720.604187,272.705322 
	C719.869080,278.837585 716.826172,283.491150 714.165955,288.669067 
	C710.523315,295.759460 704.327881,301.584839 703.289185,310.011963 
	C703.199707,310.738190 702.399780,311.945770 701.897827,311.962372 
	C697.818481,312.097076 699.378662,315.065125 699.146118,317.129456 
	C699.146118,317.129456 699.053162,317.133942 698.891479,317.173615 
	C698.875916,317.497681 699.021973,317.782074 699.168030,318.066467 
	C694.223267,322.099030 689.278503,326.131622 683.781494,330.534882 
	C674.819519,336.270782 666.409729,341.636017 657.669250,347.114868 
	C655.033691,348.490814 652.807922,349.932892 650.411255,350.986206 
	C635.028809,357.746674 619.608887,364.421967 604.201294,371.125275 
z"/>
<path fill="#F83682" opacity="1.000000" stroke="none" 
	d="
M576.245972,508.802856 
	C573.287842,507.912476 570.405151,507.397217 568.129272,505.936432 
	C563.617371,503.040314 553.971558,502.505341 549.143066,505.608459 
	C548.575439,504.345978 548.029968,503.132751 547.432495,501.803894 
	C547.156128,502.651947 546.912598,503.399384 546.663208,504.164734 
	C543.438599,500.999878 523.883911,502.562683 523.115845,504.773438 
	C519.972656,504.547699 516.749695,503.388458 514.500854,504.398376 
	C511.908234,505.562683 509.949463,505.008820 507.529572,504.987793 
	C504.477112,504.961243 501.409393,506.690887 497.778931,507.843719 
	C497.684235,507.697113 497.096375,506.787018 497.055237,506.723358 
	C495.198120,507.292572 492.908630,508.727173 492.065430,508.127625 
	C488.122314,505.323975 484.880096,507.847656 482.078125,509.472656 
	C476.494446,512.710938 470.806091,512.921570 464.598724,512.817200 
	C460.938782,512.755798 455.526093,510.583771 452.894867,516.820496 
	C449.249023,517.512207 446.245636,517.974915 443.110748,518.457947 
	C441.881073,514.424805 439.912292,511.999847 435.597260,511.773407 
	C434.648804,511.723602 433.858337,508.664215 433.208374,506.786896 
	C434.695282,506.220795 435.960968,505.826965 437.244354,505.503357 
	C439.442719,504.949036 441.671814,503.931305 443.852905,504.015656 
	C448.360260,504.190002 452.952759,505.841461 457.315918,505.304901 
	C466.603241,504.162872 475.732117,501.793091 484.990601,500.338013 
	C493.595367,498.985748 502.309357,498.338715 510.929169,497.068604 
	C520.271301,495.692078 529.641113,495.117126 539.066833,494.833099 
	C541.508484,494.759491 543.760559,492.001038 546.558533,494.102173 
	C546.737427,494.236511 547.393311,493.629242 547.863831,493.501038 
	C549.454529,493.067505 551.041504,492.523285 552.666504,492.331726 
	C556.803406,491.844177 560.953491,491.400330 565.111084,491.176117 
	C568.582275,490.988892 572.071594,491.137665 575.552856,491.137665 
	C578.378967,490.390625 582.936096,490.019592 586.986267,491.236176 
	C588.186951,491.596893 589.802368,490.813965 590.876526,491.312256 
	C593.646606,492.597168 596.220398,494.305267 598.872559,495.844330 
	C591.446960,500.146362 584.021423,504.448425 576.245972,508.802856 
z"/>
<path fill="#FECF34" opacity="1.000000" stroke="none" 
	d="
M293.882874,599.959167 
	C277.926117,605.327332 261.789276,610.224060 246.074936,616.226868 
	C235.317062,620.336182 225.147568,625.985840 214.169586,630.775574 
	C208.304611,631.477783 206.539932,627.496155 204.570038,623.837341 
	C205.513916,623.079712 206.546783,622.250610 207.579666,621.421570 
	C207.233032,621.022583 206.886414,620.623596 206.539780,620.224609 
	C204.977386,621.656067 203.414993,623.087463 201.654816,624.700134 
	C201.008484,624.152222 200.203857,623.470154 199.389252,622.779663 
	C198.749786,623.927246 198.140030,625.021545 197.530273,626.115784 
	C197.118011,625.945129 196.705750,625.774414 196.293488,625.603760 
	C196.832245,624.275208 197.516388,622.982361 197.855301,621.604675 
	C198.059296,620.775513 197.725723,619.814148 197.841629,618.629150 
	C202.054886,614.896362 206.030930,611.411865 210.073853,608.006714 
	C214.053970,604.654419 218.101959,601.382568 222.073883,598.070923 
	C222.027618,598.066467 222.082947,598.141235 222.411545,598.176392 
	C223.150177,598.064209 223.560196,597.916748 223.972580,597.917725 
	C223.974930,598.066040 223.969299,598.362793 224.212494,598.552551 
	C226.210556,599.337646 227.822556,600.665955 229.679123,598.497864 
	C230.502960,597.535889 233.105713,596.620972 233.551971,597.058960 
	C235.903244,599.366821 238.535400,598.826050 240.818680,597.856262 
	C245.468338,595.881409 249.900772,593.395264 254.515152,591.073242 
	C255.344208,593.239807 255.812836,594.464478 256.377380,595.939880 
	C261.137238,590.251221 272.094055,590.476685 273.569672,596.196411 
	C274.096954,594.722717 274.629364,593.234741 275.164398,591.739441 
	C276.298126,593.915955 277.335846,595.908081 278.373596,597.900269 
	C279.487701,596.496277 280.601807,595.092285 282.025787,593.297791 
	C281.999054,599.163879 284.476898,601.442810 290.164429,599.291565 
	C291.175140,598.909241 292.632019,599.706543 293.882874,599.959167 
z"/>
<path fill="#259FE3" opacity="1.000000" stroke="none" 
	d="
M415.988007,416.978027 
	C411.922424,418.681274 407.913696,420.538940 403.781067,422.060089 
	C388.777222,427.582642 373.731873,432.992432 357.918732,438.728973 
	C358.821838,437.355560 359.309845,436.468597 359.940979,435.699005 
	C360.454224,435.073090 361.760132,434.358795 361.655243,434.074310 
	C359.829407,429.122955 362.133514,424.255249 361.793823,419.408661 
	C361.592010,416.529144 361.891052,414.962799 363.906464,414.346985 
	C365.046204,410.812225 366.016022,407.804504 367.386322,403.554657 
	C367.903687,406.109558 368.146149,407.306885 368.459381,408.853699 
	C369.295288,406.394623 369.971313,404.405914 370.695709,402.059387 
	C370.744080,401.701538 370.786316,401.740967 371.184509,401.828003 
	C372.351593,401.442139 373.120514,400.969208 373.889465,400.496338 
	C384.546143,397.283905 395.202820,394.071472 406.532623,390.893555 
	C407.366821,390.961639 407.535706,390.975311 407.686707,391.034576 
	C407.835815,391.093079 407.966797,391.197693 408.105743,391.282074 
	C405.980560,393.148071 407.345734,394.297791 408.494812,396.219269 
	C411.797882,401.742676 416.041290,407.179504 413.667847,414.465332 
	C413.495361,414.994781 415.171417,416.126373 415.988007,416.978027 
z"/>
<path fill="#FE7606" opacity="1.000000" stroke="none" 
	d="
M281.031769,571.165283 
	C287.406677,571.356445 293.846375,571.046509 300.140808,571.860168 
	C308.869720,572.988525 318.538025,567.531372 325.777344,575.046082 
	C329.375641,574.602600 332.385925,574.231567 336.419189,573.734436 
	C336.404297,573.720398 337.418732,574.675720 338.565521,575.755615 
	C339.840393,574.595032 340.933136,573.600281 341.996368,572.632385 
	C344.893768,573.438904 347.679565,574.214355 350.840149,575.094116 
	C357.786285,570.500732 373.637177,570.847717 377.340881,575.992188 
	C379.530823,573.107483 381.219849,570.719727 386.052521,572.451599 
	C390.215912,573.943726 395.260620,572.952271 399.911499,573.154419 
	C400.289917,573.170837 400.636383,573.923950 400.998352,574.616943 
	C376.459229,580.550964 351.921265,586.210754 327.373840,591.829102 
	C326.262665,592.083374 325.066071,591.964294 323.439758,591.717285 
	C321.865082,589.811646 320.759888,588.207886 319.447815,586.303894 
	C318.679840,587.789734 318.084717,588.941101 317.343231,590.375671 
	C317.035797,589.210388 316.855927,588.528748 316.549561,587.367615 
	C316.083832,588.658691 315.818970,589.392944 315.990143,588.918518 
	C313.057404,586.736511 310.187866,583.179016 306.663391,582.325195 
	C301.827576,581.153687 296.495148,582.032166 289.497040,582.032166 
	C284.520905,578.365662 276.594604,581.628784 269.213623,580.642822 
	C268.862640,580.596008 268.333771,581.112427 268.045380,581.487610 
	C265.851288,584.342468 263.509583,582.359680 261.142731,581.840759 
	C260.052979,581.601868 257.962708,581.642822 257.808685,582.079651 
	C256.206177,586.624878 253.773697,583.383850 251.883041,582.607666 
	C258.416992,579.488831 264.724274,576.657715 271.399109,573.874268 
	C274.855042,573.002991 277.943420,572.084167 281.031769,571.165283 
z"/>
<path fill="#EB2261" opacity="1.000000" stroke="none" 
	d="
M599.213013,495.775146 
	C596.220398,494.305267 593.646606,492.597168 590.876526,491.312256 
	C589.802368,490.813965 588.186951,491.596893 586.986267,491.236176 
	C582.936096,490.019592 578.378967,490.390625 575.552856,491.137665 
	C572.071594,491.137665 568.582275,490.988892 565.111084,491.176117 
	C560.953491,491.400330 556.803406,491.844177 552.666504,492.331726 
	C551.041504,492.523285 549.454529,493.067505 547.863831,493.501038 
	C547.393311,493.629242 546.737427,494.236511 546.558533,494.102173 
	C543.760559,492.001038 541.508484,494.759491 539.066833,494.833099 
	C529.641113,495.117126 520.271301,495.692078 510.929169,497.068604 
	C502.309357,498.338715 493.595367,498.985748 484.990601,500.338013 
	C475.732117,501.793091 466.603241,504.162872 457.315918,505.304901 
	C452.952759,505.841461 448.360260,504.190002 443.852905,504.015656 
	C441.671814,503.931305 439.442719,504.949036 437.244354,505.503357 
	C435.960968,505.826965 434.695282,506.220795 432.960266,506.784210 
	C432.498901,506.985382 432.002625,506.995117 431.669556,506.987976 
	C430.892822,506.997528 430.449097,507.014221 429.994812,506.785828 
	C429.984222,506.540710 429.930756,506.052917 430.085754,505.809448 
	C430.827667,505.094788 431.414551,504.623627 432.297485,504.087280 
	C433.120605,503.778381 433.647705,503.534698 434.594604,503.262024 
	C443.681274,501.826416 452.348145,500.419800 461.424683,499.027100 
	C470.904755,497.402039 479.975189,495.763092 489.424835,494.137939 
	C490.554474,494.047577 491.304871,493.943451 492.336243,493.817719 
	C492.903564,493.558716 493.189972,493.321320 493.793213,493.161743 
	C494.748169,493.127563 495.386353,493.015564 496.258911,492.920532 
	C496.493256,492.937469 496.952850,492.839661 497.339783,492.808716 
	C504.549622,491.325500 511.372528,489.873230 518.584106,488.325989 
	C524.330750,487.171082 529.688660,486.111084 535.075195,485.357971 
	C535.784485,485.793396 536.490723,486.110107 537.141907,486.021606 
	C543.860840,485.108307 550.553406,483.958832 557.293701,483.271515 
	C559.354858,483.061310 561.931824,485.013580 563.588013,484.326202 
	C567.124390,482.858398 570.338135,481.338074 574.275391,482.647797 
	C575.771851,483.145630 577.489380,483.327515 579.063232,483.183807 
	C585.853821,482.563873 592.651123,481.057739 599.401611,481.272095 
	C604.488770,481.433655 608.972839,481.710754 610.991821,479.081177 
	C616.067871,478.508911 619.472351,478.073547 622.888306,477.766052 
	C624.207336,477.647339 625.552551,477.818878 626.885803,477.858154 
	C617.774963,483.807434 608.664185,489.756714 599.213013,495.775146 
z"/>
<path fill="#0D84E6" opacity="1.000000" stroke="none" 
	d="
M416.357178,416.962280 
	C415.171417,416.126373 413.495361,414.994781 413.667847,414.465332 
	C416.041290,407.179504 411.797882,401.742676 408.494812,396.219269 
	C407.345734,394.297791 405.980560,393.148071 408.105743,391.282074 
	C407.966797,391.197693 407.835815,391.093079 407.686707,391.034576 
	C407.535706,390.975311 407.366821,390.961639 406.915527,390.867554 
	C422.383453,386.870636 438.138214,382.920441 453.901031,379.002411 
	C464.675385,376.324310 475.460907,373.691071 486.780945,371.217957 
	C483.910278,375.497040 476.876099,375.527252 475.485962,381.923401 
	C475.437134,382.148010 474.956055,382.278656 474.524048,382.548126 
	C473.527039,381.862946 472.475677,381.140381 470.849060,380.022491 
	C469.127289,383.056885 467.535217,385.862701 465.905273,388.735260 
	C460.020721,389.403839 456.386749,394.093750 452.758179,398.672760 
	C452.123047,399.474335 452.242493,400.873932 451.784302,402.274841 
	C442.356384,406.348694 433.157654,410.145050 423.958923,413.941406 
	C421.548065,414.943085 419.137207,415.944794 416.357178,416.962280 
z"/>
<path fill="#FDE057" opacity="1.000000" stroke="none" 
	d="
M197.633728,618.912170 
	C197.725723,619.814148 198.059296,620.775513 197.855301,621.604675 
	C197.516388,622.982361 196.832245,624.275208 196.293488,625.603760 
	C196.705750,625.774414 197.118011,625.945129 197.530273,626.115784 
	C198.140030,625.021545 198.749786,623.927246 199.389252,622.779663 
	C200.203857,623.470154 201.008484,624.152222 201.654816,624.700134 
	C203.414993,623.087463 204.977386,621.656067 206.539780,620.224609 
	C206.886414,620.623596 207.233032,621.022583 207.579666,621.421570 
	C206.546783,622.250610 205.513916,623.079712 204.570038,623.837341 
	C206.539932,627.496155 208.304611,631.477783 213.811295,630.809937 
	C202.173340,640.028381 189.884613,648.503052 178.641174,658.190918 
	C164.762039,670.149780 154.063538,684.989685 143.761902,700.405640 
	C140.964371,696.979431 143.097565,693.360413 142.896179,689.864014 
	C142.932846,689.888977 142.913620,689.975281 143.150696,689.853760 
	C143.282440,689.172058 143.177139,688.611877 143.149658,687.714355 
	C145.142822,683.913025 147.058136,680.448975 149.176086,676.713623 
	C156.583633,666.334961 163.764633,656.210510 171.004913,646.128601 
	C174.045776,641.894226 177.212036,637.749939 180.667511,633.503357 
	C182.550522,632.242859 184.158005,631.122925 185.610580,629.829102 
	C189.652695,626.228760 193.630524,622.556213 197.633728,618.912170 
z"/>
<path fill="#0466CC" opacity="1.000000" stroke="none" 
	d="
M452.013458,401.997314 
	C452.242493,400.873932 452.123047,399.474335 452.758179,398.672760 
	C456.386749,394.093750 460.020721,389.403839 465.905273,388.735260 
	C467.535217,385.862701 469.127289,383.056885 470.849060,380.022491 
	C472.475677,381.140381 473.527039,381.862946 474.524048,382.548126 
	C474.956055,382.278656 475.437134,382.148010 475.485962,381.923401 
	C476.876099,375.527252 483.910278,375.497040 487.173340,371.186157 
	C504.005585,364.962982 521.065125,359.166687 537.937500,352.868866 
	C550.186646,348.296661 562.187988,343.060791 574.670044,338.110077 
	C567.028015,343.233521 559.057861,348.435181 550.986877,353.475372 
	C546.515869,356.267426 541.876221,358.789429 536.756104,361.745941 
	C517.759155,371.354370 499.318787,380.650055 480.543304,389.996460 
	C478.461639,391.023743 476.715027,392.000275 474.984314,392.988403 
	C475.000214,393.000000 474.980988,392.965546 474.758301,393.055725 
	C474.255585,393.313324 474.025177,393.532867 473.655853,393.829590 
	C473.467255,393.854645 473.093292,393.924896 472.705414,393.933044 
	C465.549500,396.626556 458.781494,399.311920 452.013458,401.997314 
z"/>
<path fill="#472EA9" opacity="1.000000" stroke="none" 
	d="
M699.500244,317.161438 
	C699.378662,315.065125 697.818481,312.097076 701.897827,311.962372 
	C702.399780,311.945770 703.199707,310.738190 703.289185,310.011963 
	C704.327881,301.584839 710.523315,295.759460 714.165955,288.669067 
	C716.826172,283.491150 719.869080,278.837585 720.604187,272.705322 
	C721.004150,269.369019 724.429321,266.395386 727.049072,262.407135 
	C724.941223,261.175995 722.722351,259.879944 720.284851,258.456268 
	C723.041748,254.867065 726.109741,251.486908 728.361816,247.630249 
	C729.229004,246.145325 728.240112,243.576538 727.871704,241.152908 
	C727.646545,240.804230 727.741272,240.795395 728.103027,240.843063 
	C728.592224,240.222809 728.719788,239.554886 728.847351,238.886963 
	C734.968323,231.898178 741.089294,224.909409 747.554321,217.904099 
	C747.159851,219.504730 746.179016,221.062286 745.761719,222.758469 
	C745.443298,224.052689 745.607422,225.587677 745.975342,226.898056 
	C746.449158,228.585480 749.033569,229.593475 745.333069,231.652084 
	C743.698547,232.561371 744.371033,238.552292 744.891785,242.104980 
	C745.305786,244.929504 745.687012,244.627121 743.215942,247.208618 
	C741.973267,248.506821 741.652222,250.724258 741.019592,252.562225 
	C739.321350,257.496246 737.679810,262.449799 736.015747,267.395569 
	C735.605774,267.233276 735.195740,267.070984 734.785706,266.908691 
	C735.285339,269.229462 735.784912,271.550201 736.284546,273.870972 
	C736.021484,273.946533 735.758484,274.022095 735.495483,274.097656 
	C735.122314,273.182861 734.749084,272.268066 734.198914,270.919434 
	C731.673035,277.736938 729.341858,284.028931 727.019287,290.728119 
	C726.662964,291.483704 726.297913,291.832123 725.522400,292.011444 
	C725.020447,291.751068 724.928894,291.659790 724.837402,291.568542 
	C724.940613,291.840149 725.043823,292.111725 725.147095,292.383301 
	C722.980469,295.188507 720.946716,298.110718 718.609497,300.765778 
	C716.313904,303.373474 713.710083,305.709778 711.086182,308.440948 
	C707.238708,311.542328 703.546570,314.367889 699.500244,317.161438 
z"/>
<path fill="#FE9C0C" opacity="1.000000" stroke="none" 
	d="
M251.656372,582.895264 
	C253.773697,583.383850 256.206177,586.624878 257.808685,582.079651 
	C257.962708,581.642822 260.052979,581.601868 261.142731,581.840759 
	C263.509583,582.359680 265.851288,584.342468 268.045380,581.487610 
	C268.333771,581.112427 268.862640,580.596008 269.213623,580.642822 
	C276.594604,581.628784 284.520905,578.365662 289.497040,582.032166 
	C296.495148,582.032166 301.827576,581.153687 306.663391,582.325195 
	C310.187866,583.179016 313.057404,586.736511 315.990143,588.918518 
	C315.818970,589.392944 316.083832,588.658691 316.549561,587.367615 
	C316.855927,588.528748 317.035797,589.210388 317.343231,590.375671 
	C318.084717,588.941101 318.679840,587.789734 319.447815,586.303894 
	C320.759888,588.207886 321.865082,589.811646 323.016479,591.763672 
	C313.609772,594.746948 304.156891,597.382141 294.293427,599.988220 
	C292.632019,599.706543 291.175140,598.909241 290.164429,599.291565 
	C284.476898,601.442810 281.999054,599.163879 282.025787,593.297791 
	C280.601807,595.092285 279.487701,596.496277 278.373596,597.900269 
	C277.335846,595.908081 276.298126,593.915955 275.164398,591.739441 
	C274.629364,593.234741 274.096954,594.722717 273.569672,596.196411 
	C272.094055,590.476685 261.137238,590.251221 256.377380,595.939880 
	C255.812836,594.464478 255.344208,593.239807 254.515152,591.073242 
	C249.900772,593.395264 245.468338,595.881409 240.818680,597.856262 
	C238.535400,598.826050 235.903244,599.366821 233.551971,597.058960 
	C233.105713,596.620972 230.502960,597.535889 229.679123,598.497864 
	C227.822556,600.665955 226.210556,599.337646 224.491058,598.320068 
	C233.569763,592.896973 242.613068,587.896118 251.656372,582.895264 
z"/>
<path fill="#A20411" opacity="1.000000" stroke="none" 
	d="
M685.204712,424.297852 
	C688.917419,421.900146 692.630188,419.502380 696.688965,417.058014 
	C692.770691,421.714447 688.830078,426.769440 684.177063,431.050018 
	C673.266907,441.086792 662.024048,450.762482 650.887695,460.552216 
	C649.903015,461.417755 648.711792,462.048309 647.279541,462.635376 
	C642.963684,463.789825 638.984680,465.096924 634.744751,466.489746 
	C632.538086,463.642883 624.630554,464.706787 618.201050,469.464233 
	C616.975586,468.437805 615.737732,467.401062 614.790894,466.608032 
	C609.703613,469.926788 604.343628,469.699249 599.029602,469.738586 
	C597.870789,469.747131 596.008179,469.502258 595.666870,470.080658 
	C592.985596,474.623657 590.565674,472.450836 588.335815,469.831726 
	C589.070007,469.426361 589.520142,469.228027 589.977539,469.047943 
	C601.984924,464.319916 613.993103,459.593750 626.368164,454.934265 
	C634.403259,451.580078 642.139526,448.301514 649.711243,444.678955 
	C653.640991,442.798767 657.279785,440.310272 661.412964,438.047119 
	C669.585571,433.431030 677.395142,428.864441 685.204712,424.297852 
z"/>
<path fill="#58E582" opacity="1.000000" stroke="none" 
	d="
M216.958557,496.263153 
	C222.175797,499.781494 227.097351,503.467529 231.799911,506.989563 
	C232.226852,505.777191 232.993332,503.600677 233.759811,501.424164 
	C234.116440,501.430267 234.473083,501.436401 234.829727,501.442505 
	C235.477646,504.569946 236.125565,507.697418 236.807465,511.277527 
	C228.243607,519.494995 219.645737,527.259705 210.794220,534.891724 
	C207.640167,534.217102 207.209595,535.965027 207.324219,538.273926 
	C207.319229,538.324890 207.314255,538.427185 207.016968,538.164185 
	C204.939041,531.139832 203.307587,530.347900 193.325333,531.586426 
	C193.155869,533.034729 192.977768,534.556824 192.737137,536.613403 
	C191.410339,535.013000 190.444550,533.848083 189.995224,533.306091 
	C188.205688,534.807922 186.743896,536.149475 185.105530,537.221069 
	C184.952393,537.321228 183.683334,535.715332 182.932404,534.901550 
	C182.932404,534.901550 182.954269,534.979370 183.176697,534.894836 
	C183.590851,534.513306 183.782578,534.216370 183.974304,533.919373 
	C183.974304,533.919373 183.965668,533.992371 184.124023,533.933472 
	C184.372406,533.780457 184.555679,533.632874 184.537308,533.600769 
	C184.414444,533.386353 184.248627,533.196594 184.096741,532.998840 
	C194.952118,520.809509 205.807495,508.620178 216.958557,496.263153 
z"/>
<path fill="#CC0B34" opacity="1.000000" stroke="none" 
	d="
M588.055237,470.047272 
	C590.565674,472.450836 592.985596,474.623657 595.666870,470.080658 
	C596.008179,469.502258 597.870789,469.747131 599.029602,469.738586 
	C604.343628,469.699249 609.703613,469.926788 614.790894,466.608032 
	C615.737732,467.401062 616.975586,468.437805 618.201050,469.464233 
	C624.630554,464.706787 632.538086,463.642883 634.744751,466.489746 
	C638.984680,465.096924 642.963684,463.789825 646.967285,462.776367 
	C640.508789,467.935883 634.025635,472.801727 627.214111,477.762878 
	C625.552551,477.818878 624.207336,477.647339 622.888306,477.766052 
	C619.472351,478.073547 616.067871,478.508911 610.991821,479.081177 
	C608.972839,481.710754 604.488770,481.433655 599.401611,481.272095 
	C592.651123,481.057739 585.853821,482.563873 579.063232,483.183807 
	C577.489380,483.327515 575.771851,483.145630 574.275391,482.647797 
	C570.338135,481.338074 567.124390,482.858398 563.588013,484.326202 
	C561.931824,485.013580 559.354858,483.061310 557.293701,483.271515 
	C550.553406,483.958832 543.860840,485.108307 537.141907,486.021606 
	C536.490723,486.110107 535.784485,485.793396 535.413391,485.195648 
	C540.146973,483.465973 544.570862,482.205444 549.389404,480.961304 
	C560.189575,477.918884 570.595032,474.860077 581.364624,471.743622 
	C583.837585,471.139740 585.946411,470.593506 588.055237,470.047272 
z"/>
<path fill="#96F492" opacity="1.000000" stroke="none" 
	d="
M182.627716,535.046631 
	C183.683334,535.715332 184.952393,537.321228 185.105530,537.221069 
	C186.743896,536.149475 188.205688,534.807922 189.995224,533.306091 
	C190.444550,533.848083 191.410339,535.013000 192.737137,536.613403 
	C192.977768,534.556824 193.155869,533.034729 193.325333,531.586426 
	C203.307587,530.347900 204.939041,531.139832 206.900299,538.462646 
	C203.678055,542.916687 200.275177,546.809204 196.588654,550.901611 
	C193.537018,554.391235 190.769028,557.681030 187.746582,560.847412 
	C187.065628,560.449646 186.639175,560.175354 186.212708,559.901062 
	C186.210754,560.630432 186.208801,561.359802 186.175644,562.108704 
	C186.144424,562.128235 186.089890,562.177734 185.812027,562.277466 
	C185.384705,562.928589 185.235245,563.479980 185.063858,564.033142 
	C185.041946,564.034912 185.042114,564.078918 184.814774,564.158691 
	C184.296341,564.429504 184.140594,564.698853 184.100952,565.066528 
	C184.081726,565.086548 184.073914,565.141479 184.073914,565.141479 
	C180.481506,561.395447 175.884918,561.821716 171.700104,563.020569 
	C167.685379,564.170776 166.457642,562.988403 166.190521,559.124878 
	C171.406677,551.036743 176.864853,543.114197 182.627716,535.046631 
z"/>
<path fill="#FECF34" opacity="1.000000" stroke="none" 
	d="
M142.859528,689.839111 
	C143.097565,693.360413 140.964371,696.979431 143.526077,700.654541 
	C137.053955,714.549988 129.315460,727.809143 123.904770,741.958435 
	C116.764343,760.630981 111.449837,780.001709 105.118591,798.954773 
	C106.467918,790.760742 107.494843,782.526001 109.745644,774.640686 
	C114.409462,758.301758 119.723709,742.148438 124.912636,725.611084 
	C125.103531,724.858948 125.152290,724.414551 125.249046,723.774597 
	C125.297043,723.579041 125.401871,723.190186 125.621765,722.926880 
	C126.675835,720.883057 127.442619,719.067139 128.355438,717.327820 
	C133.169830,708.154236 138.021088,699.000061 142.859528,689.839111 
z"/>
<path fill="#A20411" opacity="1.000000" stroke="none" 
	d="
M697.334961,417.111115 
	C697.783752,416.370544 698.566895,415.706451 699.660522,414.965271 
	C699.203796,415.654663 698.436584,416.421143 697.334961,417.111115 
z"/>
<path fill="#503AB8" opacity="1.000000" stroke="none" 
	d="
M728.589111,239.048889 
	C728.719788,239.554886 728.592224,240.222809 728.143494,240.868042 
	C727.991821,240.300507 728.161377,239.755676 728.589111,239.048889 
z"/>
<path fill="#2EAFD7" opacity="1.000000" stroke="none" 
	d="
M373.553925,400.587341 
	C373.120514,400.969208 372.351593,401.442139 371.198792,401.853119 
	C371.616058,401.420258 372.417236,401.049316 373.553925,400.587341 
z"/>
<path fill="#FFFFFF" opacity="1.000000" stroke="none" 
	d="
M869.539001,810.612549 
	C869.740295,810.890503 869.520813,811.364746 869.092529,812.173157 
	C868.961975,811.941162 869.040100,811.375061 869.539001,810.612549 
z"/>
<path fill="#6049C3" opacity="1.000000" stroke="none" 
	d="
M716.756958,250.165741 
	C717.082153,250.137573 717.279968,250.317474 717.455505,250.516891 
	C717.464294,250.526810 717.279663,250.706848 716.973328,250.832855 
	C716.761536,250.858032 716.625061,250.377716 716.756958,250.165741 
z"/>
<path fill="#96F492" opacity="1.000000" stroke="none" 
	d="
M183.980316,533.226074 
	C184.248627,533.196594 184.414444,533.386353 184.537308,533.600769 
	C184.555679,533.632874 184.372406,533.780457 184.090393,533.918701 
	C183.886902,533.792969 183.875412,533.623169 183.980316,533.226074 
z"/>
<path fill="#96F492" opacity="1.000000" stroke="none" 
	d="
M183.682098,533.947693 
	C183.782578,534.216370 183.590851,534.513306 183.136734,534.888733 
	C183.046188,534.636780 183.218018,534.306396 183.682098,533.947693 
z"/>
<path fill="#472EA9" opacity="1.000000" stroke="none" 
	d="
M748.661377,216.940292 
	C748.765930,217.204849 748.580078,217.480972 748.159302,217.855225 
	C748.073120,217.619537 748.222046,217.285706 748.661377,216.940292 
z"/>
<path fill="#472EA9" opacity="1.000000" stroke="none" 
	d="
M748.778748,216.155640 
	C748.996582,216.190857 749.134705,216.490448 749.076660,216.865829 
	C748.820068,216.767746 748.759521,216.593887 748.778748,216.155640 
z"/>
<path fill="#9A48DE" opacity="1.000000" stroke="none" 
	d="
M759.270203,246.927444 
	C760.228333,244.206558 761.540771,241.456604 763.041016,238.414948 
	C762.027405,241.048294 760.825989,243.973328 759.270203,246.927444 
z"/>
<path fill="#FD689B" opacity="1.000000" stroke="none" 
	d="
M432.002625,506.995117 
	C432.002625,506.995117 432.498901,506.985382 432.747009,506.988068 
	C433.858337,508.664215 434.648804,511.723602 435.597260,511.773407 
	C439.912292,511.999847 441.881073,514.424805 443.110748,518.457947 
	C446.245636,517.974915 449.249023,517.512207 452.656189,517.019775 
	C451.809906,521.786255 456.737183,517.878601 457.675903,520.148254 
	C457.921082,520.741028 461.753113,519.216309 459.759338,522.630310 
	C461.444611,523.572876 463.175995,524.443237 464.800873,525.480469 
	C466.145142,526.338562 468.325195,527.262756 468.477722,528.383240 
	C469.305511,534.466248 472.870697,534.370728 476.242462,533.244324 
	C479.259155,537.038330 482.083862,540.453735 484.710052,544.015503 
	C485.203827,544.685181 484.905701,545.938721 484.947693,547.250854 
	C471.565247,549.057800 458.208130,550.536743 444.419708,551.648315 
	C444.063843,550.110535 444.139252,548.940063 444.214691,547.769653 
	C443.964355,547.731689 443.714050,547.693787 443.463745,547.655884 
	C443.166168,548.486328 442.868591,549.316772 442.598511,550.070557 
	C440.443909,545.851135 438.286316,541.625793 435.915833,536.983582 
	C435.335205,538.232117 434.902435,539.162720 434.391266,540.261841 
	C433.566437,533.670105 431.832733,532.464111 425.838623,534.104370 
	C423.175568,529.379150 416.461334,528.032593 416.002991,522.167542 
	C414.589417,522.466003 412.855774,523.227173 412.536560,522.835571 
	C410.391327,520.203491 408.915985,521.903198 406.775177,522.905457 
	C405.307434,523.592712 403.030090,522.550720 401.018677,522.268250 
	C401.031860,522.159668 400.913696,523.132202 400.811066,523.976685 
	C399.672699,523.042114 398.550842,522.121094 397.262482,521.063477 
	C396.590515,522.701660 396.202698,523.647095 395.646912,525.002014 
	C392.763306,522.029968 390.698303,522.949341 387.573700,524.494385 
	C383.877441,526.322144 378.729126,527.509155 374.982391,526.389709 
	C369.638824,524.793091 366.544342,524.429871 362.743225,529.121094 
	C360.984924,529.748535 359.471710,530.229858 358.059387,530.679138 
	C357.585846,528.815918 357.279480,527.610535 356.606232,524.961609 
	C355.473267,527.677612 354.975372,528.871155 354.413544,530.217896 
	C354.073334,529.239868 353.817169,528.503479 353.518188,527.644104 
	C353.111359,528.538879 352.775299,529.278015 352.275543,530.377075 
	C352.028168,528.618469 351.849792,527.350586 351.671417,526.082703 
	C351.448578,526.104309 351.225708,526.125916 351.002838,526.147522 
	C351.002838,527.778320 351.002838,529.409119 351.002838,531.039978 
	C350.779480,531.067017 350.556122,531.094116 350.332794,531.121216 
	C350.117371,530.016663 349.901978,528.912109 349.489594,526.797546 
	C348.657776,529.319092 348.163208,530.818237 347.629059,532.437500 
	C346.283417,530.052917 345.142365,528.030823 344.334137,525.872498 
	C349.030853,524.193176 353.327820,522.415100 357.770874,521.150269 
	C372.191193,517.045044 386.665039,513.127808 401.531860,509.107788 
	C408.543121,508.019348 415.140717,506.961334 421.968079,506.190155 
	C424.474640,506.318176 426.751495,506.159332 429.253784,506.016174 
	C429.479248,506.031830 429.930756,506.052917 429.930756,506.052917 
	C429.930756,506.052917 429.984222,506.540710 430.118225,507.035461 
	C430.835724,507.351868 431.419159,507.173492 432.002625,506.995117 
M426.404358,530.487671 
	C426.404358,530.487671 426.524231,530.413086 426.404358,530.487671 
z"/>
<path fill="#FCDBBC" opacity="1.000000" stroke="none" 
	d="
M196.872284,550.701782 
	C200.275177,546.809204 203.678055,542.916687 207.197601,538.725647 
	C207.314255,538.427185 207.319229,538.324890 207.623459,538.210205 
	C208.967743,537.071838 210.007812,536.048157 211.047882,535.024475 
	C219.645737,527.259705 228.243607,519.494995 237.031860,511.457153 
	C248.563614,503.142120 259.904968,495.100189 271.933716,487.069336 
	C273.714325,488.005676 274.807556,488.930878 276.002686,489.942291 
	C277.319946,489.025391 278.485870,488.213867 280.338562,486.924316 
	C282.154877,494.628632 288.435791,494.254211 294.013184,495.476746 
	C298.636810,496.490265 302.918396,502.831360 302.652679,507.003998 
	C310.703125,511.935303 320.661133,512.405701 328.285950,518.606506 
	C327.073608,520.271118 326.311462,521.317566 325.716827,522.134094 
	C327.138153,523.885315 328.413513,525.456665 329.430328,526.709473 
	C330.331207,525.932129 331.244507,525.144104 332.157806,524.356079 
	C332.776184,525.897949 333.394562,527.439758 333.687378,529.138062 
	C313.756805,538.284119 293.892303,546.758667 274.642029,556.452698 
	C262.705017,562.463989 251.700089,570.325989 240.236710,577.381958 
	C241.402145,578.668213 242.024139,579.354675 242.505402,579.885803 
	C243.788391,578.909424 245.245743,577.800415 246.732208,576.669189 
	C247.917694,578.340820 248.711441,579.460083 249.182175,580.123840 
	C250.048691,577.827881 250.696213,576.112122 251.343750,574.396423 
	C252.872864,575.570801 254.401962,576.745239 255.626572,577.685791 
	C259.686951,575.978577 264.093536,574.036377 268.595490,572.348511 
	C269.145477,572.142334 270.207031,573.300598 271.031555,573.826599 
	C264.724274,576.657715 258.416992,579.488831 251.883026,582.607605 
	C242.613068,587.896118 233.569763,592.896973 224.247879,598.130310 
	C223.969299,598.362793 223.974930,598.066040 223.832581,597.699829 
	C223.331451,597.110779 222.972656,596.887878 222.613876,596.664978 
	C222.436920,597.157043 222.259933,597.649170 222.082947,598.141235 
	C222.082947,598.141235 222.027618,598.066467 221.768616,598.070801 
	C220.026382,598.438171 218.543167,598.801270 217.059952,599.164429 
	C216.677826,598.772095 216.295715,598.379822 215.913589,597.987549 
	C219.206848,594.595764 222.500092,591.203979 226.025696,587.572937 
	C223.641968,585.535828 221.532043,583.732727 220.242752,582.630859 
	C218.981918,575.260498 218.014221,568.306519 216.392822,561.508362 
	C216.146347,560.474915 212.890701,559.774719 210.982498,559.660278 
	C209.755997,559.586670 208.448257,560.866577 207.176926,561.539795 
	C207.557831,561.039001 207.938736,560.538208 208.319641,560.037415 
	C204.503860,556.925537 200.688080,553.813660 196.872284,550.701782 
z"/>
<path fill="#FBCEBD" opacity="1.000000" stroke="none" 
	d="
M334.012909,528.981628 
	C333.394562,527.439758 332.776184,525.897949 332.157806,524.356079 
	C331.244507,525.144104 330.331207,525.932129 329.430328,526.709473 
	C328.413513,525.456665 327.138153,523.885315 325.716827,522.134094 
	C326.311462,521.317566 327.073608,520.271118 328.285950,518.606506 
	C320.661133,512.405701 310.703125,511.935303 302.652679,507.003998 
	C302.918396,502.831360 298.636810,496.490265 294.013184,495.476746 
	C288.435791,494.254211 282.154877,494.628632 280.338562,486.924316 
	C278.485870,488.213867 277.319946,489.025391 276.002686,489.942291 
	C274.807556,488.930878 273.714325,488.005676 272.284912,487.028870 
	C277.177704,483.617523 282.406677,480.257751 288.173126,476.528625 
	C289.822266,475.461761 290.933929,474.764191 292.045593,474.066650 
	C292.045593,474.066681 292.084320,474.109253 292.112518,474.115906 
	C298.538025,470.874268 304.935303,467.625977 311.668030,464.667236 
	C312.753845,466.163055 313.234344,467.765564 314.308197,468.496918 
	C316.910461,470.269135 320.874786,470.977631 322.296356,473.323181 
	C324.320038,476.662201 326.291687,477.576691 329.822662,477.085571 
	C331.369324,476.870422 333.063019,477.481323 334.654510,477.864410 
	C338.821777,478.867462 343.043732,479.728973 347.099396,481.080444 
	C349.871033,482.004059 352.399902,483.656158 354.998383,484.962952 
	C354.831573,485.388855 355.114899,484.665527 355.397369,483.944336 
	C358.155334,486.902985 361.174744,488.659088 365.506866,488.219452 
	C369.651733,487.798920 374.952148,488.565430 376.181091,492.404785 
	C377.666901,497.046448 379.065521,500.112610 383.701843,502.570496 
	C388.963654,505.359955 392.708344,511.451752 400.018036,508.235199 
	C400.214294,508.148834 400.744019,508.820190 401.118256,509.138184 
	C386.665039,513.127808 372.191193,517.045044 357.770874,521.150269 
	C353.327820,522.415100 349.030853,524.193176 343.950073,525.874939 
	C340.159760,527.002991 337.086334,527.992310 334.012909,528.981628 
z"/>
<path fill="#2EAFD7" opacity="1.000000" stroke="none" 
	d="
M291.674622,474.036987 
	C290.933929,474.764191 289.822266,475.461761 288.383087,476.272156 
	C289.138275,475.592499 290.220978,474.799927 291.674622,474.036987 
z"/>
<path fill="#D148DC" opacity="1.000000" stroke="none" 
	d="
M685.026733,423.958252 
	C677.395142,428.864441 669.585571,433.431030 661.219299,437.783813 
	C657.607666,438.867981 654.552734,440.165985 650.492493,441.891083 
	C650.366272,439.174866 650.100952,436.689026 650.181396,434.214417 
	C650.250610,432.084412 651.015137,429.956024 650.936584,427.846863 
	C650.799988,424.181427 649.896362,420.525970 649.951538,416.875916 
	C650.050171,410.360504 650.671753,403.854462 650.974426,397.339874 
	C651.101929,394.596405 650.965942,391.841125 650.964905,389.091217 
	C650.963257,384.510406 651.101257,379.925171 650.941223,375.350159 
	C650.799194,371.288055 649.842468,367.202667 650.126648,363.189941 
	C650.522156,357.604370 650.302979,351.324402 657.523865,349.108307 
	C657.865906,349.003326 657.849426,347.730286 657.999878,347.001221 
	C666.409729,341.636017 674.819519,336.270782 683.558411,330.770111 
	C683.482239,332.568024 683.594543,334.851837 682.569458,336.365387 
	C680.045898,340.091644 678.712891,343.361267 683.023315,346.689453 
	C683.486572,347.047119 683.674377,348.255463 683.471130,348.907410 
	C680.894531,357.171906 683.285156,365.047211 684.687866,373.162415 
	C686.212036,381.980103 685.835266,390.887543 680.828491,399.042755 
	C679.748718,400.801544 679.652954,403.648621 680.112732,405.776428 
	C681.410767,411.784454 683.232971,417.679230 685.026733,423.958252 
z"/>
<path fill="#472EA9" opacity="1.000000" stroke="none" 
	d="
M699.231689,317.819550 
	C699.021973,317.782074 698.875916,317.497681 698.932129,317.151001 
	C699.188110,317.250031 699.241699,317.411346 699.231689,317.819550 
z"/>
<path fill="#FEF6E1" opacity="1.000000" stroke="none" 
	d="
M180.321289,633.564636 
	C177.212036,637.749939 174.045776,641.894226 171.004913,646.128601 
	C163.764633,656.210510 156.583633,666.334961 148.939850,676.566467 
	C147.984070,676.675049 147.205505,676.432373 146.991196,676.679321 
	C145.125565,678.828918 143.361069,681.066284 141.988983,682.756958 
	C139.063385,681.636719 136.495895,679.753235 135.365784,680.396179 
	C132.431641,682.065552 129.774841,681.212341 126.969612,680.979065 
	C131.700104,667.194946 136.025757,653.254883 141.261368,639.665344 
	C148.132080,621.831787 157.540192,605.233093 167.950989,589.230042 
	C171.919769,583.129395 176.244507,577.260315 180.709183,571.494873 
	C181.449417,572.737976 181.617233,574.067993 182.371063,574.756042 
	C186.179962,578.232727 188.244324,582.105042 185.633774,587.151794 
	C187.666794,587.900818 190.305740,588.084961 190.768799,589.185059 
	C192.450592,593.180420 193.397659,597.484375 194.634109,601.668335 
	C195.164886,603.464417 195.725708,605.251587 196.272873,607.042847 
	C196.738159,606.935486 197.203430,606.828125 197.668701,606.720764 
	C197.229568,609.175720 197.579468,612.268005 196.206055,613.968445 
	C191.759018,619.474304 186.621796,624.417847 181.895462,629.707581 
	C181.023712,630.683228 180.828644,632.263428 180.321289,633.564636 
z"/>
<path fill="#FDEFD0" opacity="1.000000" stroke="none" 
	d="
M180.667496,633.503357 
	C180.828644,632.263428 181.023712,630.683228 181.895462,629.707581 
	C186.621796,624.417847 191.759018,619.474304 196.206055,613.968445 
	C197.579468,612.268005 197.229568,609.175720 197.668701,606.720764 
	C197.203430,606.828125 196.738159,606.935486 196.272873,607.042847 
	C195.725708,605.251587 195.164886,603.464417 194.634109,601.668335 
	C193.397659,597.484375 192.450592,593.180420 190.768799,589.185059 
	C190.305740,588.084961 187.666794,587.900818 185.633774,587.151794 
	C188.244324,582.105042 186.179962,578.232727 182.371063,574.756042 
	C181.617233,574.067993 181.449417,572.737976 181.007431,571.331177 
	C181.992218,569.236267 182.980927,567.514160 184.021774,565.466736 
	C184.073914,565.141479 184.081726,565.086548 184.303528,564.957764 
	C184.779343,564.635315 184.951599,564.385254 185.042114,564.078918 
	C185.042114,564.078918 185.041946,564.034912 185.289749,563.872192 
	C185.721664,563.198914 185.905777,562.688354 186.089874,562.177734 
	C186.089890,562.177734 186.144424,562.128235 186.450012,562.065918 
	C187.170731,561.659302 187.585876,561.315063 188.001038,560.970825 
	C190.769028,557.681030 193.537018,554.391235 196.588654,550.901611 
	C200.688080,553.813660 204.503860,556.925537 208.319641,560.037415 
	C207.938736,560.538208 207.557831,561.039001 207.176926,561.539795 
	C208.448257,560.866577 209.755997,559.586670 210.982498,559.660278 
	C212.890701,559.774719 216.146347,560.474915 216.392822,561.508362 
	C218.014221,568.306519 218.981918,575.260498 220.242752,582.630859 
	C221.532043,583.732727 223.641968,585.535828 226.025696,587.572937 
	C222.500092,591.203979 219.206848,594.595764 215.913589,597.987549 
	C216.295715,598.379822 216.677826,598.772095 217.059952,599.164429 
	C218.543167,598.801270 220.026382,598.438171 221.814880,598.075195 
	C218.101959,601.382568 214.053970,604.654419 210.073853,608.006714 
	C206.030930,611.411865 202.054886,614.896362 197.841644,618.629150 
	C193.630524,622.556213 189.652695,626.228760 185.610580,629.829102 
	C184.158005,631.122925 182.550522,632.242859 180.667496,633.503357 
z"/>
<path fill="#FDEFD0" opacity="1.000000" stroke="none" 
	d="
M126.698425,681.214661 
	C129.774841,681.212341 132.431641,682.065552 135.365784,680.396179 
	C136.495895,679.753235 139.063385,681.636719 141.988983,682.756958 
	C143.361069,681.066284 145.125565,678.828918 146.991196,676.679321 
	C147.205505,676.432373 147.984070,676.675049 148.737228,676.837769 
	C147.058136,680.448975 145.142822,683.913025 143.044464,688.027588 
	C142.878830,689.110474 142.896225,689.542908 142.913620,689.975281 
	C142.913620,689.975281 142.932846,689.888977 142.896179,689.864014 
	C138.021088,699.000061 133.169830,708.154236 128.355438,717.327820 
	C127.442619,719.067139 126.675835,720.883057 125.386147,722.915466 
	C124.807068,723.254639 124.683502,723.341980 124.559952,723.429321 
	C124.773643,723.609619 124.987335,723.789917 125.201035,723.970154 
	C125.152290,724.414551 125.103531,724.858948 124.912628,725.611084 
	C124.010651,726.136597 122.755318,726.149536 122.567520,726.603699 
	C120.660484,731.216858 118.927521,735.901978 116.915863,741.168884 
	C115.604469,739.953735 114.350830,738.792114 113.044312,737.302490 
	C114.392441,729.270264 115.401093,721.468323 117.287994,713.885010 
	C119.998947,702.989990 123.349648,692.254089 126.698425,681.214661 
M114.600899,737.521484 
	C114.600899,737.521484 114.472870,737.602112 114.600899,737.521484 
M119.399101,731.481079 
	C119.399101,731.481079 119.526924,731.401855 119.399101,731.481079 
M124.483673,721.606750 
	C124.483673,721.606750 124.403137,721.478577 124.483673,721.606750 
z"/>
<path fill="#FF9B85" opacity="1.000000" stroke="none" 
	d="
M333.687378,529.138062 
	C337.086334,527.992310 340.159760,527.002991 343.617249,526.011230 
	C345.142365,528.030823 346.283417,530.052917 347.629059,532.437500 
	C348.163208,530.818237 348.657776,529.319092 349.489594,526.797546 
	C349.901978,528.912109 350.117371,530.016663 350.332794,531.121216 
	C350.556122,531.094116 350.779480,531.067017 351.002838,531.039978 
	C351.002838,529.409119 351.002838,527.778320 351.002838,526.147522 
	C351.225708,526.125916 351.448578,526.104309 351.671417,526.082703 
	C351.849792,527.350586 352.028168,528.618469 352.275543,530.377075 
	C352.775299,529.278015 353.111359,528.538879 353.518188,527.644104 
	C353.817169,528.503479 354.073334,529.239868 354.413544,530.217896 
	C354.975372,528.871155 355.473267,527.677612 356.606232,524.961609 
	C357.279480,527.610535 357.585846,528.815918 358.059387,530.679138 
	C359.471710,530.229858 360.984924,529.748535 362.757874,529.373962 
	C370.158508,533.167664 377.299347,536.854553 384.405090,540.523315 
	C390.342255,535.786499 394.605774,536.307251 397.524689,541.863525 
	C398.423248,540.847107 399.375427,539.770020 400.375763,538.638489 
	C406.293488,543.238037 412.310638,547.495239 414.940216,554.816772 
	C397.255432,555.579407 379.552399,556.054199 361.890045,557.171387 
	C334.698181,558.891296 307.619354,561.550598 281.359161,570.983765 
	C277.943420,572.084167 274.855042,573.002991 271.399109,573.874268 
	C270.207031,573.300598 269.145477,572.142334 268.595490,572.348511 
	C264.093536,574.036377 259.686951,575.978577 255.626572,577.685791 
	C254.401962,576.745239 252.872864,575.570801 251.343750,574.396423 
	C250.696213,576.112122 250.048691,577.827881 249.182175,580.123840 
	C248.711441,579.460083 247.917694,578.340820 246.732208,576.669189 
	C245.245743,577.800415 243.788391,578.909424 242.505402,579.885803 
	C242.024139,579.354675 241.402145,578.668213 240.236710,577.381958 
	C251.700089,570.325989 262.705017,562.463989 274.642029,556.452698 
	C293.892303,546.758667 313.756805,538.284119 333.687378,529.138062 
z"/>
<path fill="#FE8490" opacity="1.000000" stroke="none" 
	d="
M415.316895,554.863403 
	C412.310638,547.495239 406.293488,543.238037 400.375763,538.638489 
	C399.375427,539.770020 398.423248,540.847107 397.524689,541.863525 
	C394.605774,536.307251 390.342255,535.786499 384.405090,540.523315 
	C377.299347,536.854553 370.158508,533.167664 363.002991,529.227905 
	C366.544342,524.429871 369.638824,524.793091 374.982391,526.389709 
	C378.729126,527.509155 383.877441,526.322144 387.573700,524.494385 
	C390.698303,522.949341 392.763306,522.029968 395.646912,525.002014 
	C396.202698,523.647095 396.590515,522.701660 397.262482,521.063477 
	C398.550842,522.121094 399.672699,523.042114 400.811066,523.976685 
	C400.913696,523.132202 401.031860,522.159668 401.018677,522.268250 
	C403.030090,522.550720 405.307434,523.592712 406.775177,522.905457 
	C408.915985,521.903198 410.391327,520.203491 412.536560,522.835571 
	C412.855774,523.227173 414.589417,522.466003 416.002991,522.167542 
	C416.461334,528.032593 423.175568,529.379150 425.838623,534.104370 
	C431.832733,532.464111 433.566437,533.670105 434.391266,540.261841 
	C434.902435,539.162720 435.335205,538.232117 435.915833,536.983582 
	C438.286316,541.625793 440.443909,545.851135 442.598511,550.070557 
	C442.868591,549.316772 443.166168,548.486328 443.463745,547.655884 
	C443.714050,547.693787 443.964355,547.731689 444.214691,547.769653 
	C444.139252,548.940063 444.063843,550.110535 443.974182,551.611694 
	C443.959930,551.942505 443.574036,552.052490 443.005341,552.035767 
	C441.316223,552.262268 440.195770,552.505432 439.075348,552.748657 
	C431.281433,553.469116 423.487518,554.189575 415.316895,554.863403 
z"/>
<path fill="#FD689B" opacity="1.000000" stroke="none" 
	d="
M439.434387,552.803833 
	C440.195770,552.505432 441.316223,552.262268 442.804749,552.032776 
	C442.046356,552.317322 440.919891,552.588135 439.434387,552.803833 
z"/>
<path fill="#FABFC0" opacity="1.000000" stroke="none" 
	d="
M401.531860,509.107788 
	C400.744019,508.820190 400.214294,508.148834 400.018036,508.235199 
	C392.708344,511.451752 388.963654,505.359955 383.701843,502.570496 
	C379.065521,500.112610 377.666901,497.046448 376.181091,492.404785 
	C374.952148,488.565430 369.651733,487.798920 365.506866,488.219452 
	C361.174744,488.659088 358.155334,486.902985 355.397369,483.944336 
	C355.114899,484.665527 354.831573,485.388855 354.998383,484.962952 
	C352.399902,483.656158 349.871033,482.004059 347.099396,481.080444 
	C343.043732,479.728973 338.821777,478.867462 334.654510,477.864410 
	C333.063019,477.481323 331.369324,476.870422 329.822662,477.085571 
	C326.291687,477.576691 324.320038,476.662201 322.296356,473.323181 
	C320.874786,470.977631 316.910461,470.269135 314.308197,468.496918 
	C313.234344,467.765564 312.753845,466.163055 312.006775,464.600220 
	C321.130402,459.946014 330.250763,455.648376 339.916260,451.593658 
	C341.842407,452.250916 343.256317,452.580109 344.597076,453.098663 
	C346.858704,453.973297 349.070801,454.975464 351.309357,455.910522 
	C356.463623,458.063629 361.606415,460.246826 366.810608,462.271973 
	C367.163116,462.409149 367.988403,461.331360 368.736847,460.697479 
	C368.943756,461.958008 369.121063,463.038147 369.497650,465.332062 
	C369.897339,463.061310 370.083984,462.000854 370.048676,462.201569 
	C374.875793,465.069031 379.910645,468.059845 385.316681,471.271210 
	C385.752319,469.480164 386.044678,468.278198 386.593048,466.023804 
	C386.925690,468.115204 387.076813,469.065399 387.287964,470.393066 
	C389.503357,466.324432 391.446411,468.526398 392.857086,470.485718 
	C395.383392,473.994720 397.580078,477.262115 402.697632,477.702789 
	C404.410370,477.850281 405.799194,481.465424 407.391205,483.451263 
	C408.048370,484.270966 408.729462,485.420288 409.606445,485.658539 
	C415.383850,487.228149 419.795258,490.418213 422.476624,496.687164 
	C423.438965,494.997681 424.006836,494.000793 424.325287,493.441742 
	C426.000366,495.873962 427.788910,498.470947 429.709167,501.259125 
	C429.926575,500.027374 430.116180,498.953156 430.519318,496.669464 
	C430.896637,498.958130 431.074188,500.035004 431.320251,501.527283 
	C431.832977,500.401794 432.163788,499.675659 432.544220,498.840515 
	C433.159698,500.520355 433.667236,501.905701 434.174805,503.291016 
	C433.647705,503.534698 433.120605,503.778381 431.917908,504.045166 
	C429.810425,504.366974 428.378540,504.665649 426.715515,504.966003 
	C426.484344,504.967712 426.027863,505.040680 425.666321,505.003510 
	C424.192474,505.248322 423.080170,505.530273 421.909790,505.833313 
	C421.851746,505.854401 421.738342,505.903320 421.738342,505.903320 
	C415.140717,506.961334 408.543121,508.019348 401.531860,509.107788 
z"/>
<path fill="#F9B0C3" opacity="1.000000" stroke="none" 
	d="
M434.594604,503.262024 
	C433.667236,501.905701 433.159698,500.520355 432.544220,498.840515 
	C432.163788,499.675659 431.832977,500.401794 431.320251,501.527283 
	C431.074188,500.035004 430.896637,498.958130 430.519318,496.669464 
	C430.116180,498.953156 429.926575,500.027374 429.709167,501.259125 
	C427.788910,498.470947 426.000366,495.873962 424.325287,493.441742 
	C424.006836,494.000793 423.438965,494.997681 422.476624,496.687164 
	C419.795258,490.418213 415.383850,487.228149 409.606445,485.658539 
	C408.729462,485.420288 408.048370,484.270966 407.391205,483.451263 
	C405.799194,481.465424 404.410370,477.850281 402.697632,477.702789 
	C397.580078,477.262115 395.383392,473.994720 392.857086,470.485718 
	C391.446411,468.526398 389.503357,466.324432 387.287964,470.393066 
	C387.076813,469.065399 386.925690,468.115204 386.593048,466.023804 
	C386.044678,468.278198 385.752319,469.480164 385.316681,471.271210 
	C379.910645,468.059845 374.875793,465.069031 370.048676,462.201569 
	C370.083984,462.000854 369.897339,463.061310 369.497650,465.332062 
	C369.121063,463.038147 368.943756,461.958008 368.736847,460.697479 
	C367.988403,461.331360 367.163116,462.409149 366.810608,462.271973 
	C361.606415,460.246826 356.463623,458.063629 351.309357,455.910522 
	C349.070801,454.975464 346.858704,453.973297 344.597076,453.098663 
	C343.256317,452.580109 341.842407,452.250916 340.268494,451.535156 
	C351.805054,446.520447 363.534546,441.807190 375.797150,437.376740 
	C379.450867,439.767365 382.571411,441.875153 385.691315,443.982513 
	C385.927094,443.292297 386.175476,442.565155 386.541199,441.494476 
	C386.844574,442.601685 387.054779,443.368896 387.068634,443.419495 
	C392.028778,441.867981 395.404785,443.464722 397.742096,448.549347 
	C397.941528,446.943176 398.061646,445.976013 398.131836,445.410797 
	C399.172516,446.012695 400.304352,446.449646 401.160309,447.200928 
	C404.444580,450.083557 407.524902,453.208191 410.903046,455.971405 
	C413.994720,458.500244 417.115417,461.243988 420.688690,462.871063 
	C425.274078,464.958984 430.259399,465.885590 433.074738,470.896362 
	C434.595917,473.603821 436.721771,477.136810 439.264160,477.854095 
	C444.039490,479.201416 446.518433,482.305420 449.050507,485.875610 
	C449.480652,486.482147 450.337341,486.838745 451.060242,487.174530 
	C452.782562,487.974548 455.216400,488.218384 456.149139,489.542084 
	C458.173737,492.415405 459.439209,495.823608 461.015015,499.013184 
	C452.348145,500.419800 443.681274,501.826416 434.594604,503.262024 
M434.482666,500.591644 
	C434.482666,500.591644 434.414703,500.478271 434.482666,500.591644 
M382.482574,466.590851 
	C382.482574,466.590851 382.414673,466.476990 382.482574,466.590851 
z"/>
<path fill="#F48FCB" opacity="1.000000" stroke="none" 
	d="
M492.055298,493.839294 
	C491.304871,493.943451 490.554474,494.047577 489.379700,493.774109 
	C481.965363,486.095367 475.031891,478.738892 467.960938,471.517029 
	C464.542480,468.025635 460.354248,465.166962 457.484192,461.301849 
	C455.543457,458.688202 455.420624,454.763489 450.578674,456.765900 
	C450.051910,456.983734 448.778595,455.669189 447.985718,454.922882 
	C444.723145,451.851959 441.629120,448.591187 438.246338,445.662109 
	C435.452850,443.243286 432.200500,441.353851 429.411621,438.930450 
	C426.981323,436.818634 425.039215,433.961670 421.520111,435.799286 
	C419.302094,431.798218 417.136230,427.891205 414.970367,423.984192 
	C424.061432,421.022095 433.152496,418.060028 442.954071,415.031677 
	C444.105804,414.960876 444.546997,414.956299 445.024597,415.306244 
	C447.639221,418.052155 450.247589,420.412292 452.778717,422.852509 
	C453.621185,423.664734 454.286591,424.666656 454.995422,425.610016 
	C455.921448,426.842468 456.739014,428.163239 457.732849,429.336212 
	C458.996033,430.826965 460.408142,432.190491 461.721558,433.640076 
	C463.459442,435.558044 465.163940,437.506287 466.882782,439.441528 
	C467.133911,439.246277 467.385071,439.050995 467.636230,438.855743 
	C467.930725,440.438721 468.225220,442.021698 468.498413,443.490265 
	C470.716827,443.922455 473.288208,443.646790 474.412109,444.791870 
	C477.458649,447.895752 479.799011,451.679382 482.606842,455.036682 
	C483.946838,456.638916 485.112762,459.386261 488.171967,456.789886 
	C488.671082,456.366333 492.007233,457.839783 492.056763,458.570435 
	C492.344635,462.814270 497.400818,463.568024 498.087158,467.350922 
	C498.115204,467.505615 498.961060,467.418335 499.325439,467.622772 
	C500.513306,468.289185 501.841553,468.857025 502.763062,469.805542 
	C503.753113,470.824524 504.199677,472.354797 505.134399,473.447205 
	C509.440155,478.479462 513.833496,483.436768 518.195435,488.420959 
	C511.372528,489.873230 504.549622,491.325500 497.248413,492.667053 
	C496.521576,492.672119 496.273071,492.787842 496.024536,492.903564 
	C495.386353,493.015564 494.748169,493.127563 493.509918,493.198364 
	C492.625000,493.384552 492.340149,493.611938 492.055298,493.839294 
z"/>
<path fill="#F6A0C7" opacity="1.000000" stroke="none" 
	d="
M414.576111,423.988098 
	C417.136230,427.891205 419.302094,431.798218 421.520111,435.799286 
	C425.039215,433.961670 426.981323,436.818634 429.411621,438.930450 
	C432.200500,441.353851 435.452850,443.243286 438.246338,445.662109 
	C441.629120,448.591187 444.723145,451.851959 447.985718,454.922882 
	C448.778595,455.669189 450.051910,456.983734 450.578674,456.765900 
	C455.420624,454.763489 455.543457,458.688202 457.484192,461.301849 
	C460.354248,465.166962 464.542480,468.025635 467.960938,471.517029 
	C475.031891,478.738892 481.965363,486.095367 489.000488,493.760315 
	C479.975189,495.763092 470.904755,497.402039 461.424683,499.027069 
	C459.439209,495.823608 458.173737,492.415405 456.149139,489.542084 
	C455.216400,488.218384 452.782562,487.974548 451.060242,487.174530 
	C450.337341,486.838745 449.480652,486.482147 449.050507,485.875610 
	C446.518433,482.305420 444.039490,479.201416 439.264160,477.854095 
	C436.721771,477.136810 434.595917,473.603821 433.074738,470.896362 
	C430.259399,465.885590 425.274078,464.958984 420.688690,462.871063 
	C417.115417,461.243988 413.994720,458.500244 410.903046,455.971405 
	C407.524902,453.208191 404.444580,450.083557 401.160309,447.200928 
	C400.304352,446.449646 399.172516,446.012695 398.131836,445.410797 
	C398.061646,445.976013 397.941528,446.943176 397.742096,448.549347 
	C395.404785,443.464722 392.028778,441.867981 387.068634,443.419495 
	C387.054779,443.368896 386.844574,442.601685 386.541199,441.494476 
	C386.175476,442.565155 385.927094,443.292297 385.691315,443.982513 
	C382.571411,441.875153 379.450867,439.767365 376.174133,437.343872 
	C388.739258,432.682770 401.460571,428.337372 414.576111,423.988098 
z"/>
<path fill="#259FE3" opacity="1.000000" stroke="none" 
	d="
M444.988220,414.951752 
	C444.546997,414.956299 444.105804,414.960876 443.334076,414.946228 
	C443.256744,412.943085 443.509918,410.959167 443.763092,408.975220 
	C441.956238,409.694305 440.045776,410.230591 438.369720,411.180511 
	C436.432068,412.278656 434.700806,413.740997 432.615173,415.234894 
	C430.209900,414.878876 427.397369,414.462585 424.271881,413.993835 
	C433.157654,410.145050 442.356384,406.348694 451.784302,402.274841 
	C458.781494,399.311920 465.549500,396.626556 472.567383,394.220093 
	C471.299194,396.772400 469.781219,399.045807 468.055450,401.630371 
	C466.799652,400.701233 465.563507,399.786621 464.332062,398.874207 
	C463.511597,403.120667 463.511597,403.120667 472.723450,401.010773 
	C472.924835,402.040863 473.126923,403.074493 473.550720,405.242157 
	C473.921722,403.018890 474.104156,401.925659 474.451996,399.841278 
	C474.893677,401.992981 475.132843,403.158081 475.536713,405.125580 
	C476.889709,403.273804 477.754486,402.090210 478.366608,401.252441 
	C479.980591,402.210846 481.443695,403.079651 482.600403,404.110840 
	C480.780396,404.823944 479.266754,405.374664 477.364624,405.911377 
	C466.313477,408.915466 455.650848,411.933624 444.988220,414.951752 
z"/>
<path fill="#E457D8" opacity="1.000000" stroke="none" 
	d="
M588.335815,469.831726 
	C585.946411,470.593506 583.837585,471.139740 581.362915,471.451111 
	C580.475281,471.009827 579.968811,470.696259 579.428528,470.618591 
	C578.158386,470.435974 576.467163,470.849884 575.657715,470.172424 
	C570.216187,465.618317 567.236877,458.131531 559.214417,456.594757 
	C558.459229,456.450104 557.938782,455.146729 557.283264,454.404358 
	C552.510803,448.999878 547.740723,443.593201 542.916382,438.235382 
	C542.752075,438.052826 542.022400,438.379242 541.371643,438.503754 
	C541.138184,439.999115 540.908020,441.472931 540.677917,442.946747 
	C540.526550,442.927399 540.375122,442.908051 540.223755,442.888702 
	C540.057922,441.288971 539.892029,439.689270 539.624573,437.109528 
	C539.069153,439.105347 538.810059,440.036407 538.678406,440.509460 
	C537.890747,438.084412 537.694885,434.950775 536.081848,432.972778 
	C530.411682,426.019318 523.611572,419.910370 518.518250,412.591644 
	C515.364746,408.060333 508.415100,405.297852 510.077728,397.920990 
	C509.915466,397.885559 509.753174,397.850128 509.906860,397.576050 
	C517.130371,395.519623 524.038025,393.701843 530.945618,391.884064 
	C545.707886,388.258545 560.470154,384.633026 575.597656,380.890381 
	C584.345581,378.155518 592.728271,375.537781 601.481262,373.263489 
	C598.845276,375.104065 595.566467,376.248718 592.960388,378.263489 
	C591.842773,379.127533 591.382507,383.162750 591.886292,383.436920 
	C596.014038,385.683350 595.853699,389.863983 597.060913,393.423828 
	C599.170349,399.643829 601.293030,405.859314 603.397949,412.080780 
	C604.941772,416.643616 607.208008,421.123474 607.773804,425.806824 
	C608.261841,429.846283 608.656250,432.655518 611.923950,432.371887 
	C615.062622,436.376465 617.526306,439.519775 620.734497,443.612976 
	C619.971924,445.853546 618.746887,449.452972 617.829834,452.147430 
	C620.403992,453.004272 623.202576,453.935760 626.001099,454.867279 
	C613.993103,459.593750 601.984924,464.319916 589.977539,469.047943 
	C589.520142,469.228027 589.070007,469.426361 588.335815,469.831726 
z"/>
<path fill="#DB4BDB" opacity="1.000000" stroke="none" 
	d="
M626.368164,454.934265 
	C623.202576,453.935760 620.403992,453.004272 617.829834,452.147430 
	C618.746887,449.452972 619.971924,445.853546 620.734497,443.612976 
	C617.526306,439.519775 615.062622,436.376465 611.923950,432.371887 
	C608.656250,432.655518 608.261841,429.846283 607.773804,425.806824 
	C607.208008,421.123474 604.941772,416.643616 603.397949,412.080780 
	C601.293030,405.859314 599.170349,399.643829 597.060913,393.423828 
	C595.853699,389.863983 596.014038,385.683350 591.886292,383.436920 
	C591.382507,383.162750 591.842773,379.127533 592.960388,378.263489 
	C595.566467,376.248718 598.845276,375.104065 601.864929,373.233154 
	C601.878296,372.859375 601.929749,372.891541 602.136841,372.852966 
	C602.622437,372.672455 602.820251,372.456665 602.937317,372.166992 
	C603.250427,371.970612 603.563538,371.774231 604.038940,371.351562 
	C619.608887,364.421967 635.028809,357.746674 650.411255,350.986206 
	C652.807922,349.932892 655.033691,348.490814 657.669189,347.114868 
	C657.849426,347.730286 657.865906,349.003326 657.523865,349.108307 
	C650.302979,351.324402 650.522156,357.604370 650.126648,363.189941 
	C649.842468,367.202667 650.799194,371.288055 650.941223,375.350159 
	C651.101257,379.925171 650.963257,384.510406 650.964905,389.091217 
	C650.965942,391.841125 651.101929,394.596405 650.974426,397.339874 
	C650.671753,403.854462 650.050171,410.360504 649.951538,416.875916 
	C649.896362,420.525970 650.799988,424.181427 650.936584,427.846863 
	C651.015137,429.956024 650.250610,432.084412 650.181396,434.214417 
	C650.100952,436.689026 650.366272,439.174866 650.492493,441.891083 
	C654.552734,440.165985 657.607666,438.867981 660.856323,437.833282 
	C657.279785,440.310272 653.640991,442.798767 649.711243,444.678955 
	C642.139526,448.301514 634.403259,451.580078 626.368164,454.934265 
z"/>
<path fill="#E457D8" opacity="1.000000" stroke="none" 
	d="
M602.704956,372.201172 
	C602.820251,372.456665 602.622437,372.672455 602.129883,372.882446 
	C601.966003,372.606659 602.151611,372.368286 602.704956,372.201172 
z"/>
<path fill="#437EDE" opacity="1.000000" stroke="none" 
	d="
M530.817078,391.585022 
	C524.038025,393.701843 517.130371,395.519623 509.532959,397.587219 
	C500.197693,399.874146 491.552277,401.911316 482.906830,403.948486 
	C481.443695,403.079651 479.980591,402.210846 478.366608,401.252441 
	C477.754486,402.090210 476.889709,403.273804 475.536713,405.125580 
	C475.132843,403.158081 474.893677,401.992981 474.451996,399.841278 
	C474.104156,401.925659 473.921722,403.018890 473.550720,405.242157 
	C473.126923,403.074493 472.924835,402.040863 472.723450,401.010773 
	C463.511597,403.120667 463.511597,403.120667 464.332062,398.874207 
	C465.563507,399.786621 466.799652,400.701233 468.055450,401.630371 
	C469.781219,399.045807 471.299194,396.772400 472.955261,394.211975 
	C473.093292,393.924896 473.467255,393.854645 473.799988,394.038940 
	C474.415466,393.804016 474.698242,393.384796 474.980988,392.965546 
	C474.980988,392.965546 475.000214,393.000000 475.331360,393.059113 
	C476.646393,394.751617 477.630341,396.385010 478.511871,397.848419 
	C479.374725,396.740936 480.649109,395.735962 481.011719,394.469879 
	C481.407501,393.087891 480.958893,391.464111 480.878357,389.945740 
	C499.318787,380.650055 517.759155,371.354370 536.548340,362.021210 
	C539.917175,362.903015 539.917175,362.903015 538.656311,368.363159 
	C538.161560,367.384918 537.802673,366.675323 536.814453,364.721252 
	C536.814453,369.375641 537.308533,372.813843 536.648865,376.014221 
	C536.172058,378.327087 534.643616,381.417511 532.744568,382.253204 
	C527.405273,384.602783 529.045288,387.770355 530.817078,391.585022 
z"/>
<path fill="#6E59CE" opacity="1.000000" stroke="none" 
	d="
M593.997559,341.001434 
	C593.591919,339.765411 593.188660,338.527954 592.785461,337.290497 
	C593.098450,337.229706 593.411438,337.168915 593.724426,337.108154 
	C593.819336,338.157349 593.914307,339.206573 594.007080,340.625427 
	C594.004883,340.995117 594.000000,341.000000 593.997559,341.001434 
z"/>
<path fill="#FDEFD0" opacity="1.000000" stroke="none" 
	d="
M222.411560,598.176392 
	C222.259933,597.649170 222.436920,597.157043 222.613876,596.664978 
	C222.972656,596.887878 223.331451,597.110779 223.830231,597.551514 
	C223.560196,597.916748 223.150177,598.064209 222.411560,598.176392 
z"/>
<path fill="#F07ECF" opacity="1.000000" stroke="none" 
	d="
M445.024597,415.306274 
	C455.650848,411.933624 466.313477,408.915466 477.672302,405.955139 
	C478.602539,406.456024 479.111328,407.227631 479.030914,407.294861 
	C475.245972,410.460876 475.665344,412.525055 479.679169,415.725647 
	C483.372650,418.670837 486.014923,423.133698 488.544983,427.279083 
	C490.806824,430.985016 493.878662,432.801544 496.631866,431.236176 
	C497.380463,432.462677 498.124786,433.682129 498.869110,434.901611 
	C499.190155,434.618134 499.511200,434.334686 499.832245,434.051208 
	C499.977417,435.670898 500.122620,437.290588 500.267792,438.910278 
	C500.437378,438.892975 500.606934,438.875641 500.776520,438.858337 
	C500.957062,437.288818 501.137634,435.719269 501.318176,434.149750 
	C501.503662,434.180481 501.689117,434.211212 501.874573,434.241913 
	C501.973022,436.159851 502.071472,438.077789 502.169922,439.995697 
	C502.373199,440.006256 502.576477,440.016815 502.779755,440.027405 
	C502.936829,438.656616 503.093903,437.285858 503.384613,434.748474 
	C504.471375,441.997070 505.965668,444.056915 511.480835,447.021851 
	C513.372498,448.038757 515.354248,448.966675 517.047607,450.259125 
	C521.836182,453.914032 522.805481,461.272095 529.468323,463.181549 
	C529.701050,463.248230 529.769714,463.768646 529.994080,464.000946 
	C535.606567,469.812378 540.792297,476.153107 548.756714,479.064270 
	C549.028870,479.163727 548.924011,480.294708 548.994812,480.944916 
	C544.570862,482.205444 540.146973,483.465973 535.384827,484.888794 
	C529.688660,486.111084 524.330750,487.171082 518.584106,488.325989 
	C513.833496,483.436768 509.440155,478.479462 505.134399,473.447205 
	C504.199677,472.354797 503.753113,470.824524 502.763062,469.805542 
	C501.841553,468.857025 500.513306,468.289185 499.325439,467.622772 
	C498.961060,467.418335 498.115204,467.505615 498.087158,467.350922 
	C497.400818,463.568024 492.344635,462.814270 492.056763,458.570435 
	C492.007233,457.839783 488.671082,456.366333 488.171967,456.789886 
	C485.112762,459.386261 483.946838,456.638916 482.606842,455.036682 
	C479.799011,451.679382 477.458649,447.895752 474.412109,444.791870 
	C473.288208,443.646790 470.716827,443.922455 468.498413,443.490265 
	C468.225220,442.021698 467.930725,440.438721 467.636230,438.855743 
	C467.385071,439.050995 467.133911,439.246277 466.882782,439.441528 
	C465.163940,437.506287 463.459442,435.558044 461.721558,433.640076 
	C460.408142,432.190491 458.996033,430.826965 457.732849,429.336212 
	C456.739014,428.163239 455.921448,426.842468 454.995422,425.610016 
	C454.286591,424.666656 453.621185,423.664734 452.778717,422.852509 
	C450.247589,420.412292 447.639221,418.052155 445.024597,415.306274 
z"/>
<path fill="#F83682" opacity="1.000000" stroke="none" 
	d="
M426.946655,504.964325 
	C428.378540,504.665649 429.810425,504.366974 431.621887,504.110382 
	C431.414551,504.623627 430.827667,505.094788 430.085754,505.809448 
	C429.930756,506.052917 429.479248,506.031830 429.074188,505.769653 
	C428.094971,505.326416 427.520813,505.145386 426.946655,504.964325 
z"/>
<path fill="#F83682" opacity="1.000000" stroke="none" 
	d="
M431.669556,506.987976 
	C431.419159,507.173492 430.835724,507.351868 430.128845,507.280579 
	C430.449097,507.014221 430.892822,506.997528 431.669556,506.987976 
z"/>
<path fill="#F6A0C7" opacity="1.000000" stroke="none" 
	d="
M492.336243,493.817749 
	C492.340149,493.611938 492.625000,493.384552 493.193115,493.120544 
	C493.189972,493.321320 492.903564,493.558716 492.336243,493.817749 
z"/>
<path fill="#F6A0C7" opacity="1.000000" stroke="none" 
	d="
M496.258911,492.920532 
	C496.273071,492.787842 496.521576,492.672119 496.861450,492.697998 
	C496.952850,492.839661 496.493256,492.937469 496.258911,492.920532 
z"/>
<path fill="#FECF34" opacity="1.000000" stroke="none" 
	d="
M143.150696,689.853760 
	C142.896225,689.542908 142.878830,689.110474 142.966644,688.364868 
	C143.177139,688.611877 143.282440,689.172058 143.150696,689.853760 
z"/>
<path fill="#259FE3" opacity="1.000000" stroke="none" 
	d="
M480.543304,389.996460 
	C480.958893,391.464111 481.407501,393.087891 481.011719,394.469879 
	C480.649109,395.735962 479.374725,396.740936 478.511871,397.848419 
	C477.630341,396.385010 476.646393,394.751617 475.315430,393.047546 
	C476.715027,392.000275 478.461639,391.023743 480.543304,389.996460 
z"/>
<path fill="#259FE3" opacity="1.000000" stroke="none" 
	d="
M474.758301,393.055725 
	C474.698242,393.384796 474.415466,393.804016 473.988586,394.013916 
	C474.025177,393.532867 474.255585,393.313324 474.758301,393.055725 
z"/>
<path fill="#38229A" opacity="1.000000" stroke="none" 
	d="
M725.185181,292.292358 
	C725.043823,292.111725 724.940613,291.840149 724.837402,291.568542 
	C724.928894,291.659790 725.020447,291.751068 725.258667,291.983948 
	C725.405457,292.125519 725.223328,292.201385 725.185181,292.292358 
z"/>
<path fill="#96F492" opacity="1.000000" stroke="none" 
	d="
M210.794220,534.891724 
	C210.007812,536.048157 208.967743,537.071838 207.628448,538.159241 
	C207.209595,535.965027 207.640167,534.217102 210.794220,534.891724 
z"/>
<path fill="#EB6CD3" opacity="1.000000" stroke="none" 
	d="
M549.389404,480.961304 
	C548.924011,480.294708 549.028870,479.163727 548.756714,479.064270 
	C540.792297,476.153107 535.606567,469.812378 529.994080,464.000946 
	C529.769714,463.768646 529.701050,463.248230 529.468323,463.181549 
	C522.805481,461.272095 521.836182,453.914032 517.047607,450.259125 
	C515.354248,448.966675 513.372498,448.038757 511.480835,447.021851 
	C505.965668,444.056915 504.471375,441.997070 503.384613,434.748474 
	C503.093903,437.285858 502.936829,438.656616 502.779755,440.027405 
	C502.576477,440.016815 502.373199,440.006256 502.169922,439.995697 
	C502.071472,438.077789 501.973022,436.159851 501.874573,434.241913 
	C501.689117,434.211212 501.503662,434.180481 501.318176,434.149750 
	C501.137634,435.719269 500.957062,437.288818 500.776520,438.858337 
	C500.606934,438.875641 500.437378,438.892975 500.267792,438.910278 
	C500.122620,437.290588 499.977417,435.670898 499.832245,434.051208 
	C499.511200,434.334686 499.190155,434.618134 498.869110,434.901611 
	C498.124786,433.682129 497.380463,432.462677 496.631866,431.236176 
	C493.878662,432.801544 490.806824,430.985016 488.544983,427.279083 
	C486.014923,423.133698 483.372650,418.670837 479.679169,415.725647 
	C475.665344,412.525055 475.245972,410.460876 479.030914,407.294861 
	C479.111328,407.227631 478.602539,406.456024 478.060852,405.969208 
	C479.266754,405.374664 480.780396,404.823944 482.600403,404.110840 
	C491.552277,401.911316 500.197693,399.874146 509.217041,397.825836 
	C509.753174,397.850128 509.915466,397.885559 510.077728,397.920990 
	C508.415100,405.297852 515.364746,408.060333 518.518250,412.591644 
	C523.611572,419.910370 530.411682,426.019318 536.081848,432.972778 
	C537.694885,434.950775 537.890747,438.084412 538.678406,440.509460 
	C538.810059,440.036407 539.069153,439.105347 539.624573,437.109528 
	C539.892029,439.689270 540.057922,441.288971 540.223755,442.888702 
	C540.375122,442.908051 540.526550,442.927399 540.677917,442.946747 
	C540.908020,441.472931 541.138184,439.999115 541.371643,438.503754 
	C542.022400,438.379242 542.752075,438.052826 542.916382,438.235382 
	C547.740723,443.593201 552.510803,448.999878 557.283264,454.404358 
	C557.938782,455.146729 558.459229,456.450104 559.214417,456.594757 
	C567.236877,458.131531 570.216187,465.618317 575.657715,470.172424 
	C576.467163,470.849884 578.158386,470.435974 579.428528,470.618591 
	C579.968811,470.696259 580.475281,471.009827 580.998779,471.508728 
	C570.595032,474.860077 560.189575,477.918884 549.389404,480.961304 
M489.531677,423.752533 
	C489.403412,424.146393 489.253845,424.535553 489.164856,424.938049 
	C489.147095,425.018372 489.360687,425.149841 489.467651,425.257721 
	C489.595734,424.863892 489.723785,424.470062 489.531677,423.752533 
z"/>
<path fill="#D4FCC0" opacity="1.000000" stroke="none" 
	d="
M187.746552,560.847412 
	C187.585876,561.315063 187.170731,561.659302 186.481232,562.046387 
	C186.208801,561.359802 186.210754,560.630432 186.212708,559.901062 
	C186.639175,560.175354 187.065628,560.449646 187.746552,560.847412 
z"/>
<path fill="#D4FCC0" opacity="1.000000" stroke="none" 
	d="
M185.812012,562.277466 
	C185.905777,562.688354 185.721664,563.198914 185.311661,563.870483 
	C185.235245,563.479980 185.384705,562.928589 185.812012,562.277466 
z"/>
<path fill="#D4FCC0" opacity="1.000000" stroke="none" 
	d="
M184.814774,564.158691 
	C184.951599,564.385254 184.779343,564.635315 184.322754,564.937744 
	C184.140594,564.698853 184.296341,564.429504 184.814774,564.158691 
z"/>
<path fill="#FCDBBC" opacity="1.000000" stroke="none" 
	d="
M125.249031,723.774597 
	C124.987335,723.789917 124.773643,723.609619 124.559952,723.429321 
	C124.683502,723.341980 124.807068,723.254639 125.166245,723.178711 
	C125.401871,723.190186 125.297043,723.579041 125.249031,723.774597 
z"/>
<path fill="#EB2261" opacity="1.000000" stroke="none" 
	d="
M426.715515,504.966003 
	C427.520813,505.145386 428.094971,505.326416 428.848755,505.753998 
	C426.751495,506.159332 424.474640,506.318176 421.968079,506.190155 
	C421.738342,505.903320 421.851746,505.854401 422.271484,505.903198 
	C423.803406,505.648224 424.915649,505.344452 426.027863,505.040710 
	C426.027863,505.040680 426.484344,504.967712 426.715515,504.966003 
z"/>
<path fill="#FE8490" opacity="1.000000" stroke="none" 
	d="
M426.464294,530.450378 
	C426.524231,530.413086 426.404358,530.487671 426.464294,530.450378 
z"/>
<path fill="#FCDBBC" opacity="1.000000" stroke="none" 
	d="
M114.536880,737.561768 
	C114.472870,737.602112 114.600899,737.521484 114.536880,737.561768 
z"/>
<path fill="#FCDBBC" opacity="1.000000" stroke="none" 
	d="
M119.463013,731.441467 
	C119.526924,731.401855 119.399101,731.481079 119.463013,731.441467 
z"/>
<path fill="#FCDBBC" opacity="1.000000" stroke="none" 
	d="
M124.443405,721.542664 
	C124.403137,721.478577 124.483673,721.606750 124.443405,721.542664 
z"/>
<path fill="#FD689B" opacity="1.000000" stroke="none" 
	d="
M425.666321,505.003540 
	C424.915649,505.344452 423.803406,505.648224 422.329529,505.882111 
	C423.080170,505.530273 424.192474,505.248322 425.666321,505.003540 
z"/>
<path fill="#FABFC0" opacity="1.000000" stroke="none" 
	d="
M434.448669,500.534973 
	C434.414703,500.478271 434.482666,500.591644 434.448669,500.534973 
z"/>
<path fill="#FABFC0" opacity="1.000000" stroke="none" 
	d="
M382.448608,466.533936 
	C382.414673,466.476990 382.482574,466.590851 382.448608,466.533936 
z"/>
<path fill="#F07ECF" opacity="1.000000" stroke="none" 
	d="
M489.691772,423.914368 
	C489.723785,424.470062 489.595734,424.863892 489.467651,425.257721 
	C489.360687,425.149841 489.147095,425.018372 489.164856,424.938049 
	C489.253845,424.535553 489.403412,424.146393 489.691772,423.914368 
z"/>
</svg>