<?xml version="1.0" standalone="no"?>
<!DOCTYPE svg PUBLIC "-//W3C//DTD SVG 20010904//EN"
 "http://www.w3.org/TR/2001/REC-SVG-20010904/DTD/svg10.dtd">
<svg version="1.0" xmlns="http://www.w3.org/2000/svg"
 width="512.000000pt" height="512.000000pt" viewBox="0 0 512.000000 512.000000"
 preserveAspectRatio="xMidYMid meet">

<g transform="translate(0.000000,512.000000) scale(0.100000,-0.100000)"
fill="#9A8FA6" stroke="none">
<path d="M775 4530 c-356 -17 -727 -59 -757 -87 -17 -15 -18 -118 -18 -1894 0
-1694 2 -1879 16 -1893 14 -14 69 -16 459 -16 390 0 445 2 459 16 14 14 16 88
16 667 l0 652 183 -4 c740 -15 1295 240 1532 705 198 387 192 890 -14 1243
-201 344 -554 540 -1081 601 -128 15 -574 20 -795 10z m692 -764 c201 -44 332
-164 380 -349 21 -82 13 -238 -16 -321 -67 -189 -225 -310 -460 -351 -84 -15
-314 -20 -383 -9 l-38 7 0 513 0 513 53 5 c28 3 66 8 82 10 64 9 313 -3 382
-18z"/>
<path d="M4060 3533 c-587 -44 -992 -374 -1039 -848 -25 -253 42 -448 214
-621 146 -149 301 -238 605 -350 293 -107 350 -149 350 -260 0 -123 -118 -182
-345 -171 -186 8 -429 74 -607 163 -70 35 -106 42 -125 23 -19 -19 -167 -631
-160 -660 5 -21 23 -34 87 -63 148 -68 308 -111 545 -147 108 -17 456 -17 575
0 587 82 931 395 957 871 19 365 -159 652 -517 831 -43 22 -172 76 -287 120
-322 125 -373 160 -373 257 0 114 87 164 285 163 156 0 330 -44 508 -126 78
-36 102 -30 120 33 53 176 148 575 143 595 -4 18 -24 32 -76 56 -218 97 -586
155 -860 134z"/>
</g>
</svg>
