<svg width="512" height="512" version="1.1" xmlns="http://www.w3.org/2000/svg" desc="Created with imagetracer.js version 1.2.6" ><path fill="#9A8FA6" stroke="#9A8FA6" stroke-width="1" opacity="0.9803921568627451" d="M 119.5 29 L 118.5 31 L 119.5 29 Z " /><path fill="#9A8FA6" stroke="#9A8FA6" stroke-width="1" opacity="0.9803921568627451" d="M 392.5 29 L 394.5 32 L 392.5 29 Z " /><path fill="#9A8FA6" stroke="#9A8FA6" stroke-width="1" opacity="0.9803921568627451" d="M 114.5 116 L 116.5 119 L 114.5 116 Z " /><path fill="#9A8FA6" stroke="#9A8FA6" stroke-width="1" opacity="0.9803921568627451" d="M 397.5 116 L 395.5 119 L 397.5 116 Z " /><path fill="#9A8FA6" stroke="#9A8FA6" stroke-width="1" opacity="0.9803921568627451" d="M 114.5 244 L 116.5 247 L 114.5 244 Z " /><path fill="#9A8FA6" stroke="#9A8FA6" stroke-width="1" opacity="0.9803921568627451" d="M 397.5 244 L 395.5 247 L 397.5 244 Z " /><path fill="#9A8FA6" stroke="#9A8FA6" stroke-width="1" opacity="0.9803921568627451" d="M 176.5 320 L 177.5 322 L 176.5 320 Z " /><path fill="#9A8FA6" stroke="#9A8FA6" stroke-width="1" opacity="0.9803921568627451" d="M 335.5 320 L 334.5 322 L 335.5 320 Z " /><path fill="#9A8FA6" stroke="#9A8FA6" stroke-width="1" opacity="0.9803921568627451" d="M 59.5 356 L 58.5 358 L 59.5 356 Z " /><path fill="#9A8FA6" stroke="#9A8FA6" stroke-width="1" opacity="0.9803921568627451" d="M 143.5 376 L 141.5 379 L 143.5 376 Z " /><path fill="#9A8FA6" stroke="#9A8FA6" stroke-width="1" opacity="0.9803921568627451" d="M 89.5 385 L 87.5 388 L 89.5 385 Z " /><path fill="#9A8FA6" stroke="#9A8FA6" stroke-width="1" opacity="0.9803921568627451" d="M 132.5 420 L 133.5 422 L 132.5 420 Z " /><path fill="#9A8FA6" stroke="#9A8FA6" stroke-width="1" opacity="0.9803921568627451" d="M 55.5 428 L 56.5 430 L 55.5 428 Z " /><path fill="#9A8FA6" stroke="#9A8FA6" stroke-width="1" opacity="0.9803921568627451" d="M 61.5 434 L 62.5 436 L 61.5 434 Z " /><path fill="#9A8FA6" stroke="#9A8FA6" stroke-width="1" opacity="0.9803921568627451" d="M 253.5 442 L 250.5 446 L 253.5 442 Z " /><path fill="#9A8FA6" stroke="#9A8FA6" stroke-width="1" opacity="0.9803921568627451" d="M 102.5 449 L 104.5 452 L 102.5 449 Z " /><path fill="#9A8FA6" stroke="#9A8FA6" stroke-width="1" opacity="0.9803921568627451" d="M 136.5 492 L 135.5 494 L 136.5 492 Z " /><path fill="#9A8FA6" stroke="#9A8FA6" stroke-width="1" opacity="0.9803921568627451" d="M 207.5 495 L 208.5 497 L 207.5 495 Z " /><path fill="#9A8FA6" stroke="#9A8FA6" stroke-width="1" opacity="0.9803921568627451" d="M 130.5 498 L 129.5 500 L 130.5 498 Z " /><path fill="#9A8FA6" stroke="#9A8FA6" stroke-width="1" opacity="0.9803921568627451" d="M 48.5 504 L 50.5 507 L 48.5 504 Z " /><path fill="#9A8FA6" stroke="#9A8FA6" stroke-width="1" opacity="0.9803921568627451" d="M 368.5 504 L 370.5 507 L 368.5 504 Z " /><path fill="#9A8FA6" stroke="#9A8FA6" stroke-width="1" opacity="0.9803921568627451" d="M 463.5 504 L 461.5 507 L 463.5 504 Z " /><path fill="#9A8FA6" stroke="#9A8FA6" stroke-width="1" opacity="0" d="M 0 0 L 232 0.5 L 198.5 3 L 156.5 11 L 132.5 20 Q 121.8 25.3 114 33.5 L 108 43.5 L 106 53.5 Q 108.5 55 107 60.5 L 110 67.5 L 120.5 79 Q 129.8 86.7 142.5 91 L 175.5 100 L 200.5 103 L 201.5 104 L 209.5 104 L 210.5 105 L 221.5 105 L 222.5 106 L 271.5 107 L 272.5 106 L 289.5 106 L 290.5 105 L 301.5 105 L 302.5 104 L 318.5 103 L 357.5 95 L 384.5 84 L 400 70.5 L 404 63.5 L 406 53.5 L 404 43.5 Q 400.8 35.2 394.5 30 L 377.5 19 L 355.5 11 L 313.5 3 L 280 0.5 L 512 0 L 512 511.5 L 511.5 512 L 453.5 512 L 453.5 511 L 464 506 L 468 499.5 L 470 490.5 Q 467.7 489.3 469 484.5 L 466 478.5 L 460.5 473 L 451.5 469 L 406 469 L 406 362.5 Q 403.7 361.2 405 356.5 L 402 350.5 L 396.5 345 L 387.5 341 L 380.5 341 Q 370.6 343.1 366 350.5 L 363 356.5 Q 364.2 361.2 362 362.5 L 362 490.5 L 364 499.5 L 368 506 L 379 511.5 L 304.5 512 L 304.5 511 Q 313.4 509.4 317 502.5 L 320 494.5 L 320 487.5 L 316 478.5 L 320 466.5 L 320 387.5 Q 315.8 364.8 300.5 353 L 287.5 345 L 272.5 341 L 239.5 341 Q 215.2 345.2 203 361.5 Q 194.8 371.3 192 386.5 L 192 466.5 Q 196.9 490.1 213.5 502 Q 222.6 509.4 237 511.5 L 104.5 512 L 104.5 511 Q 126.2 507.7 137 493.5 L 146 478.5 L 149 468.5 L 149 459.5 L 150 458.5 L 149 457.5 L 148 444.5 L 143 432.5 L 128.5 416 L 114.5 408 L 101.5 405 L 93.5 405 L 87 400.5 Q 84.7 397.3 86 390.5 L 89.5 386 L 94.5 384 L 132.5 384 L 144 378 L 148 371.5 L 150 362.5 Q 147.7 361.2 149 356.5 L 146 350.5 L 140.5 345 L 131.5 341 L 90.5 341 Q 65.1 345.1 53 362.5 L 46 374.5 L 43 384.5 L 43 393.5 L 42 394.5 L 43 395.5 L 43 404.5 L 46 414.5 Q 51.2 426.8 60.5 435 Q 68.4 442.1 79.5 446 L 88.5 448 L 97.5 448 L 104 451.5 Q 107.6 454.4 106 462.5 L 101.5 468 L 98.5 469 L 60.5 469 Q 50.6 471.1 46 478.5 L 43 484.5 Q 44.2 489.3 42 490.5 L 44 499.5 L 48 506 L 59 511.5 L 0 512 L 0 0 Z M 107 100 L 106 182 L 108 192 L 112 199 L 128 212 L 155 223 L 176 228 L 201 231 L 202 232 L 222 233 L 223 234 L 240 234 L 241 235 L 290 234 L 291 233 L 302 233 L 303 232 L 311 232 L 312 231 L 319 231 L 332 228 L 337 228 L 370 219 Q 382 215 392 207 L 402 196 L 405 189 Q 404 183 406 182 L 406 100 Q 403 110 397 117 Q 387 127 373 132 L 352 139 L 321 145 L 294 147 L 293 148 L 279 148 L 278 149 L 235 149 L 234 148 L 209 147 L 208 146 L 200 146 L 199 145 L 180 143 L 154 137 L 140 132 L 123 123 L 115 117 Q 109 111 107 100 Z M 107 228 L 106 298 L 108 299 L 137 299 L 146 301 Q 160 305 170 314 L 180 325 Q 192 313 209 306 L 220 302 L 235 299 L 278 299 L 293 302 Q 317 309 333 325 L 335 322 Q 349 304 376 299 L 393 299 L 406 302 L 406 228 Q 403 238 397 245 Q 387 255 373 260 L 352 267 L 321 273 L 295 275 L 294 276 L 279 276 L 278 277 L 235 277 L 234 276 L 219 276 L 218 275 L 209 275 L 208 274 L 200 274 L 199 273 L 180 271 L 154 265 L 140 260 L 126 253 L 115 245 L 111 240 L 107 228 Z " /><path fill="#9A8FA6" stroke="#9A8FA6" stroke-width="1" opacity="0" d="M 243.5 384 L 268.5 384 L 276 389.5 L 277 391.5 L 277 440 L 272.5 438 L 264.5 437 Q 255.9 438.6 251 443 L 246 451.5 L 245 459.5 L 248 469 Q 240.2 470.2 237 465.5 L 235 461.5 L 235 391.5 L 240.5 385 L 243.5 384 Z " /><path fill="#9A8FA6" stroke="#9A8FA6" stroke-width="1" opacity="0" d="M 286.5 508 L 294 511.5 L 275.5 512 L 275.5 511 L 279.5 511 L 286.5 508 Z " /><path fill="#9A8FA6" stroke="#9A8FA6" stroke-width="1" opacity="1" d="M 254.5 0 L 258.5 1 L 297.5 2 L 298.5 3 L 315.5 4 L 344.5 9 L 373.5 18 Q 387.3 23.7 397 33.5 Q 405.3 40.7 405 56.5 Q 401.9 71.9 390.5 79 L 367.5 91 L 332.5 100 L 305.5 103 L 304.5 104 L 279.5 105 L 278.5 106 L 233.5 106 L 232.5 105 L 218.5 105 L 217.5 104 L 207.5 104 L 206.5 103 L 191.5 102 L 150.5 93 L 127.5 83 L 113 70.5 Q 106.2 63.8 107 49.5 Q 109.5 37.5 117.5 31 L 136.5 19 L 167.5 9 L 196.5 4 L 203.5 4 L 204.5 3 L 226.5 2 L 227.5 1 L 253.5 1 L 254.5 0 Z " /><path fill="#9A8FA6" stroke="#9A8FA6" stroke-width="1" opacity="1" d="M 107.5 105 Q 109.8 114.2 116.5 119 Q 125.5 127 137.5 132 L 170.5 142 L 200.5 146 L 201.5 147 L 222.5 148 L 223.5 149 L 270.5 150 L 271.5 149 L 288.5 149 L 289.5 148 L 310.5 147 L 350.5 140 L 374.5 132 Q 388.3 126.3 398 116.5 L 404.5 105 L 405 184.5 Q 401.9 199.9 390.5 207 L 367.5 219 L 332.5 228 L 305.5 231 L 304.5 232 L 279.5 233 L 278.5 234 L 233.5 234 L 232.5 233 L 218.5 233 L 217.5 232 L 207.5 232 L 206.5 231 L 191.5 230 L 150.5 221 L 127.5 211 L 113 198.5 L 107 185.5 L 107.5 105 Z " /><path fill="#9A8FA6" stroke="#9A8FA6" stroke-width="1" opacity="1" d="M 107.5 233 Q 109.8 242.2 116.5 247 Q 125.5 255 137.5 260 L 170.5 270 L 200.5 274 L 201.5 275 L 222.5 276 L 223.5 277 L 270.5 278 L 271.5 277 L 288.5 277 L 289.5 276 L 310.5 275 L 350.5 268 L 374.5 260 Q 388.3 254.3 398 244.5 L 404.5 233 L 405 301.5 L 403.5 301 L 389.5 298 L 378.5 298 L 367.5 300 L 352.5 306 Q 341.8 312.3 334 321.5 L 332.5 324 Q 316.3 308.2 291.5 301 L 282.5 299 L 274.5 299 L 273.5 298 L 238.5 298 L 237.5 299 L 224.5 300 L 206.5 306 Q 191 313 179.5 324 L 169.5 313 Q 158.2 302.8 140.5 299 Q 135 300.5 133.5 298 L 107 298 L 107.5 233 Z " /><path fill="#9A8FA6" stroke="#9A8FA6" stroke-width="1" opacity="1" d="M 88.5 342 L 132.5 342 Q 140.8 344.2 145 350.5 L 149 359.5 L 149 365.5 Q 146.7 376.2 138.5 381 L 127.5 384 L 91.5 384 L 87 387.5 Q 83.8 390.8 85 398.5 L 89.5 404 L 93.5 406 L 103.5 406 L 114.5 409 Q 129.3 414.7 138 426.5 L 147 443.5 L 149 453.5 L 149 463.5 L 147 473.5 L 143 483.5 L 131.5 498 Q 121.4 507.4 105.5 511 L 96.5 511 L 95.5 512 L 64.5 512 L 53.5 509 L 46 501.5 L 43 493.5 L 43 487.5 Q 45.1 477.6 52.5 473 L 59.5 470 L 98.5 470 L 106 464.5 L 107 455.5 L 102.5 449 L 95.5 447 L 86.5 447 L 76.5 444 Q 64.8 439.2 57 430.5 Q 49.7 423.3 46 412.5 L 43 399.5 L 43 389.5 Q 47.1 364.1 64.5 352 Q 74 344.5 88.5 342 Z " /><path fill="#9A8FA6" stroke="#9A8FA6" stroke-width="1" opacity="1" d="M 237.5 342 L 274.5 342 L 282.5 344 Q 298.6 349.4 308 361.5 L 317 377.5 L 319 385.5 L 319 394.5 L 320 395.5 L 320 458.5 L 316 480.5 Q 320.7 485.3 319 496.5 Q 316.4 503.9 310.5 508 Q 305.3 512.8 293.5 511 Q 291.3 507.3 284.5 508 L 276.5 511 L 245.5 512 L 244.5 511 L 231.5 510 L 219.5 505 L 203 490.5 Q 195.8 481.7 193 468.5 L 193 459.5 L 192 458.5 L 192 395.5 L 193 394.5 L 193 385.5 L 198 370.5 Q 203.7 360.1 212.5 353 Q 222.3 344.8 237.5 342 Z M 242 384 L 240 385 L 234 393 L 234 461 L 236 466 Q 240 471 249 470 L 246 462 Q 245 452 249 448 Q 253 440 263 438 L 270 438 L 278 441 L 278 393 L 277 390 L 271 384 L 242 384 Z " /><path fill="#9A8FA6" stroke="#9A8FA6" stroke-width="1" opacity="1" d="M 379.5 342 Q 395.7 340.8 401 350.5 L 405 359.5 L 405 470 L 452.5 470 Q 460.9 472.1 465 478.5 L 469 487.5 L 469 493.5 Q 466.7 504.2 458.5 509 L 447.5 512 L 384.5 512 L 373.5 509 L 366 501.5 L 363 493.5 L 363 359.5 Q 365.1 349.6 372.5 345 L 379.5 342 Z " /><path fill="#9A8FA6" stroke="#9A8FA6" stroke-width="1" opacity="0.6039215686274509" d="M 232.5 0 L 243 0.5 L 232.5 1 L 232.5 0 Z " /><path fill="#9A8FA6" stroke="#9A8FA6" stroke-width="1" opacity="0.6039215686274509" d="M 269.5 0 L 280 0.5 L 269.5 1 L 269.5 0 Z " /><path fill="#9A8FA6" stroke="#9A8FA6" stroke-width="1" opacity="0.6039215686274509" d="M 217.5 1 L 223 1.5 L 217.5 2 L 217.5 1 Z " /><path fill="#9A8FA6" stroke="#9A8FA6" stroke-width="1" opacity="0.6039215686274509" d="M 289.5 1 L 294 1.5 L 289.5 2 L 289.5 1 Z " /><path fill="#9A8FA6" stroke="#9A8FA6" stroke-width="1" opacity="0.6039215686274509" d="M 207.5 2 L 212 2.5 L 207.5 3 L 207.5 2 Z " /><path fill="#9A8FA6" stroke="#9A8FA6" stroke-width="1" opacity="0.6039215686274509" d="M 301.5 2 L 305 2.5 L 301.5 3 L 301.5 2 Z " /><path fill="#9A8FA6" stroke="#9A8FA6" stroke-width="1" opacity="0.6039215686274509" d="M 198.5 3 L 202 3.5 L 198.5 4 L 198.5 3 Z " /><path fill="#9A8FA6" stroke="#9A8FA6" stroke-width="1" opacity="0.6039215686274509" d="M 310.5 3 L 314 3.5 L 310.5 4 L 310.5 3 Z " /><path fill="#9A8FA6" stroke="#9A8FA6" stroke-width="1" opacity="0.6039215686274509" d="M 191.5 4 L 194 4.5 L 191.5 5 L 191.5 4 Z " /><path fill="#9A8FA6" stroke="#9A8FA6" stroke-width="1" opacity="0.6039215686274509" d="M 318.5 4 L 321 4.5 L 318.5 5 L 318.5 4 Z " /><path fill="#9A8FA6" stroke="#9A8FA6" stroke-width="1" opacity="0.6039215686274509" d="M 325.5 5 L 328 5.5 L 325.5 6 L 325.5 5 Z " /><path fill="#9A8FA6" stroke="#9A8FA6" stroke-width="1" opacity="0.6039215686274509" d="M 168.5 8 L 171 8.5 L 168.5 9 L 168.5 8 Z " /><path fill="#9A8FA6" stroke="#9A8FA6" stroke-width="1" opacity="0.6039215686274509" d="M 341.5 8 L 344 8.5 L 341.5 9 L 341.5 8 Z " /><path fill="#9A8FA6" stroke="#9A8FA6" stroke-width="1" opacity="0.6039215686274509" d="M 125.5 24 L 124.5 26 L 125.5 24 Z " /><path fill="#9A8FA6" stroke="#9A8FA6" stroke-width="1" opacity="0.6039215686274509" d="M 122.5 26 L 121.5 28 L 122.5 26 Z " /><path fill="#9A8FA6" stroke="#9A8FA6" stroke-width="1" opacity="0.6039215686274509" d="M 389.5 26 L 390.5 28 L 389.5 26 Z " /><path fill="#9A8FA6" stroke="#9A8FA6" stroke-width="1" opacity="0.6039215686274509" d="M 117.5 30 L 114.5 34 L 117.5 30 Z " /><path fill="#9A8FA6" stroke="#9A8FA6" stroke-width="1" opacity="0.6039215686274509" d="M 394.5 30 L 397.5 34 L 394.5 30 Z " /><path fill="#9A8FA6" stroke="#9A8FA6" stroke-width="1" opacity="0.6039215686274509" d="M 112.5 70 L 113.5 72 L 112.5 70 Z " /><path fill="#9A8FA6" stroke="#9A8FA6" stroke-width="1" opacity="0.6039215686274509" d="M 399.5 70 L 398.5 72 L 399.5 70 Z " /><path fill="#9A8FA6" stroke="#9A8FA6" stroke-width="1" opacity="0.6039215686274509" d="M 391.5 78 L 390.5 80 L 391.5 78 Z " /><path fill="#9A8FA6" stroke="#9A8FA6" stroke-width="1" opacity="0.6039215686274509" d="M 126.5 82 L 127.5 84 L 126.5 82 Z " /><path fill="#9A8FA6" stroke="#9A8FA6" stroke-width="1" opacity="0.6039215686274509" d="M 385.5 82 L 384.5 84 L 385.5 82 Z " /><path fill="#9A8FA6" stroke="#9A8FA6" stroke-width="1" opacity="0.6039215686274509" d="M 106.5 100 L 108 103.5 L 107 104.5 L 106.5 182 L 106.5 100 Z " /><path fill="#9A8FA6" stroke="#9A8FA6" stroke-width="1" opacity="0.6039215686274509" d="M 405.5 100 L 406 181.5 L 405 181.5 L 405 104.5 L 404 102.5 L 405.5 100 Z " /><path fill="#9A8FA6" stroke="#9A8FA6" stroke-width="1" opacity="0.6039215686274509" d="M 186.5 101 L 189 101.5 L 186.5 102 L 186.5 101 Z " /><path fill="#9A8FA6" stroke="#9A8FA6" stroke-width="1" opacity="0.6039215686274509" d="M 194.5 102 L 197 102.5 L 194.5 103 L 194.5 102 Z " /><path fill="#9A8FA6" stroke="#9A8FA6" stroke-width="1" opacity="0.6039215686274509" d="M 315.5 102 L 319 102.5 L 315.5 103 L 315.5 102 Z " /><path fill="#9A8FA6" stroke="#9A8FA6" stroke-width="1" opacity="0.6039215686274509" d="M 201.5 103 L 205 103.5 L 201.5 104 L 201.5 103 Z " /><path fill="#9A8FA6" stroke="#9A8FA6" stroke-width="1" opacity="0.6039215686274509" d="M 307.5 103 L 311 103.5 L 307.5 104 L 307.5 103 Z " /><path fill="#9A8FA6" stroke="#9A8FA6" stroke-width="1" opacity="0.6039215686274509" d="M 210.5 104 L 215 104.5 L 210.5 105 L 210.5 104 Z " /><path fill="#9A8FA6" stroke="#9A8FA6" stroke-width="1" opacity="0.6039215686274509" d="M 297.5 104 L 302 104.5 L 297.5 105 L 297.5 104 Z " /><path fill="#9A8FA6" stroke="#9A8FA6" stroke-width="1" opacity="0.6039215686274509" d="M 222.5 105 L 229 105.5 L 222.5 106 L 222.5 105 Z " /><path fill="#9A8FA6" stroke="#9A8FA6" stroke-width="1" opacity="0.6039215686274509" d="M 283.5 105 L 290 105.5 L 283.5 106 L 283.5 105 Z " /><path fill="#9A8FA6" stroke="#9A8FA6" stroke-width="1" opacity="0.6039215686274509" d="M 240.5 106 L 272 106.5 L 240.5 107 L 240.5 106 Z " /><path fill="#9A8FA6" stroke="#9A8FA6" stroke-width="1" opacity="0.6039215686274509" d="M 110.5 110 L 111.5 112 L 110.5 110 Z " /><path fill="#9A8FA6" stroke="#9A8FA6" stroke-width="1" opacity="0.6039215686274509" d="M 401.5 110 L 400.5 112 L 401.5 110 Z " /><path fill="#9A8FA6" stroke="#9A8FA6" stroke-width="1" opacity="0.6039215686274509" d="M 112.5 113 L 114.5 116 L 112.5 113 Z " /><path fill="#9A8FA6" stroke="#9A8FA6" stroke-width="1" opacity="0.6039215686274509" d="M 399.5 113 L 397.5 116 L 399.5 113 Z " /><path fill="#9A8FA6" stroke="#9A8FA6" stroke-width="1" opacity="0.6039215686274509" d="M 116.5 117 L 119.5 121 L 116.5 117 Z " /><path fill="#9A8FA6" stroke="#9A8FA6" stroke-width="1" opacity="0.6039215686274509" d="M 394.5 118 L 392.5 121 L 394.5 118 Z " /><path fill="#9A8FA6" stroke="#9A8FA6" stroke-width="1" opacity="0.6039215686274509" d="M 125.5 124 L 126.5 126 L 125.5 124 Z " /><path fill="#9A8FA6" stroke="#9A8FA6" stroke-width="1" opacity="0.6039215686274509" d="M 176.5 142 L 179 142.5 L 176.5 143 L 176.5 142 Z " /><path fill="#9A8FA6" stroke="#9A8FA6" stroke-width="1" opacity="0.6039215686274509" d="M 333.5 142 L 336 142.5 L 333.5 143 L 333.5 142 Z " /><path fill="#9A8FA6" stroke="#9A8FA6" stroke-width="1" opacity="0.6039215686274509" d="M 327.5 143 L 330 143.5 L 327.5 144 L 327.5 143 Z " /><path fill="#9A8FA6" stroke="#9A8FA6" stroke-width="1" opacity="0.6039215686274509" d="M 188.5 144 L 191 144.5 L 188.5 145 L 188.5 144 Z " /><path fill="#9A8FA6" stroke="#9A8FA6" stroke-width="1" opacity="0.6039215686274509" d="M 321.5 144 L 324 144.5 L 321.5 145 L 321.5 144 Z " /><path fill="#9A8FA6" stroke="#9A8FA6" stroke-width="1" opacity="0.6039215686274509" d="M 196.5 145 L 199 145.5 L 196.5 146 L 196.5 145 Z " /><path fill="#9A8FA6" stroke="#9A8FA6" stroke-width="1" opacity="0.6039215686274509" d="M 313.5 145 L 317 145.5 L 313.5 146 L 313.5 145 Z " /><path fill="#9A8FA6" stroke="#9A8FA6" stroke-width="1" opacity="0.6039215686274509" d="M 203.5 146 L 208 146.5 L 203.5 147 L 203.5 146 Z " /><path fill="#9A8FA6" stroke="#9A8FA6" stroke-width="1" opacity="0.6039215686274509" d="M 304.5 146 L 309 146.5 L 304.5 147 L 304.5 146 Z " /><path fill="#9A8FA6" stroke="#9A8FA6" stroke-width="1" opacity="0.6039215686274509" d="M 213.5 147 L 219 147.5 L 213.5 148 L 213.5 147 Z " /><path fill="#9A8FA6" stroke="#9A8FA6" stroke-width="1" opacity="0.6039215686274509" d="M 293.5 147 L 299 147.5 L 293.5 148 L 293.5 147 Z " /><path fill="#9A8FA6" stroke="#9A8FA6" stroke-width="1" opacity="0.6039215686274509" d="M 226.5 148 L 234 148.5 L 226.5 149 L 226.5 148 Z " /><path fill="#9A8FA6" stroke="#9A8FA6" stroke-width="1" opacity="0.6039215686274509" d="M 278.5 148 L 286 148.5 L 278.5 149 L 278.5 148 Z " /><path fill="#9A8FA6" stroke="#9A8FA6" stroke-width="1" opacity="0.6039215686274509" d="M 250.5 149 L 262 149.5 L 250.5 150 L 250.5 149 Z " /><path fill="#9A8FA6" stroke="#9A8FA6" stroke-width="1" opacity="0.6039215686274509" d="M 112.5 198 L 113.5 200 L 112.5 198 Z " /><path fill="#9A8FA6" stroke="#9A8FA6" stroke-width="1" opacity="0.6039215686274509" d="M 399.5 198 L 398.5 200 L 399.5 198 Z " /><path fill="#9A8FA6" stroke="#9A8FA6" stroke-width="1" opacity="0.6039215686274509" d="M 126.5 210 L 127.5 212 L 126.5 210 Z " /><path fill="#9A8FA6" stroke="#9A8FA6" stroke-width="1" opacity="0.6039215686274509" d="M 385.5 210 L 384.5 212 L 385.5 210 Z " /><path fill="#9A8FA6" stroke="#9A8FA6" stroke-width="1" opacity="0.6039215686274509" d="M 106.5 228 L 108 231.5 L 107 232.5 L 107 298 L 131 298.5 L 107.5 299 L 106 297.5 L 106.5 228 Z " /><path fill="#9A8FA6" stroke="#9A8FA6" stroke-width="1" opacity="0.6039215686274509" d="M 405.5 228 L 406 301.5 L 405 301.5 L 405 232.5 L 404 230.5 L 405.5 228 Z " /><path fill="#9A8FA6" stroke="#9A8FA6" stroke-width="1" opacity="0.6039215686274509" d="M 194.5 230 L 197 230.5 L 194.5 231 L 194.5 230 Z " /><path fill="#9A8FA6" stroke="#9A8FA6" stroke-width="1" opacity="0.6039215686274509" d="M 315.5 230 L 319 230.5 L 315.5 231 L 315.5 230 Z " /><path fill="#9A8FA6" stroke="#9A8FA6" stroke-width="1" opacity="0.6039215686274509" d="M 201.5 231 L 205 231.5 L 201.5 232 L 201.5 231 Z " /><path fill="#9A8FA6" stroke="#9A8FA6" stroke-width="1" opacity="0.6039215686274509" d="M 307.5 231 L 311 231.5 L 307.5 232 L 307.5 231 Z " /><path fill="#9A8FA6" stroke="#9A8FA6" stroke-width="1" opacity="0.6039215686274509" d="M 210.5 232 L 215 232.5 L 210.5 233 L 210.5 232 Z " /><path fill="#9A8FA6" stroke="#9A8FA6" stroke-width="1" opacity="0.6039215686274509" d="M 297.5 232 L 302 232.5 L 297.5 233 L 297.5 232 Z " /><path fill="#9A8FA6" stroke="#9A8FA6" stroke-width="1" opacity="0.6039215686274509" d="M 222.5 233 L 229 233.5 L 222.5 234 L 222.5 233 Z " /><path fill="#9A8FA6" stroke="#9A8FA6" stroke-width="1" opacity="0.6039215686274509" d="M 283.5 233 L 290 233.5 L 283.5 234 L 283.5 233 Z " /><path fill="#9A8FA6" stroke="#9A8FA6" stroke-width="1" opacity="0.6039215686274509" d="M 240.5 234 L 272 234.5 L 240.5 235 L 240.5 234 Z " /><path fill="#9A8FA6" stroke="#9A8FA6" stroke-width="1" opacity="0.6039215686274509" d="M 401.5 238 L 400.5 240 L 401.5 238 Z " /><path fill="#9A8FA6" stroke="#9A8FA6" stroke-width="1" opacity="0.6039215686274509" d="M 112.5 241 L 114.5 244 L 112.5 241 Z " /><path fill="#9A8FA6" stroke="#9A8FA6" stroke-width="1" opacity="0.6039215686274509" d="M 399.5 241 L 397.5 244 L 399.5 241 Z " /><path fill="#9A8FA6" stroke="#9A8FA6" stroke-width="1" opacity="0.6039215686274509" d="M 116.5 245 L 119.5 249 L 116.5 245 Z " /><path fill="#9A8FA6" stroke="#9A8FA6" stroke-width="1" opacity="0.6039215686274509" d="M 394.5 246 L 392.5 249 L 394.5 246 Z " /><path fill="#9A8FA6" stroke="#9A8FA6" stroke-width="1" opacity="0.6039215686274509" d="M 176.5 270 L 179 270.5 L 176.5 271 L 176.5 270 Z " /><path fill="#9A8FA6" stroke="#9A8FA6" stroke-width="1" opacity="0.6039215686274509" d="M 333.5 270 L 336 270.5 L 333.5 271 L 333.5 270 Z " /><path fill="#9A8FA6" stroke="#9A8FA6" stroke-width="1" opacity="0.6039215686274509" d="M 327.5 271 L 330 271.5 L 327.5 272 L 327.5 271 Z " /><path fill="#9A8FA6" stroke="#9A8FA6" stroke-width="1" opacity="0.6039215686274509" d="M 188.5 272 L 191 272.5 L 188.5 273 L 188.5 272 Z " /><path fill="#9A8FA6" stroke="#9A8FA6" stroke-width="1" opacity="0.6039215686274509" d="M 321.5 272 L 324 272.5 L 321.5 273 L 321.5 272 Z " /><path fill="#9A8FA6" stroke="#9A8FA6" stroke-width="1" opacity="0.6039215686274509" d="M 196.5 273 L 199 273.5 L 196.5 274 L 196.5 273 Z " /><path fill="#9A8FA6" stroke="#9A8FA6" stroke-width="1" opacity="0.6039215686274509" d="M 313.5 273 L 317 273.5 L 313.5 274 L 313.5 273 Z " /><path fill="#9A8FA6" stroke="#9A8FA6" stroke-width="1" opacity="0.6039215686274509" d="M 203.5 274 L 208 274.5 L 203.5 275 L 203.5 274 Z " /><path fill="#9A8FA6" stroke="#9A8FA6" stroke-width="1" opacity="0.6039215686274509" d="M 304.5 274 L 309 274.5 L 304.5 275 L 304.5 274 Z " /><path fill="#9A8FA6" stroke="#9A8FA6" stroke-width="1" opacity="0.6039215686274509" d="M 213.5 275 L 218 275.5 L 213.5 276 L 213.5 275 Z " /><path fill="#9A8FA6" stroke="#9A8FA6" stroke-width="1" opacity="0.6039215686274509" d="M 294.5 275 L 299 275.5 L 294.5 276 L 294.5 275 Z " /><path fill="#9A8FA6" stroke="#9A8FA6" stroke-width="1" opacity="0.6039215686274509" d="M 226.5 276 L 234 276.5 L 226.5 277 L 226.5 276 Z " /><path fill="#9A8FA6" stroke="#9A8FA6" stroke-width="1" opacity="0.6039215686274509" d="M 278.5 276 L 286 276.5 L 278.5 277 L 278.5 276 Z " /><path fill="#9A8FA6" stroke="#9A8FA6" stroke-width="1" opacity="0.6039215686274509" d="M 250.5 277 L 262 277.5 L 250.5 278 L 250.5 277 Z " /><path fill="#9A8FA6" stroke="#9A8FA6" stroke-width="1" opacity="0.6039215686274509" d="M 241.5 298 L 271 298.5 L 241.5 299 L 241.5 298 Z " /><path fill="#9A8FA6" stroke="#9A8FA6" stroke-width="1" opacity="0.6039215686274509" d="M 381.5 298 L 386 298.5 L 381.5 299 L 381.5 298 Z " /><path fill="#9A8FA6" stroke="#9A8FA6" stroke-width="1" opacity="0.6039215686274509" d="M 137.5 299 L 140 299.5 L 137.5 300 L 137.5 299 Z " /><path fill="#9A8FA6" stroke="#9A8FA6" stroke-width="1" opacity="0.6039215686274509" d="M 231.5 299 L 234 299.5 L 231.5 300 L 231.5 299 Z " /><path fill="#9A8FA6" stroke="#9A8FA6" stroke-width="1" opacity="0.6039215686274509" d="M 278.5 299 L 281 299.5 L 278.5 300 L 278.5 299 Z " /><path fill="#9A8FA6" stroke="#9A8FA6" stroke-width="1" opacity="0.6039215686274509" d="M 372.5 299 L 375 299.5 L 372.5 300 L 372.5 299 Z " /><path fill="#9A8FA6" stroke="#9A8FA6" stroke-width="1" opacity="0.6039215686274509" d="M 393.5 299 L 396 299.5 L 393.5 300 L 393.5 299 Z " /><path fill="#9A8FA6" stroke="#9A8FA6" stroke-width="1" opacity="0.6039215686274509" d="M 351.5 307 L 350.5 309 L 351.5 307 Z " /><path fill="#9A8FA6" stroke="#9A8FA6" stroke-width="1" opacity="0.6039215686274509" d="M 166.5 311 L 168.5 314 L 166.5 311 Z " /><path fill="#9A8FA6" stroke="#9A8FA6" stroke-width="1" opacity="0.6039215686274509" d="M 345.5 311 L 343.5 314 L 345.5 311 Z " /><path fill="#9A8FA6" stroke="#9A8FA6" stroke-width="1" opacity="0.6039215686274509" d="M 188.5 317 L 187.5 319 L 188.5 317 Z " /><path fill="#9A8FA6" stroke="#9A8FA6" stroke-width="1" opacity="0.6039215686274509" d="M 323.5 317 L 324.5 319 L 323.5 317 Z " /><path fill="#9A8FA6" stroke="#9A8FA6" stroke-width="1" opacity="0.6039215686274509" d="M 183.5 321 L 180.5 325 L 183.5 321 Z " /><path fill="#9A8FA6" stroke="#9A8FA6" stroke-width="1" opacity="0.6039215686274509" d="M 328.5 321 L 331.5 325 L 328.5 321 Z " /><path fill="#9A8FA6" stroke="#9A8FA6" stroke-width="1" opacity="0.6039215686274509" d="M 177.5 322 L 178.5 324 L 177.5 322 Z " /><path fill="#9A8FA6" stroke="#9A8FA6" stroke-width="1" opacity="0.6039215686274509" d="M 334.5 322 L 333.5 324 L 334.5 322 Z " /><path fill="#9A8FA6" stroke="#9A8FA6" stroke-width="1" opacity="0.6039215686274509" d="M 90.5 341 L 132 341.5 L 90.5 342 L 90.5 341 Z " /><path fill="#9A8FA6" stroke="#9A8FA6" stroke-width="1" opacity="0.6039215686274509" d="M 239.5 341 L 273 341.5 L 239.5 342 L 239.5 341 Z " /><path fill="#9A8FA6" stroke="#9A8FA6" stroke-width="1" opacity="0.6039215686274509" d="M 380.5 341 L 388 341.5 L 380.5 342 L 380.5 341 Z " /><path fill="#9A8FA6" stroke="#9A8FA6" stroke-width="1" opacity="0.6039215686274509" d="M 233.5 342 L 236 342.5 L 233.5 343 L 233.5 342 Z " /><path fill="#9A8FA6" stroke="#9A8FA6" stroke-width="1" opacity="0.6039215686274509" d="M 67.5 349 L 66.5 351 L 67.5 349 Z " /><path fill="#9A8FA6" stroke="#9A8FA6" stroke-width="1" opacity="0.6039215686274509" d="M 211.5 353 L 209.5 356 L 211.5 353 Z " /><path fill="#9A8FA6" stroke="#9A8FA6" stroke-width="1" opacity="0.6039215686274509" d="M 300.5 353 L 302.5 356 L 300.5 353 Z " /><path fill="#9A8FA6" stroke="#9A8FA6" stroke-width="1" opacity="0.6039215686274509" d="M 206.5 358 L 203.5 362 L 206.5 358 Z " /><path fill="#9A8FA6" stroke="#9A8FA6" stroke-width="1" opacity="0.6039215686274509" d="M 305.5 358 L 308.5 362 L 305.5 358 Z " /><path fill="#9A8FA6" stroke="#9A8FA6" stroke-width="1" opacity="0.6039215686274509" d="M 54.5 361 L 53.5 363 L 54.5 361 Z " /><path fill="#9A8FA6" stroke="#9A8FA6" stroke-width="1" opacity="0.6039215686274509" d="M 362.5 362 L 363 490.5 L 362 490.5 L 362.5 362 Z " /><path fill="#9A8FA6" stroke="#9A8FA6" stroke-width="1" opacity="0.6039215686274509" d="M 405.5 362 L 406 469 L 452 469.5 L 406.5 470 L 405 468.5 L 405.5 362 Z " /><path fill="#9A8FA6" stroke="#9A8FA6" stroke-width="1" opacity="0.6039215686274509" d="M 146.5 373 L 145.5 375 L 146.5 373 Z " /><path fill="#9A8FA6" stroke="#9A8FA6" stroke-width="1" opacity="0.6039215686274509" d="M 43.5 384 L 44 386.5 L 43 386.5 L 43.5 384 Z " /><path fill="#9A8FA6" stroke="#9A8FA6" stroke-width="1" opacity="0.6039215686274509" d="M 192.5 386 L 193 389.5 L 192 389.5 L 192.5 386 Z " /><path fill="#9A8FA6" stroke="#9A8FA6" stroke-width="1" opacity="0.6039215686274509" d="M 238.5 386 L 236.5 389 L 238.5 386 Z " /><path fill="#9A8FA6" stroke="#9A8FA6" stroke-width="1" opacity="0.6039215686274509" d="M 273.5 386 L 275.5 389 L 273.5 386 Z " /><path fill="#9A8FA6" stroke="#9A8FA6" stroke-width="1" opacity="0.6039215686274509" d="M 319.5 387 L 320 389.5 L 319 389.5 L 319.5 387 Z " /><path fill="#9A8FA6" stroke="#9A8FA6" stroke-width="1" opacity="0.6039215686274509" d="M 87.5 388 L 86.5 390 L 87.5 388 Z " /><path fill="#9A8FA6" stroke="#9A8FA6" stroke-width="1" opacity="0.6039215686274509" d="M 85.5 392 L 86 396.5 L 85 396.5 L 85.5 392 Z " /><path fill="#9A8FA6" stroke="#9A8FA6" stroke-width="1" opacity="0.6039215686274509" d="M 234.5 394 L 235 458.5 L 234 458.5 L 234.5 394 Z " /><path fill="#9A8FA6" stroke="#9A8FA6" stroke-width="1" opacity="0.6039215686274509" d="M 277.5 394 L 278 439.5 L 277 439.5 L 277.5 394 Z " /><path fill="#9A8FA6" stroke="#9A8FA6" stroke-width="1" opacity="0.6039215686274509" d="M 43.5 402 L 44 404.5 L 43 404.5 L 43.5 402 Z " /><path fill="#9A8FA6" stroke="#9A8FA6" stroke-width="1" opacity="0.6039215686274509" d="M 95.5 405 L 102 405.5 L 95.5 406 L 95.5 405 Z " /><path fill="#9A8FA6" stroke="#9A8FA6" stroke-width="1" opacity="0.6039215686274509" d="M 124.5 413 L 125.5 415 L 124.5 413 Z " /><path fill="#9A8FA6" stroke="#9A8FA6" stroke-width="1" opacity="0.6039215686274509" d="M 52.5 425 L 53.5 427 L 52.5 425 Z " /><path fill="#9A8FA6" stroke="#9A8FA6" stroke-width="1" opacity="0.6039215686274509" d="M 137.5 425 L 138.5 427 L 137.5 425 Z " /><path fill="#9A8FA6" stroke="#9A8FA6" stroke-width="1" opacity="0.6039215686274509" d="M 56.5 430 L 60.5 435 L 56.5 430 Z " /><path fill="#9A8FA6" stroke="#9A8FA6" stroke-width="1" opacity="0.6039215686274509" d="M 64.5 437 L 65.5 439 L 64.5 437 Z " /><path fill="#9A8FA6" stroke="#9A8FA6" stroke-width="1" opacity="0.6039215686274509" d="M 264.5 437 L 268 437.5 L 264.5 438 L 264.5 437 Z " /><path fill="#9A8FA6" stroke="#9A8FA6" stroke-width="1" opacity="0.6039215686274509" d="M 88.5 447 L 91 447.5 L 88.5 448 L 88.5 447 Z " /><path fill="#9A8FA6" stroke="#9A8FA6" stroke-width="1" opacity="0.6039215686274509" d="M 148.5 448 L 149 450.5 L 148 450.5 L 148.5 448 Z " /><path fill="#9A8FA6" stroke="#9A8FA6" stroke-width="1" opacity="0.6039215686274509" d="M 104.5 452 L 105.5 454 L 104.5 452 Z " /><path fill="#9A8FA6" stroke="#9A8FA6" stroke-width="1" opacity="0.6039215686274509" d="M 106.5 456 L 107 460.5 L 106 460.5 L 106.5 456 Z " /><path fill="#9A8FA6" stroke="#9A8FA6" stroke-width="1" opacity="0.6039215686274509" d="M 245.5 456 L 246 459.5 L 245 459.5 L 245.5 456 Z " /><path fill="#9A8FA6" stroke="#9A8FA6" stroke-width="1" opacity="0.6039215686274509" d="M 192.5 464 L 193 466.5 L 192 466.5 L 192.5 464 Z " /><path fill="#9A8FA6" stroke="#9A8FA6" stroke-width="1" opacity="0.6039215686274509" d="M 319.5 464 L 320 466.5 L 319 466.5 L 319.5 464 Z " /><path fill="#9A8FA6" stroke="#9A8FA6" stroke-width="1" opacity="0.6039215686274509" d="M 148.5 466 L 149 468.5 L 148 468.5 L 148.5 466 Z " /><path fill="#9A8FA6" stroke="#9A8FA6" stroke-width="1" opacity="0.6039215686274509" d="M 60.5 469 L 97 469.5 L 60.5 470 L 60.5 469 Z " /><path fill="#9A8FA6" stroke="#9A8FA6" stroke-width="1" opacity="0.6039215686274509" d="M 245.5 469 L 248 469.5 L 245.5 470 L 245.5 469 Z " /><path fill="#9A8FA6" stroke="#9A8FA6" stroke-width="1" opacity="0.6039215686274509" d="M 319.5 487 L 320 490.5 L 319 490.5 L 319.5 487 Z " /><path fill="#9A8FA6" stroke="#9A8FA6" stroke-width="1" opacity="0.6039215686274509" d="M 139.5 489 L 138.5 491 L 139.5 489 Z " /><path fill="#9A8FA6" stroke="#9A8FA6" stroke-width="1" opacity="0.6039215686274509" d="M 202.5 490 L 203.5 492 L 202.5 490 Z " /><path fill="#9A8FA6" stroke="#9A8FA6" stroke-width="1" opacity="0.6039215686274509" d="M 319.5 492 L 320 494.5 L 319 494.5 L 319.5 492 Z " /><path fill="#9A8FA6" stroke="#9A8FA6" stroke-width="1" opacity="0.6039215686274509" d="M 136.5 493 L 131.5 499 L 136.5 493 Z " /><path fill="#9A8FA6" stroke="#9A8FA6" stroke-width="1" opacity="0.6039215686274509" d="M 212.5 500 L 213.5 502 L 212.5 500 Z " /><path fill="#9A8FA6" stroke="#9A8FA6" stroke-width="1" opacity="0.6039215686274509" d="M 45.5 501 L 46.5 503 L 45.5 501 Z " /><path fill="#9A8FA6" stroke="#9A8FA6" stroke-width="1" opacity="0.6039215686274509" d="M 127.5 501 L 126.5 503 L 127.5 501 Z " /><path fill="#9A8FA6" stroke="#9A8FA6" stroke-width="1" opacity="0.6039215686274509" d="M 365.5 501 L 366.5 503 L 365.5 501 Z " /><path fill="#9A8FA6" stroke="#9A8FA6" stroke-width="1" opacity="0.6039215686274509" d="M 466.5 501 L 465.5 503 L 466.5 501 Z " /><path fill="#9A8FA6" stroke="#9A8FA6" stroke-width="1" opacity="0.6039215686274509" d="M 316.5 502 L 315.5 504 L 316.5 502 Z " /><path fill="#9A8FA6" stroke="#9A8FA6" stroke-width="1" opacity="0.6039215686274509" d="M 311.5 507 L 310.5 509 L 311.5 507 Z " /><path fill="#9A8FA6" stroke="#9A8FA6" stroke-width="1" opacity="0.6039215686274509" d="M 101.5 511 L 104 511.5 L 101.5 512 L 101.5 511 Z " /><path fill="#9A8FA6" stroke="#9A8FA6" stroke-width="1" opacity="0.6039215686274509" d="M 237.5 511 L 240 511.5 L 237.5 512 L 237.5 511 Z " /><path fill="#9A8FA6" stroke="#9A8FA6" stroke-width="1" opacity="0.6039215686274509" d="M 271.5 511 L 275 511.5 L 271.5 512 L 271.5 511 Z " /><path fill="#9A8FA6" stroke="#9A8FA6" stroke-width="1" opacity="0.8901960784313725" d="M 243.5 0 L 253 0.5 L 243.5 1 L 243.5 0 Z " /><path fill="#9A8FA6" stroke="#9A8FA6" stroke-width="1" opacity="0.8901960784313725" d="M 259.5 0 L 269 0.5 L 259.5 1 L 259.5 0 Z " /><path fill="#9A8FA6" stroke="#9A8FA6" stroke-width="1" opacity="0.8901960784313725" d="M 223.5 1 L 226 1.5 L 223.5 2 L 223.5 1 Z " /><path fill="#9A8FA6" stroke="#9A8FA6" stroke-width="1" opacity="0.8901960784313725" d="M 286.5 1 L 289 1.5 L 286.5 2 L 286.5 1 Z " /><path fill="#9A8FA6" stroke="#9A8FA6" stroke-width="1" opacity="0.8901960784313725" d="M 113.5 35 L 112.5 37 L 113.5 35 Z " /><path fill="#9A8FA6" stroke="#9A8FA6" stroke-width="1" opacity="0.8901960784313725" d="M 398.5 35 L 399.5 37 L 398.5 35 Z " /><path fill="#9A8FA6" stroke="#9A8FA6" stroke-width="1" opacity="0.8901960784313725" d="M 114.5 72 L 119.5 78 L 114.5 72 Z " /><path fill="#9A8FA6" stroke="#9A8FA6" stroke-width="1" opacity="0.8901960784313725" d="M 397.5 72 L 392.5 78 L 397.5 72 Z " /><path fill="#9A8FA6" stroke="#9A8FA6" stroke-width="1" opacity="0.8901960784313725" d="M 122.5 79 L 123.5 81 L 122.5 79 Z " /><path fill="#9A8FA6" stroke="#9A8FA6" stroke-width="1" opacity="0.8901960784313725" d="M 229.5 105 L 232 105.5 L 229.5 106 L 229.5 105 Z " /><path fill="#9A8FA6" stroke="#9A8FA6" stroke-width="1" opacity="0.8901960784313725" d="M 280.5 105 L 283 105.5 L 280.5 106 L 280.5 105 Z " /><path fill="#9A8FA6" stroke="#9A8FA6" stroke-width="1" opacity="0.8901960784313725" d="M 120.5 121 L 121.5 123 L 120.5 121 Z " /><path fill="#9A8FA6" stroke="#9A8FA6" stroke-width="1" opacity="0.8901960784313725" d="M 391.5 121 L 390.5 123 L 391.5 121 Z " /><path fill="#9A8FA6" stroke="#9A8FA6" stroke-width="1" opacity="0.8901960784313725" d="M 223.5 148 L 226 148.5 L 223.5 149 L 223.5 148 Z " /><path fill="#9A8FA6" stroke="#9A8FA6" stroke-width="1" opacity="0.8901960784313725" d="M 286.5 148 L 289 148.5 L 286.5 149 L 286.5 148 Z " /><path fill="#9A8FA6" stroke="#9A8FA6" stroke-width="1" opacity="0.8901960784313725" d="M 242.5 149 L 250 149.5 L 242.5 150 L 242.5 149 Z " /><path fill="#9A8FA6" stroke="#9A8FA6" stroke-width="1" opacity="0.8901960784313725" d="M 262.5 149 L 270 149.5 L 262.5 150 L 262.5 149 Z " /><path fill="#9A8FA6" stroke="#9A8FA6" stroke-width="1" opacity="0.8901960784313725" d="M 114.5 200 L 119.5 206 L 114.5 200 Z " /><path fill="#9A8FA6" stroke="#9A8FA6" stroke-width="1" opacity="0.8901960784313725" d="M 397.5 200 L 392.5 206 L 397.5 200 Z " /><path fill="#9A8FA6" stroke="#9A8FA6" stroke-width="1" opacity="0.8901960784313725" d="M 122.5 207 L 123.5 209 L 122.5 207 Z " /><path fill="#9A8FA6" stroke="#9A8FA6" stroke-width="1" opacity="0.8901960784313725" d="M 389.5 207 L 388.5 209 L 389.5 207 Z " /><path fill="#9A8FA6" stroke="#9A8FA6" stroke-width="1" opacity="0.8901960784313725" d="M 229.5 233 L 232 233.5 L 229.5 234 L 229.5 233 Z " /><path fill="#9A8FA6" stroke="#9A8FA6" stroke-width="1" opacity="0.8901960784313725" d="M 280.5 233 L 283 233.5 L 280.5 234 L 280.5 233 Z " /><path fill="#9A8FA6" stroke="#9A8FA6" stroke-width="1" opacity="0.8901960784313725" d="M 120.5 249 L 121.5 251 L 120.5 249 Z " /><path fill="#9A8FA6" stroke="#9A8FA6" stroke-width="1" opacity="0.8901960784313725" d="M 391.5 249 L 390.5 251 L 391.5 249 Z " /><path fill="#9A8FA6" stroke="#9A8FA6" stroke-width="1" opacity="0.8901960784313725" d="M 223.5 276 L 226 276.5 L 223.5 277 L 223.5 276 Z " /><path fill="#9A8FA6" stroke="#9A8FA6" stroke-width="1" opacity="0.8901960784313725" d="M 286.5 276 L 289 276.5 L 286.5 277 L 286.5 276 Z " /><path fill="#9A8FA6" stroke="#9A8FA6" stroke-width="1" opacity="0.8901960784313725" d="M 242.5 277 L 250 277.5 L 242.5 278 L 242.5 277 Z " /><path fill="#9A8FA6" stroke="#9A8FA6" stroke-width="1" opacity="0.8901960784313725" d="M 262.5 277 L 270 277.5 L 262.5 278 L 262.5 277 Z " /><path fill="#9A8FA6" stroke="#9A8FA6" stroke-width="1" opacity="0.8901960784313725" d="M 131.5 298 L 134 298.5 L 131.5 299 L 131.5 298 Z " /><path fill="#9A8FA6" stroke="#9A8FA6" stroke-width="1" opacity="0.8901960784313725" d="M 378.5 298 L 381 298.5 L 378.5 299 L 378.5 298 Z " /><path fill="#9A8FA6" stroke="#9A8FA6" stroke-width="1" opacity="0.8901960784313725" d="M 386.5 298 L 390 298.5 L 386.5 299 L 386.5 298 Z " /><path fill="#9A8FA6" stroke="#9A8FA6" stroke-width="1" opacity="0.8901960784313725" d="M 170.5 314 L 175.5 320 L 170.5 314 Z " /><path fill="#9A8FA6" stroke="#9A8FA6" stroke-width="1" opacity="0.8901960784313725" d="M 341.5 314 L 336.5 320 L 341.5 314 Z " /><path fill="#9A8FA6" stroke="#9A8FA6" stroke-width="1" opacity="0.8901960784313725" d="M 185.5 319 L 184.5 321 L 185.5 319 Z " /><path fill="#9A8FA6" stroke="#9A8FA6" stroke-width="1" opacity="0.8901960784313725" d="M 326.5 319 L 327.5 321 L 326.5 319 Z " /><path fill="#9A8FA6" stroke="#9A8FA6" stroke-width="1" opacity="0.8901960784313725" d="M 141.5 346 L 144.5 350 L 141.5 346 Z " /><path fill="#9A8FA6" stroke="#9A8FA6" stroke-width="1" opacity="0.8901960784313725" d="M 370.5 346 L 367.5 350 L 370.5 346 Z " /><path fill="#9A8FA6" stroke="#9A8FA6" stroke-width="1" opacity="0.8901960784313725" d="M 397.5 346 L 400.5 350 L 397.5 346 Z " /><path fill="#9A8FA6" stroke="#9A8FA6" stroke-width="1" opacity="0.8901960784313725" d="M 214.5 351 L 213.5 353 L 214.5 351 Z " /><path fill="#9A8FA6" stroke="#9A8FA6" stroke-width="1" opacity="0.8901960784313725" d="M 297.5 351 L 298.5 353 L 297.5 351 Z " /><path fill="#9A8FA6" stroke="#9A8FA6" stroke-width="1" opacity="0.8901960784313725" d="M 62.5 353 L 60.5 356 L 62.5 353 Z " /><path fill="#9A8FA6" stroke="#9A8FA6" stroke-width="1" opacity="0.8901960784313725" d="M 208.5 356 L 207.5 358 L 208.5 356 Z " /><path fill="#9A8FA6" stroke="#9A8FA6" stroke-width="1" opacity="0.8901960784313725" d="M 303.5 356 L 304.5 358 L 303.5 356 Z " /><path fill="#9A8FA6" stroke="#9A8FA6" stroke-width="1" opacity="0.8901960784313725" d="M 57.5 358 L 55.5 361 L 57.5 358 Z " /><path fill="#9A8FA6" stroke="#9A8FA6" stroke-width="1" opacity="0.8901960784313725" d="M 192.5 390 L 193 392.5 L 192 392.5 L 192.5 390 Z " /><path fill="#9A8FA6" stroke="#9A8FA6" stroke-width="1" opacity="0.8901960784313725" d="M 319.5 390 L 320 392.5 L 319 392.5 L 319.5 390 Z " /><path fill="#9A8FA6" stroke="#9A8FA6" stroke-width="1" opacity="0.8901960784313725" d="M 87.5 401 L 89.5 404 L 87.5 401 Z " /><path fill="#9A8FA6" stroke="#9A8FA6" stroke-width="1" opacity="0.8901960784313725" d="M 129.5 417 L 131.5 420 L 129.5 417 Z " /><path fill="#9A8FA6" stroke="#9A8FA6" stroke-width="1" opacity="0.8901960784313725" d="M 134.5 422 L 136.5 425 L 134.5 422 Z " /><path fill="#9A8FA6" stroke="#9A8FA6" stroke-width="1" opacity="0.8901960784313725" d="M 91.5 447 L 95 447.5 L 91.5 448 L 91.5 447 Z " /><path fill="#9A8FA6" stroke="#9A8FA6" stroke-width="1" opacity="0.8901960784313725" d="M 192.5 460 L 193 463.5 L 192 463.5 L 192.5 460 Z " /><path fill="#9A8FA6" stroke="#9A8FA6" stroke-width="1" opacity="0.8901960784313725" d="M 319.5 460 L 320 463.5 L 319 463.5 L 319.5 460 Z " /><path fill="#9A8FA6" stroke="#9A8FA6" stroke-width="1" opacity="0.8901960784313725" d="M 104.5 465 L 102.5 468 L 104.5 465 Z " /><path fill="#9A8FA6" stroke="#9A8FA6" stroke-width="1" opacity="0.8901960784313725" d="M 50.5 474 L 47.5 478 L 50.5 474 Z " /><path fill="#9A8FA6" stroke="#9A8FA6" stroke-width="1" opacity="0.8901960784313725" d="M 461.5 474 L 464.5 478 L 461.5 474 Z " /><path fill="#9A8FA6" stroke="#9A8FA6" stroke-width="1" opacity="0.8901960784313725" d="M 204.5 492 L 206.5 495 L 204.5 492 Z " /><path fill="#9A8FA6" stroke="#9A8FA6" stroke-width="1" opacity="0.8901960784313725" d="M 209.5 497 L 211.5 500 L 209.5 497 Z " /><path fill="#9A8FA6" stroke="#9A8FA6" stroke-width="1" opacity="0.8901960784313725" d="M 314.5 504 L 312.5 507 L 314.5 504 Z " /><path fill="#9A8FA6" stroke="#9A8FA6" stroke-width="1" opacity="0.8901960784313725" d="M 97.5 511 L 101 511.5 L 97.5 512 L 97.5 511 Z " /><path fill="#9A8FA6" stroke="#9A8FA6" stroke-width="1" opacity="0.8901960784313725" d="M 240.5 511 L 244 511.5 L 240.5 512 L 240.5 511 Z " /><path fill="#9A8FA6" stroke="#9A8FA6" stroke-width="1" opacity="0.8901960784313725" d="M 268.5 511 L 271 511.5 L 268.5 512 L 268.5 511 Z " /></svg>