<svg version="1.1" id="Layer_1" xmlns="http://www.w3.org/2000/svg" xmlns:xlink="http://www.w3.org/1999/xlink" x="0px" y="0px"
	 width="100%" viewBox="0 0 1101 1025" enable-background="new 0 0 1101 1025" xml:space="preserve">
<path fill="#9A8FA6" opacity="1.000000" stroke="none" 
	d="
M290.000000,0.999999 
	C549.358215,1.000000 808.716492,1.000000 1068.197754,1.272872 
	C1068.639160,1.927647 1068.886841,2.532272 1069.286377,2.659330 
	C1084.765991,7.581724 1094.894043,17.874348 1100.145142,33.156670 
	C1100.296875,33.598122 1101.361206,33.725933 1102.000000,34.000000 
	C1102.000000,108.024910 1102.000000,182.049820 1101.535034,256.537903 
	C951.870178,257.001495 802.670227,257.003571 653.470337,256.999298 
	C640.981812,256.998932 628.493347,256.955780 615.963379,256.522888 
	C615.500305,251.984390 615.443604,247.779037 614.596619,243.739380 
	C609.882324,221.254349 590.996460,206.002991 568.106567,206.000565 
	C464.459991,205.989548 360.813385,205.985657 257.095551,205.516693 
	C257.016205,150.729370 257.003021,96.404594 257.027649,42.079823 
	C257.028320,40.638920 257.343018,39.175686 257.673737,37.760838 
	C261.697113,20.547407 272.037659,8.961816 288.666748,2.936641 
	C289.266357,2.719380 289.562439,1.664503 290.000000,0.999999 
z"/>
<path fill="#9A8FA6" opacity="1.000000" stroke="none" 
	d="
M1102.000000,769.000000 
	C1102.000000,843.024902 1102.000000,917.049805 1101.627686,991.459106 
	C1100.825073,992.495972 1100.245483,993.094482 1099.986450,993.809082 
	C1094.818604,1008.071350 1085.119873,1017.775696 1070.898560,1023.057556 
	C1069.143433,1023.709290 1067.627075,1025.003540 1066.000000,1026.000000 
	C808.641785,1026.000000 551.283508,1026.000000 293.546814,1025.620483 
	C290.492706,1024.116821 287.790894,1023.050720 285.145691,1021.859009 
	C269.046082,1014.606323 257.924896,1002.287842 257.392609,984.762817 
	C256.252350,947.221558 257.108917,909.619690 257.605713,872.024414 
	C350.476227,871.995239 442.888794,872.012390 535.301270,871.907349 
	C541.253174,871.900574 547.339600,871.574280 553.129272,870.317749 
	C568.680664,866.942627 579.383057,857.334961 586.151733,842.664795 
	C587.554749,837.195862 589.681274,832.081421 589.847351,826.904114 
	C590.306030,812.606140 589.945496,798.281860 589.922241,783.503784 
	C589.987000,778.340942 590.038452,773.642334 590.550293,768.952515 
	C599.348083,768.962646 607.685425,768.964050 616.488159,768.976501 
	C778.635681,768.991699 940.317871,768.995850 1102.000000,769.000000 
z"/>
<path fill="#9A8FA6" opacity="1.000000" stroke="none" 
	d="
M1102.000000,768.533020 
	C940.317871,768.995850 778.635681,768.991699 616.478516,768.511597 
	C615.986206,683.052246 615.968933,598.068909 616.419617,513.064087 
	C619.218933,513.029053 621.550232,513.003662 623.881592,513.003601 
	C783.254395,513.001038 942.627197,513.000610 1102.000000,513.000000 
	C1102.000000,598.022034 1102.000000,683.044006 1102.000000,768.533020 
z"/>
<path fill="#9A8FA6" opacity="1.000000" stroke="none" 
	d="
M1102.000000,512.534973 
	C942.627197,513.000610 783.254395,513.001038 623.881592,513.003601 
	C621.550232,513.003662 619.218933,513.029053 616.429077,513.044067 
	C615.970581,513.045593 615.982483,513.003540 615.983154,512.534546 
	C615.972473,427.109741 615.961182,342.153900 615.965149,257.132019 
	C615.980469,257.065979 616.004822,256.932526 616.004822,256.932526 
	C628.493347,256.955780 640.981812,256.998932 653.470337,256.999298 
	C802.670227,257.003571 951.870178,257.001495 1101.535034,257.000549 
	C1102.000000,342.023315 1102.000000,427.046631 1102.000000,512.534973 
z"/>
<path fill="#9A8FA6" opacity="1.000000" stroke="none" 
	d="
M0.999997,722.000000 
	C1.000000,569.642578 1.000000,417.285187 1.334340,264.688934 
	C2.429588,263.221344 3.427246,262.079529 3.915448,260.750580 
	C10.018047,244.138489 27.677221,231.008453 46.515606,230.998444 
	C116.651726,230.961212 186.787872,230.978867 257.397278,230.983536 
	C343.619537,230.992783 429.368469,230.990387 515.117432,231.009766 
	C518.775757,231.010590 522.434082,231.213211 526.243652,231.604218 
	C527.569153,232.417160 528.697205,233.118057 529.925049,233.451355 
	C539.876343,236.152695 547.615479,242.054398 553.871216,250.236191 
	C552.038025,252.324829 550.611267,254.497620 548.615967,255.798126 
	C544.301636,258.610077 539.677551,260.943207 535.212280,263.527649 
	C504.243011,281.451996 473.294983,299.413177 442.314789,317.318634 
	C408.164734,337.056152 374.021088,356.805298 339.789154,376.400024 
	C334.097656,379.657928 327.969727,382.153442 321.847717,384.673767 
	C319.676483,376.488220 317.700989,368.630219 315.672333,360.560699 
	C295.132324,360.560699 274.862610,360.497803 254.596039,360.719086 
	C253.397263,360.732178 251.513596,362.850555 251.148987,364.292725 
	C247.896606,377.156708 244.914413,390.088989 241.472931,403.009186 
	C239.211243,403.611328 237.156738,403.900208 235.475891,404.850220 
	C226.066757,410.168365 216.753677,415.656281 207.396759,421.067078 
	C193.010239,429.386322 178.614777,437.690094 164.095947,445.614868 
	C158.340897,418.372772 152.628845,391.533173 147.189056,364.638519 
	C146.489838,361.181519 145.078705,360.462219 141.915970,360.485596 
	C125.092873,360.610138 108.268356,360.536377 91.444374,360.559906 
	C90.178070,360.561676 88.912071,360.786865 87.411713,360.930695 
	C87.690758,362.550873 87.843361,363.849426 88.142273,365.113403 
	C105.897720,440.193420 123.683144,515.266357 141.416885,590.351440 
	C145.083084,605.874268 148.561218,621.441528 151.744614,637.014038 
	C143.626724,641.163330 135.773727,645.083801 128.173737,649.445190 
	C94.034836,669.036377 59.988796,688.789368 25.859491,708.397461 
	C17.670895,713.102051 9.291600,717.474670 0.999997,722.000000 
z"/>
<path fill="#9A8FA6" opacity="1.000000" stroke="none" 
	d="
M0.999997,722.468628 
	C9.291600,717.474670 17.670895,713.102051 25.859491,708.397461 
	C59.988796,688.789368 94.034836,669.036377 128.173737,649.445190 
	C135.773727,645.083801 143.626724,641.163330 151.972366,637.319275 
	C154.775864,646.886414 156.970215,656.174133 159.214569,665.673523 
	C181.605637,665.673523 203.573608,665.722839 225.539520,665.535583 
	C226.700470,665.525635 228.492050,663.707764 228.883072,662.400513 
	C230.497284,657.003540 231.684555,651.478943 233.400818,645.974487 
	C236.513290,644.796448 239.408173,643.915222 241.968918,642.450073 
	C257.954193,633.304016 273.820435,623.949707 289.815582,614.821167 
	C300.459991,608.746338 311.253052,602.931946 322.175659,597.329590 
	C327.545532,618.968506 332.811554,640.257080 337.795685,661.611511 
	C338.562683,664.897705 339.818268,665.873169 343.074066,665.822144 
	C354.557220,665.642151 366.044861,665.749512 377.530823,665.748718 
	C387.163788,665.748108 396.796722,665.748596 406.545319,665.748596 
	C407.094879,663.628113 407.581909,661.885620 407.997253,660.126221 
	C418.877747,614.037231 429.750824,567.946533 441.019226,521.864502 
	C442.824799,521.434143 444.378265,521.241455 445.626953,520.520691 
	C476.184448,502.882233 506.679352,485.135254 537.259399,467.536194 
	C546.039978,462.482880 555.049683,457.827515 563.983032,453.458740 
	C564.085205,473.641846 564.158569,493.355865 564.194153,513.532593 
	C564.090271,546.327332 564.024170,578.659485 563.612488,611.066162 
	C555.872986,615.294128 548.434570,619.370605 541.093018,623.614624 
	C512.414978,640.192627 483.789612,656.861816 455.102875,673.424683 
	C421.514496,692.817566 387.873260,712.118896 354.272064,731.489563 
	C322.401947,749.862366 290.532227,768.236023 258.723053,786.713867 
	C254.625427,789.094177 250.892242,792.101929 246.525192,794.874634 
	C179.441299,794.948486 112.821968,795.085388 46.204514,794.793152 
	C39.850849,794.765320 33.149719,792.907288 27.237095,790.412476 
	C15.282074,785.368225 7.847167,775.634521 2.992844,763.796875 
	C2.686942,763.050964 1.680513,762.592285 1.000004,762.000000 
	C1.000000,748.979126 1.000000,735.958191 0.999997,722.468628 
z"/>
<path fill="#9A8FA6" opacity="1.000000" stroke="none" 
	d="
M257.397278,230.983536 
	C256.958221,222.953918 256.992462,214.931961 257.096741,206.444611 
	C360.813385,205.985657 464.459991,205.989548 568.106567,206.000565 
	C590.996460,206.002991 609.882324,221.254349 614.596619,243.739380 
	C615.443604,247.779037 615.500305,251.984390 615.963379,256.522888 
	C616.004822,256.932526 615.980469,257.065979 615.503662,257.078705 
	C605.007080,257.075684 594.987244,257.059937 584.791504,256.980469 
	C584.615540,256.916748 584.254028,256.820343 584.152283,256.485382 
	C579.535583,247.459885 572.756409,241.053909 564.135925,236.550690 
	C552.089722,230.257889 539.041016,231.123032 526.092407,231.321838 
	C522.434082,231.213211 518.775757,231.010590 515.117432,231.009766 
	C429.368469,230.990387 343.619537,230.992783 257.397278,230.983536 
z"/>
<path fill="#9A8FA6" opacity="1.000000" stroke="none" 
	d="
M257.154877,821.042542 
	C257.114227,812.692932 257.073547,804.343262 257.458191,795.459351 
	C260.380188,794.894348 262.876862,794.837280 265.373566,794.836853 
	C348.453827,794.821350 431.534058,794.833557 514.614319,794.786682 
	C539.039124,794.772888 557.260071,780.919861 563.311768,758.466919 
	C563.672974,760.110779 564.113159,761.455322 563.946106,762.719543 
	C563.256470,767.938232 565.656982,769.347778 570.538635,769.086792 
	C576.996887,768.741516 583.488159,769.015991 589.995483,769.002441 
	C590.025696,768.980896 590.089905,768.943726 590.089844,768.943726 
	C590.038452,773.642334 589.987000,778.340942 589.614258,783.655518 
	C588.611877,785.746704 587.789978,787.174194 587.271423,788.704529 
	C581.624207,805.370361 564.684937,819.224670 548.554565,819.931458 
	C535.757507,820.492126 522.943298,820.929443 510.136047,820.945312 
	C425.809082,821.049744 341.481964,821.025085 257.154877,821.042542 
z"/>
<path fill="#9A8FA6" opacity="1.000000" stroke="none" 
	d="
M257.114868,821.506470 
	C341.481964,821.025085 425.809082,821.049744 510.136047,820.945312 
	C522.943298,820.929443 535.757507,820.492126 548.554565,819.931458 
	C564.684937,819.224670 581.624207,805.370361 587.271423,788.704529 
	C587.789978,787.174194 588.611877,785.746704 589.600952,784.119751 
	C589.945496,798.281860 590.306030,812.606140 589.847351,826.904114 
	C589.681274,832.081421 587.554749,837.195862 585.760986,842.696411 
	C576.653809,844.035950 568.110229,845.854858 559.562927,845.872314 
	C458.769928,846.078247 357.976349,846.014526 257.182953,846.021851 
	C257.146942,838.004700 257.110901,829.987549 257.114868,821.506470 
z"/>
<path fill="#9A8FA6" opacity="1.000000" stroke="none" 
	d="
M257.133667,846.486694 
	C357.976349,846.014526 458.769928,846.078247 559.562927,845.872314 
	C568.110229,845.854858 576.653809,844.035950 585.589966,843.022217 
	C579.383057,857.334961 568.680664,866.942627 553.129272,870.317749 
	C547.339600,871.574280 541.253174,871.900574 535.301270,871.907349 
	C442.888794,872.012390 350.476227,871.995239 257.605713,872.024414 
	C257.126648,863.678955 257.105499,855.315247 257.133667,846.486694 
z"/>
<path fill="#9A8FA6" opacity="1.000000" stroke="none" 
	d="
M615.961121,513.065552 
	C615.968933,598.068909 615.986206,683.052246 616.013184,768.500488 
	C607.685425,768.964050 599.348083,768.962646 590.550293,768.952515 
	C590.089905,768.943726 590.025696,768.980896 590.004639,768.531677 
	C589.988220,755.101807 589.992737,742.121155 589.997437,729.140503 
	C590.023743,657.081604 590.050110,585.022705 590.540283,512.972290 
	C599.330200,512.988342 607.656372,512.995911 615.982483,513.003540 
	C615.982483,513.003540 615.970581,513.045593 615.961121,513.065552 
z"/>
<path fill="#9A8FA6" opacity="1.000000" stroke="none" 
	d="
M615.983154,512.534546 
	C607.656372,512.995911 599.330200,512.988342 590.500183,512.985596 
	C589.996277,512.990417 589.924377,513.033691 589.944702,512.562744 
	C589.974792,436.650116 589.914368,361.208252 590.078674,285.766907 
	C590.100403,275.786743 589.071472,266.193359 584.967468,257.044189 
	C594.987244,257.059937 605.007080,257.075684 615.488342,257.144775 
	C615.961182,342.153900 615.972473,427.109741 615.983154,512.534546 
z"/>
<path fill="#9A8FA6" opacity="1.000000" stroke="none" 
	d="
M465.688080,415.904419 
	C469.584717,398.888580 473.485474,381.873657 477.369690,364.854980 
	C477.655090,363.604553 477.821167,362.326904 478.103333,360.715881 
	C458.644226,360.715881 439.576965,360.715881 420.139252,360.715881 
	C404.287354,443.492889 388.469910,526.089966 373.409332,604.734863 
	C360.313080,533.611938 339.003174,460.200470 322.020142,385.397095 
	C327.969727,382.153442 334.097656,379.657928 339.789154,376.400024 
	C374.021088,356.805298 408.164734,337.056152 442.314789,317.318634 
	C473.294983,299.413177 504.243011,281.451996 535.212280,263.527649 
	C539.677551,260.943207 544.301636,258.610077 548.615967,255.798126 
	C550.611267,254.497620 552.038025,252.324829 554.110107,250.473572 
	C556.032410,252.600677 557.567139,254.801712 559.157959,257.364594 
	C560.820496,264.278839 563.696411,270.808716 563.812988,277.387512 
	C564.306702,305.249908 563.980286,333.126831 563.604614,361.073059 
	C561.441956,361.966827 559.543396,362.638519 557.827698,363.627502 
	C533.382568,377.718353 508.989319,391.899567 484.516541,405.942230 
	C478.361511,409.474030 471.970612,412.594788 465.688080,415.904419 
z"/>
<path fill="#9A8FA6" opacity="1.000000" stroke="none" 
	d="
M241.472931,403.009186 
	C235.394119,431.183960 228.849365,459.347321 222.498688,487.554382 
	C214.393921,523.552368 206.425323,559.580994 198.459930,595.610107 
	C197.594681,599.523865 197.138489,603.528015 196.194122,607.393738 
	C188.109802,553.238403 174.699875,500.297241 164.211044,446.393188 
	C178.614777,437.690094 193.010239,429.386322 207.396759,421.067078 
	C216.753677,415.656281 226.066757,410.168365 235.475891,404.850220 
	C237.156738,403.900208 239.211243,403.611328 241.472931,403.009186 
z"/>
<path fill="#9A8FA6" opacity="1.000000" stroke="none" 
	d="
M559.101929,257.002747 
	C557.567139,254.801712 556.032410,252.600677 554.258728,250.162262 
	C547.615479,242.054398 539.876343,236.152695 529.925049,233.451355 
	C528.697205,233.118057 527.569153,232.417160 526.243652,231.604218 
	C539.041016,231.123032 552.089722,230.257889 564.135925,236.550690 
	C572.756409,241.053909 579.535583,247.459885 583.663452,256.530334 
	C575.218201,256.941040 567.160034,256.971893 559.101929,257.002747 
z"/>
<path fill="#9A8FA6" opacity="1.000000" stroke="none" 
	d="
M563.111572,758.130737 
	C557.260071,780.919861 539.039124,794.772888 514.614319,794.786682 
	C431.534058,794.833557 348.453827,794.821350 265.373566,794.836853 
	C262.876862,794.837280 260.380188,794.894348 257.415588,794.996582 
	C253.928238,795.028137 250.908813,794.988098 247.439819,794.883545 
	C250.892242,792.101929 254.625427,789.094177 258.723053,786.713867 
	C290.532227,768.236023 322.401947,749.862366 354.272064,731.489563 
	C387.873260,712.118896 421.514496,692.817566 455.102875,673.424683 
	C483.789612,656.861816 512.414978,640.192627 541.093018,623.614624 
	C548.434570,619.370605 555.872986,615.294128 563.647095,611.534668 
	C564.031555,655.031311 564.069580,698.133972 563.998779,741.236511 
	C563.989502,746.868408 563.421082,752.499329 563.111572,758.130737 
z"/>
<path fill="#9A8FA6" opacity="1.000000" stroke="none" 
	d="
M465.474182,416.209229 
	C471.970612,412.594788 478.361511,409.474030 484.516541,405.942230 
	C508.989319,391.899567 533.382568,377.718353 557.827698,363.627502 
	C559.543396,362.638519 561.441956,361.966827 563.633301,361.541199 
	C563.992188,392.286407 563.973206,422.638031 563.954285,452.989685 
	C555.049683,457.827515 546.039978,462.482880 537.259399,467.536194 
	C506.679352,485.135254 476.184448,502.882233 445.626953,520.520691 
	C444.378265,521.241455 442.824799,521.434143 441.019226,521.864502 
	C448.622650,487.716705 456.620483,453.577393 464.615936,419.437531 
	C464.843475,418.466034 465.046051,417.488617 465.474182,416.209229 
z"/>
<path fill="#9A8FA6" opacity="1.000000" stroke="none" 
	d="
M233.400803,645.974487 
	C236.867859,628.632629 240.661133,611.253662 244.555038,593.897400 
	C254.825180,548.120422 265.265594,502.381073 275.347809,456.562866 
	C277.917877,444.883209 279.407104,432.965698 281.038330,423.266022 
	C294.399475,479.619598 308.219208,537.907349 322.009247,596.598022 
	C311.253052,602.931946 300.459991,608.746338 289.815582,614.821167 
	C273.820435,623.949707 257.954193,633.304016 241.968918,642.450073 
	C239.408173,643.915222 236.513290,644.796448 233.400803,645.974487 
z"/>
<path fill="#9A8FA6" opacity="1.000000" stroke="none" 
	d="
M563.311768,758.466919 
	C563.421082,752.499329 563.989502,746.868408 563.998779,741.236511 
	C564.069580,698.133972 564.031555,655.031311 563.992676,611.460083 
	C564.024170,578.659485 564.090271,546.327332 564.639709,513.514771 
	C573.390137,513.034119 581.657288,513.033875 589.924377,513.033691 
	C589.924377,513.033691 589.996277,512.990417 590.036377,512.977112 
	C590.050110,585.022705 590.023743,657.081604 589.997437,729.140503 
	C589.992737,742.121155 589.988220,755.101807 589.974426,768.553223 
	C583.488159,769.015991 576.996887,768.741516 570.538635,769.086792 
	C565.656982,769.347778 563.256470,767.938232 563.946106,762.719543 
	C564.113159,761.455322 563.672974,760.110779 563.311768,758.466919 
z"/>
<path fill="#9A8FA6" opacity="1.000000" stroke="none" 
	d="
M589.944702,512.562744 
	C581.657288,513.033875 573.390137,513.034119 564.677490,513.052124 
	C564.158569,493.355865 564.085205,473.641846 563.983032,453.458740 
	C563.973206,422.638031 563.992188,392.286407 563.982422,361.466614 
	C563.980286,333.126831 564.306702,305.249908 563.812988,277.387512 
	C563.696411,270.808716 560.820496,264.278839 559.157959,257.364594 
	C567.160034,256.971893 575.218201,256.941040 583.765137,256.865295 
	C584.254028,256.820343 584.615540,256.916748 584.791504,256.980469 
	C589.071472,266.193359 590.100403,275.786743 590.078674,285.766907 
	C589.914368,361.208252 589.974792,436.650116 589.944702,512.562744 
z"/>
</svg>