<svg version="1.1" id="Layer_1" xmlns="http://www.w3.org/2000/svg" xmlns:xlink="http://www.w3.org/1999/xlink" x="0px" y="0px"
	width="100%" viewBox="0 0 512 512" enable-background="new 0 0 512 512" xml:space="preserve">
<path fill="#21759b" opacity="1.000000" stroke="none" 
	d="
M278.531342,1.000000 
	C283.058441,1.666209 287.098907,2.481364 291.178314,2.973805 
	C313.208252,5.633109 334.290710,11.602759 354.882202,19.876369 
	C376.425049,28.532219 395.898376,40.580353 414.478119,54.219242 
	C420.063934,58.319660 425.060699,63.222542 430.586975,67.981422 
	C424.354462,69.077065 418.718445,69.535011 413.409790,71.102036 
	C398.140808,75.609177 386.974060,92.113861 384.822601,106.506798 
	C382.107422,124.671005 389.586060,139.621048 397.989594,154.379120 
	C407.044647,170.281418 417.451691,185.492554 423.405029,202.958496 
	C429.648315,221.275024 431.373383,240.050797 429.149567,259.409546 
	C426.493683,282.530029 418.982300,304.135193 411.200836,325.835663 
	C405.961151,340.447754 402.381866,355.652557 397.983337,370.569702 
	C394.040680,383.940857 390.000031,397.283173 385.974945,410.629883 
	C385.753784,411.363251 385.278992,412.020081 384.509552,413.513580 
	C353.384613,321.022858 322.512817,229.284271 291.495087,137.112137 
	C299.726257,136.720276 307.310333,136.576630 314.847992,135.908951 
	C318.636230,135.573395 322.823792,135.072556 325.923035,133.168747 
	C328.236084,131.747864 330.379456,127.884636 330.228729,125.244316 
	C330.085449,122.734192 327.313110,119.660217 324.878113,118.189842 
	C322.292938,116.628784 318.746429,116.095207 315.616760,116.085724 
	C273.459167,115.957878 231.301041,115.976845 189.143204,116.050690 
	C186.247833,116.055756 183.282562,116.512505 180.475647,117.242867 
	C176.214767,118.351570 173.417038,123.312531 174.006805,128.100739 
	C174.597473,132.896225 178.253510,134.561356 182.175476,134.894348 
	C190.220383,135.577362 198.313675,135.792313 206.391556,135.924637 
	C208.870483,135.965225 210.162918,136.629227 211.016907,139.009766 
	C222.641907,171.415298 233.956924,203.942017 246.308975,236.069534 
	C249.291901,243.828094 248.903091,249.978149 246.374527,257.459778 
	C229.333679,307.881531 212.735687,358.452911 195.930176,408.954498 
	C195.442627,410.419556 194.243744,411.647919 193.376541,412.986633 
	C192.592560,411.739166 191.528397,410.587006 191.066849,409.229858 
	C184.666214,390.409851 178.321396,371.570740 172.015106,352.718811 
	C153.658096,297.842651 135.343338,242.952316 116.970154,188.081573 
	C111.627563,172.126160 106.138313,156.219894 100.737320,140.283966 
	C100.329124,139.079529 100.089996,137.817795 99.723259,136.392136 
	C106.632103,135.910690 113.169945,135.500290 119.699242,134.982132 
	C123.276665,134.698212 126.896896,134.509171 130.396072,133.785370 
	C135.993668,132.627502 138.650986,128.258469 137.999054,122.022949 
	C137.506882,117.315529 133.427078,114.015923 127.989204,114.006157 
	C116.658241,113.985802 105.327217,114.000000 93.996223,114.000000 
	C77.917557,114.000000 61.838882,114.000000 45.760212,114.000000 
	C45.562897,113.447403 45.365585,112.894798 45.168270,112.342201 
	C67.270897,80.951622 94.386276,54.998592 127.836288,35.506233 
	C160.989685,16.186733 196.422760,4.661574 234.840210,1.403419 
	C249.354233,1.000000 263.708466,1.000000 278.531342,1.000000 
z"/>
<path fill="#21759b" opacity="1.000000" stroke="none" 
	d="
M236.468658,513.000000 
	C231.273422,512.333313 226.511765,511.851807 221.827011,510.964325 
	C209.192673,508.570862 196.591080,506.004456 183.737350,503.459351 
	C209.704895,428.019348 235.342850,353.536835 261.359589,277.953979 
	C263.503265,283.234039 265.364777,287.396118 266.902161,291.674652 
	C276.649872,318.802948 286.234924,345.989929 296.048248,373.094330 
	C308.643738,407.883026 321.382660,442.619873 334.112396,477.359772 
	C336.372040,483.526398 338.765442,489.651489 341.346191,495.689270 
	C342.383759,498.116730 342.052979,499.341980 339.485107,500.003967 
	C326.733643,503.291168 314.064026,506.941803 301.216339,509.791382 
	C294.401306,511.302948 287.282684,511.445923 280.150574,512.603394 
	C265.645782,513.000000 251.291550,513.000000 236.468658,513.000000 
z"/>
<path fill="#21759b" opacity="1.000000" stroke="none" 
	d="
M1.000000,229.468658 
	C2.332889,222.635284 3.889921,216.307892 4.956760,209.898895 
	C8.193361,190.455109 14.434888,171.948959 22.034533,153.847946 
	C22.275669,153.273605 22.784454,152.811646 23.446423,151.925003 
	C64.374550,264.042542 105.164986,375.782928 146.408142,488.763428 
	C138.343307,484.363922 131.113480,480.740143 124.200211,476.589081 
	C102.719925,463.691315 83.373909,447.970459 66.976601,429.124634 
	C56.063229,416.581665 46.335960,402.880951 37.160061,388.983856 
	C25.699808,371.627045 17.755329,352.465668 11.873732,332.497253 
	C7.765607,318.549927 4.050085,304.519867 2.959620,289.932373 
	C2.841841,288.356781 2.178280,286.822021 1.383943,285.134155 
	C1.000000,266.645782 1.000000,248.291550 1.000000,229.468658 
z"/>
<path fill="#21759b" opacity="1.000000" stroke="none" 
	d="
M513.000000,278.531342 
	C512.334290,282.892578 511.475281,286.763428 511.034180,290.681305 
	C508.126404,316.508759 500.681122,341.015686 489.865265,364.577484 
	C480.935699,384.030029 470.006958,402.255524 455.961365,418.429199 
	C447.195374,428.523376 438.325500,438.644501 428.522766,447.692413 
	C415.462036,459.747437 401.030792,470.182770 384.559875,479.382050 
	C390.116882,463.622162 395.449951,448.753723 400.603668,433.823334 
	C409.127655,409.129303 417.532990,384.394318 425.993713,359.678467 
	C435.335480,332.388855 444.595612,305.070892 454.059875,277.823853 
	C460.211884,260.112549 467.363586,242.715607 472.748627,224.781830 
	C476.626221,211.868332 478.833679,198.377380 480.836426,185.001785 
	C482.340118,174.959137 482.697723,164.696518 482.867920,154.520142 
	C482.975555,148.085114 481.800537,141.628616 481.895599,134.987305 
	C499.238678,165.989212 509.737030,199.089691 512.596558,234.840210 
	C513.000000,249.354233 513.000000,263.708466 513.000000,278.531342 
z"/>
</svg>